<svg width="60" height="60" viewBox="0 0 60 60" fill="none" xmlns="http://www.w3.org/2000/svg">
<path d="M21.0906 38.8687H7.02812V52.7125H21.0906V56.4469H3.50626V55.8219C3.50626 49.6125 3.50626 43.4031 3.50626 37.1937C3.50626 36.8047 3.58751 36.5797 3.97501 36.4016C9.52189 33.8849 15.0635 31.3552 20.6 28.8125C20.7391 28.7484 20.8813 28.6969 21.0906 28.6109V24.4906C21.0559 24.5963 20.997 24.6924 20.9186 24.7713C20.8402 24.8503 20.7445 24.9098 20.6391 24.9453C18.8094 25.7562 16.9953 26.5969 15.0984 27.4609V12.0312H3.50626V12.7437C3.50626 19.226 3.5099 25.7089 3.51719 32.1922C3.51719 32.6344 3.38281 32.8484 2.9875 33.0141C1.98281 33.4312 0.995313 33.8891 0 34.3297V60H21.0938L21.0906 38.8687ZM7.02812 15.5469H11.5406C11.5516 15.7422 11.5703 15.9313 11.5703 16.1188C11.5703 20.2563 11.5703 24.3922 11.5797 28.5281C11.5797 28.9375 11.4656 29.1531 11.0813 29.3094C9.74688 29.8875 8.425 30.5094 7.02812 31.1516V15.5469ZM10.5188 49.1844V42.4344H21.0844V49.1844H10.5188Z" fill="#FFAA46"/>
<path d="M24.0548 0C24.1095 2.87187 21.8033 5.4 18.9455 5.51094C17.0377 5.58437 15.1267 5.54219 13.2173 5.54531C11.483 5.54531 10.8861 6.13281 10.8736 7.85C10.8736 8.02187 10.8736 8.19531 10.8736 8.4375H7.46579C6.87048 4.93594 9.31423 2.32187 11.983 2.12344C14.0564 1.96719 16.1486 2.05625 18.233 2.02813C18.5436 2.03716 18.854 2.00564 19.1564 1.93438C20.0189 1.6875 20.5377 0.939063 20.5455 0H24.0548Z" fill="#FFAA46"/>
<path d="M59.728 13.906C59.728 8.17003 55.8546 3.37003 50.3327 2.20909C47.6556 1.65011 44.8675 2.03836 42.445 3.30748C40.0225 4.57659 38.116 6.64776 37.0515 9.16691C36.9843 9.32316 36.914 9.47941 36.8749 9.57159C35.7015 9.38253 34.5812 9.08722 33.4484 9.03409C27.1155 8.73722 21.903 13.0669 21.0796 19.3591C20.8718 20.9357 20.9843 22.556 20.9827 24.1575C20.9851 24.2721 20.9703 24.3864 20.939 24.4966V59.9997H59.728C59.728 44.633 59.728 29.2685 59.728 13.906ZM41.0249 56.4575H36.253V53.2575H41.0249V56.4575ZM41.0249 49.6716H36.2609V46.5278H41.0249V49.6716ZM41.0358 42.9435H36.2405V39.506H32.7452V56.4419H24.5093V24.7622H41.0421L41.0358 42.9435ZM24.4686 21.181C24.4452 17.995 25.6749 15.4763 28.3374 13.8075C31.3062 11.9528 34.3749 11.981 37.3109 13.8716C39.914 15.5497 41.0859 18.0591 41.0827 21.181H24.4686ZM48.2749 32.881V56.4466H44.5812V55.6653C44.5812 44.3393 44.578 33.0133 44.5718 21.6872C44.5718 20.4482 44.4359 19.2091 44.3609 17.9372H56.1858V36.3653H51.7593V32.8794L48.2749 32.881ZM51.7749 46.5403H56.1765V49.6653H51.7749V46.5403ZM56.1858 56.445H51.7843V53.2544H56.1858V56.445ZM56.1858 42.9372H51.8015V39.9685H56.1858V42.9372ZM55.5718 14.3997C51.4609 14.3997 47.3515 14.3997 43.2405 14.3997C43.0721 14.4073 42.9045 14.3718 42.7536 14.2966C42.6027 14.2214 42.4734 14.109 42.378 13.97C41.7375 13.1876 41.0508 12.4441 40.3218 11.7435C40.0296 11.4622 39.9749 11.2747 40.1062 10.9091C41.3765 7.42159 44.7546 5.25597 48.589 5.48722C52.0874 5.69659 55.1937 8.35753 55.9827 11.87C56.1593 12.6607 56.1937 13.4825 56.3046 14.3919L55.5718 14.3997Z" fill="#22A33F"/>
</svg>
