<svg width="60" height="60" viewBox="0 0 60 60" fill="none" xmlns="http://www.w3.org/2000/svg">
<g clip-path="url(#clip0_1450_48902)">
<path d="M8.49324 18.4813C8.49324 24.6954 8.48071 30.9096 8.49324 37.1221C8.50625 39.0023 9.12183 40.8288 10.2496 42.3333C11.3774 43.8378 12.958 44.9409 14.7591 45.4807C16.5607 46.0291 18.4917 45.9778 20.2617 45.3346C22.0317 44.6914 23.5451 43.491 24.5744 41.9139C25.1791 40.974 25.5614 39.9041 26.0799 38.8233C26.0141 38.8343 26.0704 38.8233 26.1268 38.8233L26.1159 35.2627V24.7518H26.1268V21.2335V17.6793H29.573V14.1735H19.0981V10.5707C22.925 10.2746 25.5692 7.94059 26.0156 4.32991C26.1911 2.90443 26.072 1.44136 26.0877 -0.00447622H21.6311C20.9888 0.20073 20.2996 0.316647 19.7138 0.622107C18.8491 1.08108 18.0596 1.67946 17.1886 2.25279C16.2174 1.20492 14.9524 0.474906 13.5591 0.158435C13.3555 0.111441 13.1566 0.0472167 12.9545 -0.0107422H8.49952C8.49952 1.2017 8.47289 2.41413 8.49952 3.625C8.56061 5.86817 9.49263 7.69779 11.2549 9.07941C12.4893 10.0506 13.9179 10.4892 15.4843 10.5644V14.2033H5V17.709H8.48697L8.49324 18.4813ZM22.5428 3.57175C22.5052 5.51259 20.8855 7.10254 19.106 6.98662C18.918 5.17423 20.8166 3.401 22.5428 3.57175ZM15.4812 6.96939C13.9429 7.19653 11.9285 5.53452 12.0569 3.54355C13.9805 3.55608 15.5752 5.16953 15.4812 6.96939ZM12.0084 17.7482H15.5219V35.2674H19.0245V17.7356H22.5616V18.2166C22.5616 24.4683 22.571 30.7216 22.5616 36.9733C22.5616 39.9496 20.2761 42.2805 17.3923 42.3275C16.6865 42.342 15.985 42.2145 15.3295 41.9526C14.674 41.6908 14.0778 41.2998 13.5763 40.803C13.0748 40.3062 12.6783 39.7137 12.4103 39.0606C12.1423 38.4076 12.0083 37.7074 12.0162 37.0015C11.9989 31.4531 12.0162 25.9047 12.0162 20.3548L12.0084 17.7482Z" fill="#22A33F"/>
<path d="M55.6672 49.3528H48.7482C48.7137 49.2745 48.6855 49.2416 48.6855 49.2071C48.6855 46.9217 48.6698 44.6346 48.6855 42.3492C48.6855 42.1925 48.8907 41.9544 49.0583 41.8792C50.2305 41.3549 51.1677 40.416 51.6899 39.2429C51.8466 38.8936 52.0283 38.7996 52.3871 38.8074C53.4742 38.8293 54.5629 38.8152 55.6672 38.8152V35.2938C54.6349 35.2938 53.6402 35.2625 52.6486 35.3079C52.1192 35.3314 51.8356 35.2014 51.585 34.6814C51.2967 34.1069 50.9048 33.5907 50.429 33.1588C49.923 32.6888 49.2902 32.3755 48.6698 31.9526C48.6698 30.7825 48.6824 29.5512 48.6604 28.3216C48.6604 28.0004 48.8061 27.8939 49.0599 27.7811C50.242 27.2756 51.1847 26.3351 51.6931 25.1542C51.8497 24.797 52.0455 24.7218 52.3949 24.7281C53.482 24.7485 54.5707 24.7281 55.6641 24.7281V21.2239C54.53 21.2239 53.4381 21.2098 52.3463 21.2318C52.0048 21.2318 51.8403 21.1284 51.7009 20.812C51.2388 19.6967 50.372 18.7974 49.2745 18.2947C48.7826 18.0738 48.6354 17.8122 48.6573 17.2953C48.698 16.2708 48.6698 15.2432 48.6698 14.2188H45.1516C45.1516 15.356 45.1406 16.4635 45.1516 17.5725C45.1516 17.8858 45.0717 18.0425 44.7646 18.1819C43.5779 18.6774 42.6302 19.6149 42.122 20.7963C41.9654 21.1472 41.7837 21.2333 41.4265 21.2318C38.137 21.2192 29.8599 21.2239 26.5767 21.2239H26.1333V24.7422H26.6033C29.8928 24.7422 38.1683 24.7422 41.4516 24.7422C41.8088 24.7422 41.9905 24.8315 42.144 25.1808C42.6443 26.3434 43.5717 27.2697 44.7349 27.7686C45.0858 27.9252 45.1813 28.1054 45.1735 28.4625C45.1515 29.5371 45.1562 30.6117 45.1735 31.6863C45.1905 31.8087 45.1631 31.9331 45.0961 32.0369C45.0291 32.1406 44.927 32.2169 44.8085 32.2518C43.5917 32.7739 42.6187 33.7386 42.086 34.9508C42.0342 35.041 41.9626 35.1181 41.8766 35.1765C41.7905 35.2348 41.6923 35.2728 41.5894 35.2876C38.1714 35.3064 29.7519 35.3017 26.3323 35.2985C26.2641 35.2915 26.1966 35.2795 26.1302 35.2625L26.1427 38.8231C29.6218 38.8231 38.0994 38.8152 41.5785 38.8372C41.689 38.8565 41.7935 38.9007 41.8844 38.9664C41.9753 39.032 42.0501 39.1175 42.1032 39.2163C42.6781 40.4068 43.5366 41.3122 44.7443 41.8432C45.0999 41.9998 45.1782 42.191 45.1751 42.5434C45.1563 44.0488 45.1751 45.5526 45.1751 47.0579V49.3888H5.02686V60.0094H55.6672V49.3528ZM45.1578 22.994C45.1553 22.6458 45.2564 22.3046 45.4481 22.0139C45.6399 21.7231 45.9137 21.4959 46.2348 21.3611C46.5559 21.2262 46.9099 21.1898 47.2517 21.2564C47.5935 21.3231 47.9079 21.4898 48.1548 21.7354C48.4017 21.981 48.5701 22.2944 48.6386 22.6359C48.7071 22.9774 48.6726 23.3315 48.5394 23.6533C48.4063 23.9752 48.1805 24.2502 47.8908 24.4435C47.6011 24.6368 47.2605 24.7397 46.9123 24.7391C46.4507 24.7323 46.0098 24.5465 45.6825 24.221C45.3552 23.8954 45.1671 23.4556 45.1578 22.994ZM45.1578 37.0232C45.1637 36.6775 45.2714 36.3411 45.4675 36.0563C45.6636 35.7715 45.9394 35.5509 46.2603 35.422C46.5812 35.2932 46.933 35.2619 47.2716 35.332C47.6102 35.4021 47.9206 35.5706 48.164 35.8163C48.4073 36.062 48.5727 36.374 48.6396 36.7133C48.7064 37.0525 48.6717 37.404 48.5397 37.7236C48.4078 38.0433 48.1845 38.3169 47.8978 38.5102C47.6111 38.7036 47.2737 38.808 46.9279 38.8105C46.4563 38.8081 46.0048 38.6184 45.6729 38.2833C45.341 37.9481 45.1557 37.4949 45.1578 37.0232ZM52.163 56.4817H8.54358V52.9227H52.163V56.4817Z" fill="#FFAA46"/>
</g>
<defs>
<clipPath id="clip0_1450_48902">
<rect width="60" height="60" fill="white"/>
</clipPath>
</defs>
</svg>
