<svg width="60" height="60" viewBox="0 0 60 60" fill="none" xmlns="http://www.w3.org/2000/svg">
<path d="M35.5977 0C36.1123 1.38906 36.6145 2.78123 37.1526 4.15934C37.2565 4.37439 37.4349 4.54446 37.6547 4.638C39.246 5.31689 40.8452 5.97753 42.4522 6.61992C42.6911 6.71396 42.9558 6.71951 43.1984 6.63555C44.4138 6.11153 45.6182 5.55779 46.8133 4.98684C47.1121 4.84449 47.2826 4.8789 47.5173 5.11197C49.9512 7.56264 52.3936 10.005 54.8443 12.4389C55.0758 12.6689 55.1117 12.8425 54.9694 13.1428C54.4078 14.3207 53.8869 15.5189 53.3316 16.7C53.2615 16.8333 53.2248 16.9818 53.2248 17.1325C53.2248 17.2832 53.2615 17.4316 53.3316 17.565C54.0074 19.1167 54.6253 20.6935 55.2932 22.2468C55.4033 22.4976 55.599 22.7011 55.8454 22.8209C57.2 23.3605 58.5718 23.8564 59.9499 24.371C59.9499 27.6075 59.9499 30.8079 59.9499 34.0068C59.9499 34.5293 60.1064 35.1816 59.8545 35.5398C59.6027 35.898 58.9347 35.9762 58.4467 36.1655C57.5723 36.4956 56.6869 36.7912 55.8234 37.1541C55.5932 37.2671 55.4096 37.4569 55.3041 37.6906C54.6294 39.2643 53.9771 40.8468 53.3472 42.4382C53.2496 42.6935 53.2463 42.9752 53.3379 43.2328C53.8572 44.4513 54.4141 45.6543 54.9804 46.8509C55.0484 46.9545 55.0743 47.0803 55.0528 47.2024C55.0313 47.3245 54.964 47.4338 54.8646 47.5079C52.4024 49.9565 49.9471 52.4129 47.4985 54.8771C47.2529 55.1242 47.0699 55.1008 46.7899 54.9678C45.6104 54.4109 44.4263 53.8603 43.2266 53.3472C42.9676 53.2585 42.6856 53.2641 42.4303 53.3629C40.8582 53.9886 39.3018 54.6581 37.7375 55.2854C37.4247 55.4089 37.2292 55.5481 37.1118 55.8829C36.677 57.1124 36.2182 58.3341 35.7353 59.5479C35.6681 59.7184 35.4475 59.95 35.2958 59.95C31.6683 59.9734 28.0408 59.9687 24.3773 59.9687C23.8627 58.5891 23.3668 57.2156 22.8256 55.8626C22.7062 55.615 22.5019 55.4186 22.2499 55.3088C20.7138 54.6503 19.1543 54.0418 17.6213 53.3754C17.2881 53.2299 17.041 53.183 16.7031 53.3441C15.5252 53.9072 14.3254 54.4219 13.1476 54.9835C12.8456 55.1258 12.6782 55.0851 12.4452 54.8536C10.0112 52.403 7.56946 49.9606 5.11984 47.5267C4.88676 47.2952 4.8523 47.1215 4.99465 46.8228C5.55465 45.6449 6.07558 44.4467 6.63246 43.2656C6.70184 43.132 6.73801 42.9837 6.73801 42.8331C6.73801 42.6826 6.70184 42.5342 6.63246 42.4006C5.95826 40.8489 5.33882 39.2721 4.67401 37.7172C4.57821 37.4791 4.40074 37.2828 4.17342 37.1635C2.79688 36.6207 1.40312 36.1217 0.015625 35.6071V24.3648C1.40312 23.8502 2.79688 23.3512 4.17342 22.8084C4.40103 22.6892 4.57814 22.4921 4.67241 22.253C5.33721 20.6966 5.95826 19.1245 6.63246 17.5697C6.70184 17.4361 6.73801 17.2877 6.73801 17.1372C6.73801 16.9866 6.70184 16.8383 6.63246 16.7046C6.07558 15.5236 5.55465 14.3254 4.99465 13.1475C4.85074 12.8472 4.88833 12.6783 5.11984 12.4452C7.57154 10.0091 10.0138 7.56629 12.4468 5.11667C12.6767 4.8836 12.8503 4.84761 13.1491 4.98996C14.3285 5.54996 15.5252 6.07086 16.7062 6.62617C16.84 6.69581 16.9887 6.73217 17.1395 6.73217C17.2904 6.73217 17.439 6.69581 17.5728 6.62617C19.123 5.95198 20.7013 5.33097 22.2546 4.66617C22.4927 4.57036 22.6891 4.39292 22.8083 4.1656C23.3511 2.78906 23.8502 1.39531 24.3648 0.00625357L35.5977 0ZM50.9352 13.5057C49.4867 12.0588 48.0851 10.6463 46.66 9.25881C46.5474 9.15087 46.2361 9.14148 46.0703 9.21344C45.0332 9.65925 44.0165 10.152 42.9763 10.5978C42.8684 10.6416 42.7527 10.663 42.6363 10.6609C42.5199 10.6587 42.4051 10.633 42.2989 10.5853C40.0565 9.19921 37.6066 8.18104 35.0423 7.56942C34.9154 7.5218 34.7994 7.44884 34.7015 7.35499C34.6036 7.26114 34.5259 7.14835 34.473 7.02349C34.0507 5.99577 33.6721 4.95085 33.2998 3.90593C33.2013 3.62906 33.0792 3.50392 32.7633 3.50705C30.9112 3.52061 29.0576 3.52061 27.2024 3.50705C27.0795 3.49026 26.9549 3.52085 26.8538 3.59261C26.7527 3.66437 26.6827 3.77193 26.658 3.89343C26.281 4.95868 25.8915 6.01924 25.4644 7.06572C25.4145 7.18266 25.3412 7.28812 25.2489 7.37557C25.1566 7.46301 25.0474 7.53058 24.9279 7.57411C22.3816 8.17251 19.9479 9.17598 17.7199 10.5462C17.608 10.6027 17.4858 10.6358 17.3607 10.6433C17.2356 10.6509 17.1103 10.6327 16.9925 10.59C15.9523 10.152 14.9355 9.65143 13.8984 9.20562C13.7419 9.13679 13.4447 9.11333 13.3477 9.20562C11.893 10.6134 10.4602 12.0526 9.01794 13.4885C9.55291 14.6664 10.055 15.8068 10.5931 16.9299C10.6684 17.0619 10.703 17.2132 10.6927 17.3649C10.6824 17.5165 10.6276 17.6618 10.5352 17.7824C9.16823 19.9457 8.18011 22.3262 7.61325 24.8215C7.59082 24.9821 7.5225 25.1328 7.41649 25.2554C7.31049 25.3781 7.17127 25.4675 7.01565 25.5129C5.9676 25.879 4.93833 26.2951 3.88715 26.6642C3.76549 26.6882 3.65782 26.7582 3.58644 26.8596C3.51506 26.961 3.48551 27.086 3.50395 27.2086C3.51647 29.0435 3.52272 30.8768 3.50395 32.7116C3.50395 33.0824 3.64629 33.2138 3.96383 33.3248C4.99311 33.6862 6.00677 34.0897 7.03605 34.4511C7.18361 34.4926 7.31603 34.5758 7.41756 34.6906C7.51909 34.8055 7.58539 34.9471 7.60851 35.0987C8.17344 37.6146 9.16774 40.0144 10.5477 42.1926C10.637 42.3153 10.6882 42.4616 10.6949 42.6132C10.7015 42.7648 10.6635 42.915 10.5853 43.0451C10.1035 44.0446 9.66548 45.0661 9.18995 46.0703C9.06637 46.3331 9.0633 46.5052 9.28855 46.7258C10.6109 48.0251 11.9206 49.3365 13.2179 50.6599C13.4635 50.9117 13.6497 50.8867 13.9234 50.7568C14.8401 50.3251 15.7817 49.945 16.6812 49.4835C17.1692 49.2317 17.5306 49.2426 18.0045 49.543C20.1026 50.8622 22.4116 51.8114 24.8309 52.3493C24.9912 52.3751 25.1405 52.4468 25.261 52.5555C25.3814 52.6643 25.4678 52.8056 25.5098 52.9624C25.8696 53.9933 26.2731 55.0069 26.6376 56.0346C26.744 56.3318 26.877 56.4632 27.2164 56.4601C29.0518 56.4413 30.8862 56.4413 32.7195 56.4601C33.0511 56.4601 33.1965 56.3506 33.3045 56.044C33.6721 54.996 34.0522 53.9526 34.4745 52.9265C34.5299 52.8026 34.6099 52.6912 34.7097 52.5993C34.8095 52.5073 34.9269 52.4366 35.0549 52.3915C37.5989 51.7805 40.0305 50.7717 42.2598 49.4022C42.373 49.3488 42.496 49.3192 42.6211 49.3152C42.7462 49.3112 42.8708 49.3328 42.9872 49.3787C44.0274 49.8183 45.052 50.2938 46.0719 50.7866C46.3441 50.9148 46.5099 50.8945 46.7242 50.6755C48.0257 49.3553 49.337 48.045 50.6583 46.7445C50.8773 46.5271 50.8945 46.3582 50.7678 46.0891C50.2829 45.0692 49.8058 44.0431 49.36 43.0028C49.3136 42.8842 49.2922 42.7571 49.2974 42.6298C49.3025 42.5025 49.3339 42.3775 49.3897 42.263C50.7579 40.036 51.7677 37.6079 52.3821 35.0674C52.4278 34.9396 52.4993 34.8225 52.5921 34.7235C52.685 34.6245 52.7972 34.5456 52.9218 34.4918C53.9479 34.071 54.9912 33.6909 56.0393 33.3217C56.3521 33.2138 56.4523 33.0605 56.4491 32.732C56.4335 30.9174 56.4272 29.1013 56.4491 27.2868C56.4491 26.8957 56.2927 26.7456 55.9658 26.6267C54.9209 26.2528 53.8776 25.8696 52.8498 25.4535C52.7414 25.4068 52.6438 25.3383 52.563 25.2521C52.4823 25.166 52.4202 25.0642 52.3806 24.9529C51.775 22.3867 50.761 19.9345 49.3772 17.6901C49.3258 17.5854 49.2964 17.4713 49.2908 17.3549C49.2851 17.2384 49.3034 17.122 49.3443 17.0128C49.859 15.8443 50.3908 14.6977 50.9352 13.5057Z" fill="#22A33F"/>
<path d="M45.9014 29.9818C45.8944 34.2058 44.2126 38.2547 41.2248 41.2407C38.2371 44.2266 34.1873 45.906 29.9632 45.9106C25.7395 45.8985 21.6928 44.2122 18.7104 41.2213C15.728 38.2304 14.0532 34.179 14.0532 29.9552C14.0681 25.7415 15.7492 21.7047 18.7296 18.726C21.7101 15.7473 25.7479 14.0685 29.9616 14.0562C34.1854 14.0603 38.2352 15.739 41.2232 18.7244C44.2111 21.7097 45.8935 25.758 45.9014 29.9818ZM30.018 17.5679C23.1853 17.5507 17.5946 23.0944 17.5649 29.9114C17.552 33.2068 18.8475 36.3725 21.1668 38.7136C23.4861 41.0546 26.6397 42.3794 29.935 42.3972C33.2206 42.4015 36.3743 41.1057 38.7078 38.7927C41.0412 36.4798 42.3648 33.3376 42.3896 30.0522C42.4029 26.7566 41.1074 23.5905 38.7876 21.2496C36.4678 18.9087 33.3136 17.5845 30.018 17.5679Z" fill="#FFAA46"/>
<path d="M28.6741 36.0308L22.6753 30.0335L25.1186 27.5917L28.7414 31.2286L34.8874 25.0498L37.2697 27.4306L28.6741 36.0308Z" fill="#FFAA46"/>
</svg>
