<svg width="32" height="32" viewBox="0 0 32 32" fill="none" xmlns="http://www.w3.org/2000/svg">
<path d="M14.7143 16C14.7143 16.341 14.8498 16.668 15.0909 16.9091C15.332 17.1502 15.659 17.2857 16 17.2857C16.341 17.2857 16.668 17.1502 16.9091 16.9091C17.1502 16.668 17.2857 16.341 17.2857 16C17.2857 15.659 17.1502 15.332 16.9091 15.0908C16.668 14.8497 16.341 14.7143 16 14.7143C15.659 14.7143 15.332 14.8497 15.0909 15.0908C14.8498 15.332 14.7143 15.659 14.7143 16ZM20.0714 16C20.0714 16.341 20.2068 16.668 20.448 16.9091C20.6891 17.1502 21.0161 17.2857 21.3571 17.2857C21.6981 17.2857 22.0251 17.1502 22.2662 16.9091C22.5073 16.668 22.6428 16.341 22.6428 16C22.6428 15.659 22.5073 15.332 22.2662 15.0908C22.0251 14.8497 21.6981 14.7143 21.3571 14.7143C21.0161 14.7143 20.6891 14.8497 20.448 15.0908C20.2068 15.332 20.0714 15.659 20.0714 16ZM9.35723 16C9.35723 16.341 9.49268 16.668 9.7338 16.9091C9.97492 17.1502 10.3019 17.2857 10.6429 17.2857C10.9839 17.2857 11.3109 17.1502 11.5521 16.9091C11.7932 16.668 11.9286 16.341 11.9286 16C11.9286 15.659 11.7932 15.332 11.5521 15.0908C11.3109 14.8497 10.9839 14.7143 10.6429 14.7143C10.3019 14.7143 9.97492 14.8497 9.7338 15.0908C9.49268 15.332 9.35723 15.659 9.35723 16ZM27.0677 11.35C26.4624 9.91165 25.5945 8.6206 24.4883 7.51169C23.3898 6.40919 22.0857 5.53284 20.6499 4.93225C19.1767 4.31351 17.6125 4.00012 16 4.00012H15.9464C14.3232 4.00816 12.7509 4.32958 11.2724 4.96172C9.84889 5.56846 8.55705 6.44637 7.46886 7.54651C6.37334 8.65274 5.51353 9.93844 4.91889 11.3715C4.30283 12.8554 3.99212 14.433 4.00015 16.0562C4.00924 17.9164 4.44932 19.7491 5.28585 21.4106V25.482C5.28585 25.8088 5.41566 26.1222 5.64673 26.3532C5.8778 26.5843 6.1912 26.7141 6.51798 26.7141H10.592C12.2535 27.5507 14.0863 27.9907 15.9464 27.9998H16.0027C17.6071 27.9998 19.1634 27.6891 20.6285 27.0811C22.0571 26.4877 23.3562 25.6215 24.4535 24.5311C25.5597 23.4356 26.4302 22.1553 27.0383 20.7276C27.6704 19.249 27.9918 17.6767 27.9999 16.0535C28.0079 14.4223 27.6918 12.8393 27.0677 11.35ZM23.0204 23.082C21.1428 24.9409 18.6518 25.9641 16 25.9641H15.9545C14.3393 25.9561 12.7349 25.5543 11.3179 24.799L11.0929 24.6784H7.32154V20.9071L7.201 20.6821C6.44566 19.2651 6.04388 17.6607 6.03584 16.0455C6.02513 13.375 7.04565 10.8679 8.91795 8.97952C10.7876 7.09115 13.2866 6.04653 15.9571 6.03581H16.0027C17.3419 6.03581 18.641 6.29563 19.8651 6.80991C21.0598 7.31079 22.1312 8.03132 23.0526 8.95274C23.9713 9.87148 24.6945 10.9456 25.1954 12.1402C25.7151 13.3777 25.9749 14.6902 25.9695 16.0455C25.9534 18.7133 24.9061 21.2124 23.0204 23.082Z" fill="#00CD69"/>
</svg>
