<svg width="30" height="30" viewBox="0 0 30 30" fill="none" xmlns="http://www.w3.org/2000/svg">
<path d="M21.6047 29.9992C21.3973 29.9515 21.1884 29.9084 20.9825 29.8537C20.0342 29.6061 19.1953 29.0499 18.5982 28.2728C18.001 27.4957 17.6796 26.5418 17.6846 25.5618C17.6775 22.4665 17.6846 19.3713 17.6846 16.2761V15.8934H15.9409V14.1223H21.1954V7.0725C21.0796 7.0678 20.9676 7.06076 20.8549 7.05763C20.2797 7.03884 19.6935 7.08736 19.1332 6.9911C17.3833 6.69606 16.1194 5.38518 15.9628 3.60003C15.8587 2.41985 15.9433 1.22401 15.9433 0H16.6398C17.4404 0 18.241 0 19.0424 0C21.2768 0.00469569 22.9461 1.64975 22.9852 3.88803C22.9915 4.24569 22.9852 4.60413 22.9852 4.95004C23.0314 4.96335 23.0439 4.97117 23.0494 4.96726C23.9627 4.41943 24.9684 4.37638 25.9928 4.40143C26.7426 4.41943 27.4923 4.40143 28.2624 4.40143C28.2695 4.52117 28.2789 4.61508 28.2789 4.70978C28.2789 5.65674 28.2789 6.60371 28.2789 7.55067C28.2703 9.76704 26.5728 11.4638 24.3611 11.47H23.0064V14.1153H28.2679V15.866H26.5203V16.244C26.5203 19.3392 26.525 22.4345 26.5203 25.5297C26.5164 27.5989 25.1899 29.3262 23.2255 29.8537C23.0204 29.9084 22.8123 29.9515 22.6049 30L21.6047 29.9992ZM22.9884 22.9197H21.2134V21.1932H19.4846C19.4682 21.2316 19.4541 21.2488 19.4541 21.266C19.4541 22.7585 19.4016 24.2533 19.4713 25.7426C19.5496 27.3563 20.9724 28.4457 22.5415 28.1906C23.8359 27.9809 24.7391 26.8883 24.7493 25.4953C24.7586 24.139 24.7493 22.7827 24.7493 21.4257C24.7493 21.3474 24.736 21.2762 24.7281 21.1971H22.986L22.9884 22.9197ZM26.4984 6.19597C25.9263 6.19597 25.3785 6.15762 24.8385 6.20379C24.3524 6.24655 23.8983 6.46395 23.5602 6.81574C23.222 7.16754 23.0228 7.62991 22.9993 8.11729C22.9727 8.57355 22.9923 9.03373 22.9829 9.49156C22.9829 9.64808 23.0314 9.71852 23.2005 9.71461C23.6199 9.70443 24.0402 9.72635 24.4589 9.70522C25.5608 9.64887 26.3693 8.92964 26.4882 7.84728C26.5469 7.30963 26.4984 6.76023 26.4984 6.19597ZM17.7206 1.82036C17.7206 2.37602 17.6666 2.96376 17.7331 3.53664C17.7766 3.95898 17.9593 4.35486 18.2525 4.66201C18.5456 4.96916 18.9325 5.17015 19.3523 5.23335C19.9503 5.31944 20.5701 5.24978 21.204 5.24978C21.204 4.73169 21.2251 4.20734 21.1993 3.68455C21.1555 2.79159 20.4832 1.9628 19.602 1.83758C18.9853 1.74915 18.3459 1.82036 17.7206 1.82036ZM19.4689 15.8973V19.3815H21.1993V15.8973H19.4689ZM24.7281 19.3909V15.8973H23.0064V19.3909H24.7281Z" fill="#377BE1"/>
<path d="M7.48097 29.9992C7.27436 29.9507 7.06617 29.9077 6.86034 29.8529C5.91772 29.6054 5.08347 29.0529 4.48764 28.2817C3.8918 27.5105 3.56788 26.5638 3.56632 25.5892C3.55537 23.9457 3.56632 22.3085 3.56632 20.6681V20.2972H1.82579V18.5308H7.07869V12.356C6.59973 12.356 6.12468 12.3661 5.64964 12.356C4.3098 12.3207 3.24465 11.758 2.47299 10.6608C2.05543 10.0762 1.82487 9.37876 1.81169 8.66045C1.79056 7.58749 1.80466 6.51296 1.80466 5.43921C1.80711 5.40364 1.81234 5.36831 1.8203 5.33355C1.84613 5.31869 1.86257 5.30069 1.879 5.30069C3.02084 5.30069 4.16815 5.23729 5.30373 5.32573C7.40114 5.48773 8.84585 7.11087 8.86854 9.21454C8.86854 9.56359 8.86854 9.91342 8.86854 10.2758C9.20116 10.138 9.49464 9.9776 9.80768 9.89464C10.1735 9.7938 10.5499 9.73602 10.9292 9.72246C11.992 9.69977 13.0555 9.71385 14.1058 9.71385C14.1301 9.74829 14.1512 9.76394 14.1512 9.77959C14.1387 11.0185 14.2075 12.2652 14.0902 13.4939C13.918 15.2986 12.2627 16.7206 10.4447 16.7597C9.92976 16.7707 9.41481 16.7597 8.88419 16.7597V18.5136H14.1371V20.2792H12.3973V20.6407C12.3973 22.2315 12.3973 23.8228 12.3973 25.4147C12.3973 27.7915 10.9182 29.5485 8.5821 29.9539C8.54563 29.9649 8.51048 29.9799 8.47724 29.9985L7.48097 29.9992ZM10.584 23.8542H8.85444V25.5806H7.09826V23.8534H5.36477C5.36477 24.5695 5.31311 25.2621 5.37572 25.95C5.49233 27.2202 6.64199 28.2141 7.938 28.236C9.21915 28.2571 10.4189 27.3117 10.5684 26.0643C10.6545 25.345 10.584 24.607 10.584 23.8542ZM7.08574 10.6201C7.08574 10.041 7.11626 9.51585 7.07869 8.99541C7.0153 8.10088 6.53087 7.48262 5.69268 7.18366C5.00711 6.93948 4.28867 7.09209 3.57492 7.05531C3.57492 7.62818 3.53893 8.15645 3.58354 8.67845C3.6618 9.60977 4.31684 10.383 5.19572 10.5239C5.80459 10.6217 6.43383 10.5919 7.08574 10.6201ZM12.4247 11.481C11.862 11.481 11.3573 11.4599 10.854 11.4857C9.96968 11.5311 9.34437 11.9866 9.01645 12.7997C8.73158 13.5041 8.90924 14.2538 8.86854 14.991C9.44142 14.991 9.9689 15.0192 10.4917 14.9848C11.3768 14.9269 12.1813 14.2554 12.3222 13.3921C12.4232 12.7762 12.3942 12.1376 12.4247 11.4794V11.481ZM7.09513 22.0354C7.09513 21.4938 7.09983 20.9694 7.08888 20.4459C7.0795 20.409 7.06072 20.3752 7.03439 20.3478C7.00805 20.3203 6.97504 20.3002 6.9386 20.2893C6.41425 20.2776 5.8899 20.2823 5.35224 20.2823V22.0354H7.09513ZM10.613 22.0354V20.3136H8.89122V22.0354H10.613Z" fill="#00CD69"/>
</svg>
