<svg width="30" height="30" viewBox="0 0 30 30" fill="none" xmlns="http://www.w3.org/2000/svg">
<path d="M8.83486 0V6.88715C9.37589 6.51413 9.88636 6.08647 10.4632 5.78511C11.0401 5.48376 11.6892 5.30518 12.3501 5.0561V3.59455H14.1124V3.88827C14.1124 8.73465 14.1124 13.581 14.1124 18.4274C14.1124 21.1296 12.5516 23.3778 10.0327 24.3142C9.65199 24.4551 9.24782 24.535 8.83896 24.6478V29.9935H7.08662V24.6537C6.66719 24.5362 6.2642 24.4581 5.88237 24.3171C3.37282 23.3848 1.80906 21.1396 1.80318 18.4597C1.79613 15.3627 1.80318 12.2652 1.80318 9.1676V3.59044H3.55435V5.13775C4.91779 5.37743 6.07094 5.9684 7.07899 6.99465V0H8.83486ZM3.58137 17.5169C3.44978 19.0331 3.68476 20.4218 4.77328 21.552C5.40243 22.2058 6.15258 22.6405 7.05372 22.8191C7.35038 20.0012 5.60921 17.9116 3.58137 17.5169ZM8.85835 22.7927C10.9344 22.7234 12.7942 19.886 12.319 17.5175C10.2095 17.9445 8.55934 20.1028 8.85835 22.7927ZM7.04844 12.2188C7.37976 9.52065 5.57397 7.27428 3.57256 6.98173V10.3948C5.78192 11.1291 5.78192 11.1291 7.04609 12.2205L7.04844 12.2188ZM3.57021 15.6976C4.92661 15.9361 6.0774 16.54 7.06195 17.5157C7.33746 14.3888 5.29317 12.5225 3.57021 12.2458V15.6976ZM12.3554 15.6935V12.2346C9.68075 12.7845 8.52761 15.6124 8.89417 17.4863C9.85053 16.5218 11.0066 15.939 12.353 15.6952L12.3554 15.6935ZM12.3448 6.95471C9.95745 7.45344 8.54877 9.90836 8.87891 12.2252C9.81263 11.2689 11.0265 10.6345 12.3448 10.4141V6.95471Z" fill="#377BE1"/>
<path d="M15.8707 7.10809H17.6219V8.65893C18.9812 8.90389 20.1361 9.49075 21.1348 10.4935V3.5946H22.8971V10.4089C23.4428 10.0377 23.9545 9.61822 24.5284 9.31921C25.1023 9.0202 25.7532 8.8334 26.4141 8.5808V7.1169H28.1852V7.45174C28.1852 12.2582 28.1617 17.0646 28.1935 21.8705C28.2146 25.0597 25.9612 27.6127 23.1074 28.0973C23.0487 28.1073 22.9952 28.1296 22.9141 28.1561V29.9995H21.1518V28.2207C20.4962 27.9857 19.8494 27.8306 19.2784 27.5322C17.149 26.4196 15.9888 24.6361 15.8878 22.2335C15.8226 20.6733 15.8713 19.1083 15.8707 17.5451C15.8707 14.1944 15.8707 10.8438 15.8707 7.49345V7.10809ZM17.6483 21.0304C17.4133 23.7532 19.0423 26.2158 21.1254 26.3121C21.4238 23.6551 19.8007 21.4728 17.6483 21.031V21.0304ZM22.9288 26.3133C25.0319 26.204 26.8958 23.3567 26.3847 21.034C24.2376 21.4816 22.6304 23.6704 22.9288 26.3139V26.3133ZM17.6418 13.8595C18.2957 14.108 18.9383 14.2895 19.5187 14.5915C20.0991 14.8934 20.6072 15.3093 21.1359 15.6659C21.4167 12.9049 19.6133 10.8424 17.643 10.4818L17.6418 13.8595ZM26.4135 10.4788C24.1736 10.9253 22.6257 13.2398 22.9406 15.7487C23.8795 14.796 25.0946 14.1631 26.4135 13.94V10.4788ZM21.1265 21.0381C21.4132 18.1179 19.554 16.1036 17.6448 15.7623V19.2199C18.968 19.4424 20.1868 20.0785 21.126 21.0369L21.1265 21.0381ZM22.9329 21.034C23.8725 20.0777 25.0896 19.442 26.4112 19.217V15.7581C24.361 16.1417 22.6333 18.2841 22.9323 21.0328L22.9329 21.034Z" fill="#00CD69"/>
</svg>
