<svg width="50" height="50" viewBox="0 0 50 50" fill="none" xmlns="http://www.w3.org/2000/svg">
<path d="M17.2197 24.0083C16.8348 24.0128 16.4572 23.9033 16.1345 23.6934C15.8118 23.4836 15.5583 23.1829 15.4063 22.8293C15.2542 22.4757 15.2103 22.0849 15.2801 21.7063C15.3498 21.3278 15.53 20.9783 15.7981 20.7021C16.0662 20.4258 16.4101 20.2351 16.7864 20.1541C17.1627 20.073 17.5546 20.1052 17.9126 20.2466C18.2707 20.3879 18.5788 20.6322 18.7982 20.9485C19.0177 21.2647 19.1385 21.6389 19.1455 22.0238C19.1531 22.5423 18.9544 23.0425 18.5933 23.4146C18.2322 23.7867 17.7382 24.0003 17.2197 24.0083Z" fill="#22A33F"/>
<path d="M34.7659 22.04C34.7697 22.425 34.6595 22.8024 34.449 23.1248C34.2385 23.4472 33.9373 23.7 33.5833 23.8514C33.2293 24.0027 32.8384 24.0459 32.4599 23.9753C32.0814 23.9048 31.7323 23.7238 31.4566 23.455C31.1809 23.1863 30.9909 22.842 30.9107 22.4654C30.8305 22.0889 30.8636 21.697 31.0058 21.3392C31.1481 20.9815 31.3931 20.6738 31.71 20.4552C32.0268 20.2365 32.4013 20.1165 32.7863 20.1105C33.3046 20.1043 33.8041 20.304 34.1753 20.6657C34.5464 21.0275 34.7588 21.5217 34.7659 22.04Z" fill="#22A33F"/>
<path d="M22.0739 42.1712C22.0739 42.5564 21.9598 42.9329 21.7459 43.2533C21.5321 43.5736 21.2281 43.8235 20.8724 43.9712C20.5167 44.1189 20.1251 44.1579 19.7473 44.0833C19.3694 44.0087 19.0221 43.8238 18.7493 43.552C18.4764 43.2801 18.2902 42.9335 18.2141 42.5559C18.1381 42.1783 18.1757 41.7867 18.3221 41.4304C18.4685 41.0741 18.7171 40.7692 19.0367 40.5542C19.3562 40.3392 19.7323 40.2236 20.1175 40.2222C20.6351 40.2222 21.1316 40.4273 21.4983 40.7926C21.8649 41.1579 22.0719 41.6536 22.0739 42.1712Z" fill="#FFAA46"/>
<path d="M31.8374 42.1474C31.8431 42.5326 31.7345 42.9108 31.5255 43.2344C31.3164 43.5579 31.0161 43.8122 30.6626 43.9652C30.3091 44.1182 29.9182 44.163 29.5392 44.094C29.1603 44.0249 28.8103 43.8451 28.5334 43.5773C28.2565 43.3095 28.0652 42.9657 27.9836 42.5892C27.9021 42.2127 27.9339 41.8205 28.0751 41.4621C28.2163 41.1037 28.4605 40.7952 28.7769 40.5755C29.0933 40.3558 29.4677 40.2348 29.8529 40.2277C30.3703 40.2202 30.8696 40.418 31.2415 40.7778C31.6134 41.1376 31.8277 41.6301 31.8374 42.1474Z" fill="#FFAA46"/>
<path d="M49.9254 2.7157C49.9436 2.62073 49.9686 2.52716 50 2.43569V0H47.0654V1.48196C47.0654 3.05562 46.6582 4.51435 45.7265 5.78477C44.28 7.75827 42.3848 8.8942 39.8574 8.89053C29.7869 8.87504 19.7156 8.87056 9.64349 8.87708C9.22247 8.87449 8.80379 8.81484 8.39878 8.69978C5.13652 7.78273 2.97837 4.95331 2.93802 1.56877C2.9319 1.054 2.93802 0.540451 2.93802 0.0391285H0.0425515C-0.246015 3.9201 0.919291 7.18481 3.96146 9.69876C3.82207 9.78924 3.74134 9.84427 3.65942 9.8944C1.79474 11.023 0.567132 12.6309 0.191752 14.7854C0.0144548 15.8002 0.0437766 16.8554 0.0144309 17.8935C-0.0124693 18.8143 0.0083411 19.7374 0.0083411 20.6973C1.5869 20.6973 3.11286 20.7144 4.63761 20.6973C6.19545 20.6779 7.70461 20.1516 8.93678 19.1982C9.04315 19.1187 9.15809 19.049 9.3036 18.9537C9.32561 19.1297 9.34638 19.2398 9.3525 19.3511C9.49026 22.0639 9.62763 24.7768 9.76457 27.4896C9.90886 30.2726 10.0201 33.0567 10.1693 35.8385L13.0171 33.7451C12.6405 26.3952 12.2687 19.1456 11.8946 11.8581H38.0991C37.7261 19.1346 37.3544 26.3769 36.9778 33.7353L39.8292 35.8861C39.9809 33.0836 40.0921 30.2774 40.2376 27.4749C40.377 24.7629 40.5148 22.0505 40.6509 19.3376C40.6659 19.1955 40.6884 19.0543 40.7182 18.9145C41.7208 19.724 42.7871 20.3011 44.011 20.5212C44.5539 20.6198 45.1039 20.6746 45.6556 20.6851C47.1021 20.7071 48.551 20.6924 49.9987 20.6924V15.5178C49.7273 14.6398 49.5415 13.724 49.1673 12.8938C48.5877 11.6062 47.612 10.6293 46.388 9.91151C46.2902 9.85405 46.1985 9.78924 45.9527 9.62662C46.0882 9.57203 46.2177 9.5036 46.3391 9.42242C48.3982 7.64945 49.5936 5.41388 49.9254 2.7157ZM3.00405 17.7297C2.4905 14.1483 4.43832 11.3458 8.87319 11.8459C9.30726 16.0056 6.92415 18.1711 3.00405 17.7297ZM47.0434 17.6955C43.6601 18.2053 40.6558 16.4605 41.1461 11.8447C45.1115 11.4008 47.4799 13.581 47.0434 17.6955Z" fill="#22A33F"/>
<path d="M32.6727 49.3989C36.83 47.8313 39.2021 44.8148 39.5408 40.3848C39.6558 38.887 39.7475 37.3879 39.8282 35.8888L36.9804 33.7172L36.9731 33.7087C33.4271 30.9318 29.4471 29.4878 25.0049 29.4902C20.5627 29.4927 16.5912 30.9221 13.022 33.7246L10.178 35.8142C10.2599 37.3378 10.3528 38.8613 10.4702 40.3824C10.8114 44.8356 13.1994 47.8558 17.3836 49.416C18.105 49.685 18.8851 49.7963 19.6371 49.9797H30.3764C31.1479 49.7914 31.9379 49.6764 32.6727 49.3989ZM24.9695 47.0426V47.0512C23.5694 47.0512 22.1706 47.0573 20.7718 47.0512C17.0204 47.0292 14.059 44.5532 13.4354 40.8507C13.2642 39.8297 13.2776 38.772 13.2263 37.7376C13.2381 37.5987 13.2992 37.4685 13.3987 37.3708C15.097 35.5953 17.1808 34.2341 19.489 33.3922C21.7972 32.5503 24.268 32.2502 26.7106 32.5153C30.2076 32.9078 33.2559 34.3066 35.8872 36.6543C36.5475 37.2424 36.8459 37.8232 36.7432 38.7329C36.6001 40.0229 36.6429 41.3398 36.089 42.5528C34.8198 45.332 32.6531 46.8653 29.5999 47.0292C28.0654 47.1136 26.5162 47.0439 24.9719 47.0439L24.9695 47.0426Z" fill="#FFAA46"/>
</svg>
