<svg width="50" height="50" viewBox="0 0 50 50" fill="none" xmlns="http://www.w3.org/2000/svg">
<g clip-path="url(#clip0_179_8847)">
<path d="M49.9987 49.7921C49.8212 49.7842 49.6436 49.7686 49.4648 49.7686H0V46.8199H10.2245V42.4262C10.0692 42.4158 9.91516 42.3975 9.76113 42.3962C8.93095 42.3962 8.10076 42.3962 7.26928 42.3962C3.93159 42.3714 1.44498 39.8756 1.43454 36.5432C1.43454 35.5694 1.43454 34.5969 1.43454 33.5723H2.63934C4.02297 33.5723 5.40922 33.6075 6.79154 33.5644C8.69469 33.5031 10.3589 34.0148 11.7021 35.448C11.7598 35.4171 11.8144 35.3808 11.8653 35.3397C13.0897 34.1022 14.579 33.5475 16.3112 33.5684C18.0433 33.5892 19.7637 33.5684 21.4906 33.5684H22.0258C21.9762 35.8579 22.4174 38.1813 20.8289 40.1563C19.7402 41.5112 18.3488 42.2996 16.6023 42.3753C15.498 42.421 14.3911 42.3831 13.2411 42.3831V46.7781H36.6936V42.3949C35.6794 42.3949 34.69 42.3949 33.7005 42.3949C31.7243 42.3805 30.1462 41.5699 28.9792 39.9814C28.2872 39.0438 27.9131 37.9095 27.9115 36.7442C27.8998 35.6999 27.9115 34.6661 27.9115 33.571H28.7665C30.3785 33.571 31.9906 33.5879 33.6026 33.571C35.3335 33.5475 36.8281 34.0866 38.0564 35.3253C38.1104 35.3726 38.1675 35.4162 38.2274 35.4558C39.2468 34.3829 40.4803 33.7276 41.9514 33.6114C42.7933 33.5449 43.6483 33.5801 44.4903 33.5775C45.8073 33.5775 47.1244 33.5775 48.4662 33.5775C48.49 33.6945 48.5049 33.8132 48.5106 33.9325C48.4558 35.2953 48.5589 36.6907 48.3018 38.0143C47.8097 40.5413 45.5606 42.3009 42.9892 42.3897C41.9175 42.4262 40.8432 42.3897 39.7259 42.3897V46.816H40.2833C43.3116 46.816 46.3403 46.816 49.3695 46.816C49.5797 46.816 49.7898 46.8434 50 46.8577L49.9987 49.7921ZM13.2463 39.4566C14.1874 39.4566 15.0972 39.4566 16.007 39.4566C16.2354 39.4601 16.4638 39.4506 16.691 39.4279C18.0864 39.2634 19.2194 37.8785 19.0315 36.5131C18.0512 36.5131 17.0617 36.5131 16.0723 36.5131C15.8445 36.5171 15.6176 36.5433 15.3948 36.5915C14.7512 36.7288 14.179 37.0944 13.784 37.6209C13.3891 38.1473 13.1981 38.799 13.2463 39.4553V39.4566ZM39.7285 39.4566C40.62 39.4566 41.4815 39.4566 42.3391 39.4566C42.6002 39.4566 42.8612 39.4566 43.1223 39.4318C44.5412 39.2922 45.712 37.8798 45.511 36.5849C44.3088 36.5849 43.0988 36.4805 41.9149 36.6123C40.5613 36.7612 39.6175 38.0756 39.7285 39.4553V39.4566ZM4.40412 36.5445C4.34669 37.9203 5.24082 39.1956 6.57876 39.3626C7.77443 39.5114 9.00405 39.394 10.2167 39.394C10.2743 38.7041 10.0564 38.0195 9.61078 37.4897C9.16514 36.9599 8.52795 36.6281 7.83841 36.5667C6.71062 36.4544 5.56585 36.5445 4.40412 36.5445ZM30.8837 36.5353C30.8184 37.9124 31.7139 39.1929 33.0531 39.3613C34.2488 39.5114 35.4784 39.3927 36.6923 39.3927C36.7203 39.0474 36.6799 38.7 36.5733 38.3704C36.4667 38.0407 36.2962 37.7354 36.0713 37.4719C35.8465 37.2084 35.5718 36.9918 35.2631 36.8347C34.9544 36.6776 34.6177 36.5829 34.2723 36.5562C33.1575 36.4544 32.0298 36.5353 30.8798 36.5353H30.8837Z" fill="#22A33F"/>
<path d="M49.9986 14.6065C49.8681 14.72 49.7232 14.8257 49.5992 14.9498C45.7059 18.8396 41.8147 22.7316 37.9258 26.6258C37.7888 26.784 37.6611 26.9501 37.5433 27.1231C37.0655 26.6166 36.6505 26.2029 36.2693 25.7617C36.0383 25.4941 35.7929 25.451 35.4535 25.4902C32.6419 25.8178 29.8263 26.118 27.0147 26.4404C26.8731 26.4637 26.7281 26.4505 26.5931 26.4021C26.4581 26.3537 26.3377 26.2716 26.2432 26.1637C24.6625 24.5686 23.0674 22.9879 21.4136 21.334L28.7612 18.1765C28.2978 17.7418 27.8866 17.375 27.4963 16.9873C26.1223 15.6211 24.7517 14.2514 23.3846 12.8782C21.0898 10.5835 20.8027 6.9038 22.8337 4.3741C23.7958 3.17583 24.9601 2.1381 26.0761 0.98029L28.1646 3.0949L30.1944 5.15077L35.3321 0L38.4949 3.18235C39.8772 1.60553 41.4971 0.85759 43.5034 1.14084C44.7272 1.31435 45.8433 1.93518 46.6361 2.88344C48.132 4.59992 48.6528 7.88017 45.9391 10.3237L50.0012 14.5112L49.9986 14.6065ZM45.7341 14.5595L35.4548 4.26446L27.2666 12.4475C30.6852 15.8648 34.1338 19.3147 37.5577 22.7386L45.7341 14.5595ZM43.801 8.23C45.1193 7.06174 45.2916 5.61937 44.233 4.61689C43.4577 3.87939 41.8717 3.57264 40.7087 5.13902L43.801 8.23ZM33.3036 22.7725C32.5061 21.9893 31.8195 21.2949 31.1081 20.6279C31.0397 20.5871 30.9631 20.5622 30.8838 20.555C30.8045 20.5477 30.7246 20.5584 30.65 20.5861C30.0443 20.8197 29.4517 21.0873 28.8539 21.3445L26.6257 22.3065C27.1739 23.0336 27.7026 23.5126 28.7142 23.3233C30.1696 23.0466 31.6668 22.9592 33.3036 22.7725ZM25.028 10.248L28.0158 7.25754L26.0278 5.26824C24.3179 6.64274 23.9145 8.62159 25.028 10.248Z" fill="#FFAA46"/>
<path d="M8.81348 24.7812H11.6852V27.6634H8.81348V24.7812Z" fill="#22A33F"/>
<path d="M2.94238 27.7065H5.80101V30.6043H2.94238V27.7065Z" fill="#22A33F"/>
<path d="M22.0074 30.6041H19.1357V27.7324H22.0074V30.6041Z" fill="#22A33F"/>
<path d="M14.7163 24.7144V21.8584H17.588V24.7196L14.7163 24.7144Z" fill="#22A33F"/>
</g>
<defs>
<clipPath id="clip0_179_8847">
<rect width="50" height="50" fill="white"/>
</clipPath>
</defs>
</svg>
