<svg width="230" height="44" viewBox="0 0 230 44" fill="none" xmlns="http://www.w3.org/2000/svg">
<path d="M21.9073 10.9544H22.0917C22.0917 16.9791 27.0212 21.9083 33.0457 21.9083V22.0927C27.021 22.0927 22.0917 27.0219 22.0917 33.0469H21.9073C21.9073 27.0219 16.9778 22.0927 10.9531 22.0927V21.9083C16.9778 21.9083 21.9073 16.9791 21.9073 10.9544Z" fill="#22A33F"/>
<path d="M33.0467 0C39.0962 0 44.0004 4.90437 44.0004 10.9539C44.0004 17.0036 39.0962 21.9078 33.0467 21.9078V10.9541H22.0928C22.0928 4.90437 26.9969 0 33.0467 0Z" fill="#22A33F"/>
<path d="M10.9539 0C17.0035 0 21.9076 4.90437 21.9076 10.9539H10.9537V21.9078C4.90388 21.9078 0 17.0036 0 10.9539C0 4.90437 4.90413 0 10.9539 0Z" fill="#22A33F"/>
<path d="M33.0467 22.0925C39.0962 22.0925 44.0004 26.9969 44.0004 33.0461C44.0004 39.0959 39.0962 44 33.0467 44C26.9972 44 22.093 39.0961 22.0928 33.0466H33.0464L33.0467 22.0925Z" fill="#22A33F"/>
<path d="M21.9078 33.0466C21.9076 39.0961 17.0035 44 10.9542 44C4.90413 44 0 39.0959 0 33.0461C0 26.9969 4.90388 22.0928 10.9537 22.0925V33.0466H21.9078Z" fill="#22A33F"/>
<path d="M132.998 31.052V39.5H131.93V32.036H127.514V39.5H126.446V31.052H132.998ZM134.927 33.452H135.923V34.292C136.099 34.012 136.343 33.78 136.655 33.596C136.967 33.412 137.351 33.32 137.807 33.32C138.279 33.32 138.715 33.448 139.115 33.704C139.515 33.952 139.831 34.316 140.063 34.796C140.303 35.268 140.423 35.828 140.423 36.476C140.423 37.124 140.303 37.688 140.063 38.168C139.831 38.64 139.515 39.004 139.115 39.26C138.715 39.508 138.279 39.632 137.807 39.632C137.367 39.632 136.995 39.548 136.691 39.38C136.387 39.212 136.143 38.996 135.959 38.732V41.792H134.927V33.452ZM135.959 37.892C136.159 38.14 136.403 38.336 136.691 38.48C136.987 38.624 137.303 38.696 137.639 38.696C138.167 38.696 138.587 38.496 138.899 38.096C139.219 37.688 139.379 37.148 139.379 36.476C139.379 35.812 139.219 35.276 138.899 34.868C138.587 34.46 138.167 34.256 137.639 34.256C137.303 34.256 136.987 34.328 136.691 34.472C136.403 34.616 136.159 34.812 135.959 35.06V37.892ZM144.492 33.32C145.06 33.32 145.568 33.456 146.016 33.728C146.464 34 146.812 34.376 147.06 34.856C147.316 35.328 147.444 35.868 147.444 36.476C147.444 37.084 147.316 37.628 147.06 38.108C146.812 38.58 146.464 38.952 146.016 39.224C145.568 39.496 145.06 39.632 144.492 39.632C143.924 39.632 143.416 39.496 142.968 39.224C142.52 38.952 142.172 38.58 141.924 38.108C141.676 37.628 141.552 37.084 141.552 36.476C141.552 35.868 141.676 35.328 141.924 34.856C142.172 34.376 142.52 34 142.968 33.728C143.416 33.456 143.924 33.32 144.492 33.32ZM142.596 36.476C142.596 36.908 142.676 37.292 142.836 37.628C142.996 37.964 143.22 38.228 143.508 38.42C143.796 38.604 144.124 38.696 144.492 38.696C145.052 38.696 145.508 38.492 145.86 38.084C146.212 37.676 146.388 37.14 146.388 36.476C146.388 35.812 146.212 35.276 145.86 34.868C145.508 34.46 145.052 34.256 144.492 34.256C144.124 34.256 143.796 34.352 143.508 34.544C143.22 34.728 142.996 34.988 142.836 35.324C142.676 35.66 142.596 36.044 142.596 36.476ZM148.524 36.44C148.524 35.832 148.64 35.292 148.872 34.82C149.112 34.34 149.444 33.972 149.868 33.716C150.292 33.452 150.772 33.32 151.308 33.32C151.828 33.32 152.284 33.44 152.676 33.68C153.068 33.92 153.372 34.252 153.588 34.676C153.804 35.1 153.912 35.58 153.912 36.116V36.776H149.604C149.604 37.104 149.692 37.416 149.868 37.712C150.052 38 150.308 38.236 150.636 38.42C150.972 38.596 151.36 38.684 151.8 38.684C152.224 38.684 152.608 38.616 152.952 38.48C153.296 38.344 153.592 38.168 153.84 37.952V38.996C153.632 39.172 153.344 39.324 152.976 39.452C152.608 39.572 152.196 39.632 151.74 39.632C151.116 39.632 150.56 39.5 150.072 39.236C149.584 38.972 149.204 38.6 148.932 38.12C148.66 37.632 148.524 37.072 148.524 36.44ZM152.892 35.912C152.868 35.44 152.712 35.044 152.424 34.724C152.136 34.404 151.76 34.244 151.296 34.244C150.824 34.244 150.436 34.4 150.132 34.712C149.828 35.016 149.652 35.416 149.604 35.912H152.892ZM155.458 33.452H156.49V35.876H157.282L159.25 33.452H160.462L158.158 36.272L160.498 39.5H159.262L157.258 36.74H156.49V39.5H155.458V33.452ZM161.165 33.452H166.385V34.376H164.285V39.5H163.253V34.376H161.165V33.452ZM172.791 31.052H173.907L177.063 39.5H175.923L175.107 37.268H171.567L170.763 39.5H169.635L172.791 31.052ZM174.759 36.284L173.343 32.384L171.927 36.284H174.759ZM178.216 33.452H182.32V34.376H179.248V39.5H178.216V33.452ZM183.595 33.452H184.591V34.292C184.767 34.012 185.011 33.78 185.323 33.596C185.635 33.412 186.019 33.32 186.475 33.32C186.947 33.32 187.383 33.448 187.783 33.704C188.183 33.952 188.499 34.316 188.731 34.796C188.971 35.268 189.091 35.828 189.091 36.476C189.091 37.124 188.971 37.688 188.731 38.168C188.499 38.64 188.183 39.004 187.783 39.26C187.383 39.508 186.947 39.632 186.475 39.632C186.035 39.632 185.663 39.548 185.359 39.38C185.055 39.212 184.811 38.996 184.627 38.732V41.792H183.595V33.452ZM184.627 37.892C184.827 38.14 185.071 38.336 185.359 38.48C185.655 38.624 185.971 38.696 186.307 38.696C186.835 38.696 187.255 38.496 187.567 38.096C187.887 37.688 188.047 37.148 188.047 36.476C188.047 35.812 187.887 35.276 187.567 34.868C187.255 34.46 186.835 34.256 186.307 34.256C185.971 34.256 185.655 34.328 185.359 34.472C185.071 34.616 184.827 34.812 184.627 35.06V37.892ZM193.16 33.32C193.728 33.32 194.236 33.456 194.684 33.728C195.132 34 195.48 34.376 195.728 34.856C195.984 35.328 196.112 35.868 196.112 36.476C196.112 37.084 195.984 37.628 195.728 38.108C195.48 38.58 195.132 38.952 194.684 39.224C194.236 39.496 193.728 39.632 193.16 39.632C192.592 39.632 192.084 39.496 191.636 39.224C191.188 38.952 190.84 38.58 190.592 38.108C190.344 37.628 190.22 37.084 190.22 36.476C190.22 35.868 190.344 35.328 190.592 34.856C190.84 34.376 191.188 34 191.636 33.728C192.084 33.456 192.592 33.32 193.16 33.32ZM191.264 36.476C191.264 36.908 191.344 37.292 191.504 37.628C191.664 37.964 191.888 38.228 192.176 38.42C192.464 38.604 192.792 38.696 193.16 38.696C193.72 38.696 194.176 38.492 194.528 38.084C194.88 37.676 195.056 37.14 195.056 36.476C195.056 35.812 194.88 35.276 194.528 34.868C194.176 34.46 193.72 34.256 193.16 34.256C192.792 34.256 192.464 34.352 192.176 34.544C191.888 34.728 191.664 34.988 191.504 35.324C191.344 35.66 191.264 36.044 191.264 36.476ZM198.296 35.84C198.296 36.752 198.472 37.456 198.824 37.952C199.184 38.448 199.66 38.696 200.252 38.696C200.812 38.696 201.256 38.496 201.584 38.096C201.92 37.688 202.088 37.164 202.088 36.524C202.088 35.892 201.92 35.376 201.584 34.976C201.248 34.576 200.808 34.376 200.264 34.376C199.848 34.376 199.468 34.464 199.124 34.64C198.788 34.808 198.516 35.008 198.308 35.24C198.3 35.368 198.296 35.568 198.296 35.84ZM197.252 35.84C197.252 34.392 197.532 33.264 198.092 32.456C198.652 31.64 199.54 31.156 200.756 31.004C200.836 30.996 201.08 30.968 201.488 30.92C201.896 30.864 202.248 30.796 202.544 30.716V31.712C202.224 31.792 201.692 31.864 200.948 31.928C200.132 32 199.528 32.232 199.136 32.624C198.744 33.008 198.492 33.588 198.38 34.364C198.612 34.092 198.904 33.872 199.256 33.704C199.608 33.536 199.992 33.452 200.408 33.452C200.92 33.452 201.384 33.572 201.8 33.812C202.216 34.052 202.544 34.404 202.784 34.868C203.024 35.332 203.144 35.884 203.144 36.524C203.144 37.1 203.028 37.624 202.796 38.096C202.564 38.568 202.232 38.944 201.8 39.224C201.368 39.496 200.868 39.632 200.3 39.632C199.692 39.632 199.156 39.48 198.692 39.176C198.236 38.864 197.88 38.424 197.624 37.856C197.376 37.28 197.252 36.608 197.252 35.84ZM209.876 39.476C209.684 39.58 209.476 39.632 209.252 39.632C208.972 39.632 208.724 39.56 208.508 39.416C208.3 39.272 208.168 39.076 208.112 38.828C207.712 39.364 207.12 39.632 206.336 39.632C205.728 39.632 205.22 39.464 204.812 39.128C204.404 38.792 204.2 38.34 204.2 37.772C204.2 37.188 204.432 36.728 204.896 36.392C205.36 36.056 205.944 35.888 206.648 35.888C207.2 35.888 207.68 35.964 208.088 36.116V35.552C208.088 35.136 207.956 34.82 207.692 34.604C207.428 34.38 207.068 34.268 206.612 34.268C206.228 34.268 205.848 34.34 205.472 34.484C205.104 34.62 204.804 34.796 204.572 35.012V33.992C204.78 33.816 205.072 33.66 205.448 33.524C205.824 33.388 206.24 33.32 206.696 33.32C207.44 33.32 208.028 33.516 208.46 33.908C208.892 34.3 209.108 34.828 209.108 35.492V38.312C209.108 38.456 209.148 38.568 209.228 38.648C209.308 38.72 209.42 38.756 209.564 38.756C209.692 38.756 209.796 38.732 209.876 38.684V39.476ZM205.244 37.772C205.244 38.068 205.352 38.304 205.568 38.48C205.792 38.648 206.1 38.732 206.492 38.732C207.18 38.732 207.712 38.496 208.088 38.024V36.944C207.656 36.8 207.192 36.728 206.696 36.728C206.288 36.728 205.944 36.82 205.664 37.004C205.384 37.188 205.244 37.444 205.244 37.772ZM216.092 33.452V39.5H215.06V36.812H212.084V39.5H211.052V33.452H212.084V35.888H215.06V33.452H216.092ZM217.872 33.452H218.904V35.876H219.696L221.664 33.452H222.876L220.572 36.272L222.912 39.5H221.676L219.672 36.74H218.904V39.5H217.872V33.452ZM229.212 39.476C229.02 39.58 228.812 39.632 228.588 39.632C228.308 39.632 228.06 39.56 227.844 39.416C227.636 39.272 227.504 39.076 227.448 38.828C227.048 39.364 226.456 39.632 225.672 39.632C225.064 39.632 224.556 39.464 224.148 39.128C223.74 38.792 223.536 38.34 223.536 37.772C223.536 37.188 223.768 36.728 224.232 36.392C224.696 36.056 225.28 35.888 225.984 35.888C226.536 35.888 227.016 35.964 227.424 36.116V35.552C227.424 35.136 227.292 34.82 227.028 34.604C226.764 34.38 226.404 34.268 225.948 34.268C225.564 34.268 225.184 34.34 224.808 34.484C224.44 34.62 224.14 34.796 223.908 35.012V33.992C224.116 33.816 224.408 33.66 224.784 33.524C225.16 33.388 225.576 33.32 226.032 33.32C226.776 33.32 227.364 33.516 227.796 33.908C228.228 34.3 228.444 34.828 228.444 35.492V38.312C228.444 38.456 228.484 38.568 228.564 38.648C228.644 38.72 228.756 38.756 228.9 38.756C229.028 38.756 229.132 38.732 229.212 38.684V39.476ZM224.58 37.772C224.58 38.068 224.688 38.304 224.904 38.48C225.128 38.648 225.436 38.732 225.828 38.732C226.516 38.732 227.048 38.496 227.424 38.024V36.944C226.992 36.8 226.528 36.728 226.032 36.728C225.624 36.728 225.28 36.82 225 37.004C224.72 37.188 224.58 37.444 224.58 37.772Z" fill="#86898C"/>
<path d="M64.8124 4.59278H61.1989V1.53093H71.536L79.6221 21.1268H74.1425L72.6615 17.3134H64.8421L63.3315 21.1268H58L64.8124 4.59278ZM71.2991 13.5278L68.7518 6.76392L66.1749 13.5278H71.2991Z" fill="black"/>
<path d="M88.8957 27C86.2694 27 84.0974 26.5268 82.3794 25.5804V21.8227C84.0776 22.9175 85.9535 23.4649 88.0071 23.4649C89.2314 23.4649 90.2681 23.1959 91.1171 22.6577C91.9662 22.1381 92.3908 21.2845 92.3908 20.0969V18.7608C91.9563 19.3361 91.3442 19.8278 90.5544 20.2361C89.7843 20.6258 88.8858 20.8206 87.859 20.8206C86.5558 20.8206 85.371 20.533 84.3047 19.9577C83.2582 19.3825 82.4288 18.5474 81.8167 17.4526C81.2045 16.3577 80.8985 15.068 80.8985 13.5835C80.8985 12.099 81.2045 10.8093 81.8167 9.71443C82.4288 8.61959 83.2582 7.78454 84.3047 7.20928C85.371 6.61546 86.5558 6.31856 87.859 6.31856C88.9846 6.31856 89.9521 6.55979 90.7617 7.04227C91.591 7.50619 92.2032 8.05361 92.5981 8.68454V6.68041H97.3964V20.1804C97.3964 21.6278 97.0212 22.8619 96.2709 23.8825C95.5205 24.9216 94.5036 25.701 93.2201 26.2206C91.9366 26.7402 90.4951 27 88.8957 27ZM85.9634 13.5835C85.9634 14.6969 86.2596 15.5876 86.852 16.2557C87.4443 16.9052 88.2441 17.2299 89.2511 17.2299C90.4556 17.2299 91.5022 16.8495 92.3908 16.0887V11.1062C91.5022 10.3454 90.4556 9.96495 89.2511 9.96495C88.2441 9.96495 87.4443 10.2897 86.852 10.9392C86.2596 11.5887 85.9634 12.4701 85.9634 13.5835Z" fill="black"/>
<path d="M102.576 9.74227H99.4661V6.68041H107.374V9.2134C107.73 8.41546 108.302 7.77526 109.092 7.29278C109.882 6.79175 110.86 6.54124 112.025 6.54124C112.578 6.54124 113.012 6.60618 113.328 6.73608V10.8557C112.736 10.7072 112.094 10.633 111.403 10.633C109.744 10.633 108.48 11.0227 107.611 11.8021V21.1268H102.576V9.74227Z" fill="black"/>
<path d="M123.444 6.31856C125.043 6.31856 126.495 6.63402 127.798 7.26495C129.101 7.89588 130.128 8.7866 130.878 9.93711C131.629 11.0876 132.004 12.4052 132.004 13.8897C132.004 15.3928 131.629 16.7196 130.878 17.8701C130.128 19.0206 129.101 19.9113 127.798 20.5423C126.495 21.1732 125.043 21.4887 123.444 21.4887C121.825 21.4887 120.354 21.1732 119.031 20.5423C117.728 19.9113 116.701 19.0206 115.95 17.8701C115.2 16.7196 114.825 15.3928 114.825 13.8897C114.825 12.4052 115.2 11.0876 115.95 9.93711C116.701 8.7866 117.728 7.89588 119.031 7.26495C120.354 6.63402 121.825 6.31856 123.444 6.31856ZM119.89 13.8897C119.89 15.0031 120.216 15.9216 120.867 16.6454C121.539 17.3505 122.397 17.7031 123.444 17.7031C124.471 17.7031 125.31 17.3505 125.962 16.6454C126.633 15.9216 126.969 15.0031 126.969 13.8897C126.969 12.7948 126.633 11.8948 125.962 11.1897C125.31 10.466 124.471 10.1041 123.444 10.1041C122.417 10.1041 121.568 10.466 120.897 11.1897C120.225 11.8948 119.89 12.7948 119.89 13.8897Z" fill="black"/>
<path d="M145.254 5.59485H134.591V1.53093H151.8V5.09381L141.137 17.0629H151.8V21.1268H134.591V17.5361L145.254 5.59485Z" fill="black"/>
<path d="M171.308 20.8763C171.13 21.0062 170.784 21.1361 170.271 21.266C169.777 21.4144 169.224 21.4887 168.612 21.4887C167.724 21.4887 166.934 21.3216 166.243 20.9876C165.552 20.6536 165.078 20.1804 164.821 19.568C163.814 20.8485 162.224 21.4887 160.052 21.4887C158.986 21.4887 158.018 21.2938 157.15 20.9041C156.281 20.5144 155.59 19.9763 155.076 19.2897C154.583 18.5845 154.336 17.8052 154.336 16.9515C154.336 15.4113 155.017 14.2608 156.38 13.5C157.742 12.7206 159.43 12.3309 161.444 12.3309C162.59 12.3309 163.646 12.4515 164.614 12.6928V12.0804C164.614 11.3381 164.278 10.7814 163.607 10.4103C162.955 10.0206 162.076 9.82577 160.971 9.82577C160.042 9.82577 159.114 9.96495 158.186 10.2433C157.258 10.5031 156.419 10.9021 155.669 11.4402V7.71031C156.399 7.30206 157.327 6.96804 158.453 6.70825C159.578 6.44845 160.743 6.31856 161.948 6.31856C164.337 6.31856 166.193 6.82887 167.516 7.84948C168.859 8.8701 169.53 10.2711 169.53 12.0526V17.2299C169.53 17.5454 169.629 17.7773 169.827 17.9258C170.044 18.0557 170.31 18.1206 170.626 18.1206C170.923 18.1206 171.15 18.0742 171.308 17.9814V20.8763ZM159.371 16.701C159.371 17.1649 159.578 17.5361 159.993 17.8144C160.428 18.0928 160.99 18.232 161.681 18.232C162.827 18.232 163.804 17.8237 164.614 17.0072V15.3928C163.863 15.1887 163.054 15.0866 162.185 15.0866C161.415 15.0866 160.753 15.2165 160.2 15.4763C159.648 15.7175 159.371 16.1258 159.371 16.701Z" fill="black"/>
<path d="M174.774 21.1268V9.74227H171.605V6.68041H179.573V8.62887C180.106 7.96082 180.787 7.4134 181.617 6.9866C182.446 6.54124 183.394 6.31856 184.46 6.31856C185.546 6.31856 186.474 6.53196 187.244 6.95876C188.034 7.36701 188.636 7.91443 189.051 8.60103C189.545 7.9701 190.206 7.43196 191.035 6.9866C191.885 6.54124 192.911 6.31856 194.116 6.31856C195.814 6.31856 197.186 6.76392 198.233 7.65464C199.28 8.54536 199.803 9.77938 199.803 11.3567V21.1268H194.768V12.5814C194.768 11.8392 194.54 11.2639 194.086 10.8557C193.652 10.4474 193.05 10.2433 192.279 10.2433C191.233 10.2433 190.404 10.5309 189.791 11.1062V21.1268H184.756V12.5814C184.756 11.8392 184.539 11.2639 184.105 10.8557C183.67 10.4474 183.068 10.2433 182.298 10.2433C181.271 10.2433 180.442 10.5216 179.81 11.0784V21.1268H174.774Z" fill="black"/>
<path d="M209.632 21.1268H204.596V9.74227H201.427V6.68041H209.632V21.1268ZM206.966 0C207.775 0 208.447 0.231959 208.98 0.695877C209.533 1.15979 209.809 1.73505 209.809 2.42165C209.809 3.10825 209.533 3.68351 208.98 4.14742C208.447 4.61134 207.775 4.8433 206.966 4.8433C206.176 4.8433 205.505 4.61134 204.952 4.14742C204.419 3.68351 204.152 3.10825 204.152 2.42165C204.152 1.73505 204.419 1.15979 204.952 0.695877C205.505 0.231959 206.176 0 206.966 0Z" fill="black"/>
<path d="M213.479 21.1268V6.68041H218.278V8.62887C218.831 7.96082 219.532 7.4134 220.381 6.9866C221.25 6.54124 222.237 6.31856 223.343 6.31856C225.041 6.31856 226.403 6.76392 227.43 7.65464C228.477 8.54536 229 9.79794 229 11.4124V21.1268H223.965V12.8598C223.965 11.9876 223.718 11.3381 223.224 10.9113C222.75 10.466 222.049 10.2433 221.121 10.2433C220.015 10.2433 219.147 10.5402 218.515 11.134V21.1268H213.479Z" fill="black"/>
</svg>
