<svg width="300" height="100" viewBox="0 0 300 100" fill="none" xmlns="http://www.w3.org/2000/svg">
<rect width="300" height="100" rx="12" fill="white"/>
<path d="M86 50.7794H90.3136L91.5358 47.3897H97.8624L99.0606 50.7794H103.494L96.9517 33.3608H88.5882V36.0825H91.5118L86 50.7794ZM92.6142 44.0247L94.6991 38.0124L96.76 44.0247H92.6142Z" fill="black"/>
<path d="M110.997 56C114.807 56 117.875 53.9216 117.875 49.9381V37.9381H113.993V39.7196C113.441 38.7546 112.147 37.6165 110.158 37.6165C106.995 37.6165 104.527 40.0165 104.527 44.0742C104.527 48.132 106.995 50.5072 110.158 50.5072C111.956 50.5072 113.202 49.567 113.825 48.6763V49.8639C113.825 52.1402 112.004 52.8577 110.278 52.8577C108.601 52.8577 107.091 52.3629 105.725 51.3979V54.7381C106.995 55.5052 108.673 56 110.997 56ZM108.625 44.0742C108.625 42.0948 109.655 40.8577 111.285 40.8577C112.243 40.8577 113.082 41.1794 113.825 41.8722V46.301C113.082 46.9938 112.243 47.3155 111.285 47.3155C109.655 47.3155 108.625 46.0536 108.625 44.0742Z" fill="black"/>
<path d="M122.066 50.7794H126.14V42.4907C126.739 41.8969 127.721 41.4515 129.207 41.4515C129.806 41.4515 130.405 41.5505 130.765 41.6495V37.9876C130.549 37.8887 130.118 37.8144 129.71 37.8144C127.721 37.8144 126.475 38.8784 125.948 40.1897V37.9381H119.549V40.6598H122.066V50.7794Z" fill="black"/>
<path d="M138.949 37.6165C134.995 37.6165 131.976 40.2887 131.976 44.3464C131.976 48.4289 134.995 51.101 138.949 51.101C142.832 51.101 145.875 48.4289 145.875 44.3464C145.875 40.2887 142.832 37.6165 138.949 37.6165ZM136.074 44.3464C136.074 42.3918 137.272 40.9814 138.949 40.9814C140.603 40.9814 141.801 42.3918 141.801 44.3464C141.801 46.3258 140.603 47.7361 138.949 47.7361C137.272 47.7361 136.074 46.3258 136.074 44.3464Z" fill="black"/>
<path d="M149.837 50.7794H158.489C162.299 50.7794 164.647 48.6763 164.647 45.7814C164.647 43.3567 163.018 41.9959 161.149 41.6247C162.826 41.1794 163.976 39.8433 163.976 37.8144C163.976 35.3649 162.059 33.3608 158.129 33.3608H146.986V36.0825H149.837V50.7794ZM154.103 47.4144V43.4804H157.866C159.303 43.4804 160.286 44.2227 160.286 45.4351C160.286 46.6969 159.279 47.4144 157.866 47.4144H154.103ZM154.103 40.3134V36.701H157.482C158.824 36.701 159.663 37.4433 159.663 38.5072C159.663 39.5711 158.824 40.3134 157.506 40.3134H154.103Z" fill="black"/>
<path d="M175.483 37.9381V46.7959C174.956 47.3402 174.165 47.5876 173.374 47.5876C171.864 47.5876 171.074 46.8454 171.074 45.2619V37.9381H167V46.5732C167 49.4928 168.893 51.101 171.577 51.101C173.518 51.101 174.884 50.0619 175.675 49.0227V50.7794H179.557V37.9381H175.483Z" fill="black"/>
<path d="M182.395 46.5485V49.8144C183.377 50.532 185.606 51.101 187.954 51.101C191.214 51.101 193.73 49.5423 193.73 46.8701C193.73 44.2722 191.525 43.3072 189.201 42.8371L187.978 42.5897C186.756 42.3423 186.205 42.1443 186.205 41.6247C186.205 41.0309 186.948 40.734 188.194 40.734C189.776 40.734 191.501 41.2289 192.939 42.0948V38.8784C191.957 38.1608 190.231 37.6165 188.026 37.6165C184.576 37.6165 182.131 39.3237 182.131 41.7732C182.131 44.1979 184.144 45.3608 186.804 45.8557L188.002 46.0784C189.201 46.301 189.656 46.499 189.656 47.0186C189.656 47.6866 188.745 47.9835 187.403 47.9835C185.678 47.9835 183.545 47.2412 182.395 46.5485Z" fill="black"/>
<path d="M195.828 46.5485V49.8144C196.81 50.532 199.039 51.101 201.388 51.101C204.647 51.101 207.163 49.5423 207.163 46.8701C207.163 44.2722 204.958 43.3072 202.634 42.8371L201.412 42.5897C200.189 42.3423 199.638 42.1443 199.638 41.6247C199.638 41.0309 200.381 40.734 201.627 40.734C203.209 40.734 204.934 41.2289 206.372 42.0948V38.8784C205.39 38.1608 203.664 37.6165 201.46 37.6165C198.009 37.6165 195.564 39.3237 195.564 41.7732C195.564 44.1979 197.577 45.3608 200.237 45.8557L201.436 46.0784C202.634 46.301 203.089 46.499 203.089 47.0186C203.089 47.6866 202.178 47.9835 200.836 47.9835C199.111 47.9835 196.978 47.2412 195.828 46.5485Z" fill="black"/>
<path d="M214.509 37.9381H207.871V40.6598H210.435V50.7794H214.509V37.9381ZM210.076 34.1526C210.076 35.3897 211.082 36.3052 212.352 36.3052C213.647 36.3052 214.653 35.3897 214.653 34.1526C214.653 32.9402 213.647 32 212.352 32C211.082 32 210.076 32.9402 210.076 34.1526Z" fill="black"/>
<path d="M221.696 50.7794V41.8969C222.224 41.3526 222.991 41.1052 223.805 41.1052C225.291 41.1052 226.106 41.8722 226.106 43.4309V50.7794H230.18V42.1443C230.18 39.2247 228.287 37.6165 225.603 37.6165C223.662 37.6165 222.296 38.6309 221.505 39.6701V37.9381H217.623V50.7794H221.696Z" fill="black"/>
<path d="M232.49 44.1979C232.49 48.6021 235.654 51.101 240.087 51.101C242.052 51.101 244.089 50.6062 245.096 49.8639V46.6969C243.945 47.3897 242.507 47.8845 240.566 47.8845C238.505 47.8845 236.66 46.7711 236.636 45.3856H245.287V43.7278C245.287 39.868 242.579 37.6165 239.105 37.6165C235.486 37.6165 232.49 40.2392 232.49 44.1979ZM236.636 42.8866C236.708 41.5258 237.691 40.5856 239.057 40.5856C240.399 40.5856 241.309 41.5258 241.357 42.8866H236.636Z" fill="black"/>
<path d="M247.665 46.5485V49.8144C248.647 50.532 250.876 51.101 253.225 51.101C256.484 51.101 259 49.5423 259 46.8701C259 44.2722 256.795 43.3072 254.471 42.8371L253.249 42.5897C252.026 42.3423 251.475 42.1443 251.475 41.6247C251.475 41.0309 252.218 40.734 253.464 40.734C255.046 40.734 256.771 41.2289 258.209 42.0948V38.8784C257.227 38.1608 255.501 37.6165 253.296 37.6165C249.846 37.6165 247.401 39.3237 247.401 41.7732C247.401 44.1979 249.414 45.3608 252.074 45.8557L253.273 46.0784C254.471 46.301 254.926 46.499 254.926 47.0186C254.926 47.6866 254.015 47.9835 252.673 47.9835C250.948 47.9835 248.815 47.2412 247.665 46.5485Z" fill="black"/>
<path d="M88 60.3034V67.9307H88.9457V61.1918H92.8562V67.9307H93.8019V60.3034H88Z" fill="#7C7C7C"/>
<path d="M95.5098 70H96.4236V67.2373C96.7106 67.649 97.2206 68.0498 98.0601 68.0498C99.3033 68.0498 100.377 67.0206 100.377 65.2004C100.377 63.3803 99.3033 62.351 98.0601 62.351C97.1781 62.351 96.668 62.7844 96.3918 63.2286V62.4702H95.5098V70ZM96.4236 66.4789V63.922C96.7743 63.4778 97.3056 63.1961 97.9113 63.1961C98.857 63.1961 99.4521 64.0087 99.4521 65.2004C99.4521 66.403 98.857 67.2048 97.9113 67.2048C97.3056 67.2048 96.7743 66.9231 96.4236 66.4789Z" fill="#7C7C7C"/>
<path d="M103.979 62.351C102.449 62.351 101.376 63.5428 101.376 65.2004C101.376 66.8581 102.449 68.0498 103.979 68.0498C105.51 68.0498 106.593 66.8581 106.593 65.2004C106.593 63.5428 105.51 62.351 103.979 62.351ZM102.3 65.2004C102.3 64.0087 102.991 63.1961 103.979 63.1961C104.978 63.1961 105.658 64.0087 105.658 65.2004C105.658 66.3922 104.978 67.2048 103.979 67.2048C102.991 67.2048 102.3 66.3922 102.3 65.2004Z" fill="#7C7C7C"/>
<path d="M107.55 65.1679C107.55 66.9122 108.719 68.0498 110.398 68.0498C111.27 68.0498 111.928 67.7573 112.258 67.4756V66.533C111.854 66.8906 111.248 67.1939 110.451 67.1939C109.229 67.1939 108.507 66.338 108.507 65.4713H112.322V64.8754C112.322 63.4236 111.418 62.351 110.016 62.351C108.571 62.351 107.55 63.4886 107.55 65.1679ZM108.507 64.6912C108.592 63.8245 109.144 63.1853 110.005 63.1853C110.855 63.1853 111.376 63.8678 111.418 64.6912H108.507Z" fill="#7C7C7C"/>
<path d="M113.691 67.9307H114.604V65.4388H115.284L117.059 67.9307H118.153L116.081 65.0163L118.122 62.4702H117.048L115.306 64.6587H114.604V62.4702H113.691V67.9307Z" fill="#7C7C7C"/>
<path d="M118.744 63.3044H120.593V67.9307H121.507V63.3044H123.366V62.4702H118.744V63.3044Z" fill="#7C7C7C"/>
<path d="M126.244 67.9307H127.243L127.955 65.9155H131.09L131.812 67.9307H132.822L130.027 60.3034H129.039L126.244 67.9307ZM128.274 65.0271L129.528 61.506L130.782 65.0271H128.274Z" fill="#7C7C7C"/>
<path d="M133.843 67.9307H134.757V63.3044H137.477V62.4702H133.843V67.9307Z" fill="#7C7C7C"/>
<path d="M138.606 70H139.52V67.2373C139.807 67.649 140.317 68.0498 141.156 68.0498C142.399 68.0498 143.473 67.0206 143.473 65.2004C143.473 63.3803 142.399 62.351 141.156 62.351C140.274 62.351 139.764 62.7844 139.488 63.2286V62.4702H138.606V70ZM139.52 66.4789V63.922C139.87 63.4778 140.402 63.1961 141.007 63.1961C141.953 63.1961 142.548 64.0087 142.548 65.2004C142.548 66.403 141.953 67.2048 141.007 67.2048C140.402 67.2048 139.87 66.9231 139.52 66.4789Z" fill="#7C7C7C"/>
<path d="M147.076 62.351C145.545 62.351 144.472 63.5428 144.472 65.2004C144.472 66.8581 145.545 68.0498 147.076 68.0498C148.606 68.0498 149.69 66.8581 149.69 65.2004C149.69 63.5428 148.606 62.351 147.076 62.351ZM145.397 65.2004C145.397 64.0087 146.087 63.1961 147.076 63.1961C148.074 63.1961 148.755 64.0087 148.755 65.2004C148.755 66.3922 148.074 67.2048 147.076 67.2048C146.087 67.2048 145.397 66.3922 145.397 65.2004Z" fill="#7C7C7C"/>
<path d="M151.624 64.6262C151.624 64.442 151.624 64.2579 151.635 64.0845C151.943 63.7378 152.549 63.3044 153.367 63.3044C154.344 63.3044 154.982 64.1062 154.982 65.2438C154.982 66.3814 154.366 67.2048 153.356 67.2048C152.336 67.2048 151.624 66.3164 151.624 64.6262ZM150.7 64.6262C150.7 66.7172 151.762 68.0498 153.399 68.0498C154.95 68.0498 155.917 66.7931 155.917 65.2438C155.917 63.4561 154.844 62.4702 153.494 62.4702C152.719 62.4702 152.081 62.8277 151.699 63.2936C151.89 61.9285 152.485 61.2243 153.973 61.0943C154.568 61.0401 155.035 60.9859 155.386 60.8992V60C154.94 60.1192 154.376 60.1842 153.803 60.26C151.603 60.5417 150.7 62.0802 150.7 64.6262Z" fill="#7C7C7C"/>
<path d="M161.878 67.909V67.1939C161.803 67.2373 161.708 67.2589 161.601 67.2589C161.357 67.2589 161.198 67.1289 161.198 66.8581V64.312C161.198 63.1203 160.39 62.351 159.062 62.351C158.19 62.351 157.5 62.6761 157.181 62.9577V63.8787C157.585 63.4995 158.297 63.2069 158.987 63.2069C159.774 63.2069 160.294 63.597 160.294 64.3662V64.8754C160.008 64.7671 159.604 64.6696 159.019 64.6696C157.819 64.6696 156.852 65.2871 156.852 66.3705C156.852 67.4215 157.702 68.0498 158.743 68.0498C159.54 68.0498 160.008 67.7465 160.316 67.3239C160.411 67.779 160.836 68.0498 161.325 68.0498C161.591 68.0498 161.761 67.974 161.878 67.909ZM157.776 66.3705C157.776 65.753 158.371 65.428 159.062 65.428C159.572 65.428 159.976 65.5146 160.294 65.623V66.598C159.997 66.9772 159.572 67.2373 158.881 67.2373C158.19 67.2373 157.776 66.9014 157.776 66.3705Z" fill="#7C7C7C"/>
<path d="M166.469 62.4702V64.6696H163.833V62.4702H162.92V67.9307H163.833V65.5038H166.469V67.9307H167.383V62.4702H166.469Z" fill="#7C7C7C"/>
<path d="M168.959 67.9307H169.873V65.4388H170.553L172.328 67.9307H173.422L171.35 65.0163L173.39 62.4702H172.317L170.574 64.6587H169.873V62.4702H168.959V67.9307Z" fill="#7C7C7C"/>
<path d="M179 67.909V67.1939C178.926 67.2373 178.83 67.2589 178.724 67.2589C178.479 67.2589 178.32 67.1289 178.32 66.8581V64.312C178.32 63.1203 177.512 62.351 176.184 62.351C175.313 62.351 174.622 62.6761 174.303 62.9577V63.8787C174.707 63.4995 175.419 63.2069 176.11 63.2069C176.896 63.2069 177.417 63.597 177.417 64.3662V64.8754C177.13 64.7671 176.726 64.6696 176.142 64.6696C174.941 64.6696 173.974 65.2871 173.974 66.3705C173.974 67.4215 174.824 68.0498 175.865 68.0498C176.662 68.0498 177.13 67.7465 177.438 67.3239C177.534 67.779 177.959 68.0498 178.447 68.0498C178.713 68.0498 178.883 67.974 179 67.909ZM174.898 66.3705C174.898 65.753 175.493 65.428 176.184 65.428C176.694 65.428 177.098 65.5146 177.417 65.623V66.598C177.119 66.9772 176.694 67.2373 176.003 67.2373C175.313 67.2373 174.898 66.9014 174.898 66.3705Z" fill="#7C7C7C"/>
<path fill-rule="evenodd" clip-rule="evenodd" d="M64.6667 45L64.6621 45C59.5556 45.0024 55.4167 49.0309 55.4167 54C55.4167 49.9992 52.7337 46.6082 49.0228 45.4372C43.819 46.8446 40 51.4884 40 57L40 63C40 66.3137 42.7609 69 46.1667 69H64.6667C71.4782 69 77 63.6274 77 57C77 50.3726 71.4782 45 64.6667 45Z" fill="url(#paint0_linear_1423_49985)"/>
<path fill-rule="evenodd" clip-rule="evenodd" d="M55.4167 60C63.9311 60 70.8333 53.2843 70.8333 45C70.8333 36.7157 63.9311 30 55.4167 30C46.9023 30 40 36.7157 40 45L40 60H55.4167ZM55.4167 36C55.4167 40.9705 59.558 45 64.6667 45C59.558 45 55.4167 49.0294 55.4167 54C55.4167 49.0294 51.2753 45 46.1667 45C51.2753 45 55.4167 40.9705 55.4167 36Z" fill="url(#paint1_linear_1423_49985)"/>
<defs>
<linearGradient id="paint0_linear_1423_49985" x1="77" y1="49.5" x2="40" y2="49.5" gradientUnits="userSpaceOnUse">
<stop stop-color="#13D8A0"/>
<stop offset="1" stop-color="#139DD8"/>
</linearGradient>
<linearGradient id="paint1_linear_1423_49985" x1="40" y1="60" x2="69.9887" y2="29.1782" gradientUnits="userSpaceOnUse">
<stop stop-color="#B260F2"/>
<stop offset="1" stop-color="#6060F2"/>
</linearGradient>
</defs>
</svg>
