<svg width="248" height="45" viewBox="0 0 248 45" fill="none" xmlns="http://www.w3.org/2000/svg">
<path d="M51.9372 23.3334H56.7972L58.1742 19.6344H65.3022L66.6522 23.3334H71.6472L64.2762 4.32543H54.8532V7.29543H58.1472L51.9372 23.3334ZM59.3892 15.9624L61.7382 9.40143L64.0602 15.9624H59.3892ZM80.1007 29.0304C84.3937 29.0304 87.8497 26.7624 87.8497 22.4154V9.32043H83.4757V11.2644C82.8547 10.2114 81.3967 8.96943 79.1557 8.96943C75.5917 8.96943 72.8107 11.5884 72.8107 16.0164C72.8107 20.4444 75.5917 23.0364 79.1557 23.0364C81.1807 23.0364 82.5847 22.0104 83.2867 21.0384V22.3344C83.2867 24.8184 81.2347 25.6014 79.2907 25.6014C77.4007 25.6014 75.6997 25.0614 74.1607 24.0084V27.6534C75.5917 28.4904 77.4817 29.0304 80.1007 29.0304ZM77.4277 16.0164C77.4277 13.8564 78.5887 12.5064 80.4247 12.5064C81.5047 12.5064 82.4497 12.8574 83.2867 13.6134V18.4464C82.4497 19.2024 81.5047 19.5534 80.4247 19.5534C78.5887 19.5534 77.4277 18.1764 77.4277 16.0164ZM92.5713 23.3334H97.1613V14.2884C97.8363 13.6404 98.9433 13.1544 100.617 13.1544C101.292 13.1544 101.967 13.2624 102.372 13.3704V9.37443C102.129 9.26643 101.643 9.18543 101.184 9.18543C98.9433 9.18543 97.5393 10.3464 96.9453 11.7774V9.32043H89.7363V12.2904H92.5713V23.3334ZM111.594 8.96943C107.139 8.96943 103.737 11.8854 103.737 16.3134C103.737 20.7684 107.139 23.6844 111.594 23.6844C115.968 23.6844 119.397 20.7684 119.397 16.3134C119.397 11.8854 115.968 8.96943 111.594 8.96943ZM108.354 16.3134C108.354 14.1804 109.704 12.6414 111.594 12.6414C113.457 12.6414 114.807 14.1804 114.807 16.3134C114.807 18.4734 113.457 20.0124 111.594 20.0124C109.704 20.0124 108.354 18.4734 108.354 16.3134ZM123.861 23.3334H133.608C137.901 23.3334 140.547 21.0384 140.547 17.8794C140.547 15.2334 138.711 13.7484 136.605 13.3434C138.495 12.8574 139.791 11.3994 139.791 9.18543C139.791 6.51243 137.631 4.32543 133.203 4.32543H120.648V7.29543H123.861V23.3334ZM128.667 19.6614V15.3684H132.906C134.526 15.3684 135.633 16.1784 135.633 17.5014C135.633 18.8784 134.499 19.6614 132.906 19.6614H128.667ZM128.667 11.9124V7.97043H132.474C133.986 7.97043 134.931 8.78043 134.931 9.94143C134.931 11.1024 133.986 11.9124 132.501 11.9124H128.667ZM152.755 9.32043V18.9864C152.161 19.5804 151.27 19.8504 150.379 19.8504C148.678 19.8504 147.787 19.0404 147.787 17.3124V9.32043H143.197V18.7434C143.197 21.9294 145.33 23.6844 148.354 23.6844C150.541 23.6844 152.08 22.5504 152.971 21.4164V23.3334H157.345V9.32043H152.755ZM160.543 18.7164V22.2804C161.65 23.0634 164.161 23.6844 166.807 23.6844C170.479 23.6844 173.314 21.9834 173.314 19.0674C173.314 16.2324 170.83 15.1794 168.211 14.6664L166.834 14.3964C165.457 14.1264 164.836 13.9104 164.836 13.3434C164.836 12.6954 165.673 12.3714 167.077 12.3714C168.859 12.3714 170.803 12.9114 172.423 13.8564V10.3464C171.316 9.56343 169.372 8.96943 166.888 8.96943C163 8.96943 160.246 10.8324 160.246 13.5054C160.246 16.1514 162.514 17.4204 165.511 17.9604L166.861 18.2034C168.211 18.4464 168.724 18.6624 168.724 19.2294C168.724 19.9584 167.698 20.2824 166.186 20.2824C164.242 20.2824 161.839 19.4724 160.543 18.7164ZM175.677 18.7164V22.2804C176.784 23.0634 179.295 23.6844 181.941 23.6844C185.613 23.6844 188.448 21.9834 188.448 19.0674C188.448 16.2324 185.964 15.1794 183.345 14.6664L181.968 14.3964C180.591 14.1264 179.97 13.9104 179.97 13.3434C179.97 12.6954 180.807 12.3714 182.211 12.3714C183.993 12.3714 185.937 12.9114 187.557 13.8564V10.3464C186.45 9.56343 184.506 8.96943 182.022 8.96943C178.134 8.96943 175.38 10.8324 175.38 13.5054C175.38 16.1514 177.648 17.4204 180.645 17.9604L181.995 18.2034C183.345 18.4464 183.858 18.6624 183.858 19.2294C183.858 19.9584 182.832 20.2824 181.32 20.2824C179.376 20.2824 176.973 19.4724 175.677 18.7164ZM196.725 9.32043H189.246V12.2904H192.135V23.3334H196.725V9.32043ZM191.73 5.18943C191.73 6.53943 192.864 7.53843 194.295 7.53843C195.753 7.53843 196.887 6.53943 196.887 5.18943C196.887 3.86643 195.753 2.84043 194.295 2.84043C192.864 2.84043 191.73 3.86643 191.73 5.18943ZM204.823 23.3334V13.6404C205.417 13.0464 206.281 12.7764 207.199 12.7764C208.873 12.7764 209.791 13.6134 209.791 15.3144V23.3334H214.381V13.9104C214.381 10.7244 212.248 8.96943 209.224 8.96943C207.037 8.96943 205.498 10.0764 204.607 11.2104V9.32043H200.233V23.3334H204.823ZM216.984 16.1514C216.984 20.9574 220.548 23.6844 225.543 23.6844C227.757 23.6844 230.052 23.1444 231.186 22.3344V18.8784C229.89 19.6344 228.27 20.1744 226.083 20.1744C223.761 20.1744 221.682 18.9594 221.655 17.4474H231.402V15.6384C231.402 11.4264 228.351 8.96943 224.436 8.96943C220.359 8.96943 216.984 11.8314 216.984 16.1514ZM221.655 14.7204C221.736 13.2354 222.843 12.2094 224.382 12.2094C225.894 12.2094 226.92 13.2354 226.974 14.7204H221.655ZM234.081 18.7164V22.2804C235.188 23.0634 237.699 23.6844 240.345 23.6844C244.017 23.6844 246.852 21.9834 246.852 19.0674C246.852 16.2324 244.368 15.1794 241.749 14.6664L240.372 14.3964C238.995 14.1264 238.374 13.9104 238.374 13.3434C238.374 12.6954 239.211 12.3714 240.615 12.3714C242.397 12.3714 244.341 12.9114 245.961 13.8564V10.3464C244.854 9.56343 242.91 8.96943 240.426 8.96943C236.538 8.96943 233.784 10.8324 233.784 13.5054C233.784 16.1514 236.052 17.4204 239.049 17.9604L240.399 18.2034C241.749 18.4464 242.262 18.6624 242.262 19.2294C242.262 19.9584 241.236 20.2824 239.724 20.2824C237.78 20.2824 235.377 19.4724 234.081 18.7164Z" fill="black"/>
<path d="M60.0845 33.8854V42.3334H59.0165V34.8694H54.6005V42.3334H53.5325V33.8854H60.0845ZM62.0132 36.2854H63.0092V37.1254C63.1852 36.8454 63.4292 36.6134 63.7412 36.4294C64.0532 36.2454 64.4372 36.1534 64.8932 36.1534C65.3652 36.1534 65.8012 36.2814 66.2012 36.5374C66.6012 36.7854 66.9172 37.1494 67.1492 37.6294C67.3892 38.1014 67.5092 38.6614 67.5092 39.3094C67.5092 39.9574 67.3892 40.5214 67.1492 41.0014C66.9172 41.4734 66.6012 41.8374 66.2012 42.0934C65.8012 42.3414 65.3652 42.4654 64.8932 42.4654C64.4532 42.4654 64.0812 42.3814 63.7772 42.2134C63.4732 42.0454 63.2292 41.8294 63.0452 41.5654V44.6254H62.0132V36.2854ZM63.0452 40.7254C63.2452 40.9734 63.4892 41.1694 63.7772 41.3134C64.0732 41.4574 64.3892 41.5294 64.7252 41.5294C65.2532 41.5294 65.6732 41.3294 65.9852 40.9294C66.3052 40.5214 66.4652 39.9814 66.4652 39.3094C66.4652 38.6454 66.3052 38.1094 65.9852 37.7014C65.6732 37.2934 65.2532 37.0894 64.7252 37.0894C64.3892 37.0894 64.0732 37.1614 63.7772 37.3054C63.4892 37.4494 63.2452 37.6454 63.0452 37.8934V40.7254ZM71.5779 36.1534C72.1459 36.1534 72.6539 36.2894 73.1019 36.5614C73.5499 36.8334 73.8979 37.2094 74.1459 37.6894C74.4019 38.1614 74.5299 38.7014 74.5299 39.3094C74.5299 39.9174 74.4019 40.4614 74.1459 40.9414C73.8979 41.4134 73.5499 41.7854 73.1019 42.0574C72.6539 42.3294 72.1459 42.4654 71.5779 42.4654C71.0099 42.4654 70.5019 42.3294 70.0539 42.0574C69.6059 41.7854 69.2579 41.4134 69.0099 40.9414C68.7619 40.4614 68.6379 39.9174 68.6379 39.3094C68.6379 38.7014 68.7619 38.1614 69.0099 37.6894C69.2579 37.2094 69.6059 36.8334 70.0539 36.5614C70.5019 36.2894 71.0099 36.1534 71.5779 36.1534ZM69.6819 39.3094C69.6819 39.7414 69.7619 40.1254 69.9219 40.4614C70.0819 40.7974 70.3059 41.0614 70.5939 41.2534C70.8819 41.4374 71.2099 41.5294 71.5779 41.5294C72.1379 41.5294 72.5939 41.3254 72.9459 40.9174C73.2979 40.5094 73.4739 39.9734 73.4739 39.3094C73.4739 38.6454 73.2979 38.1094 72.9459 37.7014C72.5939 37.2934 72.1379 37.0894 71.5779 37.0894C71.2099 37.0894 70.8819 37.1854 70.5939 37.3774C70.3059 37.5614 70.0819 37.8214 69.9219 38.1574C69.7619 38.4934 69.6819 38.8774 69.6819 39.3094ZM75.6106 39.2734C75.6106 38.6654 75.7266 38.1254 75.9586 37.6534C76.1986 37.1734 76.5306 36.8054 76.9546 36.5494C77.3786 36.2854 77.8586 36.1534 78.3946 36.1534C78.9146 36.1534 79.3706 36.2734 79.7626 36.5134C80.1546 36.7534 80.4586 37.0854 80.6746 37.5094C80.8906 37.9334 80.9986 38.4134 80.9986 38.9494V39.6094H76.6906C76.6906 39.9374 76.7786 40.2494 76.9546 40.5454C77.1386 40.8334 77.3946 41.0694 77.7226 41.2534C78.0586 41.4294 78.4466 41.5174 78.8866 41.5174C79.3106 41.5174 79.6946 41.4494 80.0386 41.3134C80.3826 41.1774 80.6786 41.0014 80.9266 40.7854V41.8294C80.7186 42.0054 80.4306 42.1574 80.0626 42.2854C79.6946 42.4054 79.2826 42.4654 78.8266 42.4654C78.2026 42.4654 77.6466 42.3334 77.1586 42.0694C76.6706 41.8054 76.2906 41.4334 76.0186 40.9534C75.7466 40.4654 75.6106 39.9054 75.6106 39.2734ZM79.9786 38.7454C79.9546 38.2734 79.7986 37.8774 79.5106 37.5574C79.2226 37.2374 78.8466 37.0774 78.3826 37.0774C77.9106 37.0774 77.5226 37.2334 77.2186 37.5454C76.9146 37.8494 76.7386 38.2494 76.6906 38.7454H79.9786ZM82.5445 36.2854H83.5765V38.7094H84.3685L86.3365 36.2854H87.5485L85.2445 39.1054L87.5845 42.3334H86.3485L84.3445 39.5734H83.5765V42.3334H82.5445V36.2854ZM88.2514 36.2854H93.4714V37.2094H91.3714V42.3334H90.3394V37.2094H88.2514V36.2854ZM99.8773 33.8854H100.993L104.149 42.3334H103.009L102.193 40.1014H98.6533L97.8493 42.3334H96.7213L99.8773 33.8854ZM101.845 39.1174L100.429 35.2174L99.0133 39.1174H101.845ZM105.302 36.2854H109.406V37.2094H106.334V42.3334H105.302V36.2854ZM110.681 36.2854H111.677V37.1254C111.853 36.8454 112.097 36.6134 112.409 36.4294C112.721 36.2454 113.105 36.1534 113.561 36.1534C114.033 36.1534 114.469 36.2814 114.869 36.5374C115.269 36.7854 115.585 37.1494 115.817 37.6294C116.057 38.1014 116.177 38.6614 116.177 39.3094C116.177 39.9574 116.057 40.5214 115.817 41.0014C115.585 41.4734 115.269 41.8374 114.869 42.0934C114.469 42.3414 114.033 42.4654 113.561 42.4654C113.121 42.4654 112.749 42.3814 112.445 42.2134C112.141 42.0454 111.897 41.8294 111.713 41.5654V44.6254H110.681V36.2854ZM111.713 40.7254C111.913 40.9734 112.157 41.1694 112.445 41.3134C112.741 41.4574 113.057 41.5294 113.393 41.5294C113.921 41.5294 114.341 41.3294 114.653 40.9294C114.973 40.5214 115.133 39.9814 115.133 39.3094C115.133 38.6454 114.973 38.1094 114.653 37.7014C114.341 37.2934 113.921 37.0894 113.393 37.0894C113.057 37.0894 112.741 37.1614 112.445 37.3054C112.157 37.4494 111.913 37.6454 111.713 37.8934V40.7254ZM120.246 36.1534C120.814 36.1534 121.322 36.2894 121.77 36.5614C122.218 36.8334 122.566 37.2094 122.814 37.6894C123.07 38.1614 123.198 38.7014 123.198 39.3094C123.198 39.9174 123.07 40.4614 122.814 40.9414C122.566 41.4134 122.218 41.7854 121.77 42.0574C121.322 42.3294 120.814 42.4654 120.246 42.4654C119.678 42.4654 119.17 42.3294 118.722 42.0574C118.274 41.7854 117.926 41.4134 117.678 40.9414C117.43 40.4614 117.306 39.9174 117.306 39.3094C117.306 38.7014 117.43 38.1614 117.678 37.6894C117.926 37.2094 118.274 36.8334 118.722 36.5614C119.17 36.2894 119.678 36.1534 120.246 36.1534ZM118.35 39.3094C118.35 39.7414 118.43 40.1254 118.59 40.4614C118.75 40.7974 118.974 41.0614 119.262 41.2534C119.55 41.4374 119.878 41.5294 120.246 41.5294C120.806 41.5294 121.262 41.3254 121.614 40.9174C121.966 40.5094 122.142 39.9734 122.142 39.3094C122.142 38.6454 121.966 38.1094 121.614 37.7014C121.262 37.2934 120.806 37.0894 120.246 37.0894C119.878 37.0894 119.55 37.1854 119.262 37.3774C118.974 37.5614 118.75 37.8214 118.59 38.1574C118.43 38.4934 118.35 38.8774 118.35 39.3094ZM125.383 38.6734C125.383 39.5854 125.559 40.2894 125.911 40.7854C126.271 41.2814 126.747 41.5294 127.339 41.5294C127.899 41.5294 128.343 41.3294 128.671 40.9294C129.007 40.5214 129.175 39.9974 129.175 39.3574C129.175 38.7254 129.007 38.2094 128.671 37.8094C128.335 37.4094 127.895 37.2094 127.351 37.2094C126.935 37.2094 126.555 37.2974 126.211 37.4734C125.875 37.6414 125.603 37.8414 125.395 38.0734C125.387 38.2014 125.383 38.4014 125.383 38.6734ZM124.339 38.6734C124.339 37.2254 124.619 36.0974 125.179 35.2894C125.739 34.4734 126.627 33.9894 127.843 33.8374C127.923 33.8294 128.167 33.8014 128.575 33.7534C128.983 33.6974 129.335 33.6294 129.631 33.5494V34.5454C129.311 34.6254 128.779 34.6974 128.035 34.7614C127.219 34.8334 126.615 35.0654 126.223 35.4574C125.831 35.8414 125.579 36.4214 125.467 37.1974C125.699 36.9254 125.991 36.7054 126.343 36.5374C126.695 36.3694 127.079 36.2854 127.495 36.2854C128.007 36.2854 128.471 36.4054 128.887 36.6454C129.303 36.8854 129.631 37.2374 129.871 37.7014C130.111 38.1654 130.231 38.7174 130.231 39.3574C130.231 39.9334 130.115 40.4574 129.883 40.9294C129.651 41.4014 129.319 41.7774 128.887 42.0574C128.455 42.3294 127.955 42.4654 127.387 42.4654C126.779 42.4654 126.243 42.3134 125.779 42.0094C125.323 41.6974 124.967 41.2574 124.711 40.6894C124.463 40.1134 124.339 39.4414 124.339 38.6734ZM136.962 42.3094C136.77 42.4134 136.562 42.4654 136.338 42.4654C136.058 42.4654 135.81 42.3934 135.594 42.2494C135.386 42.1054 135.254 41.9094 135.198 41.6614C134.798 42.1974 134.206 42.4654 133.422 42.4654C132.814 42.4654 132.306 42.2974 131.898 41.9614C131.49 41.6254 131.286 41.1734 131.286 40.6054C131.286 40.0214 131.518 39.5614 131.982 39.2254C132.446 38.8894 133.03 38.7214 133.734 38.7214C134.286 38.7214 134.766 38.7974 135.174 38.9494V38.3854C135.174 37.9694 135.042 37.6534 134.778 37.4374C134.514 37.2134 134.154 37.1014 133.698 37.1014C133.314 37.1014 132.934 37.1734 132.558 37.3174C132.19 37.4534 131.89 37.6294 131.658 37.8454V36.8254C131.866 36.6494 132.158 36.4934 132.534 36.3574C132.91 36.2214 133.326 36.1534 133.782 36.1534C134.526 36.1534 135.114 36.3494 135.546 36.7414C135.978 37.1334 136.194 37.6614 136.194 38.3254V41.1454C136.194 41.2894 136.234 41.4014 136.314 41.4814C136.394 41.5534 136.506 41.5894 136.65 41.5894C136.778 41.5894 136.882 41.5654 136.962 41.5174V42.3094ZM132.33 40.6054C132.33 40.9014 132.438 41.1374 132.654 41.3134C132.878 41.4814 133.186 41.5654 133.578 41.5654C134.266 41.5654 134.798 41.3294 135.174 40.8574V39.7774C134.742 39.6334 134.278 39.5614 133.782 39.5614C133.374 39.5614 133.03 39.6534 132.75 39.8374C132.47 40.0214 132.33 40.2774 132.33 40.6054ZM143.178 36.2854V42.3334H142.146V39.6454H139.17V42.3334H138.138V36.2854H139.17V38.7214H142.146V36.2854H143.178ZM144.959 36.2854H145.991V38.7094H146.783L148.751 36.2854H149.963L147.659 39.1054L149.999 42.3334H148.763L146.759 39.5734H145.991V42.3334H144.959V36.2854ZM156.298 42.3094C156.106 42.4134 155.898 42.4654 155.674 42.4654C155.394 42.4654 155.146 42.3934 154.93 42.2494C154.722 42.1054 154.59 41.9094 154.534 41.6614C154.134 42.1974 153.542 42.4654 152.758 42.4654C152.15 42.4654 151.642 42.2974 151.234 41.9614C150.826 41.6254 150.622 41.1734 150.622 40.6054C150.622 40.0214 150.854 39.5614 151.318 39.2254C151.782 38.8894 152.366 38.7214 153.07 38.7214C153.622 38.7214 154.102 38.7974 154.51 38.9494V38.3854C154.51 37.9694 154.378 37.6534 154.114 37.4374C153.85 37.2134 153.49 37.1014 153.034 37.1014C152.65 37.1014 152.27 37.1734 151.894 37.3174C151.526 37.4534 151.226 37.6294 150.994 37.8454V36.8254C151.202 36.6494 151.494 36.4934 151.87 36.3574C152.246 36.2214 152.662 36.1534 153.118 36.1534C153.862 36.1534 154.45 36.3494 154.882 36.7414C155.314 37.1334 155.53 37.6614 155.53 38.3254V41.1454C155.53 41.2894 155.57 41.4014 155.65 41.4814C155.73 41.5534 155.842 41.5894 155.986 41.5894C156.114 41.5894 156.218 41.5654 156.298 41.5174V42.3094ZM151.666 40.6054C151.666 40.9014 151.774 41.1374 151.99 41.3134C152.214 41.4814 152.522 41.5654 152.914 41.5654C153.602 41.5654 154.134 41.3294 154.51 40.8574V39.7774C154.078 39.6334 153.614 39.5614 153.118 39.5614C152.71 39.5614 152.366 39.6534 152.086 39.8374C151.806 40.0214 151.666 40.2774 151.666 40.6054Z" fill="#7C7C7C"/>
<path fill-rule="evenodd" clip-rule="evenodd" d="M27.0769 16.9231H27.072C21.4664 16.9258 16.9231 21.4708 16.9231 27.0769C16.9231 22.5632 13.9779 18.7374 9.90445 17.4164C4.19218 19.0042 -5.43615e-07 24.2433 0 30.4615L1.18357e-06 37.2308C1.18357e-06 40.9693 3.03069 44 6.76923 44H27.0769C34.554 44 40.6154 37.9386 40.6154 30.4615C40.6154 22.9845 34.554 16.9231 27.0769 16.9231Z" fill="url(#paint0_linear_823_38193)"/>
<path fill-rule="evenodd" clip-rule="evenodd" d="M16.9231 33.8462C26.2694 33.8462 33.8462 26.2694 33.8462 16.9231C33.8462 7.57672 26.2694 -8.17084e-07 16.9231 0C7.57672 1.10279e-06 -1.10279e-06 7.57672 0 16.9231L1.47946e-06 33.8462H16.9231ZM16.9231 6.76918C16.9231 12.377 21.4691 16.9231 27.0769 16.9231C21.4691 16.9231 16.9231 21.4691 16.9231 27.0769C16.9231 21.4691 12.3771 16.923 6.76928 16.923C12.3771 16.923 16.9231 12.377 16.9231 6.76918Z" fill="url(#paint1_linear_823_38193)"/>
<defs>
<linearGradient id="paint0_linear_823_38193" x1="40.6154" y1="22" x2="3.36231e-08" y2="22" gradientUnits="userSpaceOnUse">
<stop stop-color="#13D8A0"/>
<stop offset="1" stop-color="#139DD8"/>
</linearGradient>
<linearGradient id="paint1_linear_823_38193" x1="2.13843e-06" y1="33.8462" x2="33.8462" y2="3.9301e-06" gradientUnits="userSpaceOnUse">
<stop stop-color="#B260F2"/>
<stop offset="1" stop-color="#6060F2"/>
</linearGradient>
</defs>
</svg>
