<svg width="300" height="100" viewBox="0 0 300 100" fill="none" xmlns="http://www.w3.org/2000/svg">
<rect width="300" height="100" rx="12" fill="white"/>
<g clip-path="url(#clip0_1423_49848)">
<path d="M106.537 30.7324H108.981L112.916 41.4808H110.456L109.684 39.2668H105.781L105.009 41.4808H102.597L106.537 30.7324ZM109.067 37.3289L107.727 33.4048L106.4 37.3289H109.067Z" fill="black"/>
<path d="M114.264 43.8927V41.9547C115.059 42.5527 116.028 42.8729 117.022 42.8661C118.095 42.8661 119.167 42.3675 119.167 40.9174V40.1991C118.923 40.561 118.592 40.8555 118.204 41.0556C117.816 41.2556 117.384 41.3547 116.947 41.3436C115.071 41.3436 113.583 39.8774 113.583 37.39C113.583 34.9026 115.066 33.4043 116.95 33.4043C117.417 33.3916 117.878 33.5055 118.286 33.7339C118.693 33.9623 119.031 34.2967 119.263 34.7016V33.5892H121.424V40.963C121.424 43.4209 119.665 44.6888 117.382 44.6888C116.023 44.6888 115.02 44.3832 114.264 43.8927ZM117.559 39.4968C117.86 39.4956 118.159 39.4326 118.435 39.3118C118.712 39.1911 118.961 39.015 119.167 38.7946V35.9694C118.96 35.7512 118.71 35.5778 118.434 35.4597C118.157 35.3417 117.859 35.2817 117.559 35.2832C116.524 35.2832 115.862 36.0874 115.862 37.39C115.862 38.6927 116.516 39.4968 117.559 39.4968Z" fill="black"/>
<path d="M123.319 33.5895H125.479V34.9485C125.658 34.5017 125.973 34.1226 126.38 33.8647C126.786 33.6069 127.264 33.4834 127.744 33.5118C127.961 33.5077 128.176 33.5441 128.379 33.619V35.7258C128.085 35.6453 127.781 35.6039 127.476 35.6025C126.535 35.6025 125.932 35.8947 125.578 36.3048V41.4806H123.324L123.319 33.5895Z" fill="black"/>
<path d="M137.265 37.5428C137.265 40.0302 135.506 41.6653 133.193 41.6653C130.88 41.6653 129.105 40.0302 129.105 37.5428C129.105 35.0554 130.848 33.4043 133.193 33.4043C135.538 33.4043 137.265 35.0527 137.265 37.5428ZM133.193 39.7408C134.265 39.7408 135.013 38.8241 135.013 37.5428C135.013 36.2616 134.273 35.3288 133.193 35.3288C132.113 35.3288 131.373 36.2455 131.373 37.5428C131.373 38.8401 132.113 39.7408 133.193 39.7408Z" fill="black"/>
<path d="M143.868 32.8097H138.563V30.7324H146.776V32.5658L141.493 39.4062H146.776V41.4808H138.563V39.634L143.868 32.8097Z" fill="black"/>
<path d="M154.883 41.6657C154.066 41.6657 153.356 41.3146 153.109 40.6257C152.707 41.2074 152.037 41.6657 150.809 41.6657C149.252 41.6657 148.064 40.6418 148.064 39.2078C148.064 37.4521 149.673 36.6882 151.442 36.6882C151.979 36.6859 152.514 36.7581 153.031 36.9026V36.5193C153.031 35.6348 152.291 35.222 151.241 35.222C150.312 35.2189 149.41 35.5307 148.681 36.1066V34.1847C149.581 33.6516 150.613 33.3814 151.659 33.4047C153.91 33.4047 155.221 34.5814 155.221 36.4899V39.4383C155.218 39.5081 155.23 39.5777 155.256 39.6424C155.283 39.7072 155.323 39.7654 155.373 39.8133C155.424 39.8611 155.485 39.8974 155.551 39.9197C155.617 39.9419 155.688 39.9496 155.757 39.9422C155.881 39.944 156.003 39.9125 156.111 39.8511V41.3467C155.739 41.5641 155.314 41.6744 154.883 41.6657ZM151.503 40.0012C151.798 40.0094 152.091 39.9471 152.356 39.8193C152.622 39.6916 152.854 39.5021 153.031 39.2667V38.3098C152.617 38.1767 152.185 38.1098 151.75 38.1115C151.072 38.1115 150.316 38.3554 150.316 39.0738C150.316 39.634 150.78 40.0012 151.503 40.0012Z" fill="black"/>
<path d="M157.349 41.4806V33.5895H159.51V34.6429C159.772 34.2634 160.123 33.9528 160.531 33.7373C160.939 33.5217 161.393 33.4076 161.855 33.4046C162.304 33.3903 162.749 33.4994 163.141 33.7201C163.532 33.9408 163.856 34.2646 164.077 34.6563C164.351 34.2581 164.721 33.9349 165.152 33.7163C165.583 33.4976 166.062 33.3905 166.546 33.4046C168.119 33.4046 169.261 34.3829 169.261 36.1841V41.4806H167.023V36.7792C167.023 35.8947 166.546 35.4041 165.741 35.4041C165.498 35.3997 165.256 35.4449 165.031 35.5371C164.805 35.6293 164.601 35.7664 164.431 35.9402V41.4806H162.179V36.7631C162.179 35.8947 161.686 35.4041 160.898 35.4041C160.654 35.3966 160.411 35.4434 160.187 35.5412C159.963 35.639 159.764 35.7854 159.603 35.9697V41.4806H157.349Z" fill="black"/>
<path d="M172.22 30.0004C172.469 30.0041 172.711 30.0814 172.916 30.2224C173.12 30.3634 173.279 30.5619 173.371 30.7928C173.463 31.0238 173.485 31.2769 173.434 31.5202C173.382 31.7636 173.26 31.9863 173.083 32.1603C172.905 32.3342 172.68 32.4517 172.435 32.4979C172.191 32.5441 171.938 32.517 171.709 32.4198C171.48 32.3227 171.285 32.16 171.149 31.9522C171.012 31.7444 170.94 31.5009 170.941 31.2522C170.941 31.0853 170.973 30.92 171.038 30.766C171.102 30.612 171.197 30.4725 171.316 30.3558C171.435 30.239 171.577 30.1474 171.732 30.0864C171.887 30.0253 172.053 29.9961 172.22 30.0004ZM173.362 41.4806H171.11V33.5895H173.362V41.4806Z" fill="black"/>
<path d="M175.276 41.4809V33.5898H177.436V34.662C177.711 34.2718 178.076 33.954 178.5 33.736C178.925 33.518 179.396 33.4062 179.873 33.4103C181.446 33.4103 182.617 34.3886 182.617 36.2354V41.4809H180.366V36.9243C180.366 35.887 179.83 35.3964 178.932 35.3964C178.67 35.3866 178.409 35.4335 178.166 35.5338C177.924 35.6342 177.706 35.7858 177.527 35.9781V41.4729L175.276 41.4809Z" fill="black"/>
<path d="M112.809 50.3525C107.019 50.3525 102.602 54.2579 102.602 60.1762C102.602 66.0945 107.006 69.9999 112.809 69.9999C118.612 69.9999 123.037 66.0945 123.037 60.1762C123.037 54.2579 118.599 50.3525 112.809 50.3525ZM112.809 66.0195C109.7 66.0195 107.531 63.5401 107.531 60.1762C107.531 56.8123 109.713 54.3356 112.809 54.3356C115.905 54.3356 118.095 56.8043 118.095 60.1762C118.095 63.5481 115.95 66.0195 112.809 66.0195Z" fill="black"/>
<path d="M128.391 50.4199H131.634C130.707 51.3607 129.643 52.9556 129.297 54.3038C130.192 54.5477 131.232 55.2232 131.232 56.5393C131.232 57.9116 130.058 58.9516 128.536 58.9516C128.164 58.9647 127.794 58.9013 127.449 58.7654C127.103 58.6294 126.789 58.4239 126.526 58.1614C126.263 57.899 126.057 57.5853 125.92 57.2399C125.784 56.8944 125.72 56.5246 125.732 56.1533C125.732 53.6739 127.308 51.4438 128.391 50.4199Z" fill="black"/>
<path d="M134.684 66.6143L141.514 59.2566H134.684V55.6836H147.282V58.7258L140.509 66.0514H147.282V69.6699H134.684V66.6143Z" fill="black"/>
<path d="M152.503 49.2139C153.966 49.2139 155.119 50.2431 155.119 51.5592C155.119 52.8753 153.977 53.9046 152.503 53.9046C151.029 53.9046 149.919 52.9075 149.919 51.5592C149.919 50.211 151.063 49.2139 152.503 49.2139Z" fill="black"/>
<path d="M154.851 55.6836H150.222V69.6699H154.851V55.6836Z" fill="black"/>
<path d="M159.657 69.6704V58.6379H156.751V55.6734H164.072V57.5497C164.596 56.8537 165.275 56.2894 166.055 55.9014C166.835 55.5134 167.695 55.3123 168.567 55.3142C170.633 55.3142 172.051 56.255 172.78 57.5282C173.323 56.8157 174.029 56.2432 174.837 55.8581C175.646 55.473 176.535 55.2866 177.431 55.3142C180.481 55.3142 182.649 57.0618 182.649 60.1925V69.6409H178.023V61.3826C178.023 59.954 177.152 59.1257 175.742 59.1257C174.903 59.0934 174.084 59.3907 173.461 59.954V69.6463H168.835V61.3826C168.835 59.954 167.964 59.1257 166.575 59.1257C165.741 59.092 164.925 59.3798 164.297 59.9299V69.6704H159.657Z" fill="black"/>
<path d="M191.693 69.6704H187.064V58.6379H184.148V55.6895H191.693V69.6704Z" fill="black"/>
<path d="M189.236 49.2139C190.699 49.2139 191.852 50.2431 191.852 51.5592C191.852 52.8753 190.71 53.9046 189.236 53.9046C187.762 53.9046 186.652 52.9075 186.652 51.5592C186.652 50.211 187.786 49.2139 189.236 49.2139Z" fill="black"/>
<path d="M194.623 66.6143L201.455 59.2566H194.623V55.6836H207.221V58.7258L200.448 66.0514H207.221V69.6699H194.623V66.6143Z" fill="black"/>
<path d="M210.159 69.6699V55.6836H214.563V57.5599C215.116 56.8565 215.823 56.2893 216.63 55.9018C217.436 55.5143 218.321 55.3168 219.216 55.3244C222.266 55.3244 224.413 57.0721 224.413 60.2483V69.6699H219.784V61.6582C219.784 59.9642 218.857 59.1252 217.168 59.1252C216.732 59.1045 216.297 59.17 215.886 59.3181C215.476 59.4663 215.099 59.694 214.777 59.9883V69.6699H210.159Z" fill="black"/>
<path d="M233.457 69.6704H228.828V58.6379H225.922V55.6895H233.457V69.6704Z" fill="black"/>
<path d="M231.007 49.2139C232.47 49.2139 233.623 50.2431 233.623 51.5592C233.623 52.8753 232.483 53.9046 231.007 53.9046C229.53 53.9046 228.425 52.9075 228.425 51.5592C228.425 50.211 229.564 49.2139 231.007 49.2139Z" fill="black"/>
<path d="M236.986 50.0762H241.615V60.6075H243.537L246.781 55.6836H251.643L247.354 62.2237L252.01 69.6699H246.869L243.494 64.1268H241.618V69.6699H236.986V50.0762Z" fill="black"/>
<path d="M259.768 69.6704H255.141V58.6379H252.236V55.6895H259.768V69.6704Z" fill="black"/>
<path d="M257.32 49.2139C258.786 49.2139 259.936 50.2431 259.936 51.5592C259.936 52.8753 258.797 53.9046 257.32 53.9046C255.843 53.9046 254.739 52.9075 254.739 51.5592C254.739 50.211 255.867 49.2139 257.32 49.2139Z" fill="black"/>
<path d="M64.2484 69.1451C64.2484 69.4317 64.2484 69.713 64.2324 69.997C50.7704 69.989 39.8696 59.2007 39.8696 45.8834C39.8696 45.5994 39.8696 45.3155 39.8857 45.0342C53.3342 45.0395 64.2484 55.8332 64.2484 69.1451Z" fill="#377BE1"/>
<path d="M88.6001 45.8832C88.6001 59.1951 77.6993 69.9941 64.248 69.9941C64.248 69.7101 64.248 69.4261 64.248 69.1422C64.248 55.8303 75.1462 45.0312 88.5974 45.0312C88.5947 45.3152 88.6001 45.5992 88.6001 45.8832Z" fill="#377BE1"/>
<path d="M64.2485 48.6267C66.0018 48.6056 67.7097 48.0664 69.1574 47.0769C70.605 46.0874 71.7276 44.6919 72.384 43.0659C73.0403 41.4399 73.2011 39.6561 72.8462 37.939C72.4912 36.2218 71.6362 34.648 70.389 33.4156C69.1417 32.1831 67.5577 31.3471 65.8364 31.0127C64.1151 30.6784 62.3334 30.8605 60.7154 31.5363C59.0974 32.2122 57.7154 33.3514 56.7434 34.8108C55.7713 36.2701 55.2526 37.9844 55.2524 39.7379C55.2588 40.9124 55.4965 42.0742 55.9522 43.1568C56.4078 44.2394 57.0724 45.2215 57.9079 46.0471C58.7434 46.8726 59.7335 47.5254 60.8214 47.968C61.9094 48.4107 63.0739 48.6345 64.2485 48.6267Z" fill="#00CD69"/>
</g>
<defs>
<clipPath id="clip0_1423_49848">
<rect width="220.261" height="40" fill="white" transform="translate(39.8696 30)"/>
</clipPath>
</defs>
</svg>
