<svg width="50" height="50" viewBox="0 0 50 50" fill="none" xmlns="http://www.w3.org/2000/svg">
<g clip-path="url(#clip0_1578_18351)">
<path d="M50.0025 23.5196V26.4493C49.9728 26.6209 49.9367 26.7926 49.9134 26.9655C49.7947 27.869 49.725 28.7724 49.5559 29.6758C48.6599 34.5571 46.2966 39.049 42.7814 42.5524C39.0464 46.3236 34.5589 48.6983 29.3164 49.6018C28.3743 49.7644 27.4218 49.8599 26.4771 49.9889H23.5447C23.4028 49.9605 23.2608 49.9257 23.1188 49.9038C21.756 49.6934 20.3698 49.5785 19.0327 49.2584C6.20522 46.1855 -2.05863 33.296 0.447759 20.3201C1.49187 14.9253 4.01117 10.3268 8.06243 6.6318C13.8651 1.35445 20.7054 -0.747979 28.4491 0.234185C33.387 0.861427 37.7416 2.8877 41.4663 6.18137C45.8544 10.0623 48.606 14.8905 49.6179 20.6802C49.787 21.6224 49.8799 22.5736 50.0025 23.5196ZM25.0122 3.08775C12.9345 3.08775 3.15419 12.8616 3.12063 24.9612C3.08579 37.0324 12.9294 46.8824 25.0148 46.8798C37.1002 46.8772 46.8714 37.106 46.905 25.0141C46.9398 12.9365 37.0963 3.08517 25.0122 3.08775Z" fill="#377BE1"/>
<path d="M10.0757 25.0011C10.0786 24.048 10.4558 23.1343 11.1259 22.4567C11.796 21.7791 12.7055 21.3918 13.6584 21.3783C15.6111 21.3628 17.2606 22.9967 17.2825 24.9662C17.3044 26.9138 15.6602 28.5722 13.6933 28.589C12.74 28.5857 11.8263 28.2075 11.1494 27.5362C10.4725 26.8649 10.0869 25.9543 10.0757 25.0011Z" fill="#00CD69"/>
<path d="M39.9497 24.9702C39.945 25.9222 39.5667 26.8344 38.8961 27.5103C38.2255 28.1862 37.3163 28.5717 36.3643 28.5839C34.4103 28.5981 32.7609 26.9629 32.7428 24.9934C32.7248 23.0445 34.369 21.3874 36.3346 21.3796C37.2878 21.384 38.2011 21.7629 38.8774 22.4346C39.5537 23.1063 39.9388 24.017 39.9497 24.9702Z" fill="#00CD69"/>
<path d="M25.0106 21.3784C25.9647 21.3868 26.8775 21.7688 27.5531 22.4425C28.2287 23.1162 28.6133 24.0278 28.6244 24.9818C28.6147 25.9349 28.232 26.8462 27.5585 27.5205C26.8849 28.1947 25.974 28.5784 25.021 28.5891C24.0668 28.5811 23.1539 28.1992 22.4782 27.5254C21.8026 26.8517 21.418 25.9398 21.4072 24.9857C21.417 24.0327 21.7996 23.1214 22.4732 22.4471C23.1468 21.7728 24.0576 21.3892 25.0106 21.3784Z" fill="#00CD69"/>
</g>
<defs>
<clipPath id="clip0_1578_18351">
<rect width="50" height="50" fill="white"/>
</clipPath>
</defs>
</svg>
