<svg width="32" height="32" viewBox="0 0 32 32" fill="none" xmlns="http://www.w3.org/2000/svg">
<path d="M5.0469 7.80046L8.24192 4.60886C8.63192 4.21891 9.15392 3.99994 9.70592 3.99994C10.2579 3.99994 10.7799 4.21591 11.1699 4.60886L14.6109 8.04343C15.0009 8.43339 15.2199 8.95832 15.2199 9.51025C15.2199 10.0652 15.0039 10.5841 14.6109 10.9771L11.9229 13.6677C12.5353 15.0943 13.4151 16.3905 14.5149 17.4863C15.6159 18.5931 16.903 19.466 18.331 20.0839L21.019 17.3933C21.409 17.0033 21.931 16.7843 22.483 16.7843C22.7552 16.7833 23.025 16.8367 23.2764 16.9412C23.5278 17.0458 23.7558 17.1995 23.947 17.3933L27.391 20.8278C27.781 21.2178 28 21.7427 28 22.2947C28 22.8496 27.784 23.3685 27.391 23.7615L24.199 26.9531C23.533 27.619 22.615 27.9999 21.673 27.9999C21.478 27.9999 21.289 27.9849 21.097 27.9519C17.125 27.298 13.1829 25.1833 9.99992 22.0037C6.81991 18.8181 4.7079 14.8766 4.0479 10.9021C3.85889 9.77422 4.2369 8.61336 5.0469 7.80046V7.80046ZM6.17491 10.5451C6.75991 14.0817 8.66192 17.6092 11.5269 20.4739C14.3919 23.3385 17.917 25.2403 21.454 25.8252C21.898 25.9002 22.354 25.7502 22.678 25.4293L25.813 22.2947L22.489 18.9681L18.895 22.5676L18.868 22.5946L18.22 22.3546C16.2552 21.6324 14.4709 20.4915 12.991 19.0112C11.511 17.5309 10.3706 15.7465 9.64892 13.7817L9.40892 13.1338L13.0329 9.51325L9.70892 6.18667L6.57391 9.32127C6.24991 9.64523 6.09991 10.1012 6.17491 10.5451Z" fill="#00CD69"/>
</svg>
