<svg width="30" height="30" viewBox="0 0 30 30" fill="none" xmlns="http://www.w3.org/2000/svg">
<g clip-path="url(#clip0_1575_44001)">
<path d="M5.51303 5.55286C4.83625 5.89908 4.41638 6.46306 4.17042 7.16569C4.10227 7.15002 4.0639 7.14376 4.02631 7.13279C2.26856 6.62129 0.616547 7.81505 0.611064 9.63938C0.596442 14.1633 0.596442 18.6874 0.611064 23.2118C0.611064 24.4346 1.16565 25.3863 2.17769 26.0662C2.24357 26.1044 2.29687 26.161 2.3311 26.229C2.36532 26.297 2.37897 26.3736 2.37038 26.4492C2.36411 27.2991 2.37038 28.149 2.37038 28.9997V30H15.4368V26.4994L13.6446 26.4915V28.2438H4.12892V24.9938C3.92135 24.9226 3.72708 24.8591 3.53517 24.791C2.80904 24.534 2.36959 23.9426 2.36881 23.1703C2.36515 18.6767 2.36515 14.1823 2.36881 9.68717C2.36881 9.14511 2.72446 8.76677 3.21794 8.76129C3.71143 8.75581 4.08347 9.1459 4.08425 9.70126C4.08425 11.6559 4.08425 13.61 4.08425 15.5636V15.9388H5.8436V15.598C5.8436 13.058 5.8436 10.5177 5.8436 7.9772C5.8436 7.3999 6.20706 7.01451 6.72639 7.02548C6.92375 7.02595 7.11454 7.0963 7.26496 7.22406C7.41538 7.35182 7.51567 7.52873 7.54807 7.72341L7.64678 5.42361C6.89951 5.18861 6.19686 5.2035 5.51303 5.55286Z" fill="#00CD69"/>
<path d="M28.7028 11.2225C27.6321 10.158 26.0506 10.187 24.9359 11.293C24.4573 11.7685 23.9819 12.2471 23.504 12.7225C23.4461 12.7797 23.3811 12.8306 23.269 12.9262V12.5533C23.269 9.85666 23.269 7.15972 23.269 4.46252C23.269 3.08154 22.4231 2.01154 21.1134 1.79926C20.6567 1.72093 20.1734 1.8118 19.6721 1.82511C19.5643 1.48495 19.3873 1.17077 19.1522 0.902366C18.9171 0.633959 18.629 0.417135 18.306 0.265543C18.0653 0.16425 17.8196 0.0756135 17.5697 0H16.8075C16.7831 0.0160599 16.7568 0.0289565 16.7292 0.0383814C15.703 0.245175 15.02 0.845973 14.6683 1.82903C14.6589 1.85409 14.6323 1.87289 14.6158 1.89248C13.2724 1.45931 11.7607 1.96141 11.1293 3.64709C10.4063 3.4121 9.69033 3.42228 9.00259 3.77634C8.31484 4.13039 7.88952 4.70221 7.65218 5.42599L7.54956 7.72501C7.57009 7.86002 7.57847 7.9966 7.57461 8.13311C7.57461 11.875 7.58873 15.6176 7.56914 19.3595C7.56209 20.7358 8.03912 21.8285 9.20312 22.5993C9.28145 22.6518 9.32848 22.8108 9.32926 22.9204C9.33866 23.985 9.33549 25.0503 9.33549 26.1156V26.4939H13.6437L15.4359 26.5017H22.391C22.391 25.2962 22.3964 24.1338 22.3863 22.9714C22.3785 22.8819 22.3964 22.7921 22.4381 22.7126C22.4797 22.633 22.5433 22.5671 22.6212 22.5225C23.5761 21.8661 24.0954 20.9559 24.1377 19.7911C24.1382 19.6912 24.1592 19.5924 24.1997 19.501C24.2401 19.4096 24.299 19.3276 24.3727 19.26C25.8004 17.8412 27.2245 16.4185 28.6449 14.9918C29.7462 13.8889 29.7666 12.2807 28.7028 11.2225ZM27.5122 13.6343C27.3728 13.7972 27.213 13.9429 27.061 14.0949C25.59 15.5667 24.1221 17.0425 22.6424 18.5057C22.4521 18.6945 22.3557 18.8809 22.387 19.1457C22.3964 19.292 22.3964 19.4388 22.387 19.5851C22.3784 20.4366 21.9758 21.0013 21.1729 21.2888C20.6285 21.4839 20.6285 21.4839 20.6285 22.0635C20.6285 22.9236 20.6272 23.7834 20.6246 24.6429C20.6216 24.6695 20.6164 24.6957 20.6089 24.7213H11.1113C11.1066 24.6171 11.0972 24.5137 11.0964 24.408C11.0964 23.5189 11.0886 22.6291 11.1019 21.7447C11.1019 21.5285 11.0369 21.4243 10.8309 21.3789C10.6788 21.3426 10.5306 21.2918 10.3883 21.2269C9.76165 20.9512 9.4068 20.4765 9.34571 19.7903C9.33552 19.6736 9.33706 19.5553 9.33706 19.4386C9.33706 15.0808 9.33706 10.7233 9.33706 6.36597C9.33706 6.26884 9.33707 6.17013 9.34177 6.073C9.34971 5.85025 9.44416 5.63936 9.60502 5.48507C9.76589 5.33079 9.98052 5.24525 10.2034 5.24661C10.4304 5.25047 10.6469 5.3426 10.807 5.50347C10.9672 5.66434 11.0583 5.88128 11.0611 6.10825C11.0611 6.18658 11.0611 6.26492 11.0611 6.34325V12.428H12.8205V12.0771C12.8205 9.53707 12.8205 6.99705 12.8205 4.45703C12.8205 3.89383 13.1698 3.51236 13.6751 3.50845C13.8873 3.50461 14.0931 3.58069 14.2519 3.72158C14.4106 3.86247 14.5106 4.05788 14.532 4.26904C14.5419 4.38574 14.5456 4.50288 14.5429 4.61996V12.4366H16.3023V12.0559C16.3023 9.00729 16.3023 5.9589 16.3023 2.91078C16.2986 2.78375 16.3028 2.65661 16.3148 2.53009C16.3374 2.31915 16.437 2.12394 16.5945 1.98187C16.752 1.83979 16.9565 1.76082 17.1686 1.7601C17.386 1.76262 17.5947 1.846 17.754 1.994C17.9133 2.14199 18.0118 2.344 18.0302 2.56064C18.0369 2.65815 18.0385 2.75593 18.0349 2.8536C18.0349 5.92209 18.0349 8.99005 18.0349 12.0575V12.4272H19.7935V12.0739C19.7935 9.53393 19.7935 6.99366 19.7935 4.45312C19.7935 3.87739 20.157 3.49591 20.6794 3.50923C20.8864 3.51379 21.0845 3.59402 21.2363 3.73474C21.3882 3.87546 21.4832 4.06693 21.5035 4.27296C21.5144 4.38889 21.5113 4.50795 21.5113 4.62388C21.5113 7.56547 21.5113 10.5065 21.5113 13.4471C21.5113 14.268 21.9437 14.8571 22.6761 15.0302C23.2244 15.1594 23.7014 15.0082 24.0978 14.6134C24.8027 13.9085 25.5077 13.2035 26.2127 12.4985C26.6044 12.1068 27.0994 12.1068 27.4605 12.468C27.6209 12.6164 27.7163 12.8222 27.726 13.0405C27.7357 13.2589 27.6589 13.4722 27.5122 13.6343Z" fill="#377BE1"/>
</g>
<defs>
<clipPath id="clip0_1575_44001">
<rect width="30" height="30" fill="white"/>
</clipPath>
</defs>
</svg>
