<svg width="30" height="30" viewBox="0 0 30 30" fill="none" xmlns="http://www.w3.org/2000/svg">
<path d="M15.2949 0C15.7832 0.078125 16.2738 0.152344 16.7582 0.249219C16.8559 0.26875 16.9926 0.371875 17.0121 0.458594C17.3613 2.02109 17.4231 3.5836 16.9223 5.12735C16.3707 6.82578 15.1317 7.73594 13.4254 8.06407C12.1386 8.3052 10.8151 8.26898 9.54337 7.95782C9.46133 7.93829 9.34649 7.85547 9.33087 7.7836C8.95977 6.1211 8.89415 4.4625 9.50743 2.84063C10.1324 1.18516 11.4434 0.401562 13.1168 0.115625C13.3551 0.0742185 13.5942 0.0375 13.8332 0H15.2949ZM10.8699 6.41094C11.7059 6.50391 12.5106 6.49375 13.3035 6.29922C13.9512 6.14297 14.5465 5.86875 14.9152 5.27813C15.5863 4.20313 15.5793 3.01719 15.4738 1.80391C14.559 1.71406 13.691 1.73125 12.8332 1.97578C11.902 2.24141 11.303 2.83542 11.0363 3.75782C10.7871 4.62032 10.7574 5.5 10.8699 6.41094Z" fill="#00CD69"/>
<path d="M18.4743 30C17.4032 29.9219 16.486 29.5258 15.6478 28.9211C14.6525 28.1965 13.8087 27.284 13.1642 26.2352C13.1181 26.1625 13.0931 26.0203 13.1329 25.9578C14.0501 24.5219 15.1774 23.3016 16.7579 22.5836C18.2165 21.9227 19.611 22.1578 20.9243 22.9984C22.1009 23.7523 23.0173 24.7664 23.7602 25.9414C23.7798 25.976 23.7913 26.0145 23.7938 26.0542C23.7964 26.0938 23.79 26.1335 23.7751 26.1703C22.8071 27.6695 21.6345 28.9531 19.936 29.6328C19.4735 29.8172 18.9626 29.8812 18.4743 30ZM21.7165 26.0789C21.1087 25.3406 20.4665 24.7109 19.6462 24.282C19.1696 24.0336 18.661 23.8836 18.1251 23.9891C16.8415 24.2422 15.9962 25.1203 15.1837 26.0633C15.79 26.7961 16.4337 27.4305 17.2517 27.8523C17.7454 28.1062 18.2673 28.257 18.8282 28.1367C20.0767 27.8711 20.8985 27.0039 21.7173 26.0789H21.7165Z" fill="#377BE1"/>
<path d="M18.2129 7.33663C19.1629 5.86398 20.2934 4.59445 21.9152 3.86164C23.5168 3.13898 24.9965 3.48898 26.3731 4.4632C27.3896 5.19352 28.2503 6.1191 28.9051 7.18585C28.9291 7.22772 28.9434 7.2745 28.9468 7.32268C28.9502 7.37085 28.9426 7.41916 28.9246 7.46398C28.0543 8.83351 26.9809 10.0023 25.5082 10.7374C23.7988 11.5898 22.2199 11.228 20.7426 10.1444C19.7184 9.39054 18.8957 8.44835 18.2129 7.33663ZM20.3504 7.34445C20.9606 8.08351 21.6184 8.72492 22.4598 9.15226C23.1184 9.48664 23.7957 9.55773 24.491 9.27257C25.4762 8.86867 26.2012 8.14523 26.8746 7.34445C26.3277 6.67648 25.7309 6.09445 24.9996 5.66007C24.1121 5.13273 23.2192 5.09835 22.3121 5.61164C21.5449 6.04523 20.927 6.64367 20.3504 7.34445Z" fill="#377BE1"/>
<path d="M0.600098 10.5632C0.683691 9.9187 0.777451 9.22573 0.863388 8.53198C0.892294 8.30307 0.98839 8.19526 1.23683 8.14604C2.55167 7.88666 3.86495 7.82807 5.18058 8.11635C7.2048 8.56088 8.42588 9.88666 8.74619 11.9445C8.93386 13.17 8.88908 14.4199 8.61417 15.6289C8.59386 15.7218 8.50323 15.8546 8.42355 15.8718C6.88058 16.2124 5.33526 16.2812 3.80557 15.8054C2.0751 15.2679 1.13604 14.0312 0.802448 12.2999C0.696198 11.7507 0.669629 11.1828 0.600098 10.5632ZM7.05714 14.3421C7.15167 13.4382 7.13527 12.5882 6.90089 11.7499C6.6298 10.7484 5.98995 10.1312 4.98683 9.86869C4.20558 9.66323 3.40869 9.65229 2.61025 9.71713C2.56718 9.73122 2.52846 9.75615 2.49781 9.78954C2.46717 9.82293 2.44561 9.86364 2.43525 9.90776C2.44385 10.5679 2.4173 11.2359 2.50792 11.8851C2.6298 12.7507 2.9923 13.5124 3.83605 13.9312C4.85167 14.4367 5.93605 14.4296 7.05714 14.3421Z" fill="#377BE1"/>
<path d="M26.0188 12.4985C26.6649 12.5899 27.3961 12.6883 28.1282 12.8024C28.175 12.813 28.2187 12.8342 28.2559 12.8644C28.2932 12.8946 28.323 12.933 28.343 12.9766C28.7133 14.6172 28.7758 16.2578 28.1868 17.8672C27.579 19.5297 26.2883 20.3438 24.611 20.636C23.3774 20.8406 22.1154 20.7978 20.8985 20.5102C20.8471 20.4975 20.7993 20.4732 20.7587 20.4392C20.718 20.4052 20.6857 20.3624 20.6641 20.3141C20.304 18.7313 20.2454 17.1485 20.7657 15.5875C21.3282 13.9016 22.5766 13.0141 24.2696 12.6969C24.8133 12.5938 25.3704 12.5696 26.0188 12.4985ZM26.8001 14.3438C25.8274 14.2703 24.8813 14.2586 23.9594 14.5891C23.2922 14.8282 22.7954 15.2477 22.5188 15.9071C22.1086 16.8868 22.0821 17.9071 22.2016 18.9586C23.0196 19.0368 23.8118 19.0289 24.6 18.8524C25.7719 18.5907 26.4649 17.8758 26.7094 16.7055C26.874 15.9292 26.9049 15.1305 26.8008 14.3438H26.8001Z" fill="#00CD69"/>
<path d="M14.4428 9.69843C15.6343 10.4359 16.6569 11.3391 17.4343 12.4992C18.5897 14.2234 18.5905 15.9586 17.4343 17.6836C16.6905 18.7922 15.7218 19.6719 14.5968 20.3812C14.5501 20.4053 14.4985 20.4184 14.4459 20.4195C14.3934 20.4206 14.3413 20.4096 14.2936 20.3875C13.1671 19.6805 12.1968 18.8023 11.4507 17.6953C10.2913 15.9765 10.2788 14.239 11.435 12.5125C12.2178 11.339 13.2452 10.4297 14.4428 9.69843ZM14.4428 18.3547C15.21 17.7109 15.8913 17.0266 16.3085 16.1141C16.5483 15.5914 16.6272 15.0476 16.4593 14.493C16.1171 13.3625 15.3202 12.575 14.4436 11.8297C13.7077 12.4359 13.0718 13.0851 12.6468 13.9148C12.2928 14.6016 12.2249 15.3031 12.5366 16.0242C12.9452 16.9797 13.6514 17.693 14.4421 18.3523L14.4428 18.3547Z" fill="#377BE1"/>
<path d="M5.28458 18.6649C5.96661 18.7641 6.66193 18.811 7.32912 18.9727C9.25412 19.4415 10.3166 20.7344 10.6674 22.6446C10.9018 23.9251 10.8377 25.204 10.5494 26.4727C10.5357 26.5192 10.5116 26.5619 10.479 26.5978C10.4464 26.6336 10.4061 26.6617 10.3611 26.6798C8.72676 27.0438 7.09475 27.1055 5.49553 26.5235C3.85959 25.9298 3.02598 24.6696 2.72599 23.0149C2.50395 21.7543 2.54492 20.4613 2.8463 19.2173C2.86464 19.1636 2.89544 19.115 2.93617 19.0754C2.97691 19.0359 3.02643 19.0066 3.08068 18.9899C3.80568 18.8696 4.5377 18.7719 5.28458 18.6649ZM4.38536 20.5399C4.31505 21.4962 4.30256 22.4259 4.61193 23.329C4.81037 23.9087 5.13848 24.3954 5.69395 24.6891C6.7377 25.2407 7.85334 25.254 9.01194 25.1407C9.06741 24.3063 9.07834 23.5048 8.89084 22.7079C8.61975 21.5509 7.90489 20.8704 6.74786 20.6274C5.97092 20.4654 5.17222 20.4356 4.38536 20.5391V20.5399Z" fill="#00CD69"/>
</svg>
