<svg width="24" height="24" viewBox="0 0 24 24" fill="none" xmlns="http://www.w3.org/2000/svg">
<path d="M11.9577 6.97925H12.0415C12.0415 9.71774 14.2822 11.9583 17.0206 11.9583V12.0421C14.2821 12.0421 12.0415 14.2827 12.0415 17.0213H11.9577C11.9577 14.2827 9.71703 12.0421 6.97852 12.0421V11.9583C9.71703 11.9583 11.9577 9.71774 11.9577 6.97925Z" fill="#86898C"/>
<path d="M17.0211 2C19.7709 2 22 4.22926 22 6.97903C22 9.72892 19.7709 11.9581 17.0211 11.9581V6.97915H12.042C12.042 4.22926 14.2712 2 17.0211 2Z" fill="#86898C"/>
<path d="M6.97908 2C9.72888 2 11.958 4.22926 11.958 6.97903H6.97896V11.9581C4.22905 11.9581 2 9.72892 2 6.97903C2 4.22926 4.22916 2 6.97908 2Z" fill="#86898C"/>
<path d="M17.0211 12.0421C19.7709 12.0421 22 14.2713 22 17.021C22 19.7709 19.7709 22 17.0211 22C14.2713 22 12.0421 19.771 12.042 17.0212H17.021L17.0211 12.0421Z" fill="#86898C"/>
<path d="M11.9581 17.0212C11.958 19.771 9.72888 22 6.97919 22C4.22916 22 2 19.7709 2 17.021C2 14.2713 4.22904 12.0422 6.97896 12.0421V17.0212H11.9581Z" fill="#86898C"/>
</svg>
