<svg width="80" height="80" viewBox="0 0 80 80" fill="none" xmlns="http://www.w3.org/2000/svg">
<circle cx="40" cy="40" r="40" fill="#F6F7FA"/>
<path d="M39.9097 61.1295C39.9097 61.4224 39.9097 61.7098 39.8933 62C26.1382 61.9917 15 50.9685 15 37.3612C15 37.071 15 36.7809 15.0164 36.4935C28.7578 36.4989 39.9097 47.5277 39.9097 61.1295Z" fill="#377BE1"/>
<path d="M64.7915 37.3612C64.7915 50.963 53.6533 61.9972 39.9092 61.9972C39.9092 61.707 39.9092 61.4169 39.9092 61.1267C39.9092 47.5249 51.0447 36.4907 64.7888 36.4907C64.7861 36.7809 64.7915 37.071 64.7915 37.3612Z" fill="#377BE1"/>
<path d="M39.9097 40.1643C41.7013 40.1427 43.4464 39.5917 44.9255 38.5807C46.4046 37.5696 47.5517 36.1437 48.2224 34.4823C48.8931 32.8209 49.0574 30.9983 48.6947 29.2437C48.3319 27.4892 47.4584 25.8811 46.1839 24.6218C44.9095 23.3626 43.291 22.5083 41.5323 22.1667C39.7735 21.825 37.953 22.0112 36.2997 22.7017C34.6465 23.3922 33.2344 24.5563 32.2412 26.0474C31.2479 27.5386 30.7179 29.2902 30.7178 31.0818C30.7242 32.2819 30.9672 33.469 31.4327 34.5752C31.8983 35.6814 32.5774 36.6849 33.4311 37.5284C34.2848 38.372 35.2964 39.0389 36.408 39.4912C37.5197 39.9435 38.7096 40.1722 39.9097 40.1643Z" fill="#00CD69"/>
</svg>
