<svg width="80" height="80" viewBox="0 0 80 80" fill="none" xmlns="http://www.w3.org/2000/svg">
<circle cx="40" cy="40.0001" r="40" fill="#F6F7FA"/>
<path fill-rule="evenodd" clip-rule="evenodd" d="M46.6667 34.6667L46.6618 34.6667C41.1412 34.6694 36.6667 39.1455 36.6667 44.6667C36.6667 40.2214 33.7661 36.4536 29.7544 35.1525C24.1287 36.7163 20 41.8761 20 48.0001L20 54.6667C20 58.3486 22.9848 61.3334 26.6667 61.3334H46.6667C54.0305 61.3334 60 55.3639 60 48.0001C60 40.6363 54.0305 34.6667 46.6667 34.6667Z" fill="url(#paint0_linear_1575_11739)"/>
<path fill-rule="evenodd" clip-rule="evenodd" d="M36.6667 51.3334C45.8714 51.3334 53.3333 43.8715 53.3333 34.6667C53.3333 25.462 45.8714 18.0001 36.6667 18.0001C27.4619 18.0001 20 25.462 20 34.6667L20 51.3334H36.6667ZM36.6667 24.6667C36.6667 30.1895 41.1438 34.6667 46.6667 34.6667C41.1438 34.6667 36.6667 39.1439 36.6667 44.6667C36.6667 39.1439 32.1896 34.6667 26.6667 34.6667C32.1896 34.6667 36.6667 30.1895 36.6667 24.6667Z" fill="url(#paint1_linear_1575_11739)"/>
<defs>
<linearGradient id="paint0_linear_1575_11739" x1="60" y1="39.6667" x2="20" y2="39.6667" gradientUnits="userSpaceOnUse">
<stop stop-color="#13D8A0"/>
<stop offset="1" stop-color="#139DD8"/>
</linearGradient>
<linearGradient id="paint1_linear_1575_11739" x1="20" y1="51.3334" x2="53.3333" y2="18.0001" gradientUnits="userSpaceOnUse">
<stop stop-color="#B260F2"/>
<stop offset="1" stop-color="#6060F2"/>
</linearGradient>
</defs>
</svg>
