<svg width="40" height="40" viewBox="0 0 40 40" fill="none" xmlns="http://www.w3.org/2000/svg">
<path d="M13.0079 28.283C13.4707 28.2888 13.9278 28.3856 14.3532 28.5681C14.7785 28.7505 15.1637 29.015 15.4868 29.3464C15.8098 29.6778 16.0644 30.0697 16.236 30.4995C16.4076 30.9293 16.4928 31.3888 16.4867 31.8516C16.4697 32.7793 16.0875 33.6629 15.4232 34.3106C14.7588 34.9583 13.8659 35.318 12.938 35.3115C12.0035 35.2989 11.1123 34.9158 10.46 34.2465C9.80776 33.5773 9.44782 32.6764 9.45925 31.742C9.47707 30.8146 9.85946 29.9316 10.5237 29.2842C11.1879 28.6368 12.0804 28.2771 13.0079 28.283V28.283ZM14.1393 31.8015C14.137 31.4951 14.0162 31.2016 13.8021 30.9825C13.588 30.7633 13.2974 30.6356 12.9912 30.6262C12.6835 30.6266 12.388 30.7466 12.1671 30.9608C11.9463 31.1751 11.8174 31.4668 11.8076 31.7743C11.8064 31.9299 11.8358 32.0842 11.8942 32.2284C11.9526 32.3726 12.0388 32.5039 12.1479 32.6147C12.2571 32.7256 12.387 32.8139 12.5303 32.8746C12.6735 32.9353 12.8273 32.9671 12.9829 32.9683C13.2892 32.9614 13.5809 32.8358 13.7965 32.6182C14.0122 32.4006 14.1351 32.1078 14.1393 31.8015V31.8015Z" fill="#FFAA46"/>
<path d="M32.982 25.942V0H0V32.9694H4.76152C4.70499 32.5781 4.6764 32.1833 4.67595 31.7879C4.67615 31.3908 4.70511 30.9942 4.76259 30.6012H2.37138V28.305H5.44204C5.85238 27.42 6.41477 26.6139 7.10365 25.9232H7.08072C5.52034 25.9378 3.95994 25.9326 2.37138 25.9326V21.2587H30.6012V25.9326H30.1712C26.4754 25.9326 22.7795 25.9326 19.0836 25.9232C18.9798 25.9207 18.877 25.902 18.7789 25.8679C19.4913 26.5681 20.0718 27.3908 20.4927 28.2966H37.6245V30.5928H21.1784C21.2359 30.9869 21.2648 31.3845 21.265 31.7827C21.2646 32.1791 21.236 32.575 21.1795 32.9673H39.976V25.9368L32.982 25.942ZM30.6023 18.8895H2.36827V2.37449H30.6023V18.8895Z" fill="#22A33F"/>
<path d="M21.1782 30.5981H21.149L20.4569 28.3019H20.4966C20.0758 27.396 19.4952 26.5733 18.7828 25.8731C18.6683 25.8371 18.5619 25.7789 18.4697 25.702C15.2916 22.8839 10.6417 22.8839 7.46772 25.7135C7.36823 25.8152 7.24252 25.8875 7.10451 25.9222C6.41562 26.6129 5.85324 27.419 5.44289 28.304H5.48565C5.25707 29.0586 5.0285 29.8101 4.78949 30.6002H4.7634C4.70644 30.9932 4.67748 31.3898 4.67676 31.7869C4.67721 32.1823 4.70584 32.5771 4.76238 32.9684H4.82914C4.87819 33.1876 4.92416 33.3974 4.97321 33.6072C5.34528 35.2535 6.2167 36.7448 7.46839 37.8771C8.72007 39.0094 10.291 39.7275 11.9662 39.9333C12.0411 39.9491 12.1144 39.9715 12.1854 40.0001H13.751C14.206 39.903 14.6715 39.8383 15.1162 39.7036C18.3267 38.7298 20.2921 36.5954 21.0248 33.3243C21.0498 33.2116 21.0801 33.101 21.1114 32.9716H21.1761C21.2326 32.5792 21.2613 32.1833 21.2617 31.7869C21.2625 31.3892 21.2346 30.9919 21.1782 30.5981ZM12.9682 37.6569C11.4151 37.6525 9.92701 37.0328 8.82977 35.9336C7.73254 34.8344 7.11553 33.3453 7.11388 31.7921C7.11775 30.2392 7.73693 28.7512 8.83579 27.6539C9.93465 26.5566 11.4236 25.9395 12.9765 25.9379C14.5305 25.9403 16.0201 26.5591 17.1186 27.6583C18.217 28.7575 18.8347 30.2475 18.836 31.8015C18.8316 33.3553 18.2116 34.8439 17.1118 35.9414C16.0119 37.0389 14.5219 37.6558 12.9682 37.6569V37.6569Z" fill="#FFAA46"/>
</svg>
