<svg width="60" height="60" viewBox="0 0 60 60" fill="none" xmlns="http://www.w3.org/2000/svg">
<path d="M25.4926 37.8169L23.4284 41.8561C23.4065 41.9259 23.3782 41.9935 23.3438 42.0581L21.7886 45.0605L14.152 60.0002H59.8842C59.773 59.7606 59.6915 59.5695 59.596 59.3847C52.8239 46.2769 46.0476 33.1732 39.2671 20.0738C38.8975 19.413 38.7135 18.6646 38.7346 17.9078C38.7831 16.6454 38.7471 15.3815 38.7471 14.0534H56.0721C55.9155 13.8107 55.8215 13.6462 55.715 13.4865C54.3713 11.4724 53.0337 9.4536 51.6759 7.4489C51.4691 7.13566 51.4723 6.93361 51.6759 6.62821C53.1637 4.43557 54.6297 2.21475 56.1034 0.00488281H35.2311C35.2311 6.14114 35.2274 12.2769 35.2201 18.4121C35.2174 18.8158 35.1231 19.2137 34.9445 19.5757C31.9165 25.4771 28.8735 31.3732 25.8153 37.2641C25.7307 37.4223 25.632 37.5789 25.4926 37.8169ZM38.7785 3.54129H49.5177L48.0377 5.76056C47.1872 7.03542 47.1888 7.03542 48.0471 8.32438C48.5012 9.00514 48.9549 9.68799 49.4081 10.3729C49.4253 10.3996 49.4175 10.445 49.4253 10.517H38.7753L38.7785 3.54129ZM32.0956 32.777C33.6962 29.6749 35.3026 26.576 36.9147 23.4802C36.9225 23.4646 36.9445 23.4583 37.0259 23.4019C37.1261 23.5836 37.2295 23.7574 37.3219 23.936C38.8082 26.8115 40.2867 29.6916 41.7918 32.5593C41.9907 32.9399 41.9484 33.167 41.6352 33.4442C41.2577 33.7778 40.9304 34.1678 40.4965 34.6204C39.2781 33.3894 38.1473 32.2398 36.9914 31.0746C35.8325 32.2414 34.6939 33.3878 33.4503 34.6423C32.9648 34.1192 32.5216 33.6619 32.1066 33.1779C32.0742 33.1164 32.0563 33.0483 32.0544 32.9787C32.0525 32.9092 32.0666 32.8402 32.0956 32.777ZM33.43 39.5742L36.9492 36.0362L40.4637 39.582L43.7119 36.304L54.1395 56.4904H19.8403L30.235 36.3682L33.43 39.5742Z" fill="#22A33F"/>
<path d="M15.9374 56.4965C12.8316 56.5215 9.33751 56.5153 6.11433 56.5153L19.3234 33.9436C19.4409 34.119 19.5317 34.2365 19.6022 34.3649C20.8457 36.6421 22.0814 38.9256 23.3359 41.1966C23.3991 41.2928 23.4403 41.4018 23.4565 41.5157C23.4728 41.6297 23.4637 41.7459 23.4299 41.8559L25.4941 37.8167L19.4534 26.7549L0 60H14.1535" fill="#FFAA46"/>
</svg>
