<svg width="60" height="60" viewBox="0 0 60 60" fill="none" xmlns="http://www.w3.org/2000/svg">
<path d="M59.9734 60.0001H0V56.4995H3.57416V38.7085H14.1292V56.4416H17.6532V28.1536H28.1879V56.4479H31.7182V35.1986H42.2748V56.4557H45.7769V21.1289H56.3319V56.4823H59.9796L59.9734 60.0001ZM52.7812 56.4589V24.6373H49.337V56.4589H52.7812ZM21.2008 56.4416H24.645V31.6729H21.2008V56.4416ZM38.7178 56.4573V38.7195H35.2736V56.4573H38.7178ZM7.15146 42.2107V56.4322H10.5957V42.2107H7.15146Z" fill="#22A33F"/>
<path d="M59.9732 14.0556H56.4648V6.14479L56.3192 6.06026L37.2726 25.4419L23.0151 11.1843L3.04486 31.045L0.730957 28.7718C8.09117 21.2926 15.4744 13.7879 22.8805 6.25752L37.0096 20.3867L53.567 3.54597H45.7908V0.0078125H59.9732V14.0556Z" fill="#FFAA46"/>
</svg>
