<svg width="60" height="60" viewBox="0 0 60 60" fill="none" xmlns="http://www.w3.org/2000/svg">
<g clip-path="url(#clip0_1201_45154)">
<path d="M0 28.6422C0.26929 27.4101 0.405499 26.1372 0.829787 24.9551C3.1031 18.6707 7.58552 14.8881 14.2191 14.1835C20.8872 13.4759 26.0413 16.2846 29.6172 21.9616C29.7378 22.1526 29.8489 22.3499 29.9945 22.5879C32.8252 17.6702 36.9491 14.7127 42.5854 14.1413C47.2823 13.6637 51.4297 15.0806 54.9023 18.2886C56.5213 19.7819 57.8114 21.5962 58.6903 23.6158C59.5691 25.6354 60.0175 27.816 60.0067 30.0186C59.996 32.2211 59.5264 34.3972 58.6278 36.4081C57.7293 38.419 56.4215 40.2207 54.788 41.6981C47.1633 48.6354 34.7008 46.5516 29.993 37.2955C29.8896 37.4521 29.7972 37.5992 29.7143 37.7448C26.3669 43.5674 19.9071 46.669 13.3549 45.6169C10.1356 45.0849 7.1566 43.579 4.81942 41.302C2.48223 39.025 0.899115 36.0863 0.28338 32.882C0.175351 32.3309 0.0986334 31.7751 0.00782629 31.2208L0 28.6422ZM23.1276 39.8616C26.4029 37.7871 29.2602 32.6455 27.884 26.9717C26.5595 21.517 21.587 17.6076 15.9132 17.5888C13.1582 17.5828 10.4801 18.4968 8.30357 20.1858C6.12705 21.8747 4.57672 24.242 3.89844 26.9122C2.47997 32.5814 5.32787 37.7699 8.83334 39.9806C8.62511 37.2 9.41889 34.8578 11.6077 33.1278C10.042 30.2125 10.3771 27.6073 12.5126 25.8538C13.4543 25.0768 14.6356 24.6491 15.8564 24.6432C17.0773 24.6372 18.2627 25.0532 19.212 25.8209C21.3757 27.5604 21.717 30.1546 20.1623 33.1262C21.1768 33.9356 22.0583 34.9079 22.4231 36.1651C22.7738 37.3785 22.9069 38.656 23.1276 39.8616ZM51.3655 39.8616C54.6737 37.7605 57.4934 32.6064 56.1188 26.9685C54.788 21.506 49.8233 17.6076 44.151 17.5888C41.3957 17.5834 38.7175 18.4982 36.5412 20.1881C34.3649 21.8779 32.8152 24.2461 32.1379 26.9169C30.7178 32.6346 33.6064 37.7965 37.0728 39.979C36.8692 37.2031 37.6568 34.8578 39.8502 33.1293C38.2955 30.2501 38.6149 27.6496 40.7066 25.8945C41.6449 25.1009 42.8304 24.6592 44.0592 24.6455C45.288 24.6317 46.4832 25.0469 47.4389 25.8194C49.6026 27.5619 49.9439 30.1468 48.3908 33.1325C49.4131 33.9309 50.2868 34.9079 50.6516 36.1651C51.0085 37.3879 51.1432 38.656 51.3655 39.8616ZM40.644 41.7717C42.8471 42.4293 45.1918 42.4466 47.4044 41.8218C47.4679 41.7911 47.5229 41.7454 47.5646 41.6887C47.6064 41.6319 47.6336 41.5658 47.644 41.4961C47.644 40.4236 47.6909 39.3449 47.5892 38.2818C47.4217 36.5471 45.9014 35.2414 44.151 35.221C42.4006 35.2007 40.8397 36.4829 40.6628 38.2161C40.5501 39.3715 40.644 40.5489 40.644 41.7717ZM19.4218 40.0134H19.4812C19.4139 39.2792 19.4343 38.5214 19.2605 37.8216C19.0552 37.0391 18.5829 36.3531 17.9254 35.8819C17.2679 35.4108 16.4664 35.1842 15.6595 35.2414C13.9373 35.3713 12.558 36.6505 12.3967 38.3633C12.3075 39.3308 12.3701 40.3125 12.3341 41.2863C12.32 41.6683 12.4468 41.8233 12.8257 41.9126C14.7271 42.3638 16.7042 42.3942 18.6186 42.0018C19.2574 41.8797 19.5173 41.6057 19.4186 40.9591C19.3964 40.6442 19.3975 40.3282 19.4218 40.0134ZM44.151 28.171C43.8016 28.1632 43.4578 28.2596 43.1634 28.4478C42.8689 28.636 42.6371 28.9075 42.4974 29.2279C42.3577 29.5482 42.3165 29.9029 42.379 30.2467C42.4414 30.5906 42.6048 30.908 42.8482 31.1588C43.0916 31.4095 43.4042 31.5822 43.746 31.6548C44.0879 31.7274 44.4436 31.6966 44.7679 31.5665C45.0923 31.4363 45.3705 31.2126 45.5674 30.9239C45.7642 30.6351 45.8707 30.2943 45.8732 29.9448C45.8711 29.4839 45.6905 29.0417 45.3694 28.711C45.0484 28.3803 44.6117 28.1867 44.151 28.171ZM15.8678 28.171C15.5186 28.1751 15.1786 28.2829 14.8909 28.4806C14.6032 28.6784 14.3807 28.9572 14.2517 29.2816C14.1228 29.6061 14.0932 29.9615 14.1666 30.3028C14.2401 30.6442 14.4134 30.9559 14.6644 31.1986C14.9154 31.4412 15.2329 31.6038 15.5765 31.6657C15.9202 31.7275 16.2744 31.6858 16.5943 31.5459C16.9142 31.406 17.1853 31.1742 17.3731 30.88C17.561 30.5857 17.6572 30.2422 17.6495 29.8932C17.6368 29.4295 17.4427 28.9894 17.1089 28.6674C16.7752 28.3453 16.3284 28.1671 15.8646 28.171H15.8678Z" fill="#22A33F"/>
<path d="M44.7554 51.19C45.5006 52.1043 46.2239 52.9905 47.0271 53.9721C37.508 60.9064 27.5819 61.733 17.0467 56.4412L17.6025 58.8084L14.1925 59.6601C13.4551 56.6854 12.7255 53.7436 11.9771 50.736L20.5882 49.2627C20.7854 50.4213 20.978 51.547 21.18 52.7306L18.7877 53.1533C24.0044 56.7058 35.3146 58.727 44.7554 51.19Z" fill="#FFAA46"/>
<path d="M15.2492 8.66704C14.5071 7.7621 13.7931 6.88848 13.0322 5.95849C17.3002 2.51408 22.1437 0.559642 27.5629 0.0951688C32.9957 -0.357301 38.1075 0.787181 42.9845 3.53018L42.4005 1.05021L45.812 0.203198C46.5526 3.192 47.2822 6.1354 48.0258 9.13987L39.4148 10.6131C39.2144 9.43107 39.0234 8.30695 38.8246 7.14368L41.2497 6.70999C35.9563 3.14347 24.643 1.14571 15.2492 8.66704Z" fill="#FFAA46"/>
</g>
<defs>
<clipPath id="clip0_1201_45154">
<rect width="60" height="60" fill="white"/>
</clipPath>
</defs>
</svg>
