<svg width="30" height="30" viewBox="0 0 30 30" fill="none" xmlns="http://www.w3.org/2000/svg">
<g clip-path="url(#clip0_1575_43992)">
<path d="M22.9709 30H3.51496V28.1516C3.44764 28.1305 3.39362 28.1125 3.33804 28.0968C1.25882 27.5023 0.00078284 25.8466 0 23.6905C0 17.7303 0.00287882 11.7698 0.00861965 5.80905C0.00363474 5.29206 0.0762027 4.77725 0.223901 4.2818C0.846258 2.31125 2.25537 1.20144 4.26101 0.938283C6.30892 0.669643 7.92627 1.46068 9.01676 3.2417C9.14123 3.44612 9.26726 3.51582 9.49663 3.51034C10.1511 3.49624 10.8055 3.50564 11.4592 3.50564H12.3376V1.72776H9.72913V0H16.7481V1.74499H14.1381V3.52209H18.5314V7.04182H22.9153V12.352H21.1931V24.6805C21.8835 24.6805 22.5575 24.7282 23.223 24.6711C24.7213 24.5426 25.9402 23.5338 26.3191 22.0865C26.4576 21.5578 26.4389 20.99 26.4757 20.4331C26.496 20.0971 26.4757 19.758 26.4757 19.3946H24.7276V12.3394H26.4796C26.4796 12.041 26.4741 11.7794 26.4796 11.5179C26.4914 10.8364 26.7608 10.1846 27.2334 9.69377C27.9912 8.87845 28.9557 8.72964 30 8.83224V10.5913C29.737 10.5913 29.4731 10.5757 29.2101 10.5851C28.7451 10.6015 28.331 10.9367 28.2652 11.3957C28.2214 11.6972 28.2566 12.0105 28.2566 12.3504H30V19.3867H28.2363C28.2363 20.0337 28.2449 20.6281 28.2363 21.2218C28.1987 23.3545 26.8624 25.3094 24.8701 26.0683C24.2688 26.2978 23.6175 26.3965 22.9411 26.568C22.9411 26.8883 22.9411 27.2729 22.9411 27.6645C22.951 28.4419 22.961 29.2204 22.9709 30ZM7.07923 24.6875H19.391V12.3614H7.07767L7.07923 24.6875ZM3.53923 12.3371V7.03242H7.94349C7.94349 6.58678 7.95523 6.18656 7.94349 5.78791C7.87304 3.63017 6.16174 2.27287 4.10052 2.7334C2.68045 3.05138 1.76609 4.27475 1.76531 5.87328C1.76531 11.8147 1.76531 17.7561 1.76531 23.6975C1.76196 23.9122 1.78111 24.1267 1.82245 24.3374C2.02756 25.2843 2.59434 25.9258 3.52983 26.3158V24.6985H5.2693V12.3371H3.53923ZM5.30687 28.2182H21.1531V26.4889H5.30531L5.30687 28.2182ZM21.1594 8.83459H5.31706V10.5576H21.1578L21.1594 8.83459ZM9.73932 5.28665V7.01519H16.7504V5.28665H9.73932ZM28.219 17.6222V14.1228H26.4968V17.6222H28.219Z" fill="#377BE1"/>
<path d="M13.2307 22.9299C10.818 22.926 8.8022 20.9296 8.79907 18.5401C8.79907 16.1654 10.8846 14.0813 13.2613 14.0899C15.6834 14.0985 17.6538 16.1027 17.6452 18.5479C17.6433 19.1257 17.5276 19.6975 17.3047 20.2306C17.0818 20.7637 16.756 21.2475 16.346 21.6545C15.936 22.0615 15.4498 22.3837 14.9153 22.6025C14.3807 22.8214 13.8083 22.9326 13.2307 22.9299ZM12.1739 20.9179C13.0217 21.4262 14.3831 21.1677 15.1667 20.3297C15.9159 19.5277 16.1186 18.1821 15.6286 17.4616L12.1739 20.9179ZM14.3181 16.116C13.2801 15.6203 12.0322 15.8873 11.2407 16.7818C10.5518 17.5603 10.3796 18.8424 10.8493 19.5927L14.3181 16.116Z" fill="#00CD69"/>
</g>
<defs>
<clipPath id="clip0_1575_43992">
<rect width="30" height="30" fill="white"/>
</clipPath>
</defs>
</svg>
