<svg width="30" height="30" viewBox="0 0 30 30" fill="none" xmlns="http://www.w3.org/2000/svg">
<path d="M29.9995 22.8409C29.885 23.2824 29.8028 23.7356 29.6472 24.1636C28.9092 26.2185 26.8714 27.6116 24.668 27.5852C22.4647 27.5588 20.4586 26.1245 19.7511 24.0626C19.7071 23.9335 19.6654 23.8032 19.6302 23.6716C19.501 23.1926 19.5022 23.192 19.019 23.192H15.8211C15.8211 23.0746 15.8211 22.9701 15.8211 22.8667C15.807 21.8423 15.8505 20.8119 15.7665 19.7933C15.5598 17.2923 14.4432 15.2421 12.4841 13.6834C10.4504 12.0659 8.11547 11.49 5.55632 11.8974C4.20079 12.1141 2.91897 12.6595 1.82298 13.4861C1.71319 13.5677 1.60399 13.6499 1.49362 13.7298C1.471 13.74 1.44711 13.7471 1.42258 13.7509L0.321777 12.4252C1.52532 11.4231 2.88152 10.752 4.38154 10.3452V4.74309H2.65254V3H16.6789V4.729H15.2416C15.9514 7.09441 16.6507 9.42576 17.3499 11.7565H21.2106V11.4366C21.2106 10.1086 21.2036 8.78054 21.2106 7.45253C21.2194 6.16092 21.9568 5.184 23.1839 4.8335C23.3864 4.77479 23.6013 4.76129 23.8297 4.72371V6.43275C23.6342 6.53373 23.397 6.59361 23.259 6.74391C23.1128 6.9036 22.9837 7.14842 22.9801 7.35801C22.9567 8.81225 22.9678 10.2665 22.9678 11.7659C23.1093 11.7659 23.2414 11.7606 23.3729 11.7659C24.1115 11.8017 24.8688 11.7489 25.5845 11.8974C27.108 12.2127 28.2 13.6123 28.2329 15.1728C28.2534 16.1586 28.2329 17.1455 28.2476 18.1312C28.2551 18.2894 28.3174 18.4401 28.4237 18.5575C29.2332 19.3617 29.763 20.4047 29.9349 21.5329C29.9484 21.618 29.9754 21.7008 29.9936 21.7847L29.9995 22.8409ZM6.1669 10.0375C6.22561 10.0375 6.27551 10.0375 6.3213 10.0375C8.62507 9.89368 10.7515 10.4432 12.7036 11.672C12.7648 11.7193 12.8372 11.7501 12.9138 11.7612C13.7698 11.7677 14.6264 11.7653 15.5 11.7653C15.4794 11.6691 15.47 11.6021 15.4506 11.5375C14.7927 9.34337 14.1354 7.14901 13.4786 4.95444C13.4281 4.78595 13.3547 4.73076 13.1768 4.73134C10.9112 4.73722 8.64561 4.73487 6.38001 4.73604C6.30866 4.73951 6.23754 4.74656 6.1669 4.75718V10.0375ZM24.7273 25.8304C25.4221 25.8302 26.1013 25.624 26.679 25.238C27.2567 24.8519 27.7071 24.3034 27.9731 23.6615C28.2392 23.0197 28.3091 22.3133 28.174 21.6318C28.0388 20.9503 27.7047 20.3241 27.2139 19.8323C26.723 19.3405 26.0974 19.0053 25.4161 18.8689C24.7348 18.7325 24.0284 18.8011 23.3861 19.066C22.7437 19.3309 22.1943 19.7802 21.8072 20.3572C21.4201 20.9342 21.2127 21.613 21.2112 22.3078C21.2118 23.2405 21.5824 24.1349 22.2415 24.7949C22.9007 25.4548 23.7946 25.8263 24.7273 25.828V25.8304ZM14.9551 13.526C14.9469 13.5654 14.9405 13.5777 14.944 13.5848C14.9898 13.6476 15.0338 13.7116 15.0837 13.7709C15.8449 14.6635 16.4459 15.681 16.8603 16.7786C16.9383 16.9876 17.0428 17.0492 17.2618 17.0486C19.683 17.0404 22.1042 17.0394 24.5254 17.0457C24.8179 17.0434 25.1102 17.0614 25.4001 17.0997C25.7589 17.1502 26.1129 17.2365 26.4839 17.3105C26.4839 16.6899 26.4839 16.0852 26.4839 15.4805C26.4839 14.2517 25.7642 13.5284 24.5418 13.5278C21.4373 13.5278 18.3327 13.5278 15.2281 13.5278L14.9551 13.526ZM20.7856 18.8228H17.4761C17.5225 19.7064 17.5671 20.5671 17.6123 21.436C18.1994 21.436 18.7742 21.4419 19.3484 21.4284C19.4229 21.4284 19.545 21.3356 19.5597 21.2669C19.7543 20.3609 20.1762 19.5192 20.7856 18.8211V18.8228Z" fill="#377BE1"/>
<path d="M6.62588e-06 20.5501C0.00529048 16.6858 3.16562 13.5273 7.02812 13.5249C10.8994 13.5249 14.0809 16.7122 14.0609 20.5753C14.041 24.4384 10.8742 27.5988 7.0158 27.5859C3.15036 27.5735 -0.00527723 24.4097 6.62588e-06 20.5501ZM7.02812 25.8281C9.92603 25.8281 12.3014 23.4568 12.3032 20.5577C12.3049 17.6586 9.9319 15.2844 7.03282 15.2827C4.13375 15.2809 1.75953 17.6539 1.75777 20.553C1.75601 23.4521 4.12905 25.8263 7.02812 25.8281Z" fill="#00CD69"/>
<path d="M25.6021 22.3559C25.5938 22.5292 25.5342 22.6962 25.431 22.8356C25.3277 22.9751 25.1854 23.0808 25.0221 23.1394C24.8588 23.198 24.6818 23.2068 24.5134 23.1647C24.3451 23.1227 24.193 23.0316 24.0764 22.9031C23.9598 22.7746 23.884 22.6144 23.8584 22.4428C23.8329 22.2712 23.8588 22.0958 23.933 21.939C24.0071 21.7821 24.1261 21.6507 24.275 21.5615C24.4238 21.4723 24.5957 21.4292 24.769 21.4377C25.0004 21.4512 25.2173 21.5549 25.3731 21.7266C25.5289 21.8983 25.6111 22.1243 25.6021 22.3559Z" fill="#377BE1"/>
<path d="M9.665 20.5512C9.66969 21.9832 8.48082 23.1791 7.04244 23.1902C5.60405 23.2014 4.38583 21.9849 4.39581 20.5448C4.40579 19.1046 5.60112 17.9181 7.03363 17.921C7.72918 17.9279 8.39431 18.2072 8.88627 18.6989C9.37823 19.1907 9.65781 19.8557 9.665 20.5512ZM7.03716 19.6788C6.8637 19.6775 6.69377 19.7277 6.54887 19.8231C6.40397 19.9184 6.29061 20.0546 6.22316 20.2145C6.15571 20.3743 6.13719 20.5505 6.16994 20.7208C6.2027 20.8912 6.28526 21.048 6.40717 21.1714C6.52909 21.2948 6.68487 21.3792 6.8548 21.414C7.02473 21.4488 7.20117 21.4324 7.36179 21.3669C7.5224 21.3014 7.65995 21.1897 7.75705 21.046C7.85415 20.9022 7.90641 20.7329 7.90723 20.5594C7.90618 20.328 7.81451 20.1062 7.65186 19.9416C7.48922 19.777 7.26854 19.6826 7.03716 19.6788Z" fill="#00CD69"/>
</svg>
