<svg width="50" height="50" viewBox="0 0 50 50" fill="none" xmlns="http://www.w3.org/2000/svg">
<path d="M49.9989 38.0682C49.8081 38.804 49.6711 39.5594 49.4118 40.2727C48.1819 43.6974 44.7855 46.0194 41.1132 45.9754C37.441 45.9313 34.0974 43.5409 32.9184 40.1044C32.845 39.8891 32.7755 39.6719 32.7168 39.4527C32.5015 38.6543 32.5035 38.6533 31.6982 38.6533H26.3683C26.3683 38.4576 26.3683 38.2834 26.3683 38.1112C26.3449 36.4037 26.4173 34.6865 26.2773 32.9888C25.9329 28.8204 24.0718 25.4035 20.8066 22.8056C17.4171 20.1099 13.5256 19.15 9.26038 19.8291C7.00115 20.1901 4.86478 21.0992 3.03813 22.4769C2.85515 22.6129 2.67316 22.7499 2.4892 22.8829C2.4515 22.9 2.41168 22.9118 2.37081 22.9182L0.536133 20.7087C2.54204 19.0384 4.80236 17.92 7.30241 17.2419V7.90514H4.42074V5H27.7979V7.88166H25.4026C26.5856 11.824 27.7509 15.7096 28.9163 19.5942H35.3509V19.0609C35.3509 16.8476 35.3392 14.6342 35.3509 12.4209C35.3656 10.2682 36.5946 8.63999 38.6396 8.05583C38.9772 7.95798 39.3353 7.93548 39.7159 7.87286V10.7212C39.3901 10.8895 38.9948 10.9894 38.7649 11.2398C38.5212 11.506 38.3059 11.914 38.3001 12.2634C38.2609 14.6871 38.2795 17.1108 38.2795 19.6099C38.5153 19.6099 38.7355 19.6011 38.9547 19.6099C40.1856 19.6696 41.4479 19.5815 42.6407 19.8291C45.1799 20.3545 46.9998 22.6872 47.0546 25.2881C47.0889 26.931 47.0546 28.5758 47.0791 30.2187C47.0917 30.4824 47.1954 30.7335 47.3727 30.9291C48.7219 32.2695 49.6048 34.0079 49.8913 35.8881C49.9138 36.03 49.9588 36.1679 49.9891 36.3079L49.9989 38.0682ZM10.278 16.7292C10.3759 16.7292 10.459 16.7292 10.5353 16.7292C14.3749 16.4895 17.9191 17.4053 21.1725 19.4533C21.2746 19.5322 21.3952 19.5834 21.5228 19.6021C22.9495 19.6128 24.3771 19.6089 25.8331 19.6089C25.7989 19.4484 25.7832 19.3369 25.7509 19.2292C24.6543 15.5723 23.5588 11.915 22.4642 8.2574C22.38 7.97658 22.2577 7.8846 21.9612 7.88558C18.1852 7.89536 14.4092 7.89145 10.6332 7.8934C10.5143 7.89918 10.3957 7.91094 10.278 7.92863V16.7292ZM41.2121 43.0507C42.3701 43.0503 43.502 42.7067 44.4649 42.0633C45.4277 41.4199 46.1783 40.5056 46.6217 39.4358C47.0652 38.3661 47.1817 37.1889 46.9565 36.053C46.7312 34.9171 46.1744 33.8734 45.3563 33.0538C44.5382 32.2342 43.4955 31.6755 42.3601 31.4482C41.2246 31.2208 40.0472 31.3352 38.9766 31.7767C37.906 32.2182 36.9904 32.967 36.3452 33.9287C35.7001 34.8904 35.3544 36.0217 35.3519 37.1797C35.3529 38.7342 35.9704 40.2249 37.069 41.3248C38.1676 42.4246 39.6575 43.0439 41.2121 43.0467V43.0507ZM24.9251 22.5434C24.9114 22.609 24.9006 22.6295 24.9065 22.6413C24.9828 22.7459 25.0562 22.8526 25.1393 22.9514C26.408 24.4391 27.4097 26.1351 28.1003 27.9643C28.2304 28.3126 28.4046 28.4153 28.7696 28.4144C32.8049 28.4007 36.8402 28.399 40.8755 28.4095C41.363 28.4056 41.8501 28.4357 42.3334 28.4995C42.9313 28.5836 43.5213 28.7275 44.1397 28.8508C44.1397 27.8165 44.1397 26.8087 44.1397 25.8008C44.1397 23.7528 42.9401 22.5473 40.9029 22.5463C35.7286 22.5463 30.5543 22.5463 25.38 22.5463L24.9251 22.5434ZM34.6425 31.3714H29.1267C29.204 32.844 29.2784 34.2785 29.3537 35.7266C30.3322 35.7266 31.2902 35.7364 32.2471 35.7139C32.3714 35.7139 32.5749 35.5593 32.5994 35.4448C32.9237 33.9348 33.6268 32.532 34.6425 31.3684V31.3714Z" fill="#22A33F"/>
<path d="M1.10431e-05 34.2502C0.00881747 27.8097 5.27604 22.5454 11.7135 22.5415C18.1657 22.5415 23.4682 27.8537 23.4349 34.2922C23.4016 40.7307 18.1236 45.9979 11.693 45.9764C5.2506 45.9559 -0.00879539 40.6828 1.10431e-05 34.2502ZM11.7135 43.0468C16.5434 43.0468 20.5024 39.0947 20.5053 34.2629C20.5082 29.4311 16.5532 25.474 11.7214 25.4711C6.88958 25.4682 2.93255 29.4232 2.92961 34.255C2.92668 39.0868 6.88174 43.0439 11.7135 43.0468Z" fill="#FFAA46"/>
<path d="M42.6701 37.2597C42.6562 37.5485 42.5569 37.8268 42.3849 38.0592C42.2128 38.2916 41.9757 38.4678 41.7035 38.5654C41.4312 38.6631 41.1362 38.6778 40.8556 38.6077C40.575 38.5376 40.3216 38.3859 40.1272 38.1717C39.9329 37.9575 39.8065 37.6905 39.764 37.4045C39.7214 37.1184 39.7647 36.8262 39.8882 36.5647C40.0118 36.3033 40.2101 36.0843 40.4582 35.9356C40.7062 35.7869 40.9928 35.7151 41.2816 35.7293C41.6673 35.7518 42.0288 35.9247 42.2884 36.2109C42.5481 36.497 42.6851 36.8736 42.6701 37.2597Z" fill="#22A33F"/>
<path d="M16.108 34.2518C16.1158 36.6384 14.1344 38.6316 11.7371 38.6502C9.33976 38.6688 7.30939 36.6413 7.32603 34.2411C7.34266 31.8408 9.33487 29.8633 11.7224 29.8682C12.8816 29.8796 13.9902 30.3451 14.8101 31.1647C15.6301 31.9842 16.096 33.0926 16.108 34.2518ZM11.7283 32.7978C11.4392 32.7957 11.156 32.8794 10.9145 33.0383C10.673 33.1972 10.484 33.4242 10.3716 33.6906C10.2592 33.9569 10.2283 34.2506 10.2829 34.5345C10.3375 34.8184 10.4751 35.0797 10.6783 35.2854C10.8815 35.491 11.1411 35.6318 11.4243 35.6898C11.7076 35.7478 12.0016 35.7205 12.2693 35.6113C12.537 35.5021 12.7663 35.316 12.9281 35.0764C13.0899 34.8368 13.177 34.5546 13.1784 34.2655C13.1766 33.8798 13.0239 33.5102 12.7528 33.2358C12.4817 32.9614 12.1139 32.8042 11.7283 32.7978Z" fill="#FFAA46"/>
</svg>
