<svg width="60" height="60" viewBox="0 0 60 60" fill="none" xmlns="http://www.w3.org/2000/svg">
<circle cx="30" cy="30" r="30" fill="#F6F7FA"/>
<path d="M30 45C30 36.7157 23.2843 30 15 30V45H30Z" fill="#FF0000"/>
<path d="M30 45C30 36.7157 23.2843 30 15 30V45H30Z" fill="url(#paint0_linear_1004_47207)"/>
<path d="M15 30C23.2843 30 30 23.2843 30 15H15V30Z" fill="#FF0000"/>
<path d="M15 30C23.2843 30 30 23.2843 30 15H15V30Z" fill="url(#paint1_linear_1004_47207)"/>
<path d="M45 30C36.7157 30 30 36.7157 30 45H45V30Z" fill="#FF0000"/>
<path d="M45 30C36.7157 30 30 36.7157 30 45H45V30Z" fill="url(#paint2_linear_1004_47207)"/>
<path d="M33 21C33 17.6863 35.6863 15 39 15C42.3137 15 45 17.6863 45 21C45 24.3137 42.3137 27 39 27H33V21Z" fill="url(#paint3_linear_1004_47207)"/>
<defs>
<linearGradient id="paint0_linear_1004_47207" x1="15" y1="45" x2="48.7936" y2="39.8388" gradientUnits="userSpaceOnUse">
<stop stop-color="#FF512F"/>
<stop offset="1" stop-color="#DD2476"/>
</linearGradient>
<linearGradient id="paint1_linear_1004_47207" x1="15" y1="45" x2="48.7936" y2="39.8388" gradientUnits="userSpaceOnUse">
<stop stop-color="#FF512F"/>
<stop offset="1" stop-color="#DD2476"/>
</linearGradient>
<linearGradient id="paint2_linear_1004_47207" x1="15" y1="45" x2="48.7936" y2="39.8388" gradientUnits="userSpaceOnUse">
<stop stop-color="#FF512F"/>
<stop offset="1" stop-color="#DD2476"/>
</linearGradient>
<linearGradient id="paint3_linear_1004_47207" x1="33" y1="21" x2="45" y2="21" gradientUnits="userSpaceOnUse">
<stop stop-color="#396AFC"/>
<stop offset="1" stop-color="#2948FF"/>
</linearGradient>
</defs>
</svg>
