<svg width="1169" height="169" viewBox="0 0 1169 169" fill="none" xmlns="http://www.w3.org/2000/svg">
<path d="M41.74 24.08H19.78V4.27999H82.6L131.74 131H98.44L89.44 106.34H41.92L32.74 131H0.34L41.74 24.08ZM81.16 81.86L65.68 38.12L50.02 81.86H81.16ZM188.097 168.98C172.137 168.98 158.937 165.92 148.497 159.8V135.5C158.817 142.58 170.217 146.12 182.697 146.12C190.137 146.12 196.437 144.38 201.597 140.9C206.757 137.54 209.337 132.02 209.337 124.34V115.7C206.697 119.42 202.977 122.6 198.177 125.24C193.497 127.76 188.037 129.02 181.797 129.02C173.877 129.02 166.677 127.16 160.197 123.44C153.837 119.72 148.797 114.32 145.077 107.24C141.357 100.16 139.497 91.82 139.497 82.22C139.497 72.62 141.357 64.28 145.077 57.2C148.797 50.12 153.837 44.72 160.197 41C166.677 37.16 173.877 35.24 181.797 35.24C188.637 35.24 194.517 36.8 199.437 39.92C204.477 42.92 208.197 46.46 210.597 50.54V37.58H239.757V124.88C239.757 134.24 237.477 142.22 232.917 148.82C228.357 155.54 222.177 160.58 214.377 163.94C206.577 167.3 197.817 168.98 188.097 168.98ZM170.277 82.22C170.277 89.42 172.077 95.18 175.677 99.5C179.277 103.7 184.137 105.8 190.257 105.8C197.577 105.8 203.937 103.34 209.337 98.42V66.2C203.937 61.28 197.577 58.82 190.257 58.82C184.137 58.82 179.277 60.92 175.677 65.12C172.077 69.32 170.277 75.02 170.277 82.22ZM271.234 57.38H252.334V37.58H300.394V53.96C302.554 48.8 306.034 44.66 310.834 41.54C315.634 38.3 321.574 36.68 328.654 36.68C332.014 36.68 334.654 37.1 336.574 37.94V64.58C332.974 63.62 329.074 63.14 324.874 63.14C314.794 63.14 307.114 65.66 301.834 70.7V131H271.234V57.38ZM398.051 35.24C407.771 35.24 416.591 37.28 424.511 41.36C432.431 45.44 438.671 51.2 443.231 58.64C447.791 66.08 450.071 74.6 450.071 84.2C450.071 93.92 447.791 102.5 443.231 109.94C438.671 117.38 432.431 123.14 424.511 127.22C416.591 131.3 407.771 133.34 398.051 133.34C388.211 133.34 379.271 131.3 371.231 127.22C363.311 123.14 357.071 117.38 352.511 109.94C347.951 102.5 345.671 93.92 345.671 84.2C345.671 74.6 347.951 66.08 352.511 58.64C357.071 51.2 363.311 45.44 371.231 41.36C379.271 37.28 388.211 35.24 398.051 35.24ZM376.451 84.2C376.451 91.4 378.431 97.34 382.391 102.02C386.471 106.58 391.691 108.86 398.051 108.86C404.291 108.86 409.391 106.58 413.351 102.02C417.431 97.34 419.471 91.4 419.471 84.2C419.471 77.12 417.431 71.3 413.351 66.74C409.391 62.06 404.291 59.72 398.051 59.72C391.811 59.72 386.651 62.06 382.571 66.74C378.491 71.3 376.451 77.12 376.451 84.2ZM532.933 133.34C520.813 133.34 509.473 130.58 498.913 125.06C488.353 119.54 479.893 111.8 473.533 101.84C467.173 91.88 463.993 80.48 463.993 67.64C463.993 54.8 467.173 43.4 473.533 33.44C479.893 23.36 488.353 15.62 498.913 10.22C509.473 4.7 520.813 1.94 532.933 1.94C542.053 1.94 549.913 3.02 556.513 5.17999C563.113 7.33999 568.393 10.04 572.353 13.28V51.98H552.553V30.2C547.873 29.12 542.833 28.58 537.433 28.58C529.753 28.58 522.793 30.26 516.553 33.62C510.433 36.86 505.573 41.48 501.973 47.48C498.373 53.36 496.573 60.08 496.573 67.64C496.573 75.2 498.373 81.98 501.973 87.98C505.573 93.86 510.433 98.48 516.553 101.84C522.793 105.08 529.753 106.7 537.433 106.7C544.513 106.7 550.873 105.8 556.513 104C562.153 102.2 567.433 99.44 572.353 95.72V122C563.353 129.56 550.213 133.34 532.933 133.34ZM639.399 35.24C649.119 35.24 657.939 37.28 665.859 41.36C673.779 45.44 680.019 51.2 684.579 58.64C689.139 66.08 691.419 74.6 691.419 84.2C691.419 93.92 689.139 102.5 684.579 109.94C680.019 117.38 673.779 123.14 665.859 127.22C657.939 131.3 649.119 133.34 639.399 133.34C629.559 133.34 620.619 131.3 612.579 127.22C604.659 123.14 598.419 117.38 593.859 109.94C589.299 102.5 587.019 93.92 587.019 84.2C587.019 74.6 589.299 66.08 593.859 58.64C598.419 51.2 604.659 45.44 612.579 41.36C620.619 37.28 629.559 35.24 639.399 35.24ZM617.799 84.2C617.799 91.4 619.779 97.34 623.739 102.02C627.819 106.58 633.039 108.86 639.399 108.86C645.639 108.86 650.739 106.58 654.699 102.02C658.779 97.34 660.819 91.4 660.819 84.2C660.819 77.12 658.779 71.3 654.699 66.74C650.739 62.06 645.639 59.72 639.399 59.72C633.159 59.72 627.999 62.06 623.919 66.74C619.839 71.3 617.799 77.12 617.799 84.2ZM716.321 131V57.38H697.061V37.58H745.481V50.18C748.841 45.86 753.101 42.32 758.261 39.56C763.541 36.68 769.541 35.24 776.261 35.24C786.581 35.24 794.861 38.12 801.101 43.88C807.461 49.64 810.641 57.74 810.641 68.18V131H780.041V77.54C780.041 71.9 778.541 67.7 775.541 64.94C772.661 62.06 768.401 60.62 762.761 60.62C756.041 60.62 750.761 62.54 746.921 66.38V131H716.321ZM830.899 100.22C835.579 102.98 841.459 105.44 848.539 107.6C855.739 109.64 862.399 110.66 868.519 110.66C873.799 110.66 877.939 110.12 880.939 109.04C883.939 107.84 885.439 106.04 885.439 103.64C885.439 101.84 884.539 100.46 882.739 99.5C880.939 98.54 877.699 97.64 873.019 96.8L864.019 95.18C840.619 90.98 828.919 81.08 828.919 65.48C828.919 59.6 830.779 54.38 834.499 49.82C838.339 45.26 843.619 41.72 850.339 39.2C857.059 36.56 864.679 35.24 873.199 35.24C881.119 35.24 888.259 36.08 894.619 37.76C901.099 39.44 906.259 41.66 910.099 44.42V67.82C904.699 64.7 898.879 62.3 892.639 60.62C886.519 58.82 880.459 57.92 874.459 57.92C869.659 57.92 865.939 58.46 863.299 59.54C860.779 60.62 859.519 62.24 859.519 64.4C859.519 66.2 860.479 67.58 862.399 68.54C864.439 69.5 867.919 70.46 872.839 71.42L882.019 73.22C892.339 75.26 900.559 78.5 906.679 82.94C912.919 87.38 916.039 93.92 916.039 102.56C916.039 108.92 914.119 114.44 910.279 119.12C906.559 123.68 901.399 127.22 894.799 129.74C888.199 132.14 880.819 133.34 872.659 133.34C864.019 133.34 855.859 132.44 848.179 130.64C840.499 128.84 834.739 126.62 830.899 123.98V100.22ZM1027.38 37.58V131H998.218V118.22C994.858 122.54 990.538 126.14 985.258 129.02C980.098 131.9 974.158 133.34 967.438 133.34C957.118 133.34 948.778 130.46 942.418 124.7C936.178 118.94 933.058 110.84 933.058 100.4V37.58H963.658V90.86C963.658 102.14 969.418 107.78 980.938 107.78C984.058 107.78 986.998 107.3 989.758 106.34C992.518 105.38 994.858 103.94 996.778 102.02V37.58H1027.38ZM1083.65 131H1053.05V19.94H1033.79V0.13999H1083.65V131ZM1145.58 96.08C1145.58 100.4 1146.78 103.64 1149.18 105.8C1151.58 107.96 1154.88 109.04 1159.08 109.04C1163.52 109.04 1166.82 108.44 1168.98 107.24V129.74C1167.3 130.7 1164.72 131.54 1161.24 132.26C1157.76 132.98 1154.46 133.34 1151.34 133.34C1139.94 133.34 1131 130.46 1124.52 124.7C1118.16 118.94 1114.98 110.54 1114.98 99.5V60.44H1099.86V37.58H1114.98V13.64H1145.58V37.58H1168.98V60.44H1145.58V96.08Z" fill="url(#paint0_linear_3064_79967)"/>
<defs>
<linearGradient id="paint0_linear_3064_79967" x1="531.867" y1="-15.2896" x2="536.599" y2="189.972" gradientUnits="userSpaceOnUse">
<stop stop-color="#ECE9E6"/>
<stop offset="1" stop-color="white"/>
</linearGradient>
</defs>
</svg>
