<svg width="18" height="14" viewBox="0 0 18 14" fill="none" xmlns="http://www.w3.org/2000/svg">
<path d="M0.999999 5.5L0.646446 5.85355L0.292892 5.5L0.646446 5.14645L0.999999 5.5ZM17.5 13.5C17.5 13.7761 17.2761 14 17 14C16.7239 14 16.5 13.7761 16.5 13.5L17.5 13.5ZM5.64645 10.8536L0.646446 5.85355L1.35355 5.14645L6.35355 10.1464L5.64645 10.8536ZM0.646446 5.14645L5.64645 0.146446L6.35355 0.853553L1.35355 5.85355L0.646446 5.14645ZM0.999999 5L11 5L11 6L0.999999 6L0.999999 5ZM17.5 11.5L17.5 13.5L16.5 13.5L16.5 11.5L17.5 11.5ZM11 5C14.5898 5 17.5 7.91015 17.5 11.5L16.5 11.5C16.5 8.46243 14.0376 6 11 6L11 5Z" fill="#242533"/>
</svg>
