<svg width="15" height="15" viewBox="0 0 16 16" fill="none" xmlns="http://www.w3.org/2000/svg">
<path d="M6.99648 0.555111C3.27817 1.05527 0.5 4.23586 0.5 7.99762C0.5 12.1539 3.84507 15.5 8 15.5C12.1549 15.5 15.5 12.1539 15.5 7.99762C15.5 4.20768 12.7113 1.03766 8.94014 0.548066C8.42606 0.481143 7.51761 0.484666 6.99648 0.555111ZM11.9401 4.76067C12.4472 5.01427 12.6514 5.64123 12.3908 6.14844C12.2606 6.40556 7.48592 11.1676 7.26056 11.2698C7.14789 11.3226 7.02817 11.3437 6.83803 11.3437C6.3662 11.3437 6.35915 11.3367 4.91549 9.88906C3.73592 8.70559 3.63732 8.59992 3.5669 8.40972C3.47887 8.16316 3.47183 7.92717 3.55282 7.67709C3.63732 7.41292 3.92958 7.11705 4.19366 7.029C4.44014 6.94799 4.78521 6.96912 5.00704 7.08183C5.10915 7.13114 5.44366 7.43758 5.94014 7.93069C6.65141 8.63514 6.72887 8.70207 6.83803 8.70207C6.9507 8.70207 7.08803 8.57174 8.91549 6.75074C10.4014 5.26435 10.9085 4.77828 11.0282 4.72545C11.1408 4.67262 11.2606 4.65148 11.4542 4.65148C11.6831 4.65148 11.7535 4.66557 11.9401 4.76067Z" fill="url(#paint0_linear_3228_64768)"/>
<defs>
<linearGradient id="paint0_linear_3228_64768" x1="0.5" y1="8" x2="15.5" y2="8" gradientUnits="userSpaceOnUse">
<stop stop-color="#396AFC"/>
<stop offset="1" stop-color="#2948FF"/>
</linearGradient>
</defs>
</svg>
