<svg width="28" height="28" viewBox="0 0 28 28" fill="none" xmlns="http://www.w3.org/2000/svg">
<path d="M14.1774 24.4974C12.8221 24.4974 11.4802 24.2304 10.2281 23.7118C8.97603 23.1932 7.83837 22.433 6.88007 21.4747C5.92177 20.5164 5.16161 19.3787 4.64298 18.1267C4.12436 16.8746 3.85742 15.5326 3.85742 14.1774C3.85742 12.8221 4.12436 11.4802 4.64298 10.2281C5.16161 8.97603 5.92177 7.83837 6.88007 6.88007C7.83837 5.92177 8.97603 5.16161 10.2281 4.64298C11.4802 4.12436 12.8222 3.85742 14.1774 3.85742C15.5326 3.85742 16.8746 4.12436 18.1267 4.64298C19.3787 5.16161 20.5164 5.92177 21.4747 6.88007C22.433 7.83837 23.1932 8.97603 23.7118 10.2281C24.2304 11.4802 24.4974 12.8222 24.4974 14.1774C24.4974 15.5326 24.2304 16.8746 23.7118 18.1267C23.1932 19.3787 22.433 20.5164 21.4747 21.4747C20.5164 22.433 19.3787 23.1932 18.1267 23.7118C16.8746 24.2304 15.5326 24.4974 14.1774 24.4974L14.1774 24.4974Z" stroke="white" stroke-width="1.14666" stroke-linecap="round"/>
<path d="M10.7383 10.7383L17.6183 17.6183" stroke="white" stroke-width="1.14666" stroke-linecap="round"/>
<path d="M17.6172 10.7383L10.7372 17.6183" stroke="white" stroke-width="1.14666" stroke-linecap="round"/>
</svg>
