<svg width="205" height="42" viewBox="0 0 205 42" fill="none" xmlns="http://www.w3.org/2000/svg">
<path d="M20 40C20 28.9543 11.0457 20 0 20V40H20Z" fill="url(#paint0_linear_3160_80733)"/>
<path d="M0 20C11.0457 20 20 11.0457 20 0H0V20Z" fill="url(#paint1_linear_3160_80733)"/>
<path d="M40 20C28.9543 20 20 28.9543 20 40H40V20Z" fill="url(#paint2_linear_3160_80733)"/>
<path d="M24 8C24 3.58172 27.5817 0 32 0C36.4183 0 40 3.58172 40 8C40 12.4183 36.4183 16 32 16H24V8Z" fill="url(#paint3_linear_3160_80733)"/>
<path d="M48.9463 30.552V39H50.0143V31.536H54.4303V39H55.4983V30.552H48.9463Z" fill="#7C7C7C"/>
<path d="M57.4271 41.292H58.4591V38.232C58.7831 38.688 59.3591 39.132 60.3071 39.132C61.7111 39.132 62.9231 37.992 62.9231 35.976C62.9231 33.96 61.7111 32.82 60.3071 32.82C59.3111 32.82 58.7351 33.3 58.4231 33.792V32.952H57.4271V41.292ZM58.4591 37.392V34.56C58.8551 34.068 59.4551 33.756 60.1391 33.756C61.2071 33.756 61.8791 34.656 61.8791 35.976C61.8791 37.308 61.2071 38.196 60.1391 38.196C59.4551 38.196 58.8551 37.884 58.4591 37.392Z" fill="#7C7C7C"/>
<path d="M66.9917 32.82C65.2637 32.82 64.0517 34.14 64.0517 35.976C64.0517 37.812 65.2637 39.132 66.9917 39.132C68.7197 39.132 69.9437 37.812 69.9437 35.976C69.9437 34.14 68.7197 32.82 66.9917 32.82ZM65.0957 35.976C65.0957 34.656 65.8757 33.756 66.9917 33.756C68.1197 33.756 68.8877 34.656 68.8877 35.976C68.8877 37.296 68.1197 38.196 66.9917 38.196C65.8757 38.196 65.0957 37.296 65.0957 35.976Z" fill="#7C7C7C"/>
<path d="M71.0244 35.94C71.0244 37.872 72.3444 39.132 74.2404 39.132C75.2244 39.132 75.9684 38.808 76.3404 38.496V37.452C75.8844 37.848 75.2004 38.184 74.3004 38.184C72.9204 38.184 72.1044 37.236 72.1044 36.276H76.4124V35.616C76.4124 34.008 75.3924 32.82 73.8084 32.82C72.1764 32.82 71.0244 34.08 71.0244 35.94ZM72.1044 35.412C72.2004 34.452 72.8244 33.744 73.7964 33.744C74.7564 33.744 75.3444 34.5 75.3924 35.412H72.1044Z" fill="#7C7C7C"/>
<path d="M77.9583 39H78.9903V36.24H79.7583L81.7623 39H82.9983L80.6583 35.772L82.9623 32.952H81.7503L79.7823 35.376H78.9903V32.952H77.9583V39Z" fill="#7C7C7C"/>
<path d="M83.6653 33.876H85.7533V39H86.7852V33.876H88.8853V32.952H83.6653V33.876Z" fill="#7C7C7C"/>
<path d="M92.1351 39H93.2631L94.0671 36.768H97.6071L98.4231 39H99.5631L96.4071 30.552H95.2911L92.1351 39ZM94.4271 35.784L95.8431 31.884L97.2591 35.784H94.4271Z" fill="#7C7C7C"/>
<path d="M100.716 39H101.748V33.876H104.82V32.952H100.716V39Z" fill="#7C7C7C"/>
<path d="M106.095 41.292H107.127V38.232C107.451 38.688 108.027 39.132 108.975 39.132C110.379 39.132 111.591 37.992 111.591 35.976C111.591 33.96 110.379 32.82 108.975 32.82C107.979 32.82 107.403 33.3 107.091 33.792V32.952H106.095V41.292ZM107.127 37.392V34.56C107.523 34.068 108.123 33.756 108.807 33.756C109.875 33.756 110.547 34.656 110.547 35.976C110.547 37.308 109.875 38.196 108.807 38.196C108.123 38.196 107.523 37.884 107.127 37.392Z" fill="#7C7C7C"/>
<path d="M115.66 32.82C113.932 32.82 112.72 34.14 112.72 35.976C112.72 37.812 113.932 39.132 115.66 39.132C117.388 39.132 118.612 37.812 118.612 35.976C118.612 34.14 117.388 32.82 115.66 32.82ZM113.764 35.976C113.764 34.656 114.544 33.756 115.66 33.756C116.788 33.756 117.556 34.656 117.556 35.976C117.556 37.296 116.788 38.196 115.66 38.196C114.544 38.196 113.764 37.296 113.764 35.976Z" fill="#7C7C7C"/>
<path d="M120.796 35.34C120.796 35.136 120.796 34.932 120.808 34.74C121.156 34.356 121.84 33.876 122.764 33.876C123.868 33.876 124.588 34.764 124.588 36.024C124.588 37.284 123.892 38.196 122.752 38.196C121.6 38.196 120.796 37.212 120.796 35.34ZM119.752 35.34C119.752 37.656 120.952 39.132 122.8 39.132C124.552 39.132 125.644 37.74 125.644 36.024C125.644 34.044 124.432 32.952 122.908 32.952C122.032 32.952 121.312 33.348 120.88 33.864C121.096 32.352 121.768 31.572 123.448 31.428C124.12 31.368 124.648 31.308 125.044 31.212V30.216C124.54 30.348 123.904 30.42 123.256 30.504C120.772 30.816 119.752 32.52 119.752 35.34Z" fill="#7C7C7C"/>
<path d="M132.376 38.976V38.184C132.292 38.232 132.184 38.256 132.064 38.256C131.788 38.256 131.608 38.112 131.608 37.812V34.992C131.608 33.672 130.696 32.82 129.196 32.82C128.212 32.82 127.432 33.18 127.072 33.492V34.512C127.528 34.092 128.332 33.768 129.112 33.768C130 33.768 130.588 34.2 130.588 35.052V35.616C130.264 35.496 129.808 35.388 129.148 35.388C127.792 35.388 126.7 36.072 126.7 37.272C126.7 38.436 127.66 39.132 128.836 39.132C129.736 39.132 130.264 38.796 130.612 38.328C130.72 38.832 131.2 39.132 131.752 39.132C132.052 39.132 132.244 39.048 132.376 38.976ZM127.744 37.272C127.744 36.588 128.416 36.228 129.196 36.228C129.772 36.228 130.228 36.324 130.588 36.444V37.524C130.252 37.944 129.772 38.232 128.992 38.232C128.212 38.232 127.744 37.86 127.744 37.272Z" fill="#7C7C7C"/>
<path d="M137.56 32.952V35.388H134.584V32.952H133.552V39H134.584V36.312H137.56V39H138.592V32.952H137.56Z" fill="#7C7C7C"/>
<path d="M140.372 39H141.404V36.24H142.172L144.176 39H145.412L143.072 35.772L145.376 32.952H144.164L142.196 35.376H141.404V32.952H140.372V39Z" fill="#7C7C7C"/>
<path d="M151.712 38.976V38.184C151.628 38.232 151.52 38.256 151.4 38.256C151.124 38.256 150.944 38.112 150.944 37.812V34.992C150.944 33.672 150.032 32.82 148.532 32.82C147.548 32.82 146.768 33.18 146.408 33.492V34.512C146.864 34.092 147.668 33.768 148.448 33.768C149.336 33.768 149.924 34.2 149.924 35.052V35.616C149.6 35.496 149.144 35.388 148.484 35.388C147.128 35.388 146.036 36.072 146.036 37.272C146.036 38.436 146.996 39.132 148.172 39.132C149.072 39.132 149.6 38.796 149.948 38.328C150.056 38.832 150.536 39.132 151.088 39.132C151.388 39.132 151.58 39.048 151.712 38.976ZM147.08 37.272C147.08 36.588 147.752 36.228 148.532 36.228C149.108 36.228 149.564 36.324 149.924 36.444V37.524C149.588 37.944 149.108 38.232 148.328 38.232C147.548 38.232 147.08 37.86 147.08 37.272Z" fill="#7C7C7C"/>
<path d="M48.312 20H52.632L53.856 16.712H60.192L61.392 20H65.832L59.28 3.104H50.904V5.744H53.832L48.312 20ZM54.936 13.448L57.024 7.616L59.088 13.448H54.936Z" fill="white"/>
<path d="M73.3463 25.064C77.1623 25.064 80.2343 23.048 80.2343 19.184V7.544H76.3463V9.272C75.7943 8.336 74.4982 7.232 72.5062 7.232C69.3382 7.232 66.8662 9.56 66.8662 13.496C66.8662 17.432 69.3382 19.736 72.5062 19.736C74.3063 19.736 75.5543 18.824 76.1783 17.96V19.112C76.1783 21.32 74.3542 22.016 72.6263 22.016C70.9463 22.016 69.4342 21.536 68.0663 20.6V23.84C69.3383 24.584 71.0182 25.064 73.3463 25.064ZM70.9703 13.496C70.9703 11.576 72.0022 10.376 73.6342 10.376C74.5942 10.376 75.4342 10.688 76.1783 11.36V15.656C75.4342 16.328 74.5942 16.64 73.6342 16.64C72.0022 16.64 70.9703 15.416 70.9703 13.496Z" fill="white"/>
<path d="M84.4313 20H88.5113V11.96C89.1113 11.384 90.0953 10.952 91.5833 10.952C92.1833 10.952 92.7832 11.048 93.1432 11.144V7.592C92.9272 7.496 92.4952 7.424 92.0872 7.424C90.0953 7.424 88.8473 8.456 88.3193 9.728V7.544H81.9112V10.184H84.4313V20Z" fill="white"/>
<path d="M101.34 7.232C97.3802 7.232 94.3562 9.824 94.3562 13.76C94.3562 17.72 97.3802 20.312 101.34 20.312C105.228 20.312 108.276 17.72 108.276 13.76C108.276 9.824 105.228 7.232 101.34 7.232ZM98.4602 13.76C98.4602 11.864 99.6602 10.496 101.34 10.496C102.996 10.496 104.196 11.864 104.196 13.76C104.196 15.68 102.996 17.048 101.34 17.048C99.6602 17.048 98.4602 15.68 98.4602 13.76Z" fill="white"/>
<path d="M119.324 20.312C121.868 20.312 123.524 19.688 124.58 18.8V15.296C123.308 16.256 121.844 16.76 119.924 16.76C116.852 16.76 114.476 14.648 114.476 11.552C114.476 8.456 116.852 6.344 119.924 6.344C120.644 6.344 121.316 6.416 121.94 6.56V9.464H124.58V4.304C123.644 3.536 121.964 2.792 119.324 2.792C114.5 2.792 110.132 6.224 110.132 11.552C110.132 16.856 114.5 20.312 119.324 20.312Z" fill="white"/>
<path d="M133.52 7.232C129.56 7.232 126.536 9.824 126.536 13.76C126.536 17.72 129.56 20.312 133.52 20.312C137.408 20.312 140.456 17.72 140.456 13.76C140.456 9.824 137.408 7.232 133.52 7.232ZM130.64 13.76C130.64 11.864 131.84 10.496 133.52 10.496C135.176 10.496 136.376 11.864 136.376 13.76C136.376 15.68 135.176 17.048 133.52 17.048C131.84 17.048 130.64 15.68 130.64 13.76Z" fill="white"/>
<path d="M147.856 20V11.384C148.384 10.856 149.152 10.616 149.968 10.616C151.456 10.616 152.272 11.36 152.272 12.872V20H156.352V11.624C156.352 8.792 154.456 7.232 151.768 7.232C149.824 7.232 148.456 8.216 147.664 9.224V7.544H141.208V10.184H143.776V20H147.856Z" fill="white"/>
<path d="M159.053 15.896V19.064C160.037 19.76 162.269 20.312 164.621 20.312C167.885 20.312 170.405 18.8 170.405 16.208C170.405 13.688 168.197 12.752 165.869 12.296L164.645 12.056C163.421 11.816 162.869 11.624 162.869 11.12C162.869 10.544 163.613 10.256 164.861 10.256C166.445 10.256 168.173 10.736 169.613 11.576V8.456C168.629 7.76 166.901 7.232 164.693 7.232C161.237 7.232 158.789 8.888 158.789 11.264C158.789 13.616 160.805 14.744 163.469 15.224L164.669 15.44C165.869 15.656 166.325 15.848 166.325 16.352C166.325 17 165.413 17.288 164.069 17.288C162.341 17.288 160.205 16.568 159.053 15.896Z" fill="white"/>
<path d="M181.17 7.544V16.136C180.642 16.664 179.85 16.904 179.058 16.904C177.546 16.904 176.754 16.184 176.754 14.648V7.544H172.674V15.92C172.674 18.752 174.57 20.312 177.258 20.312C179.202 20.312 180.57 19.304 181.362 18.296V20H185.25V7.544H181.17Z" fill="white"/>
<path d="M192.754 2.552H186.106V5.192H188.674V20H192.754V2.552Z" fill="white"/>
<path d="M201.011 15.344V10.592H204.131V7.544H201.011V4.352H196.931V7.544H194.915V10.592H196.931V15.8C196.931 18.824 198.827 20.312 201.779 20.312C202.619 20.312 203.675 20.096 204.131 19.832V16.832C203.867 16.976 203.363 17.072 202.811 17.072C201.707 17.072 201.011 16.52 201.011 15.344Z" fill="white"/>
<defs>
<linearGradient id="paint0_linear_3160_80733" x1="0" y1="41.292" x2="149.871" y2="-71.8645" gradientUnits="userSpaceOnUse">
<stop stop-color="#FF512F"/>
<stop offset="1" stop-color="#DD2476"/>
</linearGradient>
<linearGradient id="paint1_linear_3160_80733" x1="0" y1="41.292" x2="149.871" y2="-71.8645" gradientUnits="userSpaceOnUse">
<stop stop-color="#FF512F"/>
<stop offset="1" stop-color="#DD2476"/>
</linearGradient>
<linearGradient id="paint2_linear_3160_80733" x1="0" y1="41.292" x2="149.871" y2="-71.8645" gradientUnits="userSpaceOnUse">
<stop stop-color="#FF512F"/>
<stop offset="1" stop-color="#DD2476"/>
</linearGradient>
<linearGradient id="paint3_linear_3160_80733" x1="122.478" y1="8.2584" x2="204.131" y2="8.2584" gradientUnits="userSpaceOnUse">
<stop stop-color="#396AFC"/>
<stop offset="1" stop-color="#2948FF"/>
</linearGradient>
</defs>
</svg>
