<svg width="25" height="20" viewBox="0 0 25 20" fill="none" xmlns="http://www.w3.org/2000/svg">
<path fill-rule="evenodd" clip-rule="evenodd" d="M11.6836 1.02134C11.6836 1.72366 11.7005 1.94666 11.7761 2.24243C11.9115 2.77164 12.1195 3.13107 12.5253 3.53688C12.9254 3.93693 13.2885 4.14949 13.8013 4.28386L14.1432 4.37343L10.1844 4.37629C5.83279 4.37943 5.72452 4.38524 4.82009 4.66437C4.28614 4.82914 3.6383 5.12954 3.22804 5.40263C2.95139 5.58675 2.94601 5.58811 2.81136 5.5109C2.54001 5.35536 2.18592 4.98726 2.03469 4.70344C1.81843 4.29772 1.75265 4.00679 1.75199 3.4533L1.75143 2.97309H1.04222H0.333008L0.35812 3.6407C0.386839 4.40346 0.467979 4.72813 0.782576 5.33901C0.927997 5.62137 1.08279 5.82264 1.41046 6.15522C1.82372 6.57476 1.8418 6.60151 1.77443 6.69399C1.17429 7.51813 0.872858 8.08356 0.635329 8.83086C0.348328 9.73379 0.345938 9.78472 0.345938 15.0546V19.839H3.85967H7.3734V17.028V14.217H9.52849H11.6836V17.028V19.839H15.1973H18.711V15.6225V11.406H19.8566C20.52 11.406 21.1066 11.384 21.2503 11.3538C21.8487 11.2277 22.3808 10.8274 22.6583 10.2945C23.0033 9.63199 23.0125 8.99685 22.687 8.32971C22.5355 8.01923 22.0699 7.55833 21.768 7.41998L21.522 7.30726V5.84292V4.37859H21.6785C21.9335 4.37859 22.5373 4.20468 22.8485 4.04164C23.2286 3.84253 23.797 3.27415 23.9961 2.89411C24.2633 2.38396 24.333 1.99675 24.333 1.02134V0.162109H23.4738C22.4959 0.162109 22.1071 0.23243 21.6018 0.500598C21.2263 0.699896 20.7417 1.15898 20.5371 1.50923L20.375 1.78681L20.1169 1.6889C19.871 1.59562 19.7717 1.59103 18.0083 1.59103C16.2449 1.59103 16.1455 1.59562 15.8997 1.6889L15.6416 1.78681L15.4795 1.50923C15.2749 1.15898 14.7903 0.699896 14.4148 0.500598C13.9095 0.23243 13.5206 0.162109 12.5428 0.162109H11.6836V1.02134ZM13.7301 1.7349C14.1267 1.92699 14.4009 2.31219 14.4762 2.78312L14.5088 2.98734L14.3046 2.95468C13.6745 2.85395 13.2037 2.38415 13.1068 1.75959L13.0748 1.55336L13.2811 1.58531C13.3945 1.60293 13.5965 1.6702 13.7301 1.7349ZM22.9086 1.76671C22.8135 2.38087 22.3388 2.85447 21.7192 2.95356C21.4882 2.99048 21.4767 2.95543 21.5918 2.56761C21.6747 2.28857 21.8756 1.99726 22.0908 1.84402C22.2671 1.71851 22.6616 1.5714 22.8281 1.56915C22.9329 1.5677 22.9377 1.57936 22.9086 1.76671ZM19.743 3.0674C19.862 3.12812 19.9615 3.22763 20.0222 3.34667C20.112 3.52264 20.1165 3.61995 20.1165 5.36056V7.18957H18.0083H15.9001V5.36056C15.9001 3.62065 15.9046 3.52255 15.9943 3.34686C16.0518 3.234 16.1566 3.12625 16.2637 3.0697C16.4276 2.98312 16.5383 2.97712 17.9985 2.97516C19.4714 2.97319 19.5683 2.97834 19.743 3.0674ZM6.65027 7.88061L6.12603 9.97713L3.96218 9.98931C2.77201 9.99601 1.79828 9.98421 1.79828 9.96308C1.79828 9.94199 1.84312 9.74729 1.89798 9.53051C2.34713 7.7543 3.73983 6.36427 5.50405 5.93137C5.98117 5.8143 6.09346 5.80118 6.70003 5.79157L7.17448 5.78408L6.65027 7.88061ZM14.4946 6.54604V7.30801L14.2587 7.41998C13.7988 7.63835 13.3916 8.09166 13.2315 8.56363L13.1494 8.80589L11.9831 9.40097L10.8169 9.99606L9.1945 9.99831L7.57209 10.0006L8.08318 7.95088C8.36427 6.82358 8.60349 5.87487 8.61483 5.84264C8.63099 5.79663 9.26351 5.78408 11.565 5.78408H14.4946V6.54604ZM21.1484 8.68937C21.3563 8.79544 21.522 9.06534 21.522 9.29781C21.522 9.53028 21.3563 9.80018 21.1484 9.90625C20.9689 9.99779 20.8777 10.0006 18.0083 10.0006C15.1389 10.0006 15.0477 9.99779 14.8681 9.90625C14.3906 9.66258 14.3806 8.99066 14.8503 8.70633L15.0333 8.59553L17.9985 8.5953C20.878 8.59506 20.9689 8.59778 21.1484 8.68937ZM13.4626 10.4904C13.5995 10.7119 13.9646 11.0317 14.2333 11.1654C14.6631 11.3793 14.8647 11.4049 16.1226 11.4055L17.3055 11.406V12.5773C17.3055 13.2215 17.2948 13.7485 17.2817 13.7485C17.2685 13.7485 16.8366 13.5377 16.3217 13.28L15.3856 12.8115H14.1075H12.8294L12.3873 11.9234C12.1441 11.4348 11.9548 11.0261 11.9666 11.0151C12.0007 10.9833 13.2964 10.3337 13.3312 10.3309C13.3484 10.3296 13.4076 10.4014 13.4626 10.4904ZM4.05831 12.3083L3.15692 13.2107V15.8221V18.4335H2.45418H1.75143V14.9198V11.406H3.35557H4.95975L4.05831 12.3083ZM10.8762 12.0858C11.0626 12.4597 11.2151 12.7759 11.2151 12.7885C11.2151 12.8012 9.94512 12.8115 8.39299 12.8115H5.57086L6.27243 12.1088L6.97401 11.406H8.75561H10.5373L10.8762 12.0858ZM5.96791 16.3253V18.4335H5.26516H4.56242V16.3253V14.217H5.26516H5.96791V16.3253ZM14.4946 16.3253V18.4335H13.7918H13.0891V16.3253V14.217H13.7918H14.4946V16.3253ZM16.6258 15.0244L17.3055 15.3634V16.8984V18.4335H16.6028H15.9001V16.5595C15.9001 15.5288 15.9104 14.6855 15.9231 14.6855C15.9357 14.6855 16.2519 14.838 16.6258 15.0244Z" fill="black"/>
</svg>
