<svg width="21" height="24" viewBox="0 0 21 24" fill="none" xmlns="http://www.w3.org/2000/svg">
<path fill-rule="evenodd" clip-rule="evenodd" d="M15.5813 1.74998C14.822 2.71249 14.1316 3.60097 14.0471 3.72443C13.7164 4.20785 13.5383 4.76286 13.4934 5.45054C13.3816 7.16228 14.5968 8.73323 16.3057 9.08618C17.4617 9.32498 18.6479 8.96145 19.4867 8.11141C20.1202 7.46943 20.4467 6.74882 20.5089 5.85537C20.5555 5.18727 20.375 4.41207 20.0469 3.87072C19.8607 3.56352 17.0564 0 17.0008 0C16.9794 0 16.3406 0.787468 15.5813 1.74998ZM17.9153 3.38251C18.3953 3.98972 18.8396 4.59458 18.9026 4.72669C19.2932 5.54493 19.1305 6.47136 18.4824 7.11944C17.8392 7.76268 16.9092 7.92175 16.0752 7.53112C15.723 7.36613 15.2738 6.91912 15.1111 6.57171C14.7889 5.88351 14.8348 5.06456 15.2278 4.49047C15.4601 4.15105 16.9789 2.25567 17.0097 2.26671C17.0279 2.27319 17.4355 2.77531 17.9153 3.38251ZM5.36674 7.7756C3.63908 9.93345 2.10431 11.8942 1.95618 12.1329C1.45919 12.9339 1.0873 13.9191 0.905631 14.9159C0.800773 15.4914 0.786067 16.8934 0.879274 17.4293C1.17102 19.1061 1.88816 20.5268 3.02416 21.6782C6.05029 24.7454 10.943 24.7778 13.9903 21.7509C15.1496 20.5994 15.8802 19.204 16.1858 17.5579C16.3008 16.9383 16.2994 15.5515 16.1832 14.9159C16.0004 13.9168 15.6284 12.932 15.1323 12.1336C14.8707 11.7127 8.61786 3.85231 8.54462 3.85231C8.52446 3.85231 7.09446 5.61779 5.36674 7.7756ZM11.1033 9.25902C12.4903 10.9925 13.72 12.5516 13.8361 12.7237C14.246 13.3314 14.5779 14.1371 14.754 14.9519C14.8919 15.5905 14.9038 16.8252 14.7778 17.4293C14.4997 18.7632 13.9365 19.8068 12.9904 20.7419C12.0457 21.6755 11.0373 22.2138 9.71872 22.4883C9.1646 22.6037 7.92383 22.6037 7.36975 22.4883C6.03949 22.2113 5.01012 21.6549 4.05677 20.6975C3.50763 20.1461 3.19573 19.7195 2.87369 19.0796C1.90873 17.1622 2.00438 14.7739 3.11991 12.9314C3.34273 12.5634 8.47438 6.10732 8.54409 6.10732C8.56476 6.10732 9.71647 7.52558 11.1033 9.25902ZM3.63114 16.6572C3.82385 19.032 5.76705 20.9752 8.14191 21.168L8.54424 21.2006V20.4895V19.7783H8.37784C8.11823 19.7783 7.51581 19.6407 7.20786 19.5111C6.36956 19.1583 5.64059 18.4298 5.2889 17.5937C5.15848 17.2835 5.02079 16.6815 5.02079 16.4213V16.2549H4.30962H3.59848L3.63114 16.6572Z" fill="black"/>
</svg>
