<svg width="9" height="12" viewBox="0 0 9 12" fill="none" xmlns="http://www.w3.org/2000/svg">
<path d="M3.14662 8.35208V8.04808C3.14662 7.62141 3.18928 7.24274 3.27462 6.91208C3.37062 6.57074 3.51462 6.28274 3.70662 6.04808C3.89862 5.80274 4.06395 5.62141 4.20262 5.50408C4.34128 5.37608 4.53862 5.22141 4.79462 5.04008C5.01862 4.88008 5.18395 4.75208 5.29062 4.65608C5.40795 4.56008 5.51462 4.42674 5.61062 4.25608C5.71728 4.07474 5.77062 3.88274 5.77062 3.68008C5.77062 3.34941 5.66395 3.08274 5.45062 2.88008C5.23728 2.67741 4.97062 2.57608 4.65062 2.57608C4.50128 2.57608 4.35195 2.60274 4.20262 2.65608C4.06395 2.70941 3.94128 2.78408 3.83462 2.88008C3.72795 2.97608 3.63728 3.09874 3.56262 3.24808C3.49862 3.39741 3.46662 3.56274 3.46662 3.74408H0.682617C0.682617 2.59208 1.06128 1.69608 1.81862 1.05608C2.57595 0.405411 3.52528 0.0800781 4.66662 0.0800781C5.81862 0.0800781 6.76795 0.410745 7.51462 1.07208C8.27195 1.72274 8.65062 2.58674 8.65062 3.66408C8.65062 4.01608 8.60795 4.33608 8.52262 4.62408C8.43728 4.91208 8.29862 5.17341 8.10662 5.40808C7.92528 5.63208 7.76528 5.80808 7.62662 5.93608C7.49862 6.05341 7.30662 6.21341 7.05062 6.41608C6.85862 6.56541 6.71462 6.68274 6.61862 6.76808C6.52262 6.85341 6.41062 6.97074 6.28262 7.12008C6.15462 7.25874 6.06395 7.40274 6.01062 7.55208C5.95728 7.70141 5.93062 7.86674 5.93062 8.04808V8.35208H3.14662ZM3.08262 11.9201V9.15208H5.96262V11.9201H3.08262Z" fill="#11253D"/>
</svg>
