<svg width="24" height="24" viewBox="0 0 24 24" fill="none" xmlns="http://www.w3.org/2000/svg">
<path fill-rule="evenodd" clip-rule="evenodd" d="M4.04059 1.23605C4.04059 3.003 4.17485 3.62508 4.74208 4.48608C5.57627 5.75236 6.88408 6.42188 8.5233 6.42188H9.05622V11.1529V15.884L8.78669 15.9397C7.27497 16.2521 5.92229 17.3135 5.30729 18.6698L5.1708 18.9709L4.66426 18.9976C3.73585 19.0467 3.02893 19.3203 2.27762 19.9212C1.90252 20.2213 1.49401 20.7513 1.25368 21.2498C0.938634 21.9032 0.894294 22.1175 0.86631 23.1211L0.841797 24H9.75901H18.6762L18.6548 23.1914C18.6404 22.653 18.6057 22.2653 18.5507 22.0312C18.452 21.6106 18.1709 20.9878 17.9345 20.6657L17.7631 20.4323L18.4625 19.72C19.3687 18.7971 19.6572 18.3551 19.9127 17.4983C20.079 16.9404 20.1198 16.0384 20.0044 15.4692L19.9254 15.0789L21.703 13.2934C23.5796 11.4084 23.6446 11.3295 23.7721 10.776C24.0704 9.4822 23.0465 8.20312 21.7125 8.20312C21.3816 8.20312 20.9533 8.31366 20.6812 8.46923C20.5608 8.53809 19.7141 9.34317 18.7082 10.3452L16.9461 12.1006L16.5891 12.0269C16.1795 11.9423 15.3901 11.9302 14.9828 12.0024C14.3881 12.1077 13.684 12.3999 13.2047 12.7402C13.0757 12.8317 12.406 13.4667 11.7164 14.1514L10.4625 15.3961V13.2127V11.0293L11.1539 11.0026C11.6697 10.9828 11.9591 10.9466 12.2936 10.8601C13.7843 10.4746 14.9327 9.32447 15.3443 7.80469C15.4352 7.46939 15.4481 7.2795 15.4666 6.01172L15.4872 4.59375H14.2673C12.8905 4.59375 12.495 4.63378 11.8931 4.83408C11.4262 4.98947 11.0938 5.16516 10.7446 5.44125C10.6167 5.54231 10.5032 5.625 10.4924 5.625C10.4815 5.625 10.4628 5.15569 10.4507 4.58203C10.4254 3.37791 10.3666 3.07603 10.0192 2.36719C9.42662 1.15833 8.28779 0.301359 6.96802 0.07125C6.67084 0.0194063 6.21638 0 5.30007 0H4.04059V1.23605ZM6.82965 1.47647C7.86784 1.6935 8.76896 2.59462 8.986 3.63281C9.02373 3.81328 9.05495 4.19827 9.05542 4.48828L9.05622 5.01562L8.55231 5.01483C7.9059 5.01375 7.48956 4.92469 6.99775 4.68225C6.45868 4.41652 6.04595 4.00378 5.78022 3.46472C5.53778 2.97291 5.44872 2.55656 5.44764 1.91016L5.44684 1.40625L5.97419 1.40705C6.26425 1.40752 6.64919 1.43873 6.82965 1.47647ZM14.071 6.50391C14.07 7.14717 13.981 7.56647 13.7431 8.04909C13.4143 8.71617 12.7872 9.24277 12.0409 9.47845C11.841 9.54159 11.5523 9.57811 11.107 9.59658L10.4625 9.6233V9.06131C10.4625 8.06231 10.692 7.45683 11.3046 6.83948C11.5654 6.57675 11.7497 6.43894 12.0093 6.31266C12.521 6.0637 12.7911 6.00661 13.4742 6.00309L14.0718 6L14.071 6.50391ZM22.0117 9.67439C22.3535 9.81717 22.5085 10.2778 22.3302 10.6207C22.2776 10.7219 21.7374 11.3003 21.1297 11.9059L20.0249 13.0072L19.5213 12.5036L19.0178 12.0001L20.119 10.8953C20.7247 10.2878 21.2941 9.75075 21.3843 9.70205C21.5811 9.59583 21.8006 9.58617 22.0117 9.67439ZM18.5251 13.5235L19.0157 14.0159L18.8055 14.2243L18.5953 14.4328L18.04 14.5087C17.7345 14.5505 17.4746 14.5747 17.4625 14.5625C17.4503 14.5503 17.4747 14.2905 17.5166 13.985C17.592 13.4362 17.5953 13.4273 17.7874 13.2305C17.8945 13.1209 17.9938 13.0312 18.0082 13.0312C18.0227 13.0312 18.2552 13.2528 18.5251 13.5235ZM16.1611 13.5352C16.1017 13.9028 15.81 16.1912 15.821 16.2023C15.8274 16.2087 16.4648 16.1308 17.2374 16.0292C18.01 15.9276 18.65 15.8443 18.6596 15.8441C18.6693 15.8439 18.667 16.0916 18.6547 16.3945C18.6152 17.3612 18.395 17.7842 17.3951 18.8148L16.7107 19.5203L16.3672 19.3619C15.8797 19.1372 15.4373 19.0307 14.8576 18.9984L14.3544 18.9704L14.1664 18.582C13.7127 17.6447 12.8085 16.7494 11.8916 16.3297L11.6235 16.2069L12.625 15.2021C13.7027 14.1209 14.0315 13.8417 14.4703 13.6354C14.8935 13.4364 15.2186 13.3659 15.7283 13.3625L16.1895 13.3594L16.1611 13.5352ZM10.4527 17.3241C11.8334 17.6071 12.8459 18.6084 13.21 20.0508L13.2957 20.3906H14.1268C15.0799 20.3906 15.3182 20.4288 15.8062 20.66C16.4613 20.9704 17.0994 21.7677 17.1943 22.3945L17.2245 22.5938H9.75934H2.29421L2.32605 22.3945C2.37705 22.0755 2.66078 21.543 2.94133 21.24C3.24728 20.9095 3.55764 20.7012 3.98533 20.5393C4.27469 20.4297 4.37135 20.4192 5.26155 20.4011L6.22464 20.3814L6.33367 19.9635C6.82421 18.0833 8.60143 16.9445 10.4527 17.3241Z" fill="black"/>
</svg>
