<svg width="24" height="24" viewBox="0 0 24 24" fill="none" xmlns="http://www.w3.org/2000/svg">
<path fill-rule="evenodd" clip-rule="evenodd" d="M3.37851 0.0451518C2.02214 0.331558 1.05956 1.3291 0.843796 2.67203C0.76153 3.18428 0.805646 5.17989 0.90699 5.52854C1.21112 6.57498 1.97475 7.37373 2.98828 7.70551L3.23438 7.78609V8.74323V9.70042H1.61719H0V16.8489V23.9973H12H24V16.8489V9.70042H23.1911C22.4895 9.70042 21.8472 9.74973 20.9883 9.86959L20.7656 9.90067V8.8434V7.78618L21.0645 7.68671C22.0343 7.36398 22.7936 6.55328 23.0957 5.51767C23.1935 5.18256 23.236 3.24189 23.1573 2.70385C22.7822 0.138761 19.6584 -0.905051 17.8594 0.933574C17.3025 1.50268 17.0427 2.07831 16.9612 2.92337C16.8946 3.61417 16.9421 5.1309 17.0421 5.50511C17.315 6.52684 18.1251 7.38793 19.1133 7.70668L19.3594 7.78609V9.02073V10.2554L19.1133 10.336C18.5895 10.5075 17.8149 10.8233 17.3461 11.0564L16.8562 11.2999L16.2211 10.9973C15.2099 10.5154 14.0461 10.1308 12.9961 9.93137L12.7031 9.87573V8.83093V7.78618L12.9982 7.68798C13.8732 7.39679 14.6146 6.66835 14.9354 5.78457C15.1022 5.32501 15.1553 4.71826 15.1274 3.59101C15.0999 2.482 15.0668 2.30706 14.7706 1.70823C14.4133 0.985886 13.7479 0.416918 12.9577 0.157933C12.5932 0.0384489 12.4694 0.0207301 12 0.0207301C11.5306 0.0207301 11.4068 0.0384489 11.0423 0.157933C10.2521 0.416918 9.58674 0.985886 9.22941 1.70823C8.93321 2.30706 8.90006 2.482 8.87259 3.59101C8.8447 4.71826 8.89781 5.32501 9.06464 5.78457C9.3854 6.66835 10.1268 7.39679 11.0018 7.68798L11.2969 7.78618V8.74332V9.70042H7.96875H4.64062V8.74332V7.78618L4.93945 7.68671C5.90316 7.36604 6.68719 6.51864 6.95794 5.50511C7.05792 5.1309 7.1054 3.61417 7.03879 2.92337C7.00804 2.60453 6.94496 2.28362 6.87535 2.09176C6.4305 0.866215 5.33564 0.0603389 4.05703 0.0172139C3.79791 0.00849517 3.49261 0.0210581 3.37851 0.0451518ZM4.63065 1.5669C5.01108 1.73762 5.38862 2.13461 5.53004 2.51265C5.62496 2.76634 5.62974 2.84912 5.61605 4.00257L5.60156 5.22386L5.46928 5.48167C5.39653 5.62346 5.28051 5.80018 5.21147 5.87443C5.0678 6.02889 4.73972 6.27854 4.68047 6.27854C4.65854 6.27854 4.64062 5.7512 4.64062 5.10667V3.93479H3.9375H3.23438V5.10667C3.23438 5.7512 3.21646 6.27854 3.19453 6.27854C3.13284 6.27854 2.80575 6.02659 2.63925 5.85076C2.55684 5.76376 2.43028 5.56604 2.358 5.41136L2.22656 5.13011V3.95823C2.22656 2.91925 2.23669 2.75978 2.31581 2.55198C2.68158 1.59175 3.7104 1.15393 4.63065 1.5669ZM12.5129 1.49284C13.1422 1.68868 13.5711 2.19179 13.6898 2.87359C13.724 3.06995 13.7367 3.53509 13.7242 4.13401C13.7017 5.20923 13.649 5.43137 13.3266 5.80796C13.1556 6.00775 12.8198 6.27854 12.743 6.27854C12.721 6.27854 12.7031 5.7512 12.7031 5.10667V3.93479H12H11.2969V5.10667C11.2969 5.7512 11.279 6.27854 11.257 6.27854C11.1802 6.27854 10.8444 6.00775 10.6734 5.80796C10.351 5.43137 10.2983 5.20923 10.2758 4.13401C10.254 3.08711 10.2978 2.69387 10.4753 2.34353C10.6763 1.94692 11.02 1.65376 11.4609 1.50292C11.815 1.38179 12.1459 1.37861 12.5129 1.49284ZM20.5669 1.49017C21.0858 1.6517 21.3944 1.9299 21.6427 2.4602L21.7734 2.73948V3.93479V5.13011L21.6422 5.41136C21.4709 5.77857 20.9803 6.27854 20.7914 6.27854C20.7772 6.27854 20.7656 5.7512 20.7656 5.10667V3.93479H20.0625H19.3594V5.10667C19.3594 5.7512 19.3415 6.27854 19.3195 6.27854C19.2427 6.27854 18.9069 6.00775 18.7359 5.80796C18.4071 5.42382 18.375 5.25742 18.375 3.93479C18.375 2.56192 18.4049 2.42729 18.8074 1.98695C19.2829 1.46659 19.9164 1.28776 20.5669 1.49017ZM22.5937 14.1653V17.2239L22.2603 16.6379C21.6236 15.5189 20.9321 14.6076 20.0391 13.7106C19.5186 13.1877 18.7943 12.5584 18.3778 12.267C18.315 12.2229 18.2728 12.1783 18.2841 12.1678C18.3453 12.1111 19.4699 11.6971 19.9023 11.5721C20.6545 11.3548 21.8786 11.1349 22.4648 11.1117L22.5938 11.1067L22.5937 14.1653ZM2.64844 11.248C5.91544 11.7159 9.12375 13.8078 10.951 16.6614C12.0494 18.3767 12.6608 20.1677 12.8671 22.2746L12.8981 22.591H11.1893H9.48047L9.45117 22.4446C9.43505 22.364 9.42179 22.2216 9.42165 22.1282C9.42113 21.8085 9.23564 20.6927 9.07378 20.0362C8.47181 17.5942 7.2555 15.4457 5.46418 13.6601C4.54688 12.7458 3.58172 12.011 2.51836 11.4174C2.29341 11.2918 2.10938 11.1831 2.10938 11.1757C2.10938 11.1684 2.14627 11.1695 2.19141 11.1783C2.23655 11.1871 2.44219 11.2185 2.64844 11.248ZM7.64062 11.2735C12.4289 12.0599 16.3892 15.8325 17.4547 20.6223C17.5776 21.1747 17.7188 22.1408 17.7188 22.4294V22.591H16.0127H14.3066L14.2748 22.2043C14.0512 19.4884 13.0261 16.9114 11.3147 14.7629C10.9049 14.2484 9.74545 13.0894 9.23438 12.6834C8.73806 12.2891 7.86333 11.6949 7.42969 11.4574C7.24922 11.3586 7.05938 11.2493 7.00781 11.2146C6.92086 11.156 6.92428 11.1532 7.05469 11.1759C7.13203 11.1894 7.3957 11.2333 7.64062 11.2735ZM12.8672 11.3436C15.2747 11.8429 17.4209 13.0294 19.1517 14.818C20.418 16.1266 21.2812 17.5152 21.9 19.2395C22.211 20.1057 22.4567 21.232 22.5367 22.1574L22.5742 22.591H20.8563H19.1385L19.1062 22.1574C18.9413 19.9458 18.1565 17.6815 16.8995 15.7914C15.741 14.0494 14.1488 12.5477 12.3569 11.5072C12.0575 11.3334 11.8125 11.1861 11.8125 11.1801C11.8125 11.1566 12.4202 11.2509 12.8672 11.3436ZM2.22647 12.8795C4.4581 14.2498 6.24975 16.3687 7.188 18.7473C7.59834 19.7875 7.90688 21.0226 7.99022 21.9582C8.0063 22.1387 8.03006 22.3549 8.04309 22.4387L8.06677 22.591H6.33731H4.60786L4.57763 22.1296C4.51256 21.137 4.21355 19.7707 3.82172 18.6755C3.37744 17.4337 2.48363 15.8252 1.6958 14.8497L1.40625 14.4911V13.4542V12.4172L1.60538 12.5189C1.71492 12.5747 1.99444 12.737 2.22647 12.8795ZM1.96846 17.927C2.46614 18.939 2.75817 19.7946 2.97647 20.8801C3.09905 21.4895 3.1875 22.1326 3.1875 22.414V22.591H2.29688H1.40625L1.4077 19.7434L1.40916 16.8957L1.52747 17.0832C1.59248 17.1864 1.79095 17.566 1.96846 17.927Z" fill="black"/>
</svg>
