<svg width="22" height="24" viewBox="0 0 22 24" fill="none" xmlns="http://www.w3.org/2000/svg">
<path fill-rule="evenodd" clip-rule="evenodd" d="M4.66596 2.11144V4.22287H5.36977H6.07359V7.31331V10.4038L3.65683 13.4248C1.44691 16.1872 1.21784 16.4899 0.980705 16.9619C0.827415 17.267 0.670703 17.6699 0.597366 17.9472C0.487618 18.3625 0.473542 18.5027 0.474668 19.1672C0.475748 19.784 0.493764 19.9834 0.575876 20.2853C0.828404 21.2139 1.25627 21.9679 1.88529 22.5929C2.52497 23.2284 3.26866 23.6459 4.20698 23.8963L4.59558 24H11.0003H17.405L17.8139 23.8918C19.6517 23.4055 20.9206 22.1364 21.4264 20.2786C21.5065 19.9841 21.5248 19.7799 21.5259 19.1672C21.527 18.4994 21.5133 18.3646 21.4018 17.9472C21.3303 17.6797 21.1658 17.2562 21.019 16.9619C20.7822 16.4871 20.568 16.2038 18.3443 13.4248L15.927 10.4038V7.31331V4.22287H16.6308H17.3346V2.11144V0H11.0003H4.66596V2.11144ZM15.927 2.11144V2.81525H11.0003H6.07359V2.11144V1.40762H11.0003H15.927V2.11144ZM14.5193 7.55965V10.8964L17.0559 14.0684C19.7283 17.4103 19.8561 17.5909 20.0346 18.2757C20.4707 19.9486 19.598 21.6765 17.968 22.3675C17.3717 22.6203 17.4974 22.6158 11.0003 22.6158C4.44496 22.6158 4.63982 22.6232 3.98814 22.349C2.64198 21.7824 1.7739 20.4052 1.86535 18.9811C1.88032 18.748 1.9256 18.4305 1.96595 18.2757C2.14444 17.5909 2.27229 17.4103 4.94467 14.0684L7.48121 10.8964V7.55965V4.22287H11.0003H14.5193V7.55965ZM10.4554 9.52436C8.93894 11.2234 7.9957 12.6772 7.63905 13.8651C7.53071 14.2261 7.51185 14.376 7.50908 14.8974C7.50411 15.8433 7.69906 16.416 8.19093 16.8997C8.59816 17.3001 9.20846 17.559 9.90524 17.6269C10.322 17.6675 10.3247 17.6707 10.2561 18.0433C10.0922 18.9328 9.40844 19.6099 8.52027 19.7622L8.18502 19.8197V20.514V21.2082H8.35122C8.58418 21.2082 9.18462 21.0788 9.47009 20.9671C9.85859 20.8151 10.3453 20.4872 10.6681 20.16C11.2742 19.5457 11.5986 18.8584 11.685 18.0051C11.721 17.6499 11.6928 17.6713 12.1968 17.6166C12.8673 17.5437 13.5691 17.2096 13.9257 16.7935C14.489 16.1363 14.6676 14.9316 14.3583 13.876C14.0026 12.6623 13.0498 11.1981 11.4734 9.44281C11.2359 9.17828 11.0226 8.96188 10.9995 8.96188C10.9763 8.96188 10.7315 9.21501 10.4554 9.52436ZM11.3823 11.4839C12.107 12.4135 12.7278 13.4594 12.9769 14.1701C13.0612 14.4106 13.0843 14.5796 13.086 14.969C13.088 15.4092 13.0752 15.4883 12.9682 15.6961C12.8707 15.8856 12.8002 15.9534 12.5929 16.0572C12.448 16.1297 12.2005 16.2025 12.0208 16.2253L11.7041 16.2655V15.2178V14.1701H11.0003H10.2965V15.218V16.266L10.0032 16.2272C9.21869 16.1235 8.94833 15.8433 8.90066 15.0845C8.85805 14.4071 9.16623 13.6101 9.90739 12.481C10.2543 11.9525 10.9501 11.0264 11.0003 11.0264C11.0142 11.0264 11.1861 11.2323 11.3823 11.4839Z" fill="black"/>
</svg>
