<svg width="24" height="24" viewBox="0 0 24 24" fill="none" xmlns="http://www.w3.org/2000/svg">
<path fill-rule="evenodd" clip-rule="evenodd" d="M20.0973 0.494443L19.6065 0.986932L20.1798 1.56168C20.4952 1.8778 20.7532 2.15685 20.7532 2.18179C20.7532 2.20677 20.5374 2.44373 20.2736 2.70845L19.794 3.18969L19.3001 2.69729L18.8062 2.20494L16.718 4.30247C15.4724 5.55362 14.5593 6.5087 14.4552 6.66931C14.0402 7.30981 13.825 7.98148 13.791 8.74295L13.7701 9.21106L12.8209 10.1638C12.2989 10.6878 11.6689 11.3047 11.421 11.5346L10.9704 11.9527L10.5191 11.7229C9.86782 11.3914 9.36905 11.2789 8.54408 11.2778C7.87841 11.2769 7.75281 11.3018 7.14976 11.5546C7.07317 11.5867 7.06774 11.525 7.06774 10.6255C7.06774 10.0956 7.09126 9.55025 7.11999 9.41363C7.20515 9.00864 7.3907 8.67152 7.69708 8.36514C8.03176 8.03046 8.40727 7.8368 8.86044 7.76509L9.1768 7.71503V7.02242V6.32975H9.01079C8.76277 6.32975 8.15849 6.46441 7.85732 6.58678C7.46105 6.74782 6.96927 7.08386 6.64813 7.41302L6.36279 7.70557L6.07081 7.40988C5.53777 6.87005 4.95623 6.54947 4.2459 6.40381C3.97102 6.34747 3.59294 6.32975 2.6641 6.32975H1.44356V6.84727C1.44356 7.95781 1.75186 8.75194 2.46749 9.48449C2.86676 9.89323 3.32026 10.1755 3.88071 10.3641C4.27463 10.4966 4.40296 10.5166 4.99382 10.5373L5.66169 10.5608V11.0749C5.66169 11.5464 5.6549 11.5862 5.57967 11.5546C4.90927 11.2736 4.31634 11.1966 3.57606 11.2945C1.73415 11.5381 0.536249 12.7319 0.129153 14.7296C-0.0603348 15.6594 -0.0401368 17.0044 0.181971 18.2489C0.667337 20.9682 1.79315 23.0512 3.13082 23.7047C3.88839 24.0749 4.44509 24.0871 5.39904 23.7543C5.89383 23.5817 6.01723 23.5564 6.36471 23.5564C6.71651 23.5564 6.83161 23.5807 7.34894 23.764C7.90939 23.9626 7.95715 23.9715 8.45035 23.9692C9.03531 23.9666 9.30929 23.8903 9.79644 23.5944C11.09 22.8085 12.1841 20.547 12.5823 17.8359C12.6435 17.4191 12.6638 17.0004 12.6607 16.2189C12.657 15.2815 12.6436 15.1045 12.5401 14.6254C12.4221 14.0791 12.2051 13.47 12.0241 13.1771L11.9248 13.0163L13.3511 11.6064L14.7775 10.1964L15.2462 10.1867C16.0608 10.1698 16.8682 9.88489 17.5193 9.38434C17.6869 9.25559 18.7152 8.25702 19.8045 7.16532L21.785 5.18046L21.2925 4.68965L20.8 4.19885L21.3032 3.69417L21.8063 3.18945L22.4048 3.7866L23.0033 4.38379L23.4952 3.89186L23.9871 3.39998L22.2876 1.70097L20.5881 0.00195312L20.0973 0.494443ZM18.668 6.3291L17.5195 7.47765L17.0159 6.97405L16.5123 6.47045L17.6597 5.32233L18.8071 4.17424L19.3118 4.67742L19.8166 5.18055L18.668 6.3291ZM16.0381 7.96522C16.2663 8.1945 16.44 8.40306 16.4242 8.42874C16.3486 8.55097 15.2664 8.873 15.1895 8.79609C15.1069 8.71351 15.4757 7.54833 15.5844 7.54833C15.6057 7.54833 15.8099 7.73594 16.0381 7.96522ZM4.01606 7.78552C4.33724 7.85953 4.69747 8.04883 4.95098 8.2768C5.1835 8.48583 5.43649 8.8386 5.49578 9.03639C5.52671 9.13959 5.51945 9.14184 5.15162 9.14184C4.46182 9.14184 3.93494 8.95287 3.50605 8.55172C3.3227 8.38023 2.99021 7.87275 2.99021 7.76439C2.99021 7.71766 3.79343 7.73416 4.01606 7.78552ZM4.91887 12.8135C5.06459 12.8834 5.44066 13.1615 5.75463 13.4315C6.0686 13.7015 6.34316 13.9224 6.36471 13.9224C6.38627 13.9224 6.66083 13.7015 6.9748 13.4315C7.67389 12.8303 7.93555 12.695 8.45035 12.6681C9.22156 12.6279 9.934 12.8836 10.4129 13.3723C11.0533 14.026 11.3351 15.086 11.2693 16.5939C11.1338 19.6995 9.76275 22.5964 8.43029 22.5925C8.33819 22.5922 8.0209 22.5076 7.7252 22.4045C6.70132 22.0474 6.0281 22.0474 5.00422 22.4045C4.70853 22.5076 4.39124 22.5922 4.29914 22.5925C2.95365 22.5965 1.53791 19.6648 1.41362 16.6173C1.33521 14.6943 1.8194 13.4769 2.86826 12.9598C3.54152 12.6279 4.40365 12.5664 4.91887 12.8135ZM18.3808 12.9188C18.4625 13.6137 18.8081 14.2255 19.5424 14.9752L20.0457 15.4891L19.5429 16.0063C19.2663 16.2908 18.957 16.6499 18.8555 16.8044C18.2194 17.7725 18.2079 18.7881 18.8217 19.7809C18.9464 19.9825 19.2538 20.3516 19.5424 20.6463L20.0457 21.1601L19.5429 21.6774C19.0004 22.2353 18.733 22.6026 18.5632 23.0231C18.4539 23.2938 18.3629 23.6866 18.3629 23.8882V23.999H19.0608H19.7585L19.7912 23.8233C19.857 23.4683 20.1046 23.1008 20.6281 22.5813C20.9073 22.3042 21.1534 22.0774 21.175 22.0774C21.1966 22.0774 21.4427 22.3042 21.7219 22.5813C22.2454 23.1008 22.4931 23.4683 22.5589 23.8233L22.5915 23.999H23.2958H24L23.9704 23.7471C23.8859 23.0283 23.5448 22.4249 22.7877 21.6546L22.303 21.1615L22.807 20.647C23.6546 19.7815 23.956 19.182 23.9609 18.3514C23.966 17.4844 23.6643 16.8754 22.7877 15.9836L22.303 15.4905L22.807 14.9759C23.542 14.2255 23.8876 13.6139 23.9693 12.9188L24 12.6569H23.2958H22.5915L22.5589 12.8327C22.4935 13.1854 22.2454 13.5525 21.7204 14.0734C21.4403 14.3512 21.1959 14.5785 21.1772 14.5785C21.1585 14.5785 20.9131 14.3518 20.6319 14.0747C20.1039 13.5545 19.8576 13.1906 19.7912 12.8327L19.7585 12.6569H19.0543H18.3501L18.3808 12.9188ZM21.675 16.8634C21.9315 17.1147 22.189 17.3888 22.2472 17.4726L22.3531 17.625H21.175H19.997L20.1013 17.4726C20.214 17.3083 21.1233 16.4064 21.1764 16.4064C21.1941 16.4064 21.4185 16.6121 21.675 16.8634ZM22.2471 19.1833C22.1367 19.3419 21.2255 20.2496 21.1767 20.2496C21.1278 20.2496 20.2139 19.3417 20.1033 19.1833L19.997 19.031H21.175H22.3531L22.2471 19.1833Z" fill="black"/>
</svg>
