<svg width="22" height="24" viewBox="0 0 22 24" fill="none" xmlns="http://www.w3.org/2000/svg">
<path fill-rule="evenodd" clip-rule="evenodd" d="M10.0855 0.0507026C7.86913 0.411858 6.03802 1.90086 5.28 3.9582C5.20691 4.15665 5.04819 4.70711 4.92734 5.18147L4.70759 6.04396L3.77233 7.91406C3.2579 8.94263 2.83702 9.7948 2.83702 9.80785C2.83702 9.82089 3.56539 9.83154 4.45561 9.83154H6.07419V10.3442C6.07419 11.8034 6.50764 12.9602 7.43431 13.9742L7.67147 14.2337L7.54137 14.2595C7.46983 14.2737 7.32683 14.2987 7.22362 14.3152C6.86715 14.372 6.13555 14.5681 5.64829 14.7376C2.93653 15.6808 1.12184 17.6584 0.614686 20.2233C0.488296 20.8625 0.444336 21.5235 0.444336 22.7852V24H11.0003H21.5563V22.7852C21.5563 20.7498 21.4096 19.8389 20.8967 18.6901C19.8547 16.3564 17.6093 14.8027 14.5049 14.2672L14.3266 14.2364L14.565 13.9756C15.4931 12.9601 15.9264 11.8042 15.9264 10.3442V9.83154H17.545C18.4352 9.83154 19.1636 9.82089 19.1636 9.80785C19.1636 9.7948 18.7427 8.94263 18.2283 7.91406L17.293 6.04396L17.0733 5.18147C16.9524 4.70711 16.7915 4.15008 16.7156 3.94365C16.4083 3.10696 15.9093 2.35763 15.2168 1.69293C14.3437 0.854927 13.3519 0.334635 12.1702 0.0948031C11.6533 -0.0101467 10.5959 -0.0325254 10.0855 0.0507026ZM11.7622 1.45634C13.1111 1.69152 14.1845 2.39502 14.9432 3.54102C15.2303 3.97462 15.4226 4.43214 15.5965 5.095L15.7314 5.60915H11.0003H6.26926L6.40414 5.095C6.71435 3.91259 7.22882 3.08885 8.07903 2.41322C9.12017 1.58587 10.4797 1.23264 11.7622 1.45634ZM16.5254 7.69731C16.712 8.07169 16.8647 8.38837 16.8647 8.40104C16.8647 8.41371 14.2257 8.42408 11.0003 8.42408C7.77487 8.42408 5.13588 8.41371 5.13588 8.40104C5.13588 8.38837 5.28859 8.07169 5.47527 7.69731L5.81465 7.01661H11.0003H16.186L16.5254 7.69731ZM14.5053 10.5235C14.4907 10.9042 14.4487 11.3211 14.4119 11.4501C14.0492 12.7223 13.0584 13.6931 11.7979 14.0112C11.6519 14.0481 11.3054 14.0764 11.0003 14.0764C10.6952 14.0764 10.3487 14.0481 10.2027 14.0112C9.12627 13.7395 8.18951 12.9447 7.76493 11.9427C7.57098 11.4851 7.52233 11.2289 7.49535 10.5235L7.46889 9.83154H11.0003H14.5317L14.5053 10.5235ZM13.1115 15.9242C13.1115 16.1528 13.09 16.4536 13.0636 16.5925C12.8983 17.4643 12.1998 18.1383 11.3089 18.286C10.4424 18.4295 9.49353 17.932 9.12271 17.1395C8.94992 16.7703 8.88911 16.4539 8.88911 15.9242V15.5083H11.0003H13.1115V15.9242ZM7.57149 17.0096C7.85205 18.1031 8.6383 19.023 9.66322 19.4568C10.1178 19.6492 10.4233 19.7063 11.0003 19.7063C11.3054 19.7063 11.6519 19.678 11.7979 19.6411C13.0584 19.3229 14.0561 18.345 14.4108 17.08C14.447 16.951 14.489 16.5903 14.5043 16.2785L14.532 15.7115L14.8187 15.7753C14.9764 15.8105 15.2902 15.8947 15.5159 15.9626L15.9264 16.0861V19.3393V22.5925H11.0003H6.07419V19.3393V16.0861L6.4847 15.9622C6.7105 15.894 7.02188 15.811 7.1767 15.7776L7.45819 15.7169L7.48775 16.2577C7.50403 16.5551 7.5417 16.8935 7.57149 17.0096ZM4.66673 19.6838V22.5925H3.25926H1.8518V22.0401C1.8518 20.0519 2.46949 18.5646 3.77186 17.4167C3.9865 17.2275 4.60893 16.775 4.65448 16.775C4.66124 16.775 4.66673 18.084 4.66673 19.6838ZM17.8857 17.1367C18.2858 17.4341 18.8488 18.0105 19.114 18.3942C19.8253 19.4231 20.1488 20.5629 20.1488 22.0401V22.5925H18.7414H17.3339V19.6811V16.7697L17.4752 16.8532C17.5528 16.8991 17.7376 17.0267 17.8857 17.1367Z" fill="black"/>
</svg>
