<svg width="25" height="20" viewBox="0 0 25 20" fill="none" xmlns="http://www.w3.org/2000/svg">
<path fill-rule="evenodd" clip-rule="evenodd" d="M8.25962 0.22414C7.48056 0.433827 6.82553 1.00104 6.42167 1.81568C5.93492 2.79753 5.87044 4.11989 6.25882 5.15449C6.79907 6.5936 8.1227 7.4323 9.3494 7.1128C11.3987 6.57902 12.3016 3.64149 11.0599 1.54734C10.4458 0.511521 9.26491 -0.0464545 8.25962 0.22414ZM15.2929 0.22414C14.5139 0.433827 13.8588 1.00104 13.455 1.81568C12.9682 2.79753 12.9038 4.11989 13.2921 5.15449C13.8324 6.5936 15.156 7.4323 16.3827 7.1128C18.432 6.57902 19.3349 3.64149 18.0933 1.54734C17.4791 0.511521 16.2982 -0.0464545 15.2929 0.22414ZM9.11196 1.61458C9.37215 1.6911 9.78955 2.11132 9.95609 2.46448C10.4207 3.44934 10.2518 4.72213 9.56598 5.4045C9.06333 5.90462 8.56191 5.90462 8.05926 5.4045C7.76171 5.10845 7.57106 4.74389 7.47381 4.28499C7.2841 3.38979 7.51104 2.4771 8.05926 1.93056C8.41009 1.58082 8.7007 1.49361 9.11196 1.61458ZM16.1453 1.61458C16.4055 1.6911 16.8229 2.11132 16.9894 2.46448C17.454 3.44934 17.2851 4.72213 16.5993 5.4045C16.0966 5.90462 15.5952 5.90462 15.0926 5.4045C14.795 5.10845 14.6044 4.74389 14.5071 4.28499C14.3174 3.38979 14.5444 2.4771 15.0926 1.93056C15.4434 1.58082 15.734 1.49361 16.1453 1.61458ZM2.58608 5.14746C1.80702 5.35714 1.15199 5.92436 0.748136 6.739C0.261384 7.72085 0.196905 9.04321 0.585284 10.0778C1.12554 11.5169 2.44916 12.3556 3.67587 12.0361C5.72518 11.5023 6.62803 8.5648 5.38641 6.47066C4.77226 5.43484 3.59137 4.87686 2.58608 5.14746ZM20.9665 5.14746C20.1874 5.35714 19.5324 5.92436 19.1285 6.739C18.6418 7.72085 18.5773 9.04321 18.9657 10.0778C19.5059 11.5169 20.8295 12.3556 22.0563 12.0361C24.1056 11.5023 25.0084 8.5648 23.7668 6.47066C23.1526 5.43484 21.9718 4.87686 20.9665 5.14746ZM3.43842 6.5379C3.69861 6.61442 4.11601 7.03464 4.28256 7.3878C4.74713 8.37265 4.57823 9.64545 3.89244 10.3278C3.63774 10.5813 3.39585 10.7011 3.13908 10.7011C2.73959 10.7011 2.23427 10.3004 1.99561 9.79441C1.53104 8.80966 1.69979 7.5377 2.38573 6.85388C2.73655 6.50414 3.02716 6.41692 3.43842 6.5379ZM21.8188 6.5379C22.079 6.61442 22.4964 7.03464 22.6629 7.3878C23.1275 8.37265 22.9586 9.64545 22.2728 10.3278C22.0181 10.5813 21.7762 10.7011 21.5195 10.7011C21.12 10.7011 20.6147 10.3004 20.376 9.79441C19.9114 8.80966 20.0802 7.5377 20.7661 6.85388C21.1169 6.50414 21.4075 6.41692 21.8188 6.5379ZM11.47 8.64062C8.47029 8.98924 5.93539 11.0445 4.99602 13.8895C4.62912 15.0008 4.50134 16.2179 4.66728 17.0212C4.95157 18.3977 6.03929 19.4855 7.4158 19.7698C7.73174 19.835 8.34899 19.8444 12.3293 19.8444C17.2164 19.8444 17.2179 19.8444 17.8334 19.6034C18.64 19.2878 19.397 18.5573 19.7655 17.7391C19.9892 17.242 20.0394 16.9616 20.039 16.2105C20.0386 15.4667 19.9891 15.0766 19.8051 14.368C19.2835 12.3596 17.9593 10.6446 16.1131 9.58646C14.7742 8.81908 13.0161 8.46094 11.47 8.64062ZM13.5473 10.1142C14.3362 10.2728 15.1864 10.6299 15.8928 11.0995C16.0862 11.228 16.4795 11.5655 16.7668 11.8494C17.9137 12.9828 18.5458 14.3698 18.6424 15.9646C18.678 16.5538 18.6153 16.8938 18.3918 17.3222C18.1152 17.8522 17.5757 18.2586 16.9807 18.385C16.6295 18.4595 8.02649 18.4592 7.67787 18.3846C7.27289 18.2979 6.93492 18.1115 6.63023 17.8068C6.14226 17.3189 5.9662 16.7906 6.01618 15.9646C6.08544 14.8208 6.4499 13.7451 7.10053 12.7642C7.22882 12.5708 7.56627 12.178 7.85046 11.8915C8.90748 10.8256 10.1623 10.2134 11.6728 10.0264C11.9873 9.9875 13.1992 10.0443 13.5473 10.1142ZM11.6259 13.5144V14.2178H10.9226H10.2193V14.9211V15.6244H10.9226H11.6259V16.3277V17.0311H12.3293H13.0326V16.3277V15.6244H13.7359H14.4393V14.9211V14.2178H13.7359H13.0326V13.5144V12.8111H12.3293H11.6259V13.5144Z" fill="black"/>
</svg>
