<svg width="21" height="24" viewBox="0 0 21 24" fill="none" xmlns="http://www.w3.org/2000/svg">
<path fill-rule="evenodd" clip-rule="evenodd" d="M8.94733 1.36212C8.19849 2.11129 7.56849 2.72425 7.54731 2.72425C7.52612 2.72425 7.1878 2.53519 6.79546 2.30415C6.40317 2.0731 6.05004 1.87189 6.01073 1.85704C5.95643 1.83652 5.43202 2.69578 3.82664 5.43586C2.6647 7.41906 1.58519 9.29701 1.42775 9.60912C0.969092 10.5184 0.704929 11.3271 0.508596 12.4235C0.371256 13.1904 0.358958 14.7568 0.484274 15.5235C1.00653 18.7187 2.93032 21.4083 5.73911 22.8702C10.0147 25.0955 15.2239 23.9545 18.19 20.143C19.2126 18.8288 19.9006 17.2325 20.1809 15.5235C20.2982 14.8077 20.2969 13.2367 20.1783 12.5409C19.9732 11.3375 19.6347 10.3258 19.1097 9.34698C19.0057 9.15323 17.9772 7.38261 16.8239 5.41223C15.2255 2.68122 14.7101 1.83624 14.6554 1.85695C14.616 1.87184 14.2627 2.0731 13.8704 2.30415C13.4781 2.53519 13.1397 2.72425 13.1186 2.72425C13.0974 2.72425 12.4674 2.11129 11.7185 1.36212C10.9697 0.612955 10.3462 0 10.3329 0C10.3197 0 9.69617 0.612955 8.94733 1.36212ZM11.6249 3.24124L12.8941 4.50975L13.5437 4.12874C13.9011 3.9192 14.21 3.7658 14.2303 3.78788C14.2959 3.85936 17.6666 9.63862 17.8971 10.075C19.2737 12.6803 19.1916 15.8286 17.68 18.3969C17.2718 19.0905 16.5964 19.9234 16.1083 20.335L15.8823 20.5255L15.5119 20.2957C14.7599 19.8293 13.9153 19.4607 13.0218 19.2089C12.4894 19.0589 11.5106 18.8819 11.2136 18.8818H11.0375V18.1542V17.4266L13.6891 17.4144L16.3407 17.4023L15.5695 16.0871L14.7984 14.772L15.5677 14.7485L16.337 14.725L13.3467 9.61842C11.7021 6.80977 10.3459 4.51182 10.3329 4.51182C10.32 4.51182 8.96381 6.80977 7.31916 9.61842L4.32889 14.725L5.0982 14.7485L5.86747 14.772L5.09632 16.0871L4.32513 17.4023L6.97675 17.4144L9.62839 17.4266V18.1542V18.8818H9.45225C9.15526 18.8819 8.1765 19.0589 7.64405 19.2089C6.7506 19.4607 5.90599 19.8293 5.15396 20.2957L4.78355 20.5255L4.55758 20.335C4.06952 19.9234 3.39404 19.0905 2.98583 18.3969C1.47429 15.8286 1.3922 12.6803 2.76874 10.075C2.99931 9.63862 6.36995 3.85936 6.43557 3.78788C6.45586 3.7658 6.76488 3.91925 7.12227 4.12883L7.77205 4.5099L9.04066 3.24134C9.73839 2.5436 10.3197 1.97273 10.3325 1.97273C10.3453 1.97273 10.9269 2.54355 11.6249 3.24124ZM12.1119 10.3023C13.0709 11.9385 13.8557 13.2912 13.8557 13.3083C13.8557 13.3254 13.5152 13.3394 13.0991 13.3394C12.5127 13.3394 12.3478 13.3526 12.366 13.3981C12.3789 13.4304 12.7283 14.0328 13.1423 14.7368L13.8952 16.0167H10.3329H6.77065L7.52353 14.7368C7.93762 14.0328 8.28698 13.4304 8.29985 13.3981C8.31803 13.3526 8.15316 13.3394 7.56674 13.3394C7.15064 13.3394 6.8102 13.3254 6.8102 13.3083C6.8102 13.249 10.298 7.32728 10.3329 7.32728C10.3522 7.32728 11.1527 8.66601 12.1119 10.3023ZM11.7185 20.358C12.5963 20.5082 13.4811 20.8013 14.2432 21.1941C14.4434 21.2973 14.6072 21.3982 14.6072 21.4182C14.6072 21.4713 13.9479 21.8028 13.4488 22.0006C12.9629 22.1932 12.1378 22.4159 11.5776 22.5058C11.3698 22.5391 10.8134 22.5661 10.3329 22.5661C9.85244 22.5661 9.29603 22.5391 9.08824 22.5058C8.52808 22.4159 7.70296 22.1932 7.21711 22.0006C6.71608 21.802 6.05869 21.4712 6.05869 21.4177C6.05869 21.3588 6.83932 20.9742 7.32687 20.793C7.86895 20.5915 8.58223 20.4086 9.08824 20.3415C9.2949 20.314 9.5274 20.2825 9.6049 20.2715C9.8948 20.2303 11.3113 20.2883 11.7185 20.358Z" fill="black"/>
</svg>
