<svg width="25" height="24" viewBox="0 0 25 24" fill="none" xmlns="http://www.w3.org/2000/svg">
<path fill-rule="evenodd" clip-rule="evenodd" d="M6.63632 3.87384C3.35821 5.61067 0.67641 7.04383 0.676645 7.0586C0.676927 7.07332 1.46164 7.59325 2.42048 8.21395C3.37933 8.83465 4.1726 9.35632 4.18328 9.37315C4.194 9.39004 3.41511 9.81686 2.45246 10.3217C1.48976 10.8265 0.696863 11.2571 0.690421 11.2785C0.684026 11.2999 1.46249 11.8243 2.42039 12.4437C3.37829 13.0632 4.17082 13.5842 4.18154 13.6016C4.19226 13.6189 3.39866 14.0537 2.41795 14.5678C1.43729 15.0819 0.649467 15.5152 0.667289 15.5308C0.780379 15.6298 12.6269 23.2848 12.667 23.2848C12.7071 23.2848 24.5536 15.6298 24.6667 15.5308C24.6845 15.5152 23.8967 15.0819 22.916 14.5678C21.9353 14.0537 21.1417 13.6189 21.1525 13.6016C21.1632 13.5842 21.9557 13.0632 22.9136 12.4437C23.8715 11.8243 24.65 11.2999 24.6436 11.2785C24.6371 11.2571 23.8442 10.8265 22.8815 10.3217C21.9189 9.81686 21.14 9.39004 21.1507 9.37315C21.1614 9.35632 21.9547 8.83465 22.9135 8.21395C23.8723 7.59325 24.6571 7.07332 24.6573 7.05855C24.658 7.01774 12.7381 0.713668 12.6624 0.714844C12.6261 0.715408 9.91442 2.13696 6.63632 3.87384ZM13.5296 2.73349C13.9733 2.96503 14.3733 3.1819 14.4185 3.21547C14.4914 3.26959 14.3924 3.34248 13.5521 3.85381L12.6036 4.43106L12.1533 4.15447C11.9056 4.00235 11.4975 3.75318 11.2463 3.60073C10.9951 3.44828 10.7889 3.31144 10.7879 3.29658C10.7854 3.25873 12.5824 2.31508 12.6597 2.31371C12.6944 2.3131 13.0859 2.50199 13.5296 2.73349ZM10.3086 4.67661C11.0483 5.1341 11.2064 5.2501 11.155 5.29731C10.9889 5.4499 9.12584 6.54168 9.07769 6.51464C8.84681 6.38509 7.11858 5.25236 7.11961 5.23129C7.12215 5.17928 9.30373 4.06066 9.35099 4.08713C9.37732 4.1019 9.80824 4.36715 10.3086 4.67661ZM17.1143 4.62846C17.7186 4.94525 18.2137 5.217 18.2144 5.23228C18.2158 5.26294 16.1653 6.59166 16.1165 6.59166C16.0518 6.59166 13.9876 5.29646 13.9975 5.26204C14.01 5.2186 15.9164 4.05243 15.9749 4.05243C15.9972 4.05243 16.5099 4.31167 17.1143 4.62846ZM6.80169 6.73264L7.77817 7.36194L7.56154 7.4968C7.44238 7.57096 6.96938 7.86043 6.51044 8.14003L5.67597 8.64844L4.58166 7.93745C3.97976 7.54641 3.48758 7.20681 3.48795 7.18274C3.48828 7.15871 3.972 6.88099 4.56285 6.56561C5.49536 6.06783 5.6495 5.9995 5.73113 6.04775C5.78285 6.07831 6.2646 6.3865 6.80169 6.73264ZM21.1706 6.78121C21.5414 6.97861 21.8456 7.15956 21.8465 7.1833C21.8493 7.26037 19.5651 8.7123 19.4877 8.68262C19.3921 8.64585 17.5126 7.47983 17.49 7.4431C17.4803 7.4274 17.9692 7.09401 18.5765 6.70221L19.6806 5.98986L20.0885 6.20607C20.3128 6.32495 20.7997 6.58376 21.1706 6.78121ZM14.0424 6.98628C14.4497 7.2386 14.783 7.45213 14.783 7.46078C14.783 7.46944 14.3071 7.78501 13.7253 8.16208L12.6676 8.84768L11.5836 8.14624C10.9874 7.76041 10.4975 7.42763 10.495 7.40671C10.4924 7.38583 10.9631 7.07995 11.5409 6.72709L12.5916 6.08541L12.9467 6.30647C13.142 6.42807 13.6351 6.734 14.0424 6.98628ZM10.2579 8.96631C11.0926 9.50684 11.3337 9.68421 11.2899 9.72559C11.2585 9.75526 10.8031 10.0568 10.278 10.3957L9.3232 11.0118L8.17518 10.2712C7.54376 9.86384 7.03178 9.51507 7.03747 9.49612C7.05665 9.43207 9.02211 8.24503 9.09575 8.25302C9.13591 8.2574 9.65889 8.57837 10.2579 8.96631ZM17.1821 8.9262C17.7533 9.27916 18.2037 9.58278 18.1829 9.60098C18.1621 9.61913 17.6651 9.94415 17.0784 10.3232L16.0117 11.0124L15.0564 10.3959C14.5311 10.0569 14.0755 9.75526 14.0442 9.72559C14.0005 9.68426 14.237 9.50961 15.0551 8.9792C15.6426 8.59831 16.1277 8.28622 16.1333 8.28561C16.1389 8.285 16.6109 8.57325 17.1821 8.9262ZM9.36369 12.7181L12.6671 14.8621L16.2055 12.5647L19.7439 10.2674L20.3317 10.5754C21.8566 11.3744 21.8949 11.397 21.8289 11.4573C21.7943 11.4889 19.7187 12.8411 17.2165 14.4622L12.6671 17.4095L8.07625 14.4316C5.55131 12.7937 3.48931 11.4336 3.49411 11.4091C3.49886 11.3846 3.97125 11.1178 4.54389 10.8164L5.58502 10.2684L5.82268 10.4212C5.95336 10.5052 7.54682 11.5388 9.36369 12.7181ZM13.7222 11.2092C14.2538 11.5532 14.6879 11.8453 14.687 11.8582C14.6861 11.8711 14.2312 12.1747 13.6761 12.5327L12.667 13.1837L11.6578 12.5327C11.1028 12.1747 10.6479 11.8711 10.6469 11.8582C10.6431 11.8075 12.6469 10.5426 12.6996 10.5625C12.7305 10.5741 13.1906 10.8651 13.7222 11.2092ZM9.20118 16.8409C11.3612 18.2428 12.6538 19.0544 12.7044 19.0402C12.7485 19.028 14.3398 18.007 16.2407 16.7713C18.1416 15.5357 19.7201 14.5243 19.7484 14.5238C19.8018 14.5228 21.7834 15.5541 21.8511 15.618C21.872 15.6378 19.8142 17.0003 17.2781 18.6459L12.667 21.6378L8.05589 18.6459C5.5198 17.0003 3.46195 15.6377 3.48292 15.6178C3.50389 15.5979 3.98625 15.3372 4.5548 15.0384C5.48214 14.551 5.59833 14.5015 5.68335 14.5572C5.7355 14.5913 7.31853 15.619 9.20118 16.8409Z" fill="black"/>
</svg>
