<svg width="206" height="46" viewBox="0 0 206 46" fill="none" xmlns="http://www.w3.org/2000/svg">
<path d="M53.832 9.744H50.904V7.104H59.28L65.832 24H61.392L60.192 20.712H53.856L52.632 24H48.312L53.832 9.744ZM59.088 17.448L57.024 11.616L54.936 17.448H59.088ZM73.3463 29.064C71.2183 29.064 69.4583 28.656 68.0663 27.84V24.6C69.4423 25.544 70.9623 26.016 72.6263 26.016C73.6183 26.016 74.4583 25.784 75.1463 25.32C75.8343 24.872 76.1783 24.136 76.1783 23.112V21.96C75.8263 22.456 75.3303 22.88 74.6903 23.232C74.0663 23.568 73.3383 23.736 72.5063 23.736C71.4503 23.736 70.4903 23.488 69.6263 22.992C68.7783 22.496 68.1063 21.776 67.6103 20.832C67.1143 19.888 66.8663 18.776 66.8663 17.496C66.8663 16.216 67.1143 15.104 67.6103 14.16C68.1063 13.216 68.7783 12.496 69.6263 12C70.4903 11.488 71.4503 11.232 72.5063 11.232C73.4183 11.232 74.2023 11.44 74.8583 11.856C75.5303 12.256 76.0263 12.728 76.3463 13.272V11.544H80.2343V23.184C80.2343 24.432 79.9303 25.496 79.3223 26.376C78.7143 27.272 77.8903 27.944 76.8503 28.392C75.8103 28.84 74.6423 29.064 73.3463 29.064ZM70.9703 17.496C70.9703 18.456 71.2103 19.224 71.6903 19.8C72.1703 20.36 72.8183 20.64 73.6343 20.64C74.6103 20.64 75.4583 20.312 76.1783 19.656V15.36C75.4583 14.704 74.6103 14.376 73.6343 14.376C72.8183 14.376 72.1703 14.656 71.6903 15.216C71.2103 15.776 70.9703 16.536 70.9703 17.496ZM84.4313 14.184H81.9112V11.544H88.3193V13.728C88.6073 13.04 89.0713 12.488 89.7113 12.072C90.3513 11.64 91.1433 11.424 92.0873 11.424C92.5353 11.424 92.8873 11.48 93.1433 11.592V15.144C92.6633 15.016 92.1433 14.952 91.5833 14.952C90.2393 14.952 89.2153 15.288 88.5113 15.96V24H84.4313V14.184ZM101.34 11.232C102.636 11.232 103.812 11.504 104.868 12.048C105.924 12.592 106.756 13.36 107.364 14.352C107.972 15.344 108.276 16.48 108.276 17.76C108.276 19.056 107.972 20.2 107.364 21.192C106.756 22.184 105.924 22.952 104.868 23.496C103.812 24.04 102.636 24.312 101.34 24.312C100.028 24.312 98.8362 24.04 97.7642 23.496C96.7082 22.952 95.8762 22.184 95.2682 21.192C94.6602 20.2 94.3562 19.056 94.3562 17.76C94.3562 16.48 94.6602 15.344 95.2682 14.352C95.8762 13.36 96.7082 12.592 97.7642 12.048C98.8362 11.504 100.028 11.232 101.34 11.232ZM98.4602 17.76C98.4602 18.72 98.7242 19.512 99.2522 20.136C99.7962 20.744 100.492 21.048 101.34 21.048C102.172 21.048 102.852 20.744 103.38 20.136C103.924 19.512 104.196 18.72 104.196 17.76C104.196 16.816 103.924 16.04 103.38 15.432C102.852 14.808 102.172 14.496 101.34 14.496C100.508 14.496 99.8202 14.808 99.2762 15.432C98.7322 16.04 98.4602 16.816 98.4602 17.76ZM119.324 24.312C117.708 24.312 116.196 23.944 114.788 23.208C113.38 22.472 112.252 21.44 111.404 20.112C110.556 18.784 110.132 17.264 110.132 15.552C110.132 13.84 110.556 12.32 111.404 10.992C112.252 9.648 113.38 8.616 114.788 7.896C116.196 7.16 117.708 6.792 119.324 6.792C120.54 6.792 121.588 6.936 122.468 7.224C123.348 7.512 124.052 7.872 124.58 8.304V13.464H121.94V10.56C121.316 10.416 120.644 10.344 119.924 10.344C118.9 10.344 117.972 10.568 117.14 11.016C116.324 11.448 115.676 12.064 115.196 12.864C114.716 13.648 114.476 14.544 114.476 15.552C114.476 16.56 114.716 17.464 115.196 18.264C115.676 19.048 116.324 19.664 117.14 20.112C117.972 20.544 118.9 20.76 119.924 20.76C120.868 20.76 121.716 20.64 122.468 20.4C123.22 20.16 123.924 19.792 124.58 19.296V22.8C123.38 23.808 121.628 24.312 119.324 24.312ZM133.52 11.232C134.816 11.232 135.992 11.504 137.048 12.048C138.104 12.592 138.936 13.36 139.544 14.352C140.152 15.344 140.456 16.48 140.456 17.76C140.456 19.056 140.152 20.2 139.544 21.192C138.936 22.184 138.104 22.952 137.048 23.496C135.992 24.04 134.816 24.312 133.52 24.312C132.208 24.312 131.016 24.04 129.944 23.496C128.888 22.952 128.056 22.184 127.448 21.192C126.84 20.2 126.536 19.056 126.536 17.76C126.536 16.48 126.84 15.344 127.448 14.352C128.056 13.36 128.888 12.592 129.944 12.048C131.016 11.504 132.208 11.232 133.52 11.232ZM130.64 17.76C130.64 18.72 130.904 19.512 131.432 20.136C131.976 20.744 132.672 21.048 133.52 21.048C134.352 21.048 135.032 20.744 135.56 20.136C136.104 19.512 136.376 18.72 136.376 17.76C136.376 16.816 136.104 16.04 135.56 15.432C135.032 14.808 134.352 14.496 133.52 14.496C132.688 14.496 132 14.808 131.456 15.432C130.912 16.04 130.64 16.816 130.64 17.76ZM143.776 24V14.184H141.208V11.544H147.664V13.224C148.112 12.648 148.68 12.176 149.368 11.808C150.072 11.424 150.872 11.232 151.768 11.232C153.144 11.232 154.248 11.616 155.08 12.384C155.928 13.152 156.352 14.232 156.352 15.624V24H152.272V16.872C152.272 16.12 152.072 15.56 151.672 15.192C151.288 14.808 150.72 14.616 149.968 14.616C149.072 14.616 148.368 14.872 147.856 15.384V24H143.776ZM159.053 19.896C159.677 20.264 160.461 20.592 161.405 20.88C162.365 21.152 163.253 21.288 164.069 21.288C164.773 21.288 165.325 21.216 165.725 21.072C166.125 20.912 166.325 20.672 166.325 20.352C166.325 20.112 166.205 19.928 165.965 19.8C165.725 19.672 165.293 19.552 164.669 19.44L163.469 19.224C160.349 18.664 158.789 17.344 158.789 15.264C158.789 14.48 159.037 13.784 159.533 13.176C160.045 12.568 160.749 12.096 161.645 11.76C162.541 11.408 163.557 11.232 164.693 11.232C165.749 11.232 166.701 11.344 167.549 11.568C168.413 11.792 169.101 12.088 169.613 12.456V15.576C168.893 15.16 168.117 14.84 167.285 14.616C166.469 14.376 165.661 14.256 164.861 14.256C164.221 14.256 163.725 14.328 163.373 14.472C163.037 14.616 162.869 14.832 162.869 15.12C162.869 15.36 162.997 15.544 163.253 15.672C163.525 15.8 163.989 15.928 164.645 16.056L165.869 16.296C167.245 16.568 168.341 17 169.157 17.592C169.989 18.184 170.405 19.056 170.405 20.208C170.405 21.056 170.149 21.792 169.637 22.416C169.141 23.024 168.453 23.496 167.573 23.832C166.693 24.152 165.709 24.312 164.621 24.312C163.469 24.312 162.381 24.192 161.357 23.952C160.333 23.712 159.565 23.416 159.053 23.064V19.896ZM185.25 11.544V24H181.362V22.296C180.914 22.872 180.338 23.352 179.634 23.736C178.946 24.12 178.154 24.312 177.258 24.312C175.882 24.312 174.77 23.928 173.922 23.16C173.09 22.392 172.674 21.312 172.674 19.92V11.544H176.754V18.648C176.754 20.152 177.522 20.904 179.058 20.904C179.474 20.904 179.866 20.84 180.234 20.712C180.602 20.584 180.914 20.392 181.17 20.136V11.544H185.25ZM192.754 24H188.674V9.192H186.106V6.552H192.754V24ZM201.011 19.344C201.011 19.92 201.171 20.352 201.491 20.64C201.811 20.928 202.251 21.072 202.811 21.072C203.403 21.072 203.843 20.992 204.131 20.832V23.832C203.907 23.96 203.563 24.072 203.099 24.168C202.635 24.264 202.195 24.312 201.779 24.312C200.259 24.312 199.067 23.928 198.203 23.16C197.355 22.392 196.931 21.272 196.931 19.8V14.592H194.915V11.544H196.931V8.352H201.011V11.544H204.131V14.592H201.011V19.344Z" fill="black"/>
<path d="M55.4983 34.552V43H54.4303V35.536H50.0143V43H48.9463V34.552H55.4983ZM57.4271 36.952H58.4231V37.792C58.5991 37.512 58.8431 37.28 59.1551 37.096C59.4671 36.912 59.8511 36.82 60.3071 36.82C60.7791 36.82 61.2151 36.948 61.6151 37.204C62.0151 37.452 62.3311 37.816 62.5631 38.296C62.8031 38.768 62.9231 39.328 62.9231 39.976C62.9231 40.624 62.8031 41.188 62.5631 41.668C62.3311 42.14 62.0151 42.504 61.6151 42.76C61.2151 43.008 60.7791 43.132 60.3071 43.132C59.8671 43.132 59.4951 43.048 59.1911 42.88C58.8871 42.712 58.6431 42.496 58.4591 42.232V45.292H57.4271V36.952ZM58.4591 41.392C58.6591 41.64 58.9031 41.836 59.1911 41.98C59.4871 42.124 59.8031 42.196 60.1391 42.196C60.6671 42.196 61.0871 41.996 61.3991 41.596C61.7191 41.188 61.8791 40.648 61.8791 39.976C61.8791 39.312 61.7191 38.776 61.3991 38.368C61.0871 37.96 60.6671 37.756 60.1391 37.756C59.8031 37.756 59.4871 37.828 59.1911 37.972C58.9031 38.116 58.6591 38.312 58.4591 38.56V41.392ZM66.9917 36.82C67.5597 36.82 68.0677 36.956 68.5157 37.228C68.9637 37.5 69.3117 37.876 69.5597 38.356C69.8157 38.828 69.9437 39.368 69.9437 39.976C69.9437 40.584 69.8157 41.128 69.5597 41.608C69.3117 42.08 68.9637 42.452 68.5157 42.724C68.0677 42.996 67.5597 43.132 66.9917 43.132C66.4237 43.132 65.9157 42.996 65.4677 42.724C65.0197 42.452 64.6717 42.08 64.4237 41.608C64.1757 41.128 64.0517 40.584 64.0517 39.976C64.0517 39.368 64.1757 38.828 64.4237 38.356C64.6717 37.876 65.0197 37.5 65.4677 37.228C65.9157 36.956 66.4237 36.82 66.9917 36.82ZM65.0957 39.976C65.0957 40.408 65.1757 40.792 65.3357 41.128C65.4957 41.464 65.7197 41.728 66.0077 41.92C66.2957 42.104 66.6237 42.196 66.9917 42.196C67.5517 42.196 68.0077 41.992 68.3597 41.584C68.7117 41.176 68.8877 40.64 68.8877 39.976C68.8877 39.312 68.7117 38.776 68.3597 38.368C68.0077 37.96 67.5517 37.756 66.9917 37.756C66.6237 37.756 66.2957 37.852 66.0077 38.044C65.7197 38.228 65.4957 38.488 65.3357 38.824C65.1757 39.16 65.0957 39.544 65.0957 39.976ZM71.0244 39.94C71.0244 39.332 71.1404 38.792 71.3724 38.32C71.6124 37.84 71.9444 37.472 72.3684 37.216C72.7924 36.952 73.2724 36.82 73.8084 36.82C74.3284 36.82 74.7844 36.94 75.1764 37.18C75.5684 37.42 75.8724 37.752 76.0884 38.176C76.3044 38.6 76.4124 39.08 76.4124 39.616V40.276H72.1044C72.1044 40.604 72.1924 40.916 72.3684 41.212C72.5524 41.5 72.8084 41.736 73.1364 41.92C73.4724 42.096 73.8604 42.184 74.3004 42.184C74.7244 42.184 75.1084 42.116 75.4524 41.98C75.7964 41.844 76.0924 41.668 76.3404 41.452V42.496C76.1324 42.672 75.8444 42.824 75.4764 42.952C75.1084 43.072 74.6964 43.132 74.2404 43.132C73.6164 43.132 73.0604 43 72.5724 42.736C72.0844 42.472 71.7044 42.1 71.4324 41.62C71.1604 41.132 71.0244 40.572 71.0244 39.94ZM75.3924 39.412C75.3684 38.94 75.2124 38.544 74.9244 38.224C74.6364 37.904 74.2604 37.744 73.7964 37.744C73.3244 37.744 72.9364 37.9 72.6324 38.212C72.3284 38.516 72.1524 38.916 72.1044 39.412H75.3924ZM77.9583 36.952H78.9903V39.376H79.7823L81.7503 36.952H82.9623L80.6583 39.772L82.9983 43H81.7623L79.7583 40.24H78.9903V43H77.9583V36.952ZM83.6653 36.952H88.8853V37.876H86.7853V43H85.7533V37.876H83.6653V36.952ZM95.2911 34.552H96.4071L99.5631 43H98.4231L97.6071 40.768H94.0671L93.2631 43H92.1351L95.2911 34.552ZM97.2591 39.784L95.8431 35.884L94.4271 39.784H97.2591ZM100.716 36.952H104.82V37.876H101.748V43H100.716V36.952ZM106.095 36.952H107.091V37.792C107.267 37.512 107.511 37.28 107.823 37.096C108.135 36.912 108.519 36.82 108.975 36.82C109.447 36.82 109.883 36.948 110.283 37.204C110.683 37.452 110.999 37.816 111.231 38.296C111.471 38.768 111.591 39.328 111.591 39.976C111.591 40.624 111.471 41.188 111.231 41.668C110.999 42.14 110.683 42.504 110.283 42.76C109.883 43.008 109.447 43.132 108.975 43.132C108.535 43.132 108.163 43.048 107.859 42.88C107.555 42.712 107.311 42.496 107.127 42.232V45.292H106.095V36.952ZM107.127 41.392C107.327 41.64 107.571 41.836 107.859 41.98C108.155 42.124 108.471 42.196 108.807 42.196C109.335 42.196 109.755 41.996 110.067 41.596C110.387 41.188 110.547 40.648 110.547 39.976C110.547 39.312 110.387 38.776 110.067 38.368C109.755 37.96 109.335 37.756 108.807 37.756C108.471 37.756 108.155 37.828 107.859 37.972C107.571 38.116 107.327 38.312 107.127 38.56V41.392ZM115.66 36.82C116.228 36.82 116.736 36.956 117.184 37.228C117.632 37.5 117.98 37.876 118.228 38.356C118.484 38.828 118.612 39.368 118.612 39.976C118.612 40.584 118.484 41.128 118.228 41.608C117.98 42.08 117.632 42.452 117.184 42.724C116.736 42.996 116.228 43.132 115.66 43.132C115.092 43.132 114.584 42.996 114.136 42.724C113.688 42.452 113.34 42.08 113.092 41.608C112.844 41.128 112.72 40.584 112.72 39.976C112.72 39.368 112.844 38.828 113.092 38.356C113.34 37.876 113.688 37.5 114.136 37.228C114.584 36.956 115.092 36.82 115.66 36.82ZM113.764 39.976C113.764 40.408 113.844 40.792 114.004 41.128C114.164 41.464 114.388 41.728 114.676 41.92C114.964 42.104 115.292 42.196 115.66 42.196C116.22 42.196 116.676 41.992 117.028 41.584C117.38 41.176 117.556 40.64 117.556 39.976C117.556 39.312 117.38 38.776 117.028 38.368C116.676 37.96 116.22 37.756 115.66 37.756C115.292 37.756 114.964 37.852 114.676 38.044C114.388 38.228 114.164 38.488 114.004 38.824C113.844 39.16 113.764 39.544 113.764 39.976ZM120.796 39.34C120.796 40.252 120.972 40.956 121.324 41.452C121.684 41.948 122.16 42.196 122.752 42.196C123.312 42.196 123.756 41.996 124.084 41.596C124.42 41.188 124.588 40.664 124.588 40.024C124.588 39.392 124.42 38.876 124.084 38.476C123.748 38.076 123.308 37.876 122.764 37.876C122.348 37.876 121.968 37.964 121.624 38.14C121.288 38.308 121.016 38.508 120.808 38.74C120.8 38.868 120.796 39.068 120.796 39.34ZM119.752 39.34C119.752 37.892 120.032 36.764 120.592 35.956C121.152 35.14 122.04 34.656 123.256 34.504C123.336 34.496 123.58 34.468 123.988 34.42C124.396 34.364 124.748 34.296 125.044 34.216V35.212C124.724 35.292 124.192 35.364 123.448 35.428C122.632 35.5 122.028 35.732 121.636 36.124C121.244 36.508 120.992 37.088 120.88 37.864C121.112 37.592 121.404 37.372 121.756 37.204C122.108 37.036 122.492 36.952 122.908 36.952C123.42 36.952 123.884 37.072 124.3 37.312C124.716 37.552 125.044 37.904 125.284 38.368C125.524 38.832 125.644 39.384 125.644 40.024C125.644 40.6 125.528 41.124 125.296 41.596C125.064 42.068 124.732 42.444 124.3 42.724C123.868 42.996 123.368 43.132 122.8 43.132C122.192 43.132 121.656 42.98 121.192 42.676C120.736 42.364 120.38 41.924 120.124 41.356C119.876 40.78 119.752 40.108 119.752 39.34ZM132.376 42.976C132.184 43.08 131.976 43.132 131.752 43.132C131.472 43.132 131.224 43.06 131.008 42.916C130.8 42.772 130.668 42.576 130.612 42.328C130.212 42.864 129.62 43.132 128.836 43.132C128.228 43.132 127.72 42.964 127.312 42.628C126.904 42.292 126.7 41.84 126.7 41.272C126.7 40.688 126.932 40.228 127.396 39.892C127.86 39.556 128.444 39.388 129.148 39.388C129.7 39.388 130.18 39.464 130.588 39.616V39.052C130.588 38.636 130.456 38.32 130.192 38.104C129.928 37.88 129.568 37.768 129.112 37.768C128.728 37.768 128.348 37.84 127.972 37.984C127.604 38.12 127.304 38.296 127.072 38.512V37.492C127.28 37.316 127.572 37.16 127.948 37.024C128.324 36.888 128.74 36.82 129.196 36.82C129.94 36.82 130.528 37.016 130.96 37.408C131.392 37.8 131.608 38.328 131.608 38.992V41.812C131.608 41.956 131.648 42.068 131.728 42.148C131.808 42.22 131.92 42.256 132.064 42.256C132.192 42.256 132.296 42.232 132.376 42.184V42.976ZM127.744 41.272C127.744 41.568 127.852 41.804 128.068 41.98C128.292 42.148 128.6 42.232 128.992 42.232C129.68 42.232 130.212 41.996 130.588 41.524V40.444C130.156 40.3 129.692 40.228 129.196 40.228C128.788 40.228 128.444 40.32 128.164 40.504C127.884 40.688 127.744 40.944 127.744 41.272ZM138.592 36.952V43H137.56V40.312H134.584V43H133.552V36.952H134.584V39.388H137.56V36.952H138.592ZM140.372 36.952H141.404V39.376H142.196L144.164 36.952H145.376L143.072 39.772L145.412 43H144.176L142.172 40.24H141.404V43H140.372V36.952ZM151.712 42.976C151.52 43.08 151.312 43.132 151.088 43.132C150.808 43.132 150.56 43.06 150.344 42.916C150.136 42.772 150.004 42.576 149.948 42.328C149.548 42.864 148.956 43.132 148.172 43.132C147.564 43.132 147.056 42.964 146.648 42.628C146.24 42.292 146.036 41.84 146.036 41.272C146.036 40.688 146.268 40.228 146.732 39.892C147.196 39.556 147.78 39.388 148.484 39.388C149.036 39.388 149.516 39.464 149.924 39.616V39.052C149.924 38.636 149.792 38.32 149.528 38.104C149.264 37.88 148.904 37.768 148.448 37.768C148.064 37.768 147.684 37.84 147.308 37.984C146.94 38.12 146.64 38.296 146.408 38.512V37.492C146.616 37.316 146.908 37.16 147.284 37.024C147.66 36.888 148.076 36.82 148.532 36.82C149.276 36.82 149.864 37.016 150.296 37.408C150.728 37.8 150.944 38.328 150.944 38.992V41.812C150.944 41.956 150.984 42.068 151.064 42.148C151.144 42.22 151.256 42.256 151.4 42.256C151.528 42.256 151.632 42.232 151.712 42.184V42.976ZM147.08 41.272C147.08 41.568 147.188 41.804 147.404 41.98C147.628 42.148 147.936 42.232 148.328 42.232C149.016 42.232 149.548 41.996 149.924 41.524V40.444C149.492 40.3 149.028 40.228 148.532 40.228C148.124 40.228 147.78 40.32 147.5 40.504C147.22 40.688 147.08 40.944 147.08 41.272Z" fill="#7C7C7C"/>
<path d="M20 44C20 32.9543 11.0457 24 0 24V44H20Z" fill="url(#paint0_linear_2995_78102)"/>
<path d="M0 24C11.0457 24 20 15.0457 20 4H0V24Z" fill="url(#paint1_linear_2995_78102)"/>
<path d="M40 24C28.9543 24 20 32.9543 20 44H40V24Z" fill="url(#paint2_linear_2995_78102)"/>
<path d="M24 12C24 7.58172 27.5817 4 32 4C36.4183 4 40 7.58172 40 12C40 16.4183 36.4183 20 32 20H24V12Z" fill="url(#paint3_linear_2995_78102)"/>
<defs>
<linearGradient id="paint0_linear_2995_78102" x1="0" y1="44" x2="45.0581" y2="37.1184" gradientUnits="userSpaceOnUse">
<stop stop-color="#FF512F"/>
<stop offset="1" stop-color="#DD2476"/>
</linearGradient>
<linearGradient id="paint1_linear_2995_78102" x1="0" y1="44" x2="45.0581" y2="37.1184" gradientUnits="userSpaceOnUse">
<stop stop-color="#FF512F"/>
<stop offset="1" stop-color="#DD2476"/>
</linearGradient>
<linearGradient id="paint2_linear_2995_78102" x1="0" y1="44" x2="45.0581" y2="37.1184" gradientUnits="userSpaceOnUse">
<stop stop-color="#FF512F"/>
<stop offset="1" stop-color="#DD2476"/>
</linearGradient>
<linearGradient id="paint3_linear_2995_78102" x1="24" y1="12" x2="40" y2="12" gradientUnits="userSpaceOnUse">
<stop stop-color="#396AFC"/>
<stop offset="1" stop-color="#2948FF"/>
</linearGradient>
</defs>
</svg>
