<svg width="19" height="19" viewBox="0 0 19 19" fill="none" xmlns="http://www.w3.org/2000/svg">
<path d="M4.36776 5.96942C4.68211 3.14032 7.07341 1 9.91992 1V1C12.7664 1 15.1577 3.14032 15.4721 5.96942L15.7239 8.23563C15.7271 8.26452 15.7287 8.27897 15.7303 8.29326C15.8593 9.41695 16.225 10.5005 16.8035 11.4725C16.8108 11.4849 16.8183 11.4973 16.8333 11.5222L17.4113 12.4856C17.9359 13.3599 18.1981 13.797 18.1415 14.1559C18.1038 14.3946 17.9809 14.6117 17.7956 14.7668C17.517 15 17.0072 15 15.9877 15H3.85215C2.83261 15 2.32283 15 2.04426 14.7668C1.8589 14.6117 1.73601 14.3946 1.69833 14.1559C1.64171 13.797 1.90399 13.3599 2.42854 12.4856L3.00658 11.5222C3.02153 11.4973 3.02901 11.4849 3.03637 11.4725C3.6148 10.5005 3.98056 9.41695 4.10951 8.29326C4.11115 8.27897 4.11275 8.26452 4.11596 8.23563L4.36776 5.96942Z" stroke="black" stroke-width="1.5"/>
<path d="M7.02214 15.4059C7.19307 16.1501 7.5697 16.8077 8.09364 17.2767C8.61757 17.7458 9.25952 18 9.91992 18C10.5803 18 11.2223 17.7458 11.7462 17.2767C12.2701 16.8077 12.6468 16.1501 12.8177 15.4059" stroke="black" stroke-width="1.5" stroke-linecap="round"/>
</svg>
