<svg width="24" height="19" viewBox="0 0 24 19" fill="none" xmlns="http://www.w3.org/2000/svg">
<path d="M5.5 3.4C5.5 2.55992 5.5 2.13988 5.66349 1.81901C5.8073 1.53677 6.03677 1.3073 6.31901 1.16349C6.63988 1 7.05992 1 7.9 1H12.5059C12.8728 1 13.0562 1 13.2288 1.04145C13.3819 1.07819 13.5282 1.1388 13.6624 1.22104C13.8138 1.3138 13.9435 1.44352 14.2029 1.70294L17.7971 5.29706C18.0565 5.55648 18.1862 5.6862 18.279 5.83757C18.3612 5.97178 18.4218 6.1181 18.4586 6.27115C18.5 6.44378 18.5 6.62723 18.5 6.99411V15.6C18.5 16.4401 18.5 16.8601 18.3365 17.181C18.1927 17.4632 17.9632 17.6927 17.681 17.8365C17.3601 18 16.9401 18 16.1 18H7.9C7.05992 18 6.63988 18 6.31901 17.8365C6.03677 17.6927 5.8073 17.4632 5.66349 17.181C5.5 16.8601 5.5 16.4401 5.5 15.6V3.4Z" stroke="black" stroke-width="1.5"/>
<path d="M5.5 3.4C5.5 2.55992 5.5 2.13988 5.66349 1.81901C5.8073 1.53677 6.03677 1.3073 6.31901 1.16349C6.63988 1 7.05992 1 7.9 1H12.5059C12.8728 1 13.0562 1 13.2288 1.04145C13.3819 1.07819 13.5282 1.1388 13.6624 1.22104C13.8138 1.3138 13.9435 1.44352 14.2029 1.70294L17.7971 5.29706C18.0565 5.55648 18.1862 5.6862 18.279 5.83757C18.3612 5.97178 18.4218 6.1181 18.4586 6.27115C18.5 6.44378 18.5 6.62723 18.5 6.99411V15.6C18.5 16.4401 18.5 16.8601 18.3365 17.181C18.1927 17.4632 17.9632 17.6927 17.681 17.8365C17.3601 18 16.9401 18 16.1 18H7.9C7.05992 18 6.63988 18 6.31901 17.8365C6.03677 17.6927 5.8073 17.4632 5.66349 17.181C5.5 16.8601 5.5 16.4401 5.5 15.6V3.4Z" stroke="black" stroke-width="1.5"/>
<path d="M8.5 10L15.5 10" stroke="black" stroke-width="1.5" stroke-linecap="round"/>
<path d="M8.5 13L12.5 13" stroke="black" stroke-width="1.5" stroke-linecap="round"/>
<path d="M13 1.5V5.1C13 5.94008 13 6.36012 13.1635 6.68099C13.3073 6.96323 13.5368 7.1927 13.819 7.33651C14.1399 7.5 14.5599 7.5 15.4 7.5H18" stroke="black" stroke-width="1.5"/>
</svg>
