<svg width="48" height="24" viewBox="0 0 48 24" fill="none" xmlns="http://www.w3.org/2000/svg">
<path d="M0 2C0 0.89543 0.895431 0 2 0H46C47.1046 0 48 0.895431 48 2V22C48 23.1046 47.1046 24 46 24H2C0.895431 24 0 23.1046 0 22V2Z" fill="#FBFAF8"/>
<path fill-rule="evenodd" clip-rule="evenodd" d="M32.1673 7.44798C31.5901 7.23205 30.6855 7 29.5553 7C26.6755 7 24.6463 8.44574 24.6293 10.5164C24.6135 12.0486 26.0774 12.9017 27.1834 13.4125C28.3174 13.9339 28.6992 14.2673 28.6933 14.7335C28.686 15.4479 27.7878 15.7741 26.9501 15.7741C25.7833 15.7741 25.1639 15.6133 24.2066 15.2154L23.8307 15.0457L23.4216 17.4315C24.1031 17.7285 25.361 17.9868 26.6683 18C29.7324 18 31.7216 16.5712 31.7437 14.3594C31.7544 13.1469 30.9784 12.2243 29.2973 11.4645C28.2778 10.9711 27.6542 10.6415 27.661 10.1426C27.661 9.70058 28.1884 9.22588 29.3293 9.22588C30.2836 9.21103 30.9732 9.41847 31.5109 9.63482L31.7727 9.757L32.1673 7.44798ZM18.6834 17.8418L20.5057 7.18583H23.42L21.5968 17.8418H18.6834ZM37.3898 7.19625H39.6421L42.0008 17.8446H39.296C39.296 17.8446 39.0291 16.6211 38.9418 16.2482C38.7164 16.2482 37.7749 16.247 36.8901 16.2459L36.8778 16.2459C36.098 16.2449 35.3652 16.244 35.209 16.244C35.0957 16.532 34.5956 17.8446 34.5956 17.8446H31.5345L35.8628 8.0799C36.1702 7.38546 36.6916 7.19625 37.3898 7.19625ZM36.0472 14.0644C36.2885 13.4505 37.2089 11.0851 37.2089 11.0851C37.2003 11.099 37.257 10.9523 37.3344 10.752L37.3345 10.7519C37.4156 10.5418 37.5196 10.2728 37.5949 10.0682L37.7916 10.9871C37.7916 10.9871 38.3501 13.5303 38.4672 14.0644H36.0472ZM13.3856 14.46L16.2386 7.19358H19.3256L14.7376 17.8288L11.6535 17.833L9.04492 8.51291C10.8949 9.43601 12.5504 11.2805 13.0813 12.9833L13.3856 14.46Z" fill="#1A1F71"/>
<path fill-rule="evenodd" clip-rule="evenodd" d="M10.7374 7.18652H6.03703L6 7.40797C9.65663 8.29077 12.0762 10.422 13.0804 12.9835L12.0583 8.08587C11.8821 7.41094 11.37 7.20986 10.7374 7.18652" fill="#F9A51A"/>
</svg>
