<svg width="29" height="10" viewBox="0 0 29 10" fill="none" xmlns="http://www.w3.org/2000/svg">
<path fill-rule="evenodd" clip-rule="evenodd" d="M7.174 9.06108H4.7427L2.91953 2.10557C2.83299 1.78561 2.64925 1.50276 2.37898 1.36944C1.70447 1.03442 0.961217 0.767792 0.150391 0.633318V0.365531H4.06701C4.60757 0.365531 5.01298 0.767792 5.08055 1.23497L6.02651 6.25221L8.45662 0.365531H10.8203L7.174 9.06108ZM12.1704 9.06108H9.87421L11.765 0.365531H14.0611L12.1704 9.06108ZM17.0308 2.77354C17.0983 2.3052 17.5038 2.03741 17.9767 2.03741C18.72 1.97018 19.5296 2.10465 20.2053 2.43852L20.6107 0.566323C19.9351 0.298536 19.1918 0.164062 18.5173 0.164062C16.2887 0.164062 14.6671 1.36853 14.6671 3.04017C14.6671 4.31187 15.8157 4.9796 16.6266 5.38186C17.5038 5.78296 17.8416 6.05075 17.774 6.45185C17.774 7.0535 17.0983 7.32129 16.4238 7.32129C15.613 7.32129 14.8022 7.12073 14.0601 6.78571L13.6547 8.65906C14.4655 8.99293 15.3427 9.1274 16.1536 9.1274C18.6524 9.19348 20.2053 7.99017 20.2053 6.18406C20.2053 3.90961 17.0308 3.77629 17.0308 2.77354V2.77354ZM28.2408 9.06108L26.4176 0.365531H24.4593C24.0539 0.365531 23.6485 0.633318 23.5133 1.03442L20.1373 9.06108H22.501L22.9728 7.79054H25.8771L26.1473 9.06108H28.2408ZM24.8022 2.70612L25.4767 5.98333H23.5859L24.8022 2.70612Z" fill="#172B85"/>
</svg>
