<svg width="24" height="24" viewBox="0 0 24 24" fill="none" xmlns="http://www.w3.org/2000/svg">
<path fill-rule="evenodd" clip-rule="evenodd" d="M3 6C3 5.44772 3.38056 5 3.85 5H19.15C19.6194 5 20 5.44772 20 6C20 6.55228 19.6194 7 19.15 7H3.85C3.38056 7 3 6.55228 3 6ZM3 12C3 11.4477 3.38056 11 3.85 11H14.9C15.3694 11 15.75 11.4477 15.75 12C15.75 12.5523 15.3694 13 14.9 13H3.85C3.38056 13 3 12.5523 3 12ZM3 18C3 17.4477 3.38056 17 3.85 17H19.15C19.6194 17 20 17.4477 20 18C20 18.5523 19.6194 19 19.15 19H3.85C3.38056 19 3 18.5523 3 18Z" fill="white"/>
</svg>
