<svg width="50" height="50" viewBox="0 0 50 50" fill="none" xmlns="http://www.w3.org/2000/svg">
<path d="M14.7247 0V11.4786C15.6264 10.8569 16.4772 10.1441 17.4386 9.64186C18.4001 9.13959 19.482 8.84196 20.5834 8.42684V5.99091H23.5206V6.48045C23.5206 14.5578 23.5206 22.6351 23.5206 30.7124C23.5206 35.2161 20.9193 38.963 16.721 40.5236C16.0866 40.7586 15.4129 40.8917 14.7315 41.0797V49.9892H11.8109V41.0895C11.1119 40.8937 10.4403 40.7635 9.80386 40.5285C5.62128 38.9747 3.01501 35.2327 3.00522 30.7662C2.99347 25.6046 3.00522 20.4419 3.00522 15.2793V5.98406H5.92383V8.56292C8.19624 8.96238 10.1182 9.94733 11.7982 11.6578V0H14.7247ZM5.96886 29.1948C5.74955 31.7218 6.14118 34.0363 7.95539 35.92C9.00397 37.0097 10.2542 37.7342 11.7561 38.0319C12.2505 33.3353 9.3486 29.8527 5.96886 29.1948ZM14.7638 37.9878C18.2239 37.8723 21.3236 33.1434 20.5315 29.1958C17.0157 29.9076 14.2655 33.5047 14.7638 37.9878ZM11.7473 20.3646C12.2995 15.8677 9.28987 12.1238 5.95418 11.6362V17.3246C9.63646 18.5484 9.63645 18.5484 11.7434 20.3675L11.7473 20.3646ZM5.95026 26.1626C8.21093 26.5601 10.1289 27.5666 11.7698 29.1929C12.229 23.9813 8.82187 20.8708 5.95026 20.4096V26.1626ZM20.5922 26.1558V20.391C16.1345 21.3074 14.2126 26.0207 14.8235 29.1439C16.4175 27.5363 18.3443 26.565 20.5883 26.1587L20.5922 26.1558ZM20.5746 11.5912C16.5957 12.4224 14.2479 16.5139 14.7981 20.3754C16.3543 18.7814 18.3775 17.7242 20.5746 17.3569V11.5912Z" fill="#22A33F"/>
<path d="M26.4509 11.847H29.3695V14.4318C31.635 14.84 33.5599 15.8181 35.2243 17.4894V5.99121H38.1615V17.3484C39.071 16.7296 39.9238 16.0306 40.8804 15.5322C41.8369 15.0339 42.9217 14.7225 44.0232 14.3015V11.8617H46.9751V12.4198C46.9751 20.4305 46.9359 28.4412 46.9888 36.451C47.024 41.7663 43.2683 46.0214 38.512 46.8291C38.4141 46.8457 38.325 46.8829 38.1899 46.927V49.9993H35.2527V47.0347C34.16 46.6431 33.0821 46.3846 32.1304 45.8872C28.5813 44.0329 26.6477 41.0604 26.4793 37.056C26.3706 34.4556 26.4519 31.8474 26.4509 29.2421C26.4509 23.6575 26.4509 18.0732 26.4509 12.4893V11.847ZM29.4135 35.0509C29.0219 39.5889 31.7368 43.6931 35.2086 43.8537C35.706 39.4254 33.0008 35.7882 29.4135 35.0519V35.0509ZM38.2144 43.8557C41.7194 43.6736 44.826 38.928 43.9742 35.0568C40.3957 35.8028 37.717 39.4508 38.2144 43.8566V43.8557ZM29.4028 23.0994C30.4925 23.5136 31.5636 23.8161 32.5309 24.3194C33.4982 24.8226 34.3451 25.5158 35.2263 26.1101C35.6942 21.5085 32.6885 18.0709 29.4047 17.4698L29.4028 23.0994ZM44.0222 17.4649C40.289 18.209 37.7092 22.0665 38.234 26.2481C39.7988 24.6602 41.824 23.6054 44.0222 23.2336V17.4649ZM35.2106 35.0636C35.6884 30.1967 32.5896 26.8395 29.4076 26.2706V32.0334C31.6131 32.4043 33.6443 33.4644 35.2096 35.0617L35.2106 35.0636ZM38.2212 35.0568C39.7872 33.4631 41.8156 32.4035 44.0183 32.0285V26.2638C40.6013 26.9031 37.7219 30.4738 38.2202 35.0548L38.2212 35.0568Z" fill="#FFAA46"/>
</svg>
