<svg width="56" height="56" viewBox="0 0 56 56" fill="none" xmlns="http://www.w3.org/2000/svg">
<path d="M6.875 45.35L10.4 48.875L14.9 44.4L11.35 40.85L6.875 45.35ZM25.5 55.125C26.3 55.125 30.5 55.125 30.5 55.125V47.75H25.5V55.125ZM28 12.75C24.0218 12.75 20.2064 14.3304 17.3934 17.1434C14.5804 19.9564 13 23.7718 13 27.75C13 31.7283 14.5804 35.5436 17.3934 38.3566C20.2064 41.1697 24.0218 42.75 28 42.75C31.9782 42.75 35.7936 41.1697 38.6066 38.3566C41.4197 35.5436 43 31.7283 43 27.75C43 19.45 36.275 12.75 28 12.75ZM48 30.25H55.5V25.25H48V30.25ZM41.1 44.4L45.6 48.875L49.125 45.35L44.65 40.85L41.1 44.4ZM49.125 10.15L45.6 6.625L41.1 11.1L44.65 14.65L49.125 10.15ZM30.5 0.375H25.5V7.75H30.5V0.375ZM8 25.25H0.5V30.25H8V25.25ZM14.9 11.1L10.4 6.625L6.875 10.15L11.35 14.65L14.9 11.1Z" fill="#FFB300"/>
</svg>
