<svg width="60" height="60" viewBox="0 0 60 60" fill="none" xmlns="http://www.w3.org/2000/svg">
<g clip-path="url(#clip0_1425_48693)">
<path d="M2.33436e-05 28.124C0.156587 27.0061 0.247394 25.8773 0.469715 24.7719C2.57394 14.1146 8.65955 6.62617 18.5685 2.26117C22.0332 0.734671 25.7172 0.0692756 29.5045 0.00195312C29.6407 0.00195312 29.7769 0.00195312 29.9585 0.00195312V3.48393C21.6606 3.68903 14.7577 6.88763 9.44864 13.3177C5.53454 18.0632 3.59943 23.582 3.52115 29.7287C3.36458 41.9736 11.6077 52.6184 23.6005 55.6996C35.2473 58.6931 47.7113 53.1507 53.3915 42.4339C59.0278 31.7876 56.54 19.3407 49.1893 11.8084C49.3036 13.2833 49.41 14.6422 49.5227 16.0826L46.0314 16.3832C45.7527 13.0672 45.4756 9.77467 45.1922 6.41794L55.1513 5.58502C55.253 6.76864 55.3485 7.88964 55.4503 9.07796L51.8603 9.39892C52.0294 9.60715 52.1405 9.75588 52.2626 9.89366C56.518 14.6454 59.0512 20.1799 59.7777 26.5223C61.2635 39.4514 54.4545 51.6602 42.6793 57.201C39.4406 58.7251 35.949 59.6401 32.379 59.9002C32.2074 59.9228 32.0375 59.9563 31.8702 60.0004H28.1205C27.9889 59.9691 27.8606 59.9268 27.7275 59.908C26.3591 59.7076 24.9767 59.5745 23.6224 59.3037C11.9897 56.9756 2.3563 46.9758 0.461879 35.2852C0.2787 34.1532 0.148751 33.0119 -0.0078125 31.8737L2.33436e-05 28.124Z" fill="#FFAA46"/>
<path d="M11.3804 29.9679C11.4055 19.7036 19.8083 11.3368 30.0601 11.3791C40.3119 11.4213 48.6473 19.8022 48.6207 30.029C48.5956 40.2949 40.1898 48.6601 29.9411 48.6178C19.6924 48.5755 11.3554 40.19 11.3804 29.9679ZM18.1314 28.2379V31.77H15.0456C15.6718 38.319 21.1516 44.2058 28.2423 44.9652V41.8589H31.776V44.9636C39.3474 44.1072 44.4655 37.7366 44.9383 31.7339H41.8493V28.241H44.9602C44.2917 21.5213 38.6977 15.7472 31.7572 15.0286V18.1332H28.2251V15.0286C20.6475 15.8897 15.5325 22.2618 15.0628 28.2379H18.1314Z" fill="#22A33F"/>
<path d="M28.2426 20.4736H31.7246C31.741 20.5774 31.752 20.6819 31.7574 20.7868C31.7574 24.0057 31.7575 27.2262 31.7496 30.4452C31.7485 30.6502 31.6696 30.8472 31.5289 30.9963C29.6501 32.6058 27.7479 34.1965 25.7908 35.8498L23.5253 33.1631C24.5587 32.2911 25.4996 31.3407 26.5908 30.6143C27.9388 29.7203 28.3898 28.6165 28.2802 27.0133C28.1314 24.8527 28.2426 22.6812 28.2426 20.4736Z" fill="#22A33F"/>
</g>
<defs>
<clipPath id="clip0_1425_48693">
<rect width="60" height="60" fill="white"/>
</clipPath>
</defs>
</svg>
