<svg width="141" height="27" viewBox="0 0 141 27" fill="none" xmlns="http://www.w3.org/2000/svg">
<path d="M12 0L24 12L12 24L0 12L12 0Z" fill="url(#paint0_linear_606_11742)"/>
<path d="M5.40591 17.4059L8.65634 17.4074L9.57617 14.9252L14.3435 14.9274L15.2475 17.4104L18.5882 17.4119L13.6526 4.65259L7.35038 4.64973L7.35128 6.64302L9.55435 6.64402L5.40591 17.4059ZM10.3877 12.4612L11.9567 8.05853L13.5117 12.4626L10.3877 12.4612Z" fill="white"/>
<path d="M38.2851 6.744H35.3571V4.104H43.7331L50.2851 21H45.8451L44.6451 17.712H38.3091L37.0851 21H32.7651L38.2851 6.744ZM43.5411 14.448L41.4771 8.616L39.3891 14.448H43.5411ZM57.7994 26.064C55.6714 26.064 53.9114 25.656 52.5194 24.84V21.6C53.8954 22.544 55.4154 23.016 57.0794 23.016C58.0714 23.016 58.9114 22.784 59.5994 22.32C60.2874 21.872 60.6314 21.136 60.6314 20.112V18.96C60.2794 19.456 59.7834 19.88 59.1434 20.232C58.5194 20.568 57.7914 20.736 56.9594 20.736C55.9034 20.736 54.9434 20.488 54.0794 19.992C53.2314 19.496 52.5594 18.776 52.0634 17.832C51.5674 16.888 51.3194 15.776 51.3194 14.496C51.3194 13.216 51.5674 12.104 52.0634 11.16C52.5594 10.216 53.2314 9.496 54.0794 9C54.9434 8.488 55.9034 8.232 56.9594 8.232C57.8714 8.232 58.6554 8.44 59.3114 8.856C59.9834 9.256 60.4794 9.728 60.7994 10.272V8.544H64.6874V20.184C64.6874 21.432 64.3834 22.496 63.7754 23.376C63.1674 24.272 62.3434 24.944 61.3034 25.392C60.2634 25.84 59.0954 26.064 57.7994 26.064ZM55.4234 14.496C55.4234 15.456 55.6634 16.224 56.1434 16.8C56.6234 17.36 57.2714 17.64 58.0874 17.64C59.0634 17.64 59.9114 17.312 60.6314 16.656V12.36C59.9114 11.704 59.0634 11.376 58.0874 11.376C57.2714 11.376 56.6234 11.656 56.1434 12.216C55.6634 12.776 55.4234 13.536 55.4234 14.496ZM68.8844 11.184H66.3644V8.544H72.7724V10.728C73.0604 10.04 73.5244 9.488 74.1644 9.072C74.8044 8.64 75.5964 8.424 76.5404 8.424C76.9884 8.424 77.3404 8.48 77.5964 8.592V12.144C77.1164 12.016 76.5964 11.952 76.0364 11.952C74.6924 11.952 73.6684 12.288 72.9644 12.96V21H68.8844V11.184ZM85.7933 8.232C87.0893 8.232 88.2653 8.504 89.3213 9.048C90.3773 9.592 91.2093 10.36 91.8173 11.352C92.4253 12.344 92.7293 13.48 92.7293 14.76C92.7293 16.056 92.4253 17.2 91.8173 18.192C91.2093 19.184 90.3773 19.952 89.3213 20.496C88.2653 21.04 87.0893 21.312 85.7933 21.312C84.4813 21.312 83.2893 21.04 82.2173 20.496C81.1613 19.952 80.3293 19.184 79.7213 18.192C79.1133 17.2 78.8093 16.056 78.8093 14.76C78.8093 13.48 79.1133 12.344 79.7213 11.352C80.3293 10.36 81.1613 9.592 82.2173 9.048C83.2893 8.504 84.4813 8.232 85.7933 8.232ZM82.9133 14.76C82.9133 15.72 83.1773 16.512 83.7053 17.136C84.2493 17.744 84.9453 18.048 85.7933 18.048C86.6253 18.048 87.3053 17.744 87.8333 17.136C88.3773 16.512 88.6493 15.72 88.6493 14.76C88.6493 13.816 88.3773 13.04 87.8333 12.432C87.3053 11.808 86.6253 11.496 85.7933 11.496C84.9613 11.496 84.2733 11.808 83.7293 12.432C83.1853 13.04 82.9133 13.816 82.9133 14.76ZM104.474 4.104C105.85 4.104 107.034 4.352 108.026 4.848C109.018 5.344 109.778 6.032 110.306 6.912C110.834 7.776 111.098 8.76 111.098 9.864C111.098 10.952 110.826 11.936 110.282 12.816C109.738 13.696 108.97 14.384 107.978 14.88C106.986 15.376 105.834 15.624 104.522 15.624H100.97V21H96.6976V6.84H93.8416V4.104H104.474ZM103.922 12.24C104.77 12.24 105.45 12.032 105.962 11.616C106.49 11.184 106.754 10.6 106.754 9.864C106.754 9.128 106.49 8.552 105.962 8.136C105.45 7.704 104.77 7.488 103.922 7.488H100.97V12.24H103.922ZM126.334 20.784C126.19 20.896 125.91 21.008 125.494 21.12C125.094 21.248 124.646 21.312 124.15 21.312C123.43 21.312 122.79 21.168 122.23 20.88C121.67 20.592 121.286 20.184 121.078 19.656C120.262 20.76 118.974 21.312 117.214 21.312C116.35 21.312 115.566 21.144 114.862 20.808C114.158 20.472 113.598 20.008 113.182 19.416C112.782 18.808 112.582 18.136 112.582 17.4C112.582 16.072 113.134 15.08 114.238 14.424C115.342 13.752 116.71 13.416 118.342 13.416C119.27 13.416 120.126 13.52 120.91 13.728V13.2C120.91 12.56 120.638 12.08 120.094 11.76C119.566 11.424 118.854 11.256 117.958 11.256C117.206 11.256 116.454 11.376 115.702 11.616C114.95 11.84 114.27 12.184 113.662 12.648V9.432C114.254 9.08 115.006 8.792 115.918 8.568C116.83 8.344 117.774 8.232 118.75 8.232C120.686 8.232 122.19 8.672 123.262 9.552C124.35 10.432 124.894 11.64 124.894 13.176V17.64C124.894 17.912 124.974 18.112 125.134 18.24C125.31 18.352 125.526 18.408 125.782 18.408C126.022 18.408 126.206 18.368 126.334 18.288V20.784ZM116.662 17.184C116.662 17.584 116.83 17.904 117.166 18.144C117.518 18.384 117.974 18.504 118.534 18.504C119.462 18.504 120.254 18.152 120.91 17.448V16.056C120.302 15.88 119.646 15.792 118.942 15.792C118.318 15.792 117.782 15.904 117.334 16.128C116.886 16.336 116.662 16.688 116.662 17.184ZM140.268 8.544L136.02 19.8C135.236 21.864 134.276 23.424 133.14 24.48C132.02 25.536 130.652 26.064 129.036 26.064C128.604 26.064 128.196 26.016 127.812 25.92C127.444 25.84 127.164 25.752 126.972 25.656V22.512C127.292 22.704 127.74 22.8 128.316 22.8C129.58 22.8 130.508 22.184 131.1 20.952L126.444 8.544H130.788L133.332 16.584L136.116 8.544H140.268Z" fill="white"/>
<defs>
<linearGradient id="paint0_linear_606_11742" x1="12" y1="0" x2="12" y2="24" gradientUnits="userSpaceOnUse">
<stop stop-color="#00B327"/>
<stop offset="1" stop-color="#00B393"/>
</linearGradient>
</defs>
</svg>
