<svg width="24" height="24" viewBox="0 0 24 24" fill="none" xmlns="http://www.w3.org/2000/svg">
<path d="M20.1222 9.87906L17.2129 6.96981C17.0715 6.83319 16.882 6.7576 16.6854 6.75931C16.4887 6.76101 16.3006 6.83989 16.1616 6.97895C16.0225 7.118 15.9436 7.30611 15.9419 7.50276C15.9402 7.69941 16.0158 7.88886 16.1524 8.03031L19.0617 10.9396C19.1481 11.0277 19.2237 11.1259 19.2867 11.2321C19.2754 11.2321 19.2664 11.2261 19.2552 11.2261L7.49219 11.2501C7.29328 11.2501 7.10251 11.3291 6.96186 11.4697C6.82121 11.6104 6.74219 11.8011 6.74219 12.0001C6.74219 12.199 6.82121 12.3897 6.96186 12.5304C7.10251 12.671 7.29328 12.7501 7.49219 12.7501L19.2507 12.7261C19.2717 12.7261 19.2889 12.7156 19.3092 12.7141C19.2427 12.8409 19.1583 12.9576 19.0587 13.0606L16.1494 15.9698C16.0778 16.039 16.0207 16.1218 15.9814 16.2133C15.9421 16.3048 15.9214 16.4032 15.9205 16.5028C15.9196 16.6023 15.9386 16.7011 15.9763 16.7933C16.014 16.8854 16.0697 16.9692 16.1401 17.0396C16.2106 17.11 16.2943 17.1657 16.3865 17.2034C16.4786 17.2411 16.5774 17.2601 16.677 17.2592C16.7766 17.2584 16.875 17.2377 16.9665 17.1984C17.058 17.1591 17.1408 17.1019 17.2099 17.0303L20.1192 14.1211C20.6816 13.5585 20.9975 12.7956 20.9975 12.0001C20.9975 11.2046 20.6816 10.4416 20.1192 9.87906H20.1222Z" fill="#377BE1"/>
<path d="M8.25 19.5H6.75C6.15326 19.5 5.58097 19.2629 5.15901 18.841C4.73705 18.419 4.5 17.8467 4.5 17.25V6.75C4.5 6.15326 4.73705 5.58097 5.15901 5.15901C5.58097 4.73705 6.15326 4.5 6.75 4.5H8.25C8.44891 4.5 8.63968 4.42098 8.78033 4.28033C8.92098 4.13968 9 3.94891 9 3.75C9 3.55109 8.92098 3.36032 8.78033 3.21967C8.63968 3.07902 8.44891 3 8.25 3H6.75C5.7558 3.00119 4.80267 3.39666 4.09966 4.09966C3.39666 4.80267 3.00119 5.7558 3 6.75L3 17.25C3.00119 18.2442 3.39666 19.1973 4.09966 19.9003C4.80267 20.6033 5.7558 20.9988 6.75 21H8.25C8.44891 21 8.63968 20.921 8.78033 20.7803C8.92098 20.6397 9 20.4489 9 20.25C9 20.0511 8.92098 19.8603 8.78033 19.7197C8.63968 19.579 8.44891 19.5 8.25 19.5Z" fill="#377BE1"/>
</svg>
