<svg width="24" height="25" viewBox="0 0 24 25" fill="none" xmlns="http://www.w3.org/2000/svg">
<path d="M20 12.5C20 8.72876 20 6.84315 18.8284 5.67157C17.6569 4.5 15.7712 4.5 12 4.5V4.5C8.22876 4.5 6.34315 4.5 5.17157 5.67157C4 6.84315 4 8.72876 4 12.5V18.5C4 19.4428 4 19.9142 4.29289 20.2071C4.58579 20.5 5.05719 20.5 6 20.5H12C15.7712 20.5 17.6569 20.5 18.8284 19.3284C20 18.1569 20 16.2712 20 12.5V12.5Z" stroke="#545454" stroke-width="1.5"/>
<path d="M9 10.5L15 10.5" stroke="#545454" stroke-width="1.5" stroke-linecap="round" stroke-linejoin="round"/>
<path d="M9 14.5H12" stroke="#545454" stroke-width="1.5" stroke-linecap="round" stroke-linejoin="round"/>
</svg>
