<svg width="24" height="25" viewBox="0 0 24 25" fill="none" xmlns="http://www.w3.org/2000/svg">
<path d="M3.5 9.898C3.5 8.87292 3.5 8.36038 3.70266 7.97025C3.87343 7.64149 4.14149 7.37343 4.47025 7.20266C4.86038 7 5.37292 7 6.398 7H17.602C18.6271 7 19.1396 7 19.5298 7.20266C19.8585 7.37343 20.1266 7.64149 20.2973 7.97025C20.5 8.36038 20.5 8.87292 20.5 9.898V16.102C20.5 17.1271 20.5 17.6396 20.2973 18.0298C20.1266 18.3585 19.8585 18.6266 19.5298 18.7973C19.1396 19 18.6271 19 17.602 19H6.398C5.37292 19 4.86038 19 4.47025 18.7973C4.14149 18.6266 3.87343 18.3585 3.70266 18.0298C3.5 17.6396 3.5 17.1271 3.5 16.102V9.898Z" stroke="#545454" stroke-width="1.5"/>
<path d="M3.5 11L20.5 11" stroke="#545454" stroke-width="1.5" stroke-linecap="round"/>
</svg>
