<svg width="24" height="25" viewBox="0 0 24 25" fill="none" xmlns="http://www.w3.org/2000/svg">
<path d="M4.53033 7.03033C4.23744 7.32322 3.76256 7.32322 3.46967 7.03033C3.17678 6.73744 3.17678 6.26256 3.46967 5.96967L4.53033 7.03033ZM8 2.5L7.46967 1.96967C7.76256 1.67678 8.23744 1.67678 8.53033 1.96967L8 2.5ZM12.5303 5.96967C12.8232 6.26256 12.8232 6.73744 12.5303 7.03033C12.2374 7.32322 11.7626 7.32322 11.4697 7.03033L12.5303 5.96967ZM8.75 17.5C8.75 17.9142 8.41421 18.25 8 18.25C7.58579 18.25 7.25 17.9142 7.25 17.5L8.75 17.5ZM3.46967 5.96967L7.46967 1.96967L8.53033 3.03033L4.53033 7.03033L3.46967 5.96967ZM8.53033 1.96967L12.5303 5.96967L11.4697 7.03033L7.46967 3.03033L8.53033 1.96967ZM8.75 2.5L8.75 17.5L7.25 17.5L7.25 2.5L8.75 2.5Z" fill="#545454"/>
<path d="M12.5303 17.9697C12.2374 17.6768 11.7626 17.6768 11.4697 17.9697C11.1768 18.2626 11.1768 18.7374 11.4697 19.0303L12.5303 17.9697ZM16 22.5L15.4697 23.0303C15.7626 23.3232 16.2374 23.3232 16.5303 23.0303L16 22.5ZM20.5303 19.0303C20.8232 18.7374 20.8232 18.2626 20.5303 17.9697C20.2374 17.6768 19.7626 17.6768 19.4697 17.9697L20.5303 19.0303ZM16.75 7.5C16.75 7.08579 16.4142 6.75 16 6.75C15.5858 6.75 15.25 7.08579 15.25 7.5L16.75 7.5ZM11.4697 19.0303L15.4697 23.0303L16.5303 21.9697L12.5303 17.9697L11.4697 19.0303ZM16.5303 23.0303L20.5303 19.0303L19.4697 17.9697L15.4697 21.9697L16.5303 23.0303ZM16.75 22.5L16.75 7.5L15.25 7.5L15.25 22.5L16.75 22.5Z" fill="#545454"/>
</svg>
