<svg width="24" height="25" viewBox="0 0 24 25" fill="none" xmlns="http://www.w3.org/2000/svg">
<path d="M5 13.2595C5 11.9018 5 11.2229 5.27446 10.6262C5.54892 10.0294 6.06437 9.58763 7.09525 8.70401L8.09525 7.84687C9.95857 6.24974 10.8902 5.45117 12 5.45117C13.1098 5.45117 14.0414 6.24974 15.9047 7.84687L16.9047 8.70401C17.9356 9.58763 18.4511 10.0294 18.7255 10.6262C19 11.2229 19 11.9018 19 13.2595V17.4999C19 19.3856 19 20.3284 18.4142 20.9142C17.8284 21.4999 16.8856 21.4999 15 21.4999H9C7.11438 21.4999 6.17157 21.4999 5.58579 20.9142C5 20.3284 5 19.3856 5 17.4999V13.2595Z" stroke="#545454" stroke-width="1.5"/>
<path d="M14.5 21.5V16.5C14.5 15.9477 14.0523 15.5 13.5 15.5H10.5C9.94772 15.5 9.5 15.9477 9.5 16.5V21.5" stroke="#545454" stroke-width="1.5" stroke-linecap="round" stroke-linejoin="round"/>
</svg>
