<svg width="24" height="24" viewBox="0 0 24 24" fill="none" xmlns="http://www.w3.org/2000/svg">
<path fill-rule="evenodd" clip-rule="evenodd" d="M12 24C18.6274 24 24 18.6274 24 12C24 5.37258 18.6274 0 12 0C5.37258 0 0 5.37258 0 12C0 18.6274 5.37258 24 12 24ZM12.8887 12.9258C12.8682 13.5068 12.5674 13.8486 12 13.8486C11.4326 13.8486 11.1318 13.5068 11.1182 12.9258L11.0088 8.19531C11.0088 8.15923 11.0069 8.11933 11.0051 8.08166C11.0035 8.04797 11.002 8.01605 11.002 7.99023C11.002 7.36133 11.3916 6.98535 12.0068 6.98535C12.6152 6.98535 12.998 7.36133 12.998 7.99023C12.998 8.04492 12.998 8.12695 12.9912 8.19531L12.8887 12.9258ZM13.1143 16.0977C13.1143 16.6992 12.6221 17.1709 12 17.1709C11.3779 17.1709 10.8857 16.6992 10.8857 16.0977C10.8857 15.4961 11.3779 15.0244 12 15.0244C12.6221 15.0244 13.1143 15.4961 13.1143 16.0977Z" fill="#FFA800"/>
</svg>
