<svg width="91" height="30" viewBox="0 0 91 30" fill="none" xmlns="http://www.w3.org/2000/svg">
<rect x="0.126953" width="90" height="30" rx="2.6455" fill="black"/>
<path d="M19.1241 14.6316C19.1322 14.0303 19.2989 13.4407 19.6086 12.9177C19.9183 12.3947 20.3611 11.9552 20.8957 11.6403C20.5561 11.1755 20.1081 10.793 19.5872 10.5231C19.0664 10.2533 18.4871 10.1035 17.8953 10.0858C16.6329 9.95881 15.409 10.8097 14.7657 10.8097C14.11 10.8097 13.1196 10.0984 12.053 10.1194C11.3631 10.1408 10.6908 10.333 10.1015 10.6775C9.5122 11.0219 9.02605 11.5067 8.69042 12.0847C7.2365 14.497 8.32099 18.0424 9.71372 19.9923C10.4105 20.9472 11.2249 22.0137 12.2905 21.9759C13.3332 21.9345 13.7227 21.3387 14.9814 21.3387C16.2284 21.3387 16.5937 21.9759 17.6809 21.9519C18.7999 21.9345 19.5048 20.9928 20.1772 20.0289C20.6778 19.3486 21.0631 18.5966 21.3187 17.8009C20.6686 17.5375 20.1139 17.0964 19.7236 16.5328C19.3334 15.9692 19.1249 15.308 19.1241 14.6316Z" fill="white"/>
<path d="M17.0715 8.80324C17.6816 8.10138 17.9821 7.19926 17.9094 6.28845C16.9773 6.38227 16.1163 6.80917 15.498 7.4841C15.1957 7.81383 14.9642 8.19741 14.8166 8.61294C14.6691 9.02847 14.6085 9.46779 14.6382 9.90579C15.1044 9.91039 15.5656 9.81355 15.9871 9.62257C16.4086 9.43159 16.7794 9.15145 17.0715 8.80324Z" fill="white"/>
<path d="M32.3054 19.5583H28.747L27.8925 21.9764H26.3853L29.7557 13.03H31.3216L34.6921 21.9764H33.1592L32.3054 19.5583ZM29.1155 18.4424H31.9362L30.5457 14.518H30.5068L29.1155 18.4424Z" fill="white"/>
<path d="M41.9704 18.7152C41.9704 20.7421 40.8383 22.0444 39.13 22.0444C38.6972 22.0661 38.2668 21.9706 37.8881 21.7687C37.5094 21.5669 37.1976 21.267 36.9885 20.9032H36.9562V24.134H35.5591V15.4535H36.9114V16.5384H36.9371C37.1558 16.1764 37.4729 15.878 37.8545 15.6749C38.2361 15.4719 38.668 15.3718 39.1043 15.3852C40.8317 15.3852 41.9704 16.6939 41.9704 18.7152ZM40.5344 18.7152C40.5344 17.3946 39.8223 16.5264 38.7357 16.5264C37.6683 16.5264 36.9503 17.4129 36.9503 18.7152C36.9503 20.0294 37.6683 20.9096 38.7357 20.9096C39.8223 20.9096 40.5344 20.0477 40.5344 18.7152Z" fill="white"/>
<path d="M49.4616 18.7152C49.4616 20.7421 48.3296 22.0444 46.6212 22.0444C46.1884 22.0661 45.7581 21.9706 45.3793 21.7687C45.0006 21.5669 44.6888 21.267 44.4797 20.9032H44.4474V24.1339H43.0503V15.4535H44.4026V16.5384H44.4283C44.647 16.1764 44.9641 15.878 45.3457 15.6749C45.7273 15.4719 46.1592 15.3718 46.5955 15.3852C48.3229 15.3852 49.4616 16.6938 49.4616 18.7152ZM48.0256 18.7152C48.0256 17.3946 47.3135 16.5264 46.227 16.5264C45.1595 16.5264 44.4415 17.4129 44.4415 18.7152C44.4415 20.0294 45.1595 20.9096 46.227 20.9096C47.3135 20.9096 48.0256 20.0477 48.0256 18.7152H48.0256Z" fill="white"/>
<path d="M54.4121 19.4837C54.5156 20.3709 55.4149 20.9534 56.6439 20.9534C57.8215 20.9534 58.6687 20.3709 58.6687 19.5709C58.6687 18.8765 58.1577 18.4607 56.9478 18.1758L55.7379 17.8965C54.0237 17.4997 53.2279 16.7314 53.2279 15.4847C53.2279 13.9411 54.6316 12.8808 56.6248 12.8808C58.5974 12.8808 59.9497 13.9411 59.9953 15.4847H58.5849C58.5005 14.5918 57.7304 14.0529 56.6049 14.0529C55.4795 14.0529 54.7094 14.5982 54.7094 15.3918C54.7094 16.0243 55.2013 16.3965 56.4045 16.6814L57.4331 16.9234C59.3484 17.3575 60.1443 18.0949 60.1443 19.4034C60.1443 21.0772 58.7531 22.1255 56.5403 22.1255C54.47 22.1255 53.0722 21.1018 52.9819 19.4836L54.4121 19.4837Z" fill="white"/>
<path d="M63.1599 13.9101V15.4537H64.4542V16.514H63.1599V20.1098C63.1599 20.6685 63.4191 20.9288 63.988 20.9288C64.1417 20.9262 64.2951 20.9159 64.4476 20.8978V21.9517C64.1918 21.9975 63.9318 22.0183 63.6716 22.0136C62.2936 22.0136 61.7562 21.5176 61.7562 20.2526V16.514H60.7666V15.4537H61.7562V13.9101H63.1599Z" fill="white"/>
<path d="M65.2041 18.7154C65.2041 16.6631 66.4654 15.3735 68.4321 15.3735C70.4055 15.3735 71.6609 16.6631 71.6609 18.7154C71.6609 20.7733 70.4121 22.0573 68.4321 22.0573C66.4528 22.0573 65.2041 20.7733 65.2041 18.7154ZM70.2374 18.7154C70.2374 17.3076 69.5642 16.4767 68.4321 16.4767C67.3001 16.4767 66.6276 17.3139 66.6276 18.7154C66.6276 20.1288 67.3001 20.9534 68.4321 20.9534C69.5642 20.9534 70.2374 20.1288 70.2374 18.7154H70.2374Z" fill="white"/>
<path d="M72.8125 15.4534H74.145V16.5636H74.1773C74.2675 16.2169 74.4794 15.9105 74.7776 15.6958C75.0757 15.4812 75.4418 15.3715 75.8145 15.3852C75.9755 15.3846 76.136 15.4014 76.2931 15.4351V16.6875C76.0899 16.6279 75.8778 16.6006 75.6654 16.6065C75.4624 16.5987 75.2601 16.6329 75.0723 16.7071C74.8844 16.7812 74.7156 16.8934 74.5773 17.036C74.439 17.1785 74.3345 17.3481 74.271 17.533C74.2076 17.7179 74.1866 17.9138 74.2096 18.1072V21.9761H72.8125L72.8125 15.4534Z" fill="white"/>
<path d="M82.7346 20.0606C82.5467 21.2446 81.3434 22.0573 79.8039 22.0573C77.8239 22.0573 76.595 20.7859 76.595 18.7463C76.595 16.7004 77.8305 15.3735 79.7452 15.3735C81.6283 15.3735 82.8125 16.6131 82.8125 18.5908V19.0496H78.0053V19.1305C77.9831 19.3705 78.0144 19.6123 78.0973 19.8399C78.1801 20.0674 78.3125 20.2755 78.4857 20.4502C78.6588 20.625 78.8688 20.7624 79.1017 20.8534C79.3345 20.9444 79.5849 20.9869 79.8362 20.978C80.1664 21.0076 80.4977 20.9344 80.7809 20.7691C81.0641 20.6038 81.284 20.3553 81.408 20.0606L82.7346 20.0606ZM78.0119 18.1138H81.4146C81.4272 17.898 81.393 17.682 81.3143 17.4794C81.2356 17.2768 81.1141 17.092 80.9573 16.9365C80.8006 16.7811 80.612 16.6584 80.4034 16.5761C80.1948 16.4938 79.9707 16.4537 79.7452 16.4584C79.5177 16.4571 79.2922 16.4989 79.0816 16.5816C78.8711 16.6643 78.6797 16.7861 78.5186 16.94C78.3575 17.0939 78.2297 17.2769 78.1427 17.4783C78.0558 17.6798 78.0113 17.8958 78.0119 18.1138V18.1138Z" fill="white"/>
<path d="M28.1213 8.11293H28.7211C28.8244 8.12525 28.9292 8.11694 29.0289 8.08853C29.1287 8.06011 29.2212 8.0122 29.3006 7.94782C29.3801 7.88344 29.4448 7.80399 29.4906 7.71446C29.5364 7.62494 29.5624 7.52729 29.5669 7.42767C29.5669 7.03122 29.2556 6.77512 28.7277 6.77512C28.622 6.76096 28.5143 6.76725 28.4111 6.79362C28.3079 6.82 28.2112 6.86592 28.1269 6.92868C28.0425 6.99144 27.9721 7.06977 27.9198 7.15904C27.8675 7.24831 27.8345 7.34671 27.8225 7.44843H27.164C27.1753 7.26378 27.2262 7.08334 27.3135 6.91835C27.4007 6.75336 27.5225 6.60735 27.6712 6.48941C27.8198 6.37147 27.9923 6.28413 28.1777 6.23282C28.3632 6.18151 28.5576 6.16733 28.749 6.19117C29.6322 6.19117 30.2541 6.66501 30.2541 7.34711C30.2561 7.57562 30.1764 7.79789 30.028 7.97683C29.8797 8.15577 29.6719 8.28055 29.4391 8.33033V8.38099C29.715 8.39271 29.9749 8.50865 30.1618 8.70344C30.3488 8.89823 30.4477 9.15603 30.4368 9.42049C30.4164 9.61061 30.3566 9.79491 30.2609 9.96259C30.1652 10.1303 30.0355 10.2779 29.8795 10.397C29.7235 10.516 29.5442 10.604 29.3522 10.6558C29.1603 10.7075 28.9594 10.7221 28.7615 10.6985C28.5632 10.7244 28.3615 10.7118 28.1683 10.6614C27.9752 10.611 27.7947 10.5238 27.6374 10.4051C27.4802 10.2864 27.3495 10.1386 27.2532 9.97047C27.1568 9.80233 27.0968 9.61732 27.0767 9.42648H27.7455C27.7858 9.8377 28.1801 10.103 28.7615 10.103C29.343 10.103 29.7225 9.80502 29.7225 9.38499C29.7225 8.95899 29.365 8.69656 28.7402 8.69656H28.1213V8.11293Z" fill="white"/>
<path d="M31.1968 9.67675C31.1968 9.09279 31.6512 8.75615 32.4558 8.7083L33.3728 8.65765V8.37763C33.3728 8.035 33.1371 7.84152 32.6798 7.84152C32.3068 7.84152 32.0491 7.97274 31.9742 8.2021H31.3275C31.3957 7.64488 31.9434 7.28748 32.7113 7.28748C33.56 7.28748 34.0387 7.69236 34.0387 8.37763V10.5942H33.3948V10.1383H33.342C33.2347 10.3018 33.084 10.4351 32.9054 10.5246C32.7267 10.6141 32.5265 10.6566 32.3252 10.6476C32.1831 10.6618 32.0394 10.6473 31.9035 10.605C31.7676 10.5627 31.6425 10.4936 31.5362 10.4021C31.4299 10.3106 31.3448 10.1988 31.2863 10.0739C31.2278 9.94896 31.1973 9.81367 31.1968 9.67675ZM33.3728 9.39954V9.12833L32.5461 9.17898C32.0799 9.20888 31.8685 9.36085 31.8685 9.64684C31.8685 9.93882 32.1328 10.1087 32.4962 10.1087C32.6027 10.1191 32.7103 10.1088 32.8125 10.0784C32.9148 10.0481 33.0096 9.99839 33.0914 9.93223C33.1732 9.86606 33.2402 9.7848 33.2886 9.69329C33.3369 9.60178 33.3656 9.50188 33.3728 9.39954Z" fill="white"/>
<path d="M35.8116 7.88902V10.5942H35.1436V7.3501H37.3724V7.88899L35.8116 7.88902Z" fill="white"/>
<path d="M41.4205 8.97148C41.4205 10.0022 40.8765 10.6484 40.022 10.6484C39.8122 10.6621 39.6027 10.6181 39.4181 10.5216C39.2336 10.4251 39.0816 10.28 38.9802 10.1035H38.9273V11.6735H38.2593V7.35084H38.9024V7.88697H38.9523C39.0556 7.70429 39.2095 7.55252 39.3971 7.44842C39.5847 7.34431 39.7986 7.29192 40.0154 7.29703C40.8765 7.29701 41.4205 7.94041 41.4205 8.97148ZM40.7334 8.97148C40.7334 8.28621 40.3949 7.87217 39.8289 7.87217C39.2666 7.87217 38.9149 8.295 38.9149 8.97429C38.9149 9.65041 39.2665 10.0736 39.8259 10.0736C40.3949 10.0736 40.7334 9.65955 40.7334 8.97148Z" fill="white"/>
<path d="M42.3104 11.7561V11.2049C42.3827 11.2137 42.4555 11.2177 42.5284 11.2168C42.6708 11.2269 42.812 11.1863 42.925 11.1028C43.038 11.0192 43.1148 10.8986 43.1407 10.7641L43.1906 10.6062L41.9653 7.3501H42.6929L43.5416 9.92687H43.5944L44.4402 7.3501H45.1486L43.8866 10.7282C43.5974 11.5176 43.2773 11.7709 42.5872 11.7709C42.5314 11.7709 42.3728 11.7649 42.3104 11.7561Z" fill="white"/>
<path d="M45.6685 9.67365H46.3336C46.3989 9.95967 46.6787 10.1088 47.0699 10.1088C47.5148 10.1088 47.7879 9.92095 47.7879 9.62899C47.7879 9.31626 47.5427 9.16711 47.0699 9.16711H46.5634V8.66969H47.0611C47.4649 8.66969 47.6705 8.52089 47.6705 8.24967C47.6705 8.01152 47.4715 7.82966 47.0611 7.82966C46.6875 7.82966 46.4144 7.98163 46.371 8.23772H45.7272C45.7753 7.94345 45.942 7.67904 46.1915 7.50135C46.441 7.32366 46.7532 7.2469 47.0611 7.28757C47.8658 7.28757 48.3261 7.63618 48.3261 8.18425C48.3298 8.33687 48.2788 8.4861 48.1815 8.60699C48.0842 8.72788 47.9466 8.81311 47.7916 8.84841V8.89906C47.9761 8.92187 48.1455 9.0088 48.2676 9.14335C48.3896 9.27791 48.4559 9.45072 48.4538 9.629C48.4538 10.2457 47.9061 10.6537 47.0699 10.6537C46.3307 10.6537 45.7301 10.329 45.6685 9.67365Z" fill="white"/>
<path d="M49.418 10.5942V7.3501H50.0802V9.58143H50.133L51.6931 7.3501H52.3553V10.5942H51.6931V8.35092H51.6432L50.0802 10.5942L49.418 10.5942Z" fill="white"/>
<path d="M56.0015 7.88972H54.9355V10.5949H54.2667V7.88972H53.2007V7.35083H56.0015V7.88972Z" fill="white"/>
<path d="M59.5999 9.71832C59.5089 10.0148 59.3121 10.2712 59.0438 10.4427C58.7756 10.6143 58.453 10.6901 58.1324 10.6569C57.9093 10.6625 57.6877 10.6216 57.4829 10.5369C57.278 10.4522 57.0948 10.3258 56.946 10.1665C56.7973 10.0072 56.6864 9.81877 56.6213 9.61429C56.5561 9.40981 56.5381 9.19419 56.5686 8.9824C56.5389 8.76995 56.5572 8.55387 56.6222 8.34878C56.6873 8.14369 56.7975 7.95438 56.9455 7.79367C57.0935 7.63296 57.2758 7.50459 57.4801 7.41727C57.6843 7.32995 57.9058 7.2857 58.1294 7.28753C59.0713 7.28753 59.6403 7.90423 59.6403 8.92293V9.14634H57.2499V9.18222C57.2393 9.30129 57.2549 9.42118 57.2955 9.53416C57.3362 9.64714 57.401 9.75072 57.4859 9.83825C57.5708 9.92578 57.6739 9.99531 57.7885 10.0424C57.9031 10.0895 58.0268 10.113 58.1515 10.1116C58.3112 10.1299 58.4729 10.1023 58.6162 10.0322C58.7595 9.96221 58.8778 9.85293 58.9561 9.7183L59.5999 9.71832ZM57.2499 8.67284H58.959C58.9674 8.56401 58.952 8.4547 58.9138 8.35192C58.8755 8.24914 58.8153 8.15516 58.7369 8.07602C58.6585 7.99688 58.5637 7.93433 58.4586 7.89238C58.3534 7.85043 58.2403 7.83002 58.1265 7.83244C58.0109 7.83094 57.8962 7.85165 57.7891 7.89335C57.682 7.93506 57.5847 7.99691 57.503 8.07525C57.4213 8.1536 57.3568 8.24685 57.3133 8.34949C57.2699 8.45213 57.2483 8.56208 57.2499 8.67284H57.2499Z" fill="white"/>
<path d="M62.4331 7.3501H63.9594C64.6216 7.3501 65.01 7.67162 65.01 8.175C65.011 8.33473 64.9547 8.48995 64.8506 8.61469C64.7465 8.73943 64.6009 8.82613 64.4381 8.86027V8.91092C64.6358 8.92289 64.8211 9.00717 64.9558 9.14635C65.0905 9.28553 65.1643 9.46898 65.1619 9.6588C65.1619 10.2248 64.7178 10.5942 63.9748 10.5942H62.4331V7.3501ZM63.0953 7.84153V8.68157H63.7575C64.1613 8.68157 64.3544 8.53277 64.3544 8.25838C64.3544 8.00545 64.1863 7.84152 63.8317 7.84152L63.0953 7.84153ZM63.0953 9.15226V10.1028H63.8875C64.2825 10.1028 64.4939 9.93568 64.4939 9.62893C64.4939 9.30424 64.2546 9.15227 63.8038 9.15227L63.0953 9.15226Z" fill="white"/>
</svg>
