<svg width="60" height="60" viewBox="0 0 60 60" fill="none" xmlns="http://www.w3.org/2000/svg">
<rect x="0.5" y="0.5" width="59" height="59" rx="11.2188" fill="white" stroke="#EBEBEB"/>
<g filter="url(#filter0_d_716_13488)">
<path d="M16.3354 9.50293H30C37.5468 9.50293 43.6646 15.6208 43.6646 23.1675C43.6646 30.7143 37.5468 36.8321 30 36.8321C22.4533 36.8321 16.3354 30.7143 16.3354 23.1675V9.50293Z" fill="#05AFF8"/>
<path d="M16.3354 9.50293H30C37.5468 9.50293 43.6646 15.6208 43.6646 23.1675C43.6646 30.7143 37.5468 36.8321 30 36.8321C22.4533 36.8321 16.3354 30.7143 16.3354 23.1675V9.50293Z" fill="url(#paint0_linear_716_13488)"/>
</g>
<g filter="url(#filter1_d_716_13488)">
<path d="M23.0574 23.1675C23.0574 19.3326 26.1662 16.2238 30.0011 16.2238C33.8361 16.2238 36.9449 19.3326 36.9449 23.1675C36.9449 27.0025 33.8361 30.1113 30.0011 30.1113C26.1662 30.1113 23.0574 27.0025 23.0574 23.1675Z" fill="url(#paint1_linear_716_13488)"/>
</g>
<g filter="url(#filter2_d_716_13488)">
<path d="M16.3354 50.4967L16.3354 36.8321C16.3354 29.2854 22.4533 23.1675 30 23.1675C37.5468 23.1675 43.6646 29.2854 43.6646 36.8321C43.6646 44.3789 37.5468 50.4967 30 50.4967L16.3354 50.4967Z" fill="url(#paint2_linear_716_13488)"/>
</g>
<defs>
<filter id="filter0_d_716_13488" x="14.5776" y="7.74512" width="30.8447" height="30.8448" filterUnits="userSpaceOnUse" color-interpolation-filters="sRGB">
<feFlood flood-opacity="0" result="BackgroundImageFix"/>
<feColorMatrix in="SourceAlpha" type="matrix" values="0 0 0 0 0 0 0 0 0 0 0 0 0 0 0 0 0 0 127 0" result="hardAlpha"/>
<feOffset/>
<feGaussianBlur stdDeviation="0.878906"/>
<feComposite in2="hardAlpha" operator="out"/>
<feColorMatrix type="matrix" values="0 0 0 0 0 0 0 0 0 0 0 0 0 0 0 0 0 0 0.15 0"/>
<feBlend mode="normal" in2="BackgroundImageFix" result="effect1_dropShadow_716_13488"/>
<feBlend mode="normal" in="SourceGraphic" in2="effect1_dropShadow_716_13488" result="shape"/>
</filter>
<filter id="filter1_d_716_13488" x="21.2996" y="14.4659" width="17.4031" height="17.4032" filterUnits="userSpaceOnUse" color-interpolation-filters="sRGB">
<feFlood flood-opacity="0" result="BackgroundImageFix"/>
<feColorMatrix in="SourceAlpha" type="matrix" values="0 0 0 0 0 0 0 0 0 0 0 0 0 0 0 0 0 0 127 0" result="hardAlpha"/>
<feOffset/>
<feGaussianBlur stdDeviation="0.878906"/>
<feComposite in2="hardAlpha" operator="out"/>
<feColorMatrix type="matrix" values="0 0 0 0 0 0 0 0 0 0 0 0 0 0 0 0 0 0 0.15 0"/>
<feBlend mode="normal" in2="BackgroundImageFix" result="effect1_dropShadow_716_13488"/>
<feBlend mode="normal" in="SourceGraphic" in2="effect1_dropShadow_716_13488" result="shape"/>
</filter>
<filter id="filter2_d_716_13488" x="14.5776" y="21.4097" width="30.8447" height="30.8448" filterUnits="userSpaceOnUse" color-interpolation-filters="sRGB">
<feFlood flood-opacity="0" result="BackgroundImageFix"/>
<feColorMatrix in="SourceAlpha" type="matrix" values="0 0 0 0 0 0 0 0 0 0 0 0 0 0 0 0 0 0 127 0" result="hardAlpha"/>
<feOffset/>
<feGaussianBlur stdDeviation="0.878906"/>
<feComposite in2="hardAlpha" operator="out"/>
<feColorMatrix type="matrix" values="0 0 0 0 0 0 0 0 0 0 0 0 0 0 0 0 0 0 0.15 0"/>
<feBlend mode="normal" in2="BackgroundImageFix" result="effect1_dropShadow_716_13488"/>
<feBlend mode="normal" in="SourceGraphic" in2="effect1_dropShadow_716_13488" result="shape"/>
</filter>
<linearGradient id="paint0_linear_716_13488" x1="16.3283" y1="9.49588" x2="33.4135" y2="36.2497" gradientUnits="userSpaceOnUse">
<stop stop-color="#05AFF8"/>
<stop offset="1" stop-color="#0592F8"/>
</linearGradient>
<linearGradient id="paint1_linear_716_13488" x1="30.0011" y1="16.2238" x2="30.0011" y2="30.1113" gradientUnits="userSpaceOnUse">
<stop stop-color="#FAFF00"/>
<stop offset="1" stop-color="#FAFF00"/>
</linearGradient>
<linearGradient id="paint2_linear_716_13488" x1="39.8002" y1="27.5864" x2="16.3041" y2="50.4965" gradientUnits="userSpaceOnUse">
<stop stop-color="#17FF4A"/>
<stop offset="1" stop-color="#17FFC7"/>
</linearGradient>
</defs>
</svg>
