<svg width="162" height="30" viewBox="0 0 162 30" fill="none" xmlns="http://www.w3.org/2000/svg">
<path d="M46.2383 22.4883H42.0911L48.0936 7.47363H52.4592L58.4616 22.4883H54.3144L53.4413 20.129H47.1112L46.2383 22.4883ZM49.8834 12.5786L48.312 16.9114H52.2408L50.6694 12.5786C50.4948 12.0923 50.3639 11.5848 50.2765 11.0557C50.1891 11.5848 50.058 12.0923 49.8834 12.5786ZM59.6451 19.3248C59.4414 18.6882 59.3396 18.0268 59.3396 17.3407C59.3396 16.654 59.4414 15.9928 59.6451 15.3566C59.8488 14.7202 60.147 14.1376 60.54 13.6085C60.9331 13.0794 61.4641 12.6575 62.1333 12.3428C62.8028 12.0282 63.5594 11.8711 64.4033 11.8711C65.2766 11.8711 66.0151 12.0355 66.6189 12.3644C67.2227 12.6933 67.67 13.1008 67.9611 13.587V12.1929H71.2354V22.0599C71.2354 23.0464 71.0642 23.9081 70.7225 24.6446C70.3804 25.3812 69.9111 25.9495 69.3145 26.3497C68.7179 26.7501 68.0631 27.0469 67.35 27.24C66.637 27.433 65.8658 27.5295 65.0363 27.5295C63.3773 27.5295 61.8714 27.2077 60.518 26.5643V23.4539C61.6967 24.1691 63.0354 24.5265 64.5345 24.5265C66.528 24.5265 67.5247 23.7757 67.5247 22.2743V21.6523C66.7679 22.4244 65.7277 22.8105 64.4033 22.8105C63.5594 22.8105 62.8028 22.6533 62.1333 22.3387C61.4639 22.0242 60.9329 21.602 60.54 21.0731C60.1471 20.5441 59.849 19.961 59.6451 19.3248ZM67.5249 16.1607C67.3503 15.8033 67.0738 15.4994 66.6955 15.2491C66.3172 14.999 65.8878 14.8738 65.4077 14.8738C64.68 14.8738 64.1235 15.1168 63.7378 15.6031C63.3523 16.0892 63.1595 16.6685 63.1595 17.3407C63.1595 18.0128 63.3523 18.5918 63.7378 19.0781C64.1235 19.5643 64.68 19.8074 65.4077 19.8074C65.8878 19.8074 66.3172 19.6822 66.6955 19.432C67.0736 19.1819 67.3503 18.8779 67.5249 18.5207V16.1607ZM77.3366 13.5867C78.2241 12.3141 79.5921 11.7778 81.4402 11.978V15.5172C80.6979 15.3599 79.9812 15.3849 79.2902 15.5922C78.5989 15.7997 78.0933 16.1465 77.7733 16.6326V22.4881H74.0625V12.1925H77.3368V13.5867H77.3366ZM84.5857 21.3836C83.4578 20.4327 82.8939 19.085 82.8939 17.3405C82.8939 15.596 83.4578 14.2481 84.5857 13.2972C85.7133 12.3463 87.1139 11.8709 88.7874 11.8709C90.4608 11.8709 91.8614 12.3463 92.9891 13.2972C94.1169 14.2481 94.6808 15.596 94.6808 17.3405C94.6808 19.085 94.1169 20.4327 92.9891 21.3836C91.8614 22.3347 90.4608 22.8101 88.7874 22.8101C87.1139 22.8101 85.7133 22.3347 84.5857 21.3836ZM90.359 18.9492C90.6937 18.5205 90.8611 17.984 90.8611 17.3405C90.8611 16.6969 90.6937 16.1607 90.359 15.7318C90.0245 15.3029 89.5005 15.0882 88.7875 15.0882C88.0746 15.0882 87.5506 15.3027 87.216 15.7318C86.8814 16.1607 86.714 16.697 86.714 17.3405C86.714 17.984 86.8814 18.5203 87.216 18.9492C87.5506 19.3783 88.0746 19.5929 88.7875 19.5929C89.5005 19.5929 90.0245 19.3783 90.359 18.9492ZM108.697 22.4883H96.4078V19.8072L103.043 11.0129H96.8005V7.47363H108.5V10.1549L101.843 18.9492H108.697V22.4883ZM128.924 22.4883H125.213V12.1925H128.487V13.2865C128.807 12.9147 129.255 12.5857 129.83 12.2998C130.404 12.0139 131.034 11.8709 131.718 11.8709C133.115 11.8709 134.148 12.3426 134.817 13.2865C135.85 12.3426 136.964 11.8709 138.157 11.8709C138.899 11.8709 139.539 12.0032 140.078 12.2677C140.616 12.5321 141.016 12.8824 141.278 13.3186C141.54 13.7548 141.729 14.1839 141.846 14.6057C141.962 15.0275 142.02 15.453 142.02 15.8819V22.4883H138.31V16.2035C138.31 15.8176 138.197 15.5172 137.971 15.3027C137.746 15.0882 137.458 14.9809 137.109 14.9809C136.542 14.9809 136.032 15.2025 135.581 15.6458V15.8817V22.4881H131.871V16.2035C131.871 15.8176 131.758 15.5172 131.532 15.3027C131.307 15.0882 131.02 14.9809 130.67 14.9809C129.986 14.9809 129.404 15.2811 128.924 15.8817V22.4883H128.924ZM148.405 22.4883H144.694V12.1925H148.405V22.4883ZM148.667 8.71769C148.667 9.38982 148.467 9.89405 148.066 10.2299C147.666 10.566 147.161 10.7339 146.549 10.7339C145.938 10.7339 145.433 10.5658 145.032 10.2299C144.632 9.89405 144.432 9.38982 144.432 8.71769C144.432 8.0599 144.636 7.56293 145.043 7.22695C145.451 6.89098 145.953 6.7229 146.549 6.7229C147.161 6.7229 147.666 6.89098 148.066 7.22695C148.467 7.56293 148.667 8.0599 148.667 8.71769ZM154.47 13.3723C155.415 12.3715 156.529 11.8709 157.809 11.8709C159.177 11.8709 160.218 12.2677 160.931 13.0614C161.644 13.8551 162 14.8669 162 16.0964V22.4885H158.289V16.5898C158.289 16.0607 158.144 15.6601 157.853 15.3885C157.562 15.117 157.176 14.9811 156.696 14.9811C155.983 14.9811 155.386 15.2813 154.906 15.8819V22.4883H151.196V12.1925H154.47L154.47 13.3723ZM119.163 21.0943C118.871 21.5804 118.424 21.9881 117.82 22.3169C117.216 22.6457 116.478 22.8101 115.605 22.8101C114.76 22.8101 114.004 22.6529 113.335 22.3384C112.665 22.0238 112.134 21.6016 111.741 21.0727C111.348 20.5438 111.05 19.961 110.846 19.3248C110.642 18.6882 110.541 18.0268 110.541 17.3407C110.541 16.654 110.642 15.9928 110.846 15.3566C111.05 14.7202 111.348 14.1376 111.741 13.6085C112.134 13.0794 112.665 12.6575 113.335 12.3428C114.004 12.0282 114.76 11.8711 115.605 11.8711C116.478 11.8711 117.216 12.0355 117.82 12.3644C118.424 12.6933 118.871 13.1008 119.163 13.587V12.1929H122.436V22.4887H119.163V21.0943ZM114.939 15.6031C114.553 16.0892 114.36 16.6685 114.36 17.3407C114.36 18.0128 114.553 18.5918 114.939 19.0781C115.324 19.5643 115.881 19.8074 116.609 19.8074C117.089 19.8074 117.518 19.6822 117.896 19.432C118.275 19.1819 118.551 18.8779 118.726 18.5207V16.161C118.551 15.8036 118.275 15.4998 117.896 15.2495C117.518 14.9994 117.089 14.8741 116.609 14.8741C115.881 14.8738 115.324 15.1168 114.939 15.6031Z" fill="white"/>
<path d="M15.2001 7.46875H15.3281C15.3281 11.5765 18.7483 14.9373 22.9282 14.9373V15.0631C18.7481 15.0631 15.3281 18.4239 15.3281 22.5318H15.2001C15.2001 18.4239 11.7799 15.0631 7.59985 15.0631V14.9373C11.7799 14.9373 15.2001 11.5765 15.2001 7.46875Z" fill="#00CD69"/>
<path d="M22.9282 0C27.1255 0 30.5281 3.34389 30.5281 7.46856C30.5281 11.5934 27.1255 14.9371 22.9282 14.9371V7.46873H15.3281C15.3281 3.34389 18.7307 0 22.9282 0Z" fill="#00CD69"/>
<path d="M7.60008 0.000610352C11.7974 0.000610352 15.2 3.3445 15.2 7.46917H7.5999V14.9377C3.40242 14.9377 0 11.594 0 7.46917C0 3.3445 3.4026 0.000610352 7.60008 0.000610352Z" fill="#00CD69"/>
<path d="M22.9282 15.063C27.1255 15.063 30.5281 18.4069 30.5281 22.5314C30.5281 26.6562 27.1255 29.9999 22.9282 29.9999C18.7309 29.9999 15.3283 26.6564 15.3281 22.5317H22.928L22.9282 15.063Z" fill="#00CD69"/>
<path d="M15.2002 22.5317C15.2 26.6564 11.7974 29.9999 7.60025 29.9999C3.4026 29.9999 0 26.6562 0 22.5314C0 18.4069 3.40242 15.0632 7.5999 15.063V22.5317H15.2002Z" fill="#00CD69"/>
</svg>
