<svg width="60" height="60" viewBox="0 0 60 60" fill="none" xmlns="http://www.w3.org/2000/svg">
<path d="M8.875 46.35L12.4 49.875L16.9 45.4L13.35 41.85L8.875 46.35ZM27.5 56.125C28.3 56.125 32.5 56.125 32.5 56.125V48.75H27.5V56.125ZM30 13.75C26.0218 13.75 22.2064 15.3304 19.3934 18.1434C16.5804 20.9564 15 24.7718 15 28.75C15 32.7283 16.5804 36.5436 19.3934 39.3566C22.2064 42.1697 26.0218 43.75 30 43.75C33.9782 43.75 37.7936 42.1697 40.6066 39.3566C43.4197 36.5436 45 32.7283 45 28.75C45 20.45 38.275 13.75 30 13.75ZM50 31.25H57.5V26.25H50V31.25ZM43.1 45.4L47.6 49.875L51.125 46.35L46.65 41.85L43.1 45.4ZM51.125 11.15L47.6 7.625L43.1 12.1L46.65 15.65L51.125 11.15ZM32.5 1.375H27.5V8.75H32.5V1.375ZM10 26.25H2.5V31.25H10V26.25ZM16.9 12.1L12.4 7.625L8.875 11.15L13.35 15.65L16.9 12.1Z" fill="#FFB300"/>
</svg>
