<svg width="50" height="50" viewBox="0 0 50 50" fill="none" xmlns="http://www.w3.org/2000/svg">
<g clip-path="url(#clip0_179_8850)">
<path d="M38.2848 50H5.85827V46.9194C5.74606 46.8841 5.65603 46.8541 5.5634 46.828C2.09803 45.8372 0.00130473 43.0777 0 39.4841C0 29.5504 0.00479804 19.6163 0.0143661 9.68176C0.0060579 8.8201 0.127004 7.96208 0.373168 7.13633C1.41043 3.85208 3.75896 2.0024 7.10168 1.56381C10.5149 1.11607 13.2104 2.43447 15.0279 5.40283C15.2354 5.74353 15.4454 5.8597 15.8277 5.85056C16.9185 5.82707 18.0092 5.84273 19.0987 5.84273H20.5626V2.87959H16.2152V0H27.9135V2.90831H23.5635V5.87014H30.8857V11.7364H38.1922V20.5866H35.3218V41.1341C36.4725 41.1341 37.5959 41.2137 38.7049 41.1184C41.2022 40.9043 43.2337 39.2231 43.8651 36.8108C44.0961 35.9297 44.0648 34.9833 44.1261 34.0552C44.16 33.4952 44.1261 32.93 44.1261 32.3243H41.2126V20.5657H44.1326C44.1326 20.0684 44.1235 19.6324 44.1326 19.1964C44.1523 18.0606 44.6013 16.9744 45.3891 16.1563C46.652 14.7974 48.2595 14.5494 50 14.7204V17.6522C49.5616 17.6522 49.1219 17.6261 48.6835 17.6418C47.9085 17.6692 47.2183 18.2279 47.1087 18.9928C47.0356 19.4954 47.0944 20.0175 47.0944 20.584H50V32.3112H47.0604C47.0604 33.3895 47.0748 34.3802 47.0604 35.3697C46.9978 38.9241 44.7706 42.1823 41.4501 43.4472C40.448 43.8296 39.3625 43.9941 38.2352 44.28C38.2352 44.8139 38.2352 45.4548 38.2352 46.1075C38.2517 47.4032 38.2683 48.7007 38.2848 50ZM11.7987 41.1458H32.3183V20.6023H11.7961L11.7987 41.1458ZM5.89872 20.5618V11.7207H13.2392C13.2392 10.978 13.2587 10.3109 13.2392 9.64651C13.1217 6.05028 10.2696 3.78812 6.83421 4.55566C4.46742 5.08563 2.94348 7.12458 2.94218 9.7888C2.94218 19.6912 2.94218 29.5935 2.94218 39.4959C2.9366 39.8537 2.96852 40.2112 3.03742 40.5623C3.37926 42.1405 4.3239 43.2096 5.88305 43.8596V41.1641H8.78216V20.5618H5.89872ZM8.84479 47.0303H35.2552V44.1481H8.84218L8.84479 47.0303ZM35.2656 14.7243H8.86177V17.5961H35.263L35.2656 14.7243ZM16.2322 8.81109V11.692H27.9174V8.81109H16.2322ZM47.0317 29.3703V23.538H44.1613V29.3703H47.0317Z" fill="#22A33F"/>
<path d="M22.0514 38.2169C18.0302 38.2104 14.6705 34.883 14.6653 30.9004C14.6653 26.9426 18.1411 23.4691 22.1023 23.4834C26.1391 23.4978 29.4231 26.8382 29.4088 30.9135C29.4057 31.8765 29.2129 32.8296 28.8413 33.718C28.4698 34.6065 27.9268 35.4129 27.2435 36.0912C26.5601 36.7696 25.7498 37.3064 24.8589 37.6712C23.968 38.0359 23.014 38.2214 22.0514 38.2169ZM20.29 34.8635C21.703 35.7106 23.9719 35.2799 25.278 33.8831C26.5266 32.5465 26.8645 30.3039 26.0478 29.103L20.29 34.8635ZM23.8637 26.8604C22.1336 26.0341 20.0538 26.4792 18.7347 27.9699C17.5866 29.2674 17.2995 31.4043 18.0824 32.6548L23.8637 26.8604Z" fill="#FFAA46"/>
</g>
<defs>
<clipPath id="clip0_179_8850">
<rect width="50" height="50" fill="white"/>
</clipPath>
</defs>
</svg>
