<svg width="50" height="50" viewBox="0 0 50 50" fill="none" xmlns="http://www.w3.org/2000/svg">
<path d="M36.008 49.9987C35.6623 49.9191 35.3141 49.8474 34.9711 49.7561C33.3906 49.3435 31.9924 48.4165 30.9971 47.1213C30.0019 45.8261 29.4661 44.2364 29.4745 42.603C29.4627 37.4442 29.4745 32.2855 29.4745 27.1268V26.4889H26.5684V23.5372H35.3258V11.7875C35.1328 11.7797 34.9462 11.7679 34.7584 11.7627C33.7997 11.7314 32.8227 11.8123 31.8888 11.6518C28.9723 11.1601 26.8658 8.9753 26.6049 6.00005C26.4314 4.03308 26.5723 2.04002 26.5723 0H27.7331C29.0675 0 30.4019 0 31.7375 0C35.4615 0.00782616 38.2437 2.74959 38.3089 6.48006C38.3193 7.07615 38.3089 7.67354 38.3089 8.25007C38.3858 8.27225 38.4067 8.28529 38.4158 8.27877C39.938 7.36572 41.6142 7.29397 43.3216 7.33571C44.5711 7.36571 45.8207 7.33571 47.1042 7.33571C47.1159 7.53528 47.1316 7.6918 47.1316 7.84963C47.1316 9.42791 47.1316 11.0062 47.1316 12.5845C47.1172 16.2784 44.2881 19.1063 40.602 19.1167H38.3441V23.5254H47.1133V26.4433H44.2007V27.0733C44.2007 32.232 44.2085 37.3908 44.2007 42.5495C44.1942 45.9982 41.9832 48.8769 38.7093 49.7561C38.3676 49.8474 38.0206 49.9191 37.675 50L36.008 49.9987ZM38.3141 38.1995H35.3558V35.322H32.4745C32.4471 35.386 32.4236 35.4147 32.4236 35.4434C32.4236 37.9308 32.3362 40.4221 32.4523 42.9043C32.5828 45.5939 34.9541 47.4095 37.5693 46.9843C39.7267 46.6348 41.232 44.8139 41.2489 42.4921C41.2646 40.2317 41.2489 37.9712 41.2489 35.7094C41.2489 35.579 41.2267 35.4603 41.2137 35.3286H38.3102L38.3141 38.1995ZM44.1642 10.3266C43.2107 10.3266 42.2976 10.2627 41.3976 10.3397C40.5875 10.4109 39.8306 10.7732 39.2671 11.3596C38.7036 11.9459 38.3715 12.7165 38.3324 13.5288C38.288 14.2893 38.3207 15.0562 38.305 15.8193C38.305 16.0801 38.3858 16.1975 38.6676 16.191C39.3667 16.1741 40.0672 16.2106 40.765 16.1754C42.6015 16.0814 43.949 14.8827 44.1472 13.0788C44.2451 12.1827 44.1642 11.2671 44.1642 10.3266ZM29.5345 3.03394C29.5345 3.96003 29.4445 4.93961 29.5554 5.8944C29.6279 6.5983 29.9324 7.2581 30.4209 7.77002C30.9095 8.28193 31.5543 8.61691 32.2541 8.72225C33.2506 8.86573 34.2837 8.74964 35.3402 8.74964C35.3402 7.88615 35.3754 7.01224 35.3324 6.14092C35.2593 4.65265 34.1389 3.27133 32.6702 3.06263C31.6423 2.91524 30.5766 3.03394 29.5345 3.03394ZM32.4484 26.4954V32.3025H35.3324V26.4954H32.4484ZM41.2137 32.3181V26.4954H38.3441V32.3181H41.2137Z" fill="#22A33F"/>
<path d="M12.4682 49.9988C12.1238 49.9179 11.7769 49.8462 11.4338 49.7549C9.86278 49.3423 8.47237 48.4216 7.47931 47.1362C6.48626 45.8508 5.94638 44.273 5.94379 42.6487C5.92553 39.9096 5.94379 37.1808 5.94379 34.4469V33.8286H3.0429V30.8847H11.7977V20.5933C10.9995 20.5933 10.2077 20.6103 9.41598 20.5933C7.18292 20.5346 5.40767 19.5968 4.12157 17.7681C3.42564 16.7937 3.04136 15.6313 3.0194 14.4341C2.98418 12.6459 3.00768 10.855 3.00768 9.06539C3.01177 9.0061 3.02049 8.94723 3.03376 8.8893C3.0768 8.86452 3.1042 8.83452 3.13159 8.83452C5.03465 8.83452 6.94684 8.72886 8.83946 8.87625C12.3351 9.14626 14.743 11.8515 14.7808 15.3576C14.7808 15.9394 14.7808 16.5224 14.7808 17.1263C15.3352 16.8968 15.8243 16.6294 16.3461 16.4911C16.9558 16.323 17.5831 16.2267 18.2152 16.2041C19.9865 16.1663 21.7591 16.1898 23.5096 16.1898C23.55 16.2472 23.5852 16.2733 23.5852 16.2994C23.5644 18.3642 23.6792 20.442 23.4835 22.4899C23.1965 25.4977 20.4378 27.8677 17.4078 27.9329C16.5495 27.9512 15.6913 27.9329 14.8069 27.9329V30.856H23.5617V33.7986H20.6622V34.4013C20.6622 37.0526 20.6622 39.7048 20.6622 42.3578C20.6622 46.3192 18.1969 49.2475 14.3034 49.9231C14.2426 49.9415 14.1841 49.9665 14.1286 49.9975L12.4682 49.9988ZM17.64 39.757H14.7573V42.6344H11.8303V39.7557H8.94121C8.94121 40.9491 8.85511 42.1035 8.95945 43.25C9.1538 45.367 11.0699 47.0235 13.2299 47.0601C15.3652 47.0953 17.3648 45.5196 17.6139 43.4405C17.7574 42.2418 17.64 41.0118 17.64 39.757ZM11.8095 17.7002C11.8095 16.735 11.8603 15.8598 11.7977 14.9924C11.6921 13.5015 10.8847 12.4711 9.48773 11.9728C8.34511 11.5658 7.1477 11.8202 5.95812 11.7589C5.95812 12.7137 5.89814 13.5941 5.97248 14.4641C6.10292 16.0163 7.19465 17.305 8.65944 17.5398C9.67424 17.7029 10.723 17.6533 11.8095 17.7002ZM20.7078 19.135C19.77 19.135 18.9287 19.0998 18.09 19.1429C16.616 19.2185 15.5739 19.9777 15.0273 21.3329C14.5525 22.5068 14.8487 23.7564 14.7808 24.9851C15.7356 24.9851 16.6148 25.032 17.4861 24.9747C18.9613 24.8781 20.3022 23.759 20.5369 22.3203C20.7052 21.2938 20.657 20.2294 20.7078 19.1324V19.135ZM11.8251 36.7256C11.8251 35.823 11.833 34.9491 11.8147 34.0765C11.7991 34.0151 11.7678 33.9587 11.7239 33.913C11.68 33.8673 11.625 33.8337 11.5643 33.8156C10.6903 33.796 9.81641 33.8039 8.92032 33.8039V36.7256H11.8251ZM17.6882 36.7256V33.856H14.8186V36.7256H17.6882Z" fill="#FFAA46"/>
</svg>
