<svg width="150" height="50" viewBox="0 0 150 50" fill="none" xmlns="http://www.w3.org/2000/svg">
<rect width="150" height="50" rx="8" fill="white"/>
<path d="M75.2312 26.2232C72.9698 26.2232 71.1267 27.9325 71.1267 30.2867C71.1267 32.6266 72.9698 34.3503 75.2312 34.3503C77.4935 34.3503 79.3366 32.6266 79.3366 30.2867C79.3357 27.9325 77.4926 26.2232 75.2312 26.2232ZM75.2312 32.7509C73.9919 32.7509 72.9237 31.7352 72.9237 30.2877C72.9237 28.8249 73.9928 27.8245 75.2312 27.8245C76.4705 27.8245 77.5387 28.8249 77.5387 30.2877C77.5387 31.7343 76.4705 32.7509 75.2312 32.7509ZM66.2761 26.2232C64.0148 26.2232 62.1717 27.9325 62.1717 30.2867C62.1717 32.6266 64.0148 34.3503 66.2761 34.3503C68.5385 34.3503 70.3816 32.6266 70.3816 30.2867C70.3816 27.9325 68.5385 26.2232 66.2761 26.2232ZM66.2761 32.7509C65.0368 32.7509 63.9686 31.7352 63.9686 30.2877C63.9686 28.8249 65.0378 27.8245 66.2761 27.8245C67.5155 27.8245 68.5837 28.8249 68.5837 30.2877C68.5846 31.7343 67.5155 32.7509 66.2761 32.7509ZM55.6251 27.471V29.1947H59.7767C59.6526 30.1644 59.3277 30.8724 58.8316 31.3645C58.2278 31.9645 57.2826 32.6266 55.6251 32.6266C53.0695 32.6266 51.0716 30.5791 51.0716 28.0395C51.0716 25.4999 53.0695 23.4524 55.6251 23.4524C57.0038 23.4524 58.0105 23.9913 58.7537 24.684L59.9776 23.4677C58.9392 22.4826 57.5615 21.7288 55.6251 21.7288C52.1244 21.7288 49.1814 24.5607 49.1814 28.0395C49.1814 31.5183 52.1244 34.3503 55.6251 34.3503C57.5143 34.3503 58.9402 33.734 60.0545 32.5798C61.2006 31.4409 61.5573 29.8396 61.5573 28.5469C61.5573 28.1475 61.5265 27.7777 61.464 27.4701H55.6251V27.471ZM99.187 28.8096C98.8466 27.9019 97.8082 26.2232 95.6863 26.2232C93.5797 26.2232 91.8289 27.8704 91.8289 30.2867C91.8289 32.5645 93.5643 34.3503 95.8872 34.3503C97.7611 34.3503 98.8456 33.2114 99.2956 32.5493L97.9015 31.6253C97.4371 32.3027 96.8016 32.7489 95.8872 32.7489C94.9738 32.7489 94.3229 32.3333 93.9047 31.5174L99.3725 29.2701L99.187 28.8096ZM93.6105 30.1644C93.5643 28.5937 94.8344 27.794 95.7488 27.794C96.4612 27.794 97.065 28.1484 97.2669 28.6558L93.6105 30.1644ZM89.1656 34.1047H90.9617V22.1606H89.1656V34.1047ZM86.2217 27.1318H86.1601C85.7573 26.6541 84.9823 26.2232 84.0074 26.2232C81.9624 26.2232 80.0885 28.0089 80.0885 30.303C80.0885 32.5808 81.9624 34.3512 84.0074 34.3512C84.9833 34.3512 85.7573 33.9203 86.1601 33.4283H86.2217V34.013C86.2217 35.5675 85.3852 36.3988 84.0382 36.3988C82.9383 36.3988 82.2566 35.6143 81.9778 34.9522L80.4135 35.5991C80.8625 36.6759 82.0547 38.0001 84.0382 38.0001C86.1447 38.0001 87.9263 36.7685 87.9263 33.7665V26.4707H86.2226V27.1318H86.2217ZM84.1622 32.7509C82.9229 32.7509 81.8855 31.719 81.8855 30.303C81.8855 28.8708 82.9229 27.8245 84.1622 27.8245C85.3852 27.8245 86.3457 28.8708 86.3457 30.303C86.3457 31.719 85.3852 32.7509 84.1622 32.7509ZM107.604 22.1606H103.305V34.1047H105.098V29.5797H107.603C109.591 29.5797 111.547 28.1494 111.547 25.8706C111.547 23.5919 109.592 22.1606 107.604 22.1606ZM107.65 27.9172H105.098V23.8231H107.65C108.991 23.8231 109.752 24.9267 109.752 25.8706C109.752 26.7955 108.991 27.9172 107.65 27.9172ZM118.737 26.2022C117.438 26.2022 116.093 26.7707 115.537 28.0309L117.129 28.6911C117.469 28.0309 118.104 27.815 118.768 27.815C119.696 27.815 120.639 28.3682 120.654 29.3514V29.4746C120.329 29.2902 119.633 29.0141 118.783 29.0141C117.067 29.0141 115.319 29.9514 115.319 31.7027C115.319 33.3012 116.727 34.3302 118.304 34.3302C119.509 34.3302 120.175 33.7923 120.592 33.1617H120.654V34.0837H122.386V29.5042C122.387 27.385 120.793 26.2022 118.737 26.2022ZM118.52 32.748C117.934 32.748 117.113 32.4556 117.113 31.7333C117.113 30.8113 118.134 30.4578 119.016 30.4578C119.804 30.4578 120.176 30.6269 120.654 30.8572C120.515 31.9645 119.556 32.748 118.52 32.748ZM128.695 26.463L126.639 31.6416H126.577L124.443 26.463H122.51L125.711 33.7006L123.886 37.7269H125.757L130.69 26.463H128.695ZM112.537 34.1047H114.33V22.1606H112.537V34.1047Z" fill="#9FA2A6"/>
<path d="M55.3116 15.2275C55.3116 16.0281 55.0732 16.6654 54.5953 17.1412C54.053 17.7069 53.3454 17.9897 52.4762 17.9897C51.6436 17.9897 50.935 17.703 50.3533 17.1298C49.7707 16.5555 49.4794 15.8447 49.4794 14.9963C49.4794 14.1469 49.7707 13.436 50.3533 12.8627C50.935 12.2885 51.6436 12.0019 52.4762 12.0019C52.8897 12.0019 53.2848 12.0821 53.6598 12.2417C54.0357 12.4022 54.3367 12.6153 54.5617 12.8818L54.055 13.3863C53.6733 12.9325 53.1473 12.706 52.4753 12.706C51.8676 12.706 51.3427 12.9181 50.8994 13.3424C50.4562 13.7666 50.2351 14.3179 50.2351 14.9953C50.2351 15.6727 50.4562 16.224 50.8994 16.6482C51.3427 17.0724 51.8676 17.2846 52.4753 17.2846C53.1195 17.2846 53.6569 17.0715 54.0867 16.6444C54.3655 16.3664 54.527 15.9794 54.5703 15.4835H52.4753V14.7947H55.2702C55.2991 14.9447 55.3116 15.0889 55.3116 15.2275Z" fill="#9FA2A6"/>
<path d="M59.744 12.8332H57.1173V14.6504H59.4863V15.3393H57.1173V17.1566H59.744V17.8617H56.376V12.129H59.744V12.8332Z" fill="#9FA2A6"/>
<path d="M62.8696 17.8617H62.1283V12.8332H60.5169V12.129H64.481V12.8332H62.8696V17.8617Z" fill="#9FA2A6"/>
<path d="M67.349 17.8617V12.129H68.0903V17.8617H67.349Z" fill="#9FA2A6"/>
<path d="M71.3777 17.8617H70.6364V12.8332H69.025V12.129H72.9891V12.8332H71.3777V17.8617Z" fill="#9FA2A6"/>
<path d="M80.4931 17.1212C79.9258 17.7002 79.2211 17.9897 78.3779 17.9897C77.5347 17.9897 76.8299 17.7002 76.2636 17.1212C75.6964 16.5422 75.4137 15.8333 75.4137 14.9953C75.4137 14.1574 75.6964 13.4485 76.2636 12.8695C76.8299 12.2905 77.5347 12 78.3779 12C79.2163 12 79.9201 12.2914 80.4893 12.8733C81.0584 13.4552 81.343 14.1622 81.343 14.9953C81.343 15.8333 81.0594 16.5422 80.4931 17.1212ZM76.8107 16.6406C77.2376 17.0706 77.7597 17.2846 78.3779 17.2846C78.9961 17.2846 79.5191 17.0696 79.9451 16.6406C80.372 16.2107 80.5864 15.6622 80.5864 14.9953C80.5864 14.3284 80.372 13.78 79.9451 13.3501C79.5191 12.9201 78.9961 12.7061 78.3779 12.7061C77.7597 12.7061 77.2376 12.9211 76.8107 13.3501C76.3848 13.78 76.1704 14.3284 76.1704 14.9953C76.1704 15.6622 76.3848 16.2107 76.8107 16.6406Z" fill="#9FA2A6"/>
<path d="M82.3834 17.8617V12.129H83.2852L86.0888 16.5881H86.1206L86.0888 15.4836V12.129H86.8301V17.8617H86.0561L83.1227 13.1857H83.091L83.1227 14.2902V17.8617H82.3834Z" fill="#9FA2A6"/>
<path fill-rule="evenodd" clip-rule="evenodd" d="M19.4771 13.0728C19.3692 13.3245 19.3098 13.6307 19.3098 13.9852V35.116C19.3098 35.4714 19.3693 35.7776 19.4774 36.0293L31.0269 24.5503L19.4771 13.0728ZM20.1753 36.7455C20.6014 36.9173 21.1526 36.8559 21.7529 36.5176L35.3455 28.8419L31.7362 25.2552L20.1753 36.7455ZM36.2507 28.3317L40.5023 25.9312C41.8455 25.1717 41.8455 23.9305 40.5023 23.1719L36.2489 20.7701L32.4455 24.5503L36.2507 28.3317ZM35.3443 20.2593L21.7529 12.5845C21.1525 12.2455 20.6012 12.1844 20.1751 12.3566L31.7361 23.8454L35.3443 20.2593Z" fill="#9FA2A6"/>
</svg>
