<svg width="20" height="20" viewBox="0 0 20 20" fill="none" xmlns="http://www.w3.org/2000/svg">
<path d="M9.26296 17.9996C8.99363 17.9791 8.7243 17.9599 8.45539 17.9378C7.55136 17.8639 6.6511 17.7578 5.78925 17.4626C5.47811 17.3608 5.1829 17.2156 4.91236 17.0312C4.34364 16.627 4.35407 15.9953 4.90776 15.5673C5.27397 15.2842 5.70532 15.1401 6.14585 15.0353C6.58012 14.9317 7.02273 14.862 7.46159 14.7772C7.51087 14.7676 7.56013 14.7568 7.61942 14.7443C7.30124 14.3952 6.98599 14.0636 6.68701 13.7183C5.78048 12.6702 4.99253 11.547 4.45679 10.2559C2.99532 6.74163 5.20841 2.92969 8.71178 2.14801C9.4972 1.97104 10.31 1.95257 11.1027 2.09366C11.8953 2.23475 12.6519 2.53258 13.328 2.9697C14.0041 3.40681 14.5862 3.97444 15.0402 4.63932C15.4942 5.30421 15.811 6.053 15.972 6.84185C16.2463 8.1672 16.0271 9.42699 15.4625 10.6417C14.9356 11.775 14.2153 12.7784 13.4006 13.7179C13.1012 14.0632 12.7868 14.3952 12.469 14.7447C12.7847 14.799 13.0954 14.8282 13.3939 14.9092C13.8699 15.0345 14.3439 15.176 14.8045 15.348C15.0015 15.4215 15.1844 15.5681 15.3369 15.7188C15.6868 16.0642 15.6884 16.5648 15.3256 16.8989C15.12 17.0813 14.8865 17.2296 14.6341 17.3382C13.9769 17.6305 13.272 17.7532 12.5638 17.8392C12.0272 17.9044 11.4857 17.9324 10.9462 17.9779C10.9044 17.9816 10.8652 17.9925 10.8251 18L9.26296 17.9996ZM10.0254 15.6884C10.1089 15.619 10.1641 15.579 10.2129 15.533C10.8426 14.9418 11.4928 14.3701 12.0961 13.7534C13.0352 12.793 13.8599 11.742 14.4763 10.5381C15.0191 9.47459 15.2859 8.36679 15.0842 7.16128C14.6967 4.84213 12.6097 2.99525 10.2593 2.93762C8.50175 2.89586 7.05906 3.56397 5.98634 4.95571C5.10277 6.099 4.7683 7.40598 5.01466 8.83739C5.1558 9.6579 5.50697 10.4016 5.93121 11.111C6.61686 12.2585 7.4762 13.2673 8.42658 14.201C8.94185 14.7071 9.4826 15.1869 10.0254 15.6884ZM14.5861 16.3406L14.5811 16.2884C14.5381 16.2601 14.4936 16.234 14.4479 16.2103C14.3347 16.1581 14.222 16.1026 14.1046 16.0621C13.3208 15.7936 12.5074 15.6817 11.6865 15.619C11.6073 15.6168 11.5298 15.6422 11.4673 15.6909C11.0272 16.0489 10.591 16.4116 10.1586 16.779C10.0751 16.8509 10.0162 16.8492 9.93274 16.779C9.49986 16.413 9.06392 16.05 8.62492 15.69C8.57732 15.6512 8.50759 15.6107 8.45122 15.6149C7.74428 15.6646 7.04235 15.7573 6.3588 15.9489C6.06651 16.0324 5.78591 16.1535 5.49988 16.2579V16.3277C5.64853 16.3953 5.79217 16.4755 5.94625 16.5293C6.90915 16.8667 7.91298 16.9665 8.92181 17.0304C9.8321 17.0865 10.7453 17.0754 11.6539 16.9974C12.4377 16.9319 13.2173 16.8304 13.9697 16.5903C14.1785 16.5206 14.3794 16.4241 14.5844 16.3406H14.5861Z" fill="#B7BBBF"/>
<path d="M10.0459 4.09762C11.0919 4.10028 12.0942 4.51782 12.8328 5.25863C13.5713 5.99943 13.9858 7.00298 13.9852 8.04903C13.9827 10.2237 12.2018 12 10.035 11.9892C8.98895 11.9844 7.98747 11.5649 7.25036 10.8226C6.51324 10.0803 6.1007 9.07592 6.10326 8.02982C6.10952 5.86099 7.87999 4.0947 10.0459 4.09762ZM7.03943 8.04444C7.04031 8.8398 7.35596 9.60248 7.91743 10.1658C8.4789 10.7292 9.24052 11.0474 10.0359 11.0509C11.6915 11.0576 13.0461 9.70342 13.0461 8.04152C13.0452 7.24608 12.7295 6.48334 12.168 5.91998C11.6064 5.35663 10.8447 5.03847 10.0492 5.03505C9.25128 5.03527 8.48609 5.35245 7.92197 5.9168C7.35784 6.48116 7.04099 7.24648 7.04111 8.04444H7.03943Z" fill="#B7BBBF"/>
</svg>
