<svg width="80" height="80" viewBox="0 0 80 80" fill="none" xmlns="http://www.w3.org/2000/svg">
<path d="M39.8323 19.9171H40.1676C40.1676 30.8711 49.1304 39.8333 60.084 39.8333V40.1686C49.1299 40.1686 40.1676 49.1308 40.1676 60.0852H39.8323C39.8323 49.1308 30.8696 40.1686 19.9155 40.1686V39.8333C30.8696 39.8333 39.8323 30.8711 39.8323 19.9171Z" fill="#CFD3D8"/>
<path d="M60.0843 0C71.0835 0 80.0002 8.91703 80.0002 19.9161C80.0002 30.9157 71.0835 39.8323 60.0843 39.8323V19.9166H40.168C40.168 8.91703 49.0846 0 60.0843 0Z" fill="#CFD3D8"/>
<path d="M19.9163 0C30.9155 0 39.8322 8.91703 39.8322 19.9161H19.9159V39.8323C8.91619 39.8323 0 30.9157 0 19.9161C0 8.91703 8.91665 0 19.9163 0Z" fill="#CFD3D8"/>
<path d="M60.0843 40.1682C71.0835 40.1682 80.0002 49.0852 80.0002 60.0838C80.0002 71.0834 71.0835 80 60.0843 80C49.0851 80 40.1684 71.0839 40.168 60.0848H60.0838L60.0843 40.1682Z" fill="#CFD3D8"/>
<path d="M39.8326 60.0848C39.8322 71.0839 30.9155 80 19.9168 80C8.91665 80 0 71.0834 0 60.0838C0 49.0852 8.91619 40.1686 19.9159 40.1682V60.0848H39.8326Z" fill="#CFD3D8"/>
</svg>
