<svg width="300" height="100" viewBox="0 0 300 100" fill="none" xmlns="http://www.w3.org/2000/svg">
<rect width="300" height="100" rx="12" fill="white"/>
<g clip-path="url(#clip0_1423_49886)">
<path d="M97 50.8262H101.436L102.693 47.467H109.199L110.431 50.8262H114.99L108.262 33.564H99.6616V36.2612H102.668L97 50.8262ZM103.802 44.1322L105.946 38.1738L108.065 44.1322H103.802Z" fill="black"/>
<path d="M122.706 56C126.624 56 129.779 53.9403 129.779 49.9925V38.1002H125.787V39.8657C125.22 38.9094 123.889 37.7815 121.843 37.7815C118.59 37.7815 116.052 40.1599 116.052 44.1812C116.052 48.2026 118.59 50.5565 121.843 50.5565C123.692 50.5565 124.973 49.6247 125.614 48.742V49.919C125.614 52.1748 123.741 52.8859 121.967 52.8859C120.242 52.8859 118.689 52.3955 117.284 51.4392V54.7495C118.59 55.5096 120.316 56 122.706 56ZM120.266 44.1812C120.266 42.2196 121.326 40.9936 123.002 40.9936C123.988 40.9936 124.85 41.3124 125.614 41.9989V46.3881C124.85 47.0746 123.988 47.3934 123.002 47.3934C121.326 47.3934 120.266 46.1429 120.266 44.1812Z" fill="black"/>
<path d="M134.088 50.8262H138.278V42.6119C138.894 42.0235 139.904 41.5821 141.432 41.5821C142.049 41.5821 142.665 41.6802 143.034 41.7783V38.1493C142.812 38.0512 142.369 37.9776 141.95 37.9776C139.904 37.9776 138.623 39.032 138.081 40.3316V38.1002H131.501V40.7974H134.088V50.8262Z" fill="black"/>
<path d="M151.451 37.7815C147.385 37.7815 144.28 40.4296 144.28 44.451C144.28 48.4968 147.385 51.145 151.451 51.145C155.444 51.145 158.573 48.4968 158.573 44.451C158.573 40.4296 155.444 37.7815 151.451 37.7815ZM148.494 44.451C148.494 42.5139 149.726 41.1162 151.451 41.1162C153.152 41.1162 154.384 42.5139 154.384 44.451C154.384 46.4126 153.152 47.8102 151.451 47.8102C149.726 47.8102 148.494 46.4126 148.494 44.451Z" fill="black"/>
<path d="M169.918 51.145C172.53 51.145 174.231 50.5075 175.315 49.6002V46.0203C174.009 47.0011 172.506 47.516 170.534 47.516C167.38 47.516 164.94 45.3582 164.94 42.1951C164.94 39.032 167.38 36.8742 170.534 36.8742C171.273 36.8742 171.963 36.9478 172.604 37.0949V40.0618H175.315V34.79C174.354 34.0053 172.629 33.2452 169.918 33.2452C164.965 33.2452 160.479 36.7516 160.479 42.1951C160.479 47.6141 164.965 51.145 169.918 51.145Z" fill="black"/>
<path d="M184.494 37.7815C180.428 37.7815 177.323 40.4296 177.323 44.451C177.323 48.4968 180.428 51.145 184.494 51.145C188.487 51.145 191.617 48.4968 191.617 44.451C191.617 40.4296 188.487 37.7815 184.494 37.7815ZM181.537 44.451C181.537 42.5139 182.769 41.1162 184.494 41.1162C186.195 41.1162 187.427 42.5139 187.427 44.451C187.427 46.4126 186.195 47.8102 184.494 47.8102C182.769 47.8102 181.537 46.4126 181.537 44.451Z" fill="black"/>
<path d="M199.215 50.8262V42.0235C199.758 41.484 200.546 41.2388 201.384 41.2388C202.912 41.2388 203.75 41.9989 203.75 43.5437V50.8262H207.939V42.2687C207.939 39.3753 205.992 37.7815 203.232 37.7815C201.236 37.7815 199.831 38.7868 199.018 39.8166V38.1002H192.389V40.7974H195.026V50.8262H199.215Z" fill="black"/>
<path d="M210.713 46.6333V49.8699C211.723 50.581 214.015 51.145 216.43 51.145C219.782 51.145 222.37 49.6002 222.37 46.952C222.37 44.3774 220.102 43.4211 217.712 42.9552L216.455 42.71C215.198 42.4648 214.631 42.2687 214.631 41.7537C214.631 41.1652 215.395 40.871 216.677 40.871C218.303 40.871 220.078 41.3614 221.556 42.2196V39.032C220.546 38.3209 218.772 37.7815 216.504 37.7815C212.956 37.7815 210.442 39.4733 210.442 41.9009C210.442 44.3038 212.512 45.4563 215.247 45.9467L216.48 46.1674C217.712 46.3881 218.18 46.5842 218.18 47.0991C218.18 47.7612 217.244 48.0554 215.864 48.0554C214.089 48.0554 211.896 47.3198 210.713 46.6333Z" fill="black"/>
<path d="M233.424 38.1002V46.8785C232.881 47.4179 232.068 47.6631 231.255 47.6631C229.702 47.6631 228.889 46.9275 228.889 45.3582V38.1002H224.7V46.6578C224.7 49.5512 226.646 51.145 229.407 51.145C231.403 51.145 232.807 50.1151 233.621 49.0853V50.8262H237.613V38.1002H233.424Z" fill="black"/>
<path d="M245.318 33H238.492V35.6972H241.128V50.8262H245.318V33Z" fill="black"/>
<path d="M253.796 46.0693V41.2143H257V38.1002H253.796V34.839H249.607V38.1002H247.537V41.2143H249.607V46.5352C249.607 49.6247 251.554 51.145 254.585 51.145C255.447 51.145 256.532 50.9243 257 50.6546V47.5896C256.729 47.7367 256.211 47.8348 255.645 47.8348C254.511 47.8348 253.796 47.2708 253.796 46.0693Z" fill="black"/>
<path d="M98.3818 60.6379V68.3524H99.3571V61.5364H103.39V68.3524H104.365V60.6379H98.3818Z" fill="#7C7C7C"/>
<path d="M106.126 70.4453H107.069V67.651C107.364 68.0674 107.89 68.4729 108.756 68.4729C110.038 68.4729 111.145 67.4319 111.145 65.5909C111.145 63.75 110.038 62.709 108.756 62.709C107.847 62.709 107.321 63.1473 107.036 63.5966V62.8295H106.126V70.4453ZM107.069 66.884V64.2979C107.43 63.8486 107.978 63.5637 108.603 63.5637C109.578 63.5637 110.192 64.3855 110.192 65.5909C110.192 66.8073 109.578 67.6182 108.603 67.6182C107.978 67.6182 107.43 67.3333 107.069 66.884Z" fill="#7C7C7C"/>
<path d="M114.86 62.709C113.282 62.709 112.176 63.9143 112.176 65.5909C112.176 67.2675 113.282 68.4729 114.86 68.4729C116.438 68.4729 117.556 67.2675 117.556 65.5909C117.556 63.9143 116.438 62.709 114.86 62.709ZM113.129 65.5909C113.129 64.3855 113.841 63.5637 114.86 63.5637C115.89 63.5637 116.592 64.3855 116.592 65.5909C116.592 66.7963 115.89 67.6182 114.86 67.6182C113.841 67.6182 113.129 66.7963 113.129 65.5909Z" fill="#7C7C7C"/>
<path d="M118.543 65.558C118.543 67.3223 119.748 68.4729 121.48 68.4729C122.378 68.4729 123.058 68.177 123.397 67.8921V66.9388C122.981 67.3004 122.356 67.6072 121.534 67.6072C120.274 67.6072 119.529 66.7415 119.529 65.8649H123.463V65.2622C123.463 63.7938 122.532 62.709 121.085 62.709C119.595 62.709 118.543 63.8595 118.543 65.558ZM119.529 65.0759C119.617 64.1992 120.187 63.5527 121.074 63.5527C121.951 63.5527 122.488 64.2431 122.532 65.0759H119.529Z" fill="#7C7C7C"/>
<path d="M124.875 68.3524H125.817V65.832H126.518L128.348 68.3524H129.477L127.34 65.4046L129.444 62.8295H128.337L126.54 65.043H125.817V62.8295H124.875V68.3524Z" fill="#7C7C7C"/>
<path d="M130.086 63.6733H131.993V68.3524H132.935V63.6733H134.853V62.8295H130.086V63.6733Z" fill="#7C7C7C"/>
<path d="M137.821 68.3524H138.851L139.585 66.3142H142.817L143.563 68.3524H144.604L141.722 60.6379H140.703L137.821 68.3524ZM139.914 65.4156L141.207 61.8542L142.5 65.4156H139.914Z" fill="#7C7C7C"/>
<path d="M145.657 68.3524H146.599V63.6733H149.404V62.8295H145.657V68.3524Z" fill="#7C7C7C"/>
<path d="M150.568 70.4453H151.511V67.651C151.807 68.0674 152.333 68.4729 153.198 68.4729C154.48 68.4729 155.587 67.4319 155.587 65.5909C155.587 63.75 154.48 62.709 153.198 62.709C152.289 62.709 151.763 63.1473 151.478 63.5966V62.8295H150.568V70.4453ZM151.511 66.884V64.2979C151.872 63.8486 152.42 63.5637 153.045 63.5637C154.02 63.5637 154.634 64.3855 154.634 65.5909C154.634 66.8073 154.02 67.6182 153.045 67.6182C152.42 67.6182 151.872 67.3333 151.511 66.884Z" fill="#7C7C7C"/>
<path d="M159.303 62.709C157.725 62.709 156.618 63.9143 156.618 65.5909C156.618 67.2675 157.725 68.4729 159.303 68.4729C160.881 68.4729 161.998 67.2675 161.998 65.5909C161.998 63.9143 160.881 62.709 159.303 62.709ZM157.571 65.5909C157.571 64.3855 158.283 63.5637 159.303 63.5637C160.333 63.5637 161.034 64.3855 161.034 65.5909C161.034 66.7963 160.333 67.6182 159.303 67.6182C158.283 67.6182 157.571 66.7963 157.571 65.5909Z" fill="#7C7C7C"/>
<path d="M163.993 65.0101C163.993 64.8239 163.993 64.6376 164.004 64.4622C164.322 64.1116 164.947 63.6733 165.79 63.6733C166.798 63.6733 167.456 64.4842 167.456 65.6348C167.456 66.7854 166.82 67.6182 165.779 67.6182C164.727 67.6182 163.993 66.7196 163.993 65.0101ZM163.04 65.0101C163.04 67.1251 164.136 68.4729 165.823 68.4729C167.423 68.4729 168.42 67.2018 168.42 65.6348C168.42 63.8267 167.314 62.8295 165.922 62.8295C165.122 62.8295 164.464 63.1911 164.07 63.6623C164.267 62.2816 164.881 61.5693 166.415 61.4378C167.029 61.383 167.511 61.3282 167.872 61.2406V60.3311C167.412 60.4516 166.831 60.5173 166.24 60.594C163.971 60.879 163.04 62.435 163.04 65.0101Z" fill="#7C7C7C"/>
<path d="M174.567 68.3304V67.6072C174.49 67.651 174.392 67.673 174.282 67.673C174.03 67.673 173.866 67.5415 173.866 67.2675V64.6924C173.866 63.487 173.033 62.709 171.663 62.709C170.765 62.709 170.052 63.0377 169.724 63.3226V64.254C170.14 63.8705 170.874 63.5746 171.586 63.5746C172.397 63.5746 172.934 63.9691 172.934 64.7472V65.2622C172.638 65.1526 172.222 65.054 171.619 65.054C170.381 65.054 169.384 65.6786 169.384 66.7744C169.384 67.8373 170.261 68.4729 171.334 68.4729C172.156 68.4729 172.638 68.1661 172.956 67.7387C173.055 68.1989 173.493 68.4729 173.997 68.4729C174.271 68.4729 174.447 68.3962 174.567 68.3304ZM170.337 66.7744C170.337 66.1498 170.951 65.821 171.663 65.821C172.189 65.821 172.606 65.9087 172.934 66.0183V67.0045C172.627 67.388 172.189 67.651 171.477 67.651C170.765 67.651 170.337 67.3113 170.337 66.7744Z" fill="#7C7C7C"/>
<path d="M179.301 62.8295V65.054H176.584V62.8295H175.641V68.3524H176.584V65.8977H179.301V68.3524H180.244V62.8295H179.301Z" fill="#7C7C7C"/>
<path d="M181.869 68.3524H182.812V65.832H183.513L185.343 68.3524H186.472L184.335 65.4046L186.439 62.8295H185.332L183.535 65.043H182.812V62.8295H181.869V68.3524Z" fill="#7C7C7C"/>
<path d="M192.224 68.3304V67.6072C192.147 67.651 192.049 67.673 191.939 67.673C191.687 67.673 191.523 67.5415 191.523 67.2675V64.6924C191.523 63.487 190.69 62.709 189.32 62.709C188.422 62.709 187.709 63.0377 187.381 63.3226V64.254C187.797 63.8705 188.531 63.5746 189.243 63.5746C190.054 63.5746 190.591 63.9691 190.591 64.7472V65.2622C190.295 65.1526 189.879 65.054 189.276 65.054C188.038 65.054 187.041 65.6786 187.041 66.7744C187.041 67.8373 187.918 68.4729 188.991 68.4729C189.813 68.4729 190.295 68.1661 190.613 67.7387C190.712 68.1989 191.15 68.4729 191.654 68.4729C191.928 68.4729 192.104 68.3962 192.224 68.3304ZM187.994 66.7744C187.994 66.1498 188.608 65.821 189.32 65.821C189.846 65.821 190.263 65.9087 190.591 66.0183V67.0045C190.285 67.388 189.846 67.651 189.134 67.651C188.422 67.651 187.994 67.3113 187.994 66.7744Z" fill="#7C7C7C"/>
<path d="M63 70C63 58.9543 54.0457 50 43 50V70H63Z" fill="#FF0000"/>
<path d="M63 70C63 58.9543 54.0457 50 43 50V70H63Z" fill="url(#paint0_linear_1423_49886)"/>
<path d="M43 50C54.0457 50 63 41.0457 63 30H43V50Z" fill="#FF0000"/>
<path d="M43 50C54.0457 50 63 41.0457 63 30H43V50Z" fill="url(#paint1_linear_1423_49886)"/>
<path d="M83 50C71.9543 50 63 58.9543 63 70H83V50Z" fill="#FF0000"/>
<path d="M83 50C71.9543 50 63 58.9543 63 70H83V50Z" fill="url(#paint2_linear_1423_49886)"/>
<path d="M67 38C67 33.5817 70.5817 30 75 30C79.4183 30 83 33.5817 83 38C83 42.4183 79.4183 46 75 46H67V38Z" fill="url(#paint3_linear_1423_49886)"/>
</g>
<defs>
<linearGradient id="paint0_linear_1423_49886" x1="43" y1="70" x2="88.0581" y2="63.1184" gradientUnits="userSpaceOnUse">
<stop stop-color="#FF512F"/>
<stop offset="1" stop-color="#DD2476"/>
</linearGradient>
<linearGradient id="paint1_linear_1423_49886" x1="43" y1="70" x2="88.0581" y2="63.1184" gradientUnits="userSpaceOnUse">
<stop stop-color="#FF512F"/>
<stop offset="1" stop-color="#DD2476"/>
</linearGradient>
<linearGradient id="paint2_linear_1423_49886" x1="43" y1="70" x2="88.0581" y2="63.1184" gradientUnits="userSpaceOnUse">
<stop stop-color="#FF512F"/>
<stop offset="1" stop-color="#DD2476"/>
</linearGradient>
<linearGradient id="paint3_linear_1423_49886" x1="67" y1="38" x2="83" y2="38" gradientUnits="userSpaceOnUse">
<stop stop-color="#396AFC"/>
<stop offset="1" stop-color="#2948FF"/>
</linearGradient>
<clipPath id="clip0_1423_49886">
<rect width="214.545" height="40" fill="white" transform="translate(42.7271 30)"/>
</clipPath>
</defs>
</svg>
