<svg width="15" height="16" viewBox="0 0 15 16" fill="none" xmlns="http://www.w3.org/2000/svg">
<path d="M11.1285 0C11.4574 0.0722152 11.7997 0.108113 12.1128 0.223741C13.7779 0.836109 14.7676 2.02996 14.9668 3.79276C15.226 6.08861 13.6539 8.081 11.3769 8.42622C10.6902 8.53016 10.019 8.44917 9.36318 8.21959C9.27627 8.19092 9.18321 8.18645 9.09395 8.20665C8.56882 8.33188 8.04578 8.46504 7.50521 8.59986C7.50521 8.21124 7.48852 7.8368 7.51023 7.46446C7.53193 7.09211 7.43593 6.79073 7.2293 6.46973C5.60383 3.94512 7.14038 0.542238 10.1062 0.0584385C10.2185 0.0400716 10.3304 0.0200348 10.4422 0.000833125L11.1285 0ZM8.44149 7.39767C8.69529 7.33422 8.92531 7.26785 9.15907 7.22319C9.25756 7.20403 9.35942 7.21256 9.45335 7.24781C10.0582 7.50161 10.6823 7.60305 11.3318 7.48241C13.1046 7.15139 14.2325 5.62652 14.0392 3.83283C13.828 1.87342 11.8448 0.526376 9.94132 1.04983C7.5937 1.69559 6.72712 4.54789 8.32295 6.38582C8.36534 6.43001 8.39814 6.48249 8.41926 6.53996C8.44038 6.59743 8.44936 6.65865 8.44567 6.71977C8.43482 6.93766 8.44149 7.15598 8.44149 7.39767Z" fill="#86898C"/>
<path d="M0.12801 4.72238H3.62816C3.79764 5.21967 3.96682 5.71627 4.13574 6.21218C4.32525 6.76819 4.51852 7.32254 4.70094 7.8819C4.72101 7.95755 4.71053 8.03807 4.67173 8.10605C4.41933 8.50039 4.16009 8.88999 3.89405 9.27486C3.8668 9.30806 3.85073 9.34901 3.8481 9.39187C3.84548 9.43474 3.85646 9.47735 3.87945 9.51362C4.45718 10.6682 5.31249 11.5461 6.46752 12.1301C6.50379 12.1527 6.5463 12.1633 6.58897 12.1603C6.63164 12.1573 6.67228 12.1409 6.70503 12.1134C7.09185 11.8496 7.48145 11.5901 7.87383 11.3349C7.93189 11.2966 8.00262 11.2827 8.07085 11.296C9.11442 11.6484 10.158 12.0057 11.1982 12.3655C11.2128 12.3705 11.227 12.378 11.2471 12.3868V15.9813C11.2298 15.9889 11.2115 15.9943 11.1928 15.9971C9.59948 16.0243 8.02994 15.864 6.52469 15.3134C3.03039 14.0348 0.885631 11.5803 0.156382 7.91821C-0.0523328 6.87673 -0.0347877 5.82773 0.107138 4.77873C0.112064 4.75926 0.119061 4.74036 0.12801 4.72238ZM10.3162 15.0512V14.8801C10.3162 14.3228 10.3124 13.7656 10.3195 13.2083C10.3195 13.0897 10.2857 13.0367 10.173 12.9996C9.52572 12.7845 8.88206 12.5643 8.242 12.3392C8.2021 12.3224 8.15843 12.3167 8.11555 12.3226C8.07266 12.3284 8.03215 12.3457 7.99823 12.3726C7.6025 12.6418 7.20176 12.904 6.80562 13.1728C6.77425 13.1983 6.73625 13.2143 6.69608 13.2189C6.65591 13.2235 6.61527 13.2165 6.57897 13.1987C4.77984 12.4686 3.53506 11.1904 2.81625 9.39382C2.80536 9.35939 2.8017 9.32307 2.80551 9.28715C2.80932 9.25124 2.8205 9.2165 2.83837 9.18511C3.09968 8.77812 3.37435 8.37947 3.63566 7.97206C3.67503 7.90432 3.68628 7.82384 3.66697 7.7479C3.44949 7.08586 3.22032 6.42799 2.99908 5.7672C2.96819 5.67495 2.92186 5.65241 2.83211 5.65324C2.24771 5.657 1.6654 5.65324 1.08225 5.65533C1.04677 5.65533 1.01128 5.66034 0.964948 5.6641C0.958686 5.75092 0.949933 5.83107 0.947011 5.91456C0.925847 6.51328 0.965692 7.11259 1.06596 7.70324C1.35441 9.37295 2.05903 10.8385 3.20696 12.0862C4.48972 13.4784 6.08724 14.3195 7.91641 14.7473C8.70425 14.9282 9.50815 15.03 10.3162 15.0512Z" fill="#86898C"/>
<path d="M8.45361 3.7865H9.36903V4.70984H8.4532L8.45361 3.7865Z" fill="#86898C"/>
<path d="M11.2475 3.79192V4.71027H10.3291V3.79192H11.2475Z" fill="#86898C"/>
<path d="M13.1163 4.7132H12.2005V3.78984H13.1163V4.7132Z" fill="#86898C"/>
</svg>
