<svg width="40" height="40" viewBox="0 0 40 40" fill="none" xmlns="http://www.w3.org/2000/svg">
<g clip-path="url(#clip0_581_10817)">
<path d="M40.0002 28.079H35.2679V2.3999H32.9131V23.4497H30.3492L25.6647 4.73276H9.55543V16.4168H2.47671V16.9248C2.47671 20.1456 2.47671 23.3658 2.47671 26.5852C2.4778 26.6647 2.46905 26.7441 2.45068 26.8215C3.15732 26.2923 3.97315 25.9274 4.83871 25.7534V23.4248H7.20279V21.0825H4.83662V18.757C4.95009 18.7507 5.06252 18.7382 5.17494 18.7382C6.75933 18.7382 8.34269 18.7299 9.92603 18.7466C10.1238 18.755 10.3123 18.8324 10.459 18.9652C11.6548 20.1373 12.8387 21.3213 14.0108 22.517C14.1433 22.6643 14.2203 22.8531 14.2284 23.051C14.2451 24.7166 14.2378 26.3718 14.2378 28.0707H24.3208L23.6088 30.4098H11.8529C11.9311 30.7981 11.9705 31.1932 11.9705 31.5892C11.9707 31.9796 11.9324 32.3691 11.856 32.752H25.9489C25.772 30.7315 26.179 28.9191 27.6395 27.4628C29.1 26.0064 30.9176 25.589 32.9184 25.7816V28.0499C29.5466 28.2404 27.8529 31.1624 28.338 33.6546C28.8387 36.1935 31.4266 37.9101 33.9187 37.3272C35.22 37.0232 36.2443 36.3153 36.9283 35.1619C37.8433 33.6192 37.812 32.0389 36.9959 30.4098H39.995L40.0002 28.079ZM24.1407 19.8552L25.5409 18.4915L23.9211 16.8572L19.3782 21.399L20.9636 22.9959L22.2753 21.5957L26.2643 25.5848C26.1602 25.6254 25.9885 25.7441 25.8199 25.7451C22.7937 25.7555 19.7686 25.7524 16.7424 25.7514C16.6904 25.7474 16.6386 25.7404 16.5873 25.7305V11.7438H14.2451V19.4201C14.0254 19.2035 13.8755 19.0568 13.7246 18.9089C13.1833 18.3666 12.6357 17.8305 12.1048 17.2777C11.9909 17.1631 11.9199 17.0128 11.9039 16.852C11.8935 13.645 11.8914 10.4377 11.8977 7.23009C11.9017 7.16931 11.9094 7.10883 11.9206 7.04896H12.2329C15.9853 7.04896 19.7381 7.04896 23.4912 7.04896C23.7285 7.04896 23.8514 7.08643 23.918 7.35605C25.2629 12.7796 26.6162 18.2011 27.9778 23.6205C27.9893 23.6683 27.9976 23.7183 27.9976 23.7246L24.1407 19.8552ZM32.9423 35.1015C32.3249 35.1013 31.7325 34.8572 31.2941 34.4225C30.8556 33.9878 30.6066 33.3975 30.6011 32.7801C30.5996 32.4711 30.6593 32.1648 30.7768 31.8789C30.8943 31.593 31.0673 31.3333 31.2858 31.1147C31.5042 30.896 31.7638 30.7228 32.0495 30.605C32.3353 30.4873 32.6416 30.4273 32.9506 30.4285C33.5681 30.4337 34.1586 30.6825 34.5937 31.1207C35.0288 31.5589 35.2733 32.1512 35.2741 32.7687C35.27 33.3857 35.023 33.9764 34.5865 34.4126C34.1501 34.8489 33.5594 35.0956 32.9423 35.0994V35.1015Z" fill="#22A33F"/>
<path d="M2.14315 27.1775C1.21384 27.9422 0.55123 28.9821 0.250663 30.1474C0.18404 30.3952 0.126784 30.644 0.0664062 30.8928V32.295C0.0967877 32.3621 0.121142 32.4318 0.139245 32.5032C0.345977 33.7077 0.919303 34.819 1.78094 35.6857C2.64257 36.5524 3.75056 37.1321 4.95382 37.3459C7.48446 37.7716 9.94121 36.5839 11.1342 34.327C11.3913 33.8398 11.5568 33.3058 11.7817 32.7478C11.858 32.3649 11.8964 31.9754 11.8962 31.585C11.8963 31.1883 11.8569 30.7925 11.7785 30.4035H11.7161C11.3507 28.842 10.5284 27.5928 9.18965 26.7101C7.85094 25.8273 6.37375 25.565 4.76854 25.8627V25.7597C3.90034 25.9336 3.08219 26.3 2.37427 26.8319C2.33608 26.9688 2.25508 27.0899 2.14315 27.1775V27.1775ZM6.00838 28.0883C6.9344 28.0966 7.81975 28.4699 8.47214 29.1271C9.12452 29.7844 9.49121 30.6725 9.49254 31.5986C9.48872 32.5246 9.11967 33.4117 8.46553 34.0672C7.81139 34.7227 6.92501 35.0937 5.99898 35.0994C4.05441 35.0994 2.40236 33.49 2.40548 31.5892C2.4086 29.6883 4.06173 28.08 6.00838 28.0883Z" fill="#FFAA46"/>
</g>
<defs>
<clipPath id="clip0_581_10817">
<rect width="40" height="40" fill="white"/>
</clipPath>
</defs>
</svg>
