<svg width="60" height="60" viewBox="0 0 60 60" fill="none" xmlns="http://www.w3.org/2000/svg">
<path d="M59.9995 31.8381C59.8429 32.9152 59.7333 34 59.5454 35.0708C58.3572 41.8225 55.1998 47.4956 50.1528 52.1246C50.0184 52.2286 49.8742 52.3193 49.7223 52.3954L49.8397 52.5692H52.9362V56.0413H42.4556V45.8785H45.9183V50.9443C51.5461 47.1982 58.9302 36.8147 55.6741 23.3723L59.0821 22.4878C59.2762 23.4881 59.4844 24.4524 59.6441 25.4261C59.7897 26.309 59.882 27.1998 59.9978 28.0874L59.9995 31.8381Z" fill="#22A33F"/>
<path d="M28.1257 59.9675C27.0471 59.8109 25.9639 59.7029 24.8931 59.5135C18.1007 58.3159 12.4041 55.1303 7.76261 50.0364C7.67761 49.936 7.59763 49.8316 7.52305 49.7233L7.38531 49.7765V52.9074H3.91162V42.4189H14.065V45.8786H9.01335C12.8174 51.558 23.1774 58.8842 36.5901 55.6406C36.8766 56.7364 37.1614 57.8416 37.4823 59.0736C36.2018 59.2975 34.962 59.5229 33.7253 59.728C33.1132 59.8282 32.4949 59.8845 31.8781 59.9643L28.1257 59.9675Z" fill="#22A33F"/>
<path d="M41.0674 17.4863L46.3351 26.6143C45.2158 27.2655 44.1434 27.9355 43.0288 28.5163C42.4512 28.8169 42.3166 29.1769 42.2633 29.8172C42.1866 30.7565 42.5545 31.2104 43.3357 31.5955C44.3469 32.0933 45.3019 32.707 46.3382 33.3034L41.0689 42.4346C39.8416 41.7302 38.6347 41.0617 37.4575 40.3447C37.0849 40.1193 36.8469 40.2085 36.4681 40.3447C35.3723 40.7502 35.1594 41.4985 35.2533 42.5598C35.3473 43.6212 35.2737 44.6591 35.2737 45.7455H24.7273C24.7273 44.3366 24.7117 42.9637 24.7367 41.583C24.7446 41.1791 24.5677 41.0132 24.2671 40.7705C23.3842 40.0536 22.6312 40.1444 21.7436 40.7909C20.881 41.4171 19.9043 41.8789 18.9368 42.4377C17.171 39.3757 15.4271 36.3576 13.666 33.3065C14.9043 32.5911 16.0956 31.8883 17.3025 31.2151C17.6156 31.0398 17.6704 30.8285 17.7267 30.4856C17.9193 29.2834 17.4293 28.6071 16.3382 28.1375C15.4177 27.7383 14.5787 27.1466 13.666 26.6174C15.4303 23.5633 17.1726 20.5451 18.9368 17.4878C20.1813 18.2064 21.3852 18.8858 22.5702 19.5965C22.913 19.8015 23.1431 19.7342 23.5095 19.5965C24.6131 19.1769 24.8463 18.4177 24.7493 17.3375C24.6553 16.3106 24.7289 15.2696 24.7289 14.1895H35.2753V17.3203C35.2753 18.9703 35.2752 18.9797 36.7389 19.7076C36.8954 19.7843 37.1819 19.7186 37.3541 19.6231C38.5783 18.9327 39.7884 18.2236 41.0674 17.4863ZM28.2433 17.6788C28.2433 18.7089 28.2152 19.6841 28.2543 20.6531C28.2731 21.1369 28.1087 21.3357 27.6579 21.5329C26.629 21.9873 25.6261 22.4985 24.6538 23.0639C24.1842 23.33 23.8069 23.7449 23.3826 24.0987L20.2204 22.2859C19.6177 23.3347 19.0542 24.3116 18.4719 25.3228C19.4002 25.8613 20.2846 26.3905 21.1879 26.8883C21.4885 27.0542 21.62 27.2248 21.5292 27.5786C21.1214 29.135 21.1214 30.7702 21.5292 32.3266C21.62 32.6741 21.5073 32.8541 21.2004 33.0216C20.2972 33.5194 19.4111 34.0486 18.475 34.5871C19.062 35.6077 19.6334 36.5971 20.2236 37.6225L23.4202 35.7956C24.6839 37.0694 26.2436 38.0101 27.9599 38.5335C28.0961 38.5758 28.223 38.8842 28.2277 39.072C28.2527 40.1193 28.2402 41.1666 28.2402 42.2186H31.7546C31.7546 41.1447 31.7687 40.1115 31.7468 39.0877C31.739 38.7386 31.8595 38.5993 32.1835 38.4615C33.1532 38.0608 34.0992 37.605 35.0169 37.0965C35.6008 36.763 36.0893 36.2605 36.6309 35.8253L39.779 37.6303L41.5292 34.5933C40.5993 34.0548 39.7148 33.5257 38.8116 33.0279C38.5126 32.862 38.3764 32.6945 38.4688 32.3407C38.8758 30.7842 38.8758 29.1492 38.4688 27.5927C38.3795 27.2483 38.4922 27.0683 38.799 26.9008C39.7039 26.4061 40.5899 25.8754 41.5276 25.3354L39.7743 22.2968L36.5855 24.1237C35.3259 22.8437 33.7648 21.9006 32.0457 21.3811C31.9095 21.3388 31.7796 21.032 31.7749 20.8457C31.7499 19.7984 31.7624 18.7496 31.7624 17.6788H28.2433Z" fill="#FFAA46"/>
<path d="M14.087 8.88414C7.53561 13.6712 1.27231 23.8168 4.31238 36.5642L1.01083 37.4158C-1.27627 29.731 -0.277489 16.727 10.2845 7.37349H7.07062V3.85596H17.5309V14.0313H14.087V8.88414Z" fill="#22A33F"/>
<path d="M23.4057 4.28636C23.1161 3.16237 22.8344 2.07127 22.5166 0.842399C34.2996 -1.6623 44.2761 1.40752 52.6074 10.1974V7.04309H56.0842V17.5143H45.9292V14.0515H50.9793C47.2207 8.36901 36.7902 1.02869 23.4057 4.28636Z" fill="#22A33F"/>
<path d="M30.012 24.6904C31.056 24.6926 32.0759 25.0047 32.9424 25.5872C33.8088 26.1697 34.4829 26.9963 34.879 27.9623C35.2751 28.9282 35.3755 29.99 35.1676 31.0132C34.9596 32.0363 34.4525 32.9746 33.7107 33.7092C32.9688 34.4438 32.0255 34.9416 31.0004 35.1396C29.9753 35.3375 28.9145 35.2266 27.9525 34.821C26.9905 34.4154 26.1705 33.7333 25.5966 32.8611C25.0227 31.989 24.7206 30.9661 24.7287 29.9221C24.7423 28.5299 25.3049 27.1992 26.2943 26.2196C27.2836 25.2399 28.6197 24.6904 30.012 24.6904ZM31.7543 29.9519C31.7518 29.6036 31.6457 29.2639 31.4496 28.976C31.2536 28.6881 30.9764 28.465 30.6532 28.3351C30.3301 28.2052 29.9756 28.1742 29.6348 28.2463C29.294 28.3183 28.9824 28.49 28.7394 28.7396C28.4965 28.9891 28.3331 29.3053 28.2703 29.6479C28.2075 29.9905 28.248 30.344 28.3866 30.6636C28.5252 30.9831 28.7556 31.2542 29.0487 31.4425C29.3417 31.6307 29.6841 31.7276 30.0323 31.7208C30.4927 31.7066 30.9295 31.5142 31.2508 31.1842C31.572 30.8542 31.7525 30.4124 31.7543 29.9519Z" fill="#FFAA46"/>
</svg>
