<svg width="60" height="60" viewBox="0 0 60 60" fill="none" xmlns="http://www.w3.org/2000/svg">
<circle cx="30" cy="30" r="30" fill="#F6F7FA"/>
<path fill-rule="evenodd" clip-rule="evenodd" d="M35 26L34.9963 26C30.8559 26.002 27.5 29.3591 27.5 33.5C27.5 30.166 25.3246 27.3401 22.3158 26.3644C18.0965 27.5372 15 31.407 15 36L15 41C15 43.7614 17.2386 46 20 46H35C40.5228 46 45 41.5228 45 36C45 30.4772 40.5228 26 35 26Z" fill="url(#paint0_linear_1004_47201)"/>
<path fill-rule="evenodd" clip-rule="evenodd" d="M27.5 38.5C34.4036 38.5 40 32.9036 40 26C40 19.0964 34.4036 13.5 27.5 13.5C20.5964 13.5 15 19.0964 15 26L15 38.5H27.5ZM27.5 18.5C27.5 22.6421 30.8579 26 35 26C30.8579 26 27.5 29.3579 27.5 33.5C27.5 29.3579 24.1422 26 20 26C24.1422 26 27.5 22.6421 27.5 18.5Z" fill="url(#paint1_linear_1004_47201)"/>
<defs>
<linearGradient id="paint0_linear_1004_47201" x1="45" y1="29.75" x2="15" y2="29.75" gradientUnits="userSpaceOnUse">
<stop stop-color="#13D8A0"/>
<stop offset="1" stop-color="#139DD8"/>
</linearGradient>
<linearGradient id="paint1_linear_1004_47201" x1="15" y1="38.5" x2="40" y2="13.5" gradientUnits="userSpaceOnUse">
<stop stop-color="#B260F2"/>
<stop offset="1" stop-color="#6060F2"/>
</linearGradient>
</defs>
</svg>
