<svg width="60" height="60" viewBox="0 0 60 60" fill="none" xmlns="http://www.w3.org/2000/svg">
<g clip-path="url(#clip0_1425_48688)">
<path d="M0 55.3064V54.1323C0.24948 52.4329 1.27969 51.2222 2.45958 50.0658C5.26403 47.3186 8.02739 44.5273 10.8054 41.7522C10.9522 41.6055 11.0901 41.4587 11.2149 41.3208C11.1968 41.264 11.1747 41.2086 11.1488 41.155C11.0021 40.9216 10.8553 40.6898 10.7203 40.4564C7.40663 34.9913 6.2062 29.0757 7.09259 22.7712C7.9012 17.0082 10.4136 12.0421 14.5168 7.90511C18.4366 3.95451 23.1386 1.44798 28.633 0.450058C29.6867 0.260746 30.755 0.147735 31.8161 -0.00195312H35.1033C35.8371 0.0890338 36.5709 0.160941 37.3046 0.271006C43.0485 1.13978 48.0176 3.58323 52.1516 7.6571C56.1316 11.5769 58.6616 16.2832 59.6566 21.7879C59.8474 22.8372 59.9604 23.8997 60.1086 24.9564V28.2378C60.0734 28.4447 60.0308 28.6501 60.0029 28.8571C59.8635 29.8608 59.7872 30.8778 59.5817 31.8684C58.2052 38.4635 54.8181 43.8244 49.4338 47.8645C43.5372 52.2921 36.86 53.8917 29.5751 52.904C25.9029 52.4011 22.3846 51.1029 19.2657 49.1002C19.0896 48.9872 18.9033 48.8918 18.6186 48.7304C18.4986 48.912 18.3662 49.085 18.2223 49.2484C15.211 52.2617 12.1957 55.2706 9.17647 58.2752C6.69635 60.7289 3.11852 60.5469 1.05957 57.7953C0.535662 57.0968 0.34487 56.1443 0 55.3064ZM56.588 26.6484C56.6261 13.9821 46.239 3.56414 33.5243 3.51571C20.836 3.46729 10.3916 13.8266 10.3373 26.5193C10.283 39.2119 20.6966 49.6534 33.4289 49.6813C46.1186 49.7077 56.5498 39.3323 56.588 26.6484ZM8.7861 48.7832C7.18209 50.3725 5.58689 51.9472 4.00196 53.5336C3.85395 53.6888 3.73735 53.8712 3.65856 54.0707C3.50503 54.4436 3.48655 54.8584 3.60632 55.2434C3.7261 55.6284 3.97659 55.9596 4.31454 56.1796C5.02189 56.6521 5.89361 56.5729 6.56134 55.9213C7.84543 54.6665 9.10457 53.3883 10.3769 52.1248C10.6704 51.8313 10.9947 51.548 11.2838 51.2795L8.7861 48.7832ZM11.4365 46.1695L13.7728 48.4955L15.6615 46.6377L13.3296 44.2896L11.4365 46.1695Z" fill="#FFAA46"/>
<path d="M19.5227 13.1962C21.2617 13.7686 22.9259 14.3321 24.6033 14.8502C24.8891 14.9135 25.1881 14.8767 25.45 14.7459C26.0469 14.4566 26.6226 14.1256 27.1729 13.7554C27.418 13.5936 27.6003 13.3528 27.6895 13.073C28.0799 11.3618 28.4233 9.64188 28.7931 7.88965H38.1266C38.4069 9.21043 38.7576 10.5473 38.9587 11.9063C39.123 13.0231 39.5691 13.7143 40.6214 14.2998C41.6002 14.8458 42.3604 14.9455 43.3627 14.5478C44.663 14.0298 46.0204 13.6527 47.4028 13.1992C48.9584 15.8862 50.4978 18.5498 52.0622 21.2501C50.8339 22.3478 49.6481 23.4514 48.411 24.4933C47.9047 24.9203 47.6244 25.3445 47.758 26.0298C47.8306 26.4148 47.8306 26.81 47.758 27.195C47.6318 27.8569 47.893 28.2678 48.3875 28.6846C49.6261 29.728 50.8148 30.8316 52.0564 31.9454L47.4013 39.9963C45.9866 39.5355 44.5734 39.1481 43.2204 38.6109C42.2797 38.2353 41.4828 38.1868 40.7256 38.9133C40.7117 38.9271 40.6945 38.9372 40.6757 38.9426C39.4444 39.264 39.1157 40.1856 38.9498 41.32C38.7547 42.6496 38.4113 43.9616 38.1251 45.3088H28.8004C28.5201 43.988 28.1708 42.6511 27.9683 41.2921C27.8025 40.1783 27.3608 39.4841 26.3056 38.8986C25.3268 38.3556 24.5651 38.2573 23.5643 38.6535C22.2626 39.1686 20.9051 39.5458 19.5242 39.9992L14.8662 31.9484C16.1518 30.7978 17.4021 29.6502 18.6818 28.5451C19.078 28.2047 19.2468 27.8672 19.169 27.3433C19.0986 26.8989 19.0986 26.4463 19.169 26.0019C19.2849 25.3371 19.0296 24.9292 18.535 24.5138C17.2964 23.469 16.1092 22.3654 14.8662 21.2515L19.5227 13.1962ZM45.7768 17.433C44.3474 17.8982 42.9723 18.3341 41.6075 18.8022C41.2715 18.9167 41.0367 18.8917 40.7666 18.6555C39.5746 17.6089 38.1912 16.803 36.6928 16.2825C36.5709 16.2262 36.4622 16.1449 36.3739 16.0437C36.2857 15.9425 36.2198 15.8239 36.1806 15.6955C35.8724 14.407 35.6244 13.1038 35.3383 11.8109C35.303 11.6524 35.1577 11.3956 35.0565 11.3941C33.9324 11.3633 32.8053 11.375 31.6636 11.375C31.3524 12.8528 31.0443 14.2602 30.7684 15.6749C30.7536 15.8269 30.6919 15.9705 30.5916 16.0858C30.4914 16.201 30.3577 16.2821 30.2092 16.3177C28.7162 16.7969 27.3418 17.5872 26.1765 18.6364C25.883 18.8961 25.6393 18.9167 25.2842 18.7964C23.9223 18.3297 22.5487 17.8968 21.1428 17.4389L19.3495 20.5486C20.4678 21.5465 21.5376 22.518 22.628 23.466C22.752 23.5547 22.8454 23.6797 22.8951 23.8238C22.9448 23.9679 22.9484 24.124 22.9053 24.2702C22.5737 25.8012 22.5737 27.3855 22.9053 28.9164C22.9875 29.2921 22.8921 29.5211 22.6118 29.7676C21.52 30.7127 20.4516 31.6842 19.351 32.6674L21.1472 35.7727C22.5752 35.3061 23.9502 34.8717 25.315 34.4035C25.6511 34.2876 25.8859 34.314 26.1559 34.5503C27.3483 35.5964 28.7316 36.4021 30.2298 36.9233C30.3517 36.9795 30.4604 37.0609 30.5486 37.162C30.6369 37.2632 30.7028 37.3819 30.742 37.5103C31.0501 38.8003 31.2982 40.102 31.5843 41.3963C31.6195 41.5548 31.7648 41.8102 31.8661 41.8131C32.9902 41.8425 34.1173 41.8322 35.259 41.8322C35.5701 40.3529 35.8783 38.9455 36.1542 37.5323C36.1689 37.3803 36.2307 37.2367 36.3309 37.1215C36.4312 37.0062 36.5648 36.9252 36.7133 36.8895C38.2058 36.4091 39.58 35.619 40.7461 34.5708C41.0396 34.3111 41.2832 34.2905 41.6384 34.4109C43.0002 34.8775 44.3738 35.3105 45.7797 35.7683L47.5731 32.6616C46.4548 31.6622 45.385 30.6907 44.2946 29.7441C44.1705 29.6555 44.0772 29.5304 44.0275 29.3863C43.9778 29.2422 43.9742 29.0862 44.0172 28.9399C44.3489 27.4089 44.3489 25.8247 44.0172 24.2937C43.935 23.918 44.0304 23.6891 44.3107 23.4425C45.4026 22.4975 46.4709 21.5259 47.5716 20.5442L45.7768 17.433Z" fill="#22A33F"/>
<path d="M40.7372 26.587C40.7325 28.5134 39.9658 30.3597 38.6045 31.7227C37.2431 33.0857 35.3978 33.8546 33.4714 33.8616C31.5448 33.8608 29.6967 33.0976 28.3309 31.7387C26.9651 30.3798 26.1927 28.5357 26.1822 26.609C26.1872 24.6829 26.9541 22.837 28.3154 21.4743C29.6767 20.1117 31.5218 19.3429 33.4479 19.3359C35.3743 19.3367 37.2222 20.0997 38.5879 21.4583C39.9536 22.8168 40.7263 24.6607 40.7372 26.587ZM37.2151 26.6208C37.2107 25.6344 36.8215 24.6886 36.1301 23.985C35.4388 23.2814 34.5001 22.8754 33.514 22.8536C32.5175 22.8485 31.5592 23.2365 30.847 23.9335C30.1349 24.6306 29.7264 25.5804 29.7101 26.5767C29.7149 27.563 30.1043 28.5086 30.7955 29.2121C31.4867 29.9157 32.4252 30.3217 33.4112 30.3439C34.4071 30.3479 35.3645 29.9594 36.0759 29.2625C36.7873 28.5656 37.1956 27.6165 37.2121 26.6208H37.2151Z" fill="#22A33F"/>
</g>
<defs>
<clipPath id="clip0_1425_48688">
<rect width="60" height="60" fill="white"/>
</clipPath>
</defs>
</svg>
