<svg width="40" height="40" viewBox="0 0 40 40" fill="none" xmlns="http://www.w3.org/2000/svg">
<path d="M2.37669 10.261H9.39913H11.7935H18.8128H21.1967V10.2506H28.2087L39.998 10.2589V7.97408C39.998 5.6204 38.4643 3.74246 36.1639 3.27924C35.8309 3.22089 35.493 3.19538 35.155 3.20308C25.058 3.19891 14.9606 3.19891 4.86287 3.20308C2.40069 3.20308 0.569721 4.70439 0.0804149 7.11649C0.063021 7.17854 0.0410129 7.23922 0.0146484 7.29802V10.2631L2.37669 10.261ZM4.31723 5.57763C4.51057 5.55241 4.70546 5.54125 4.90042 5.54424H35.1164C36.4727 5.54424 37.4419 6.31941 37.6339 7.55885C37.641 7.66305 37.641 7.76763 37.6339 7.87184H2.40797C2.25564 7.0372 3.04441 5.76229 4.31723 5.57763Z" fill="#22A33F"/>
<path d="M37.6378 17.2261V17.2366H30.6237V17.2282H28.2095V17.2334H21.1975H0.0185547V32.5177C0.14688 32.5073 0.2752 32.4854 0.403525 32.4854C2.55063 32.4854 4.69776 32.4906 6.84487 32.4771C7.14429 32.4771 7.26738 32.5605 7.34772 32.8547C7.68355 34.095 8.41988 35.1896 9.44216 35.9681C10.4644 36.7466 11.7154 37.1654 13.0003 37.1594C14.2782 37.1573 15.5199 36.7349 16.5341 35.9574C17.5482 35.1798 18.2784 34.0903 18.6122 32.8568C18.6915 32.5647 18.8105 32.4645 19.1141 32.4781C19.7244 32.5031 20.3378 32.5011 20.9482 32.4781C21.2288 32.4666 21.3227 32.5751 21.3926 32.8286C21.723 34.0706 22.4545 35.1686 23.4733 35.952C24.4922 36.7353 25.7412 37.1602 27.0264 37.1604C28.3115 37.1653 29.562 36.7447 30.583 35.9644C31.604 35.184 32.338 34.0877 32.6706 32.8464C32.7531 32.5407 32.8918 32.4771 33.1819 32.4791C35.2893 32.4906 37.3978 32.4854 39.5053 32.4854H39.9998V17.2251L37.6378 17.2261ZM8.12499 28.0368C7.84956 28.6502 7.57726 29.2647 7.29036 29.874C7.24341 29.9784 7.14849 30.1286 7.07441 30.1286C5.51573 30.1442 3.95703 30.1401 2.36913 30.1401V27.8302H8.20533C8.1782 27.9064 8.15421 27.9721 8.12499 28.0368ZM12.9367 34.8182C12.4742 34.8126 12.0174 34.7158 11.5924 34.5332C11.1675 34.3507 10.7827 34.086 10.4603 33.7544C10.1379 33.4228 9.8842 33.0308 9.71368 32.6008C9.54316 32.1709 9.45921 31.7115 9.46666 31.2491C9.48558 30.3227 9.86955 29.4413 10.535 28.7965C11.2005 28.1517 12.0936 27.7958 13.0201 27.8062C13.4827 27.8115 13.9397 27.9082 14.3649 28.0906C14.79 28.2731 15.1749 28.5377 15.4975 28.8694C15.82 29.201 16.0738 29.5931 16.2444 30.0232C16.4149 30.4533 16.4988 30.9128 16.4912 31.3753C16.472 32.3017 16.0878 33.1831 15.4221 33.8276C14.7565 34.4722 13.8632 34.8278 12.9367 34.8172V34.8182ZM21.7964 28.717C21.6242 29.1062 21.5042 29.5193 21.3363 29.9105C21.3099 29.9665 21.2711 30.0158 21.2229 30.0545C21.1746 30.0931 21.1181 30.1203 21.0577 30.1338C20.3576 30.1526 19.6565 30.1495 18.9565 30.1338C18.904 30.1307 18.853 30.1156 18.8073 30.0897C18.7615 30.0639 18.7223 30.0279 18.6926 29.9846C18.3952 29.2741 18.1166 28.5553 17.8235 27.8146H22.2929C22.1125 28.138 21.9289 28.4155 21.7964 28.716V28.717ZM27.042 34.8182C26.1148 34.8196 25.2246 34.4545 24.5654 33.8023C23.9062 33.1502 23.5315 32.2639 23.523 31.3367C23.5203 30.8742 23.6089 30.4157 23.7838 29.9875C23.9587 29.5593 24.2164 29.1699 24.5423 28.8415C24.8681 28.5132 25.2555 28.2525 25.6823 28.0743C26.1092 27.8961 26.567 27.8039 27.0295 27.8031C27.9568 27.8014 28.8472 28.1665 29.5065 28.8187C30.1657 29.4709 30.5403 30.3573 30.5486 31.2846C30.5511 31.747 30.4622 32.2053 30.2872 32.6333C30.1122 33.0613 29.8544 33.4506 29.5286 33.7788C29.2029 34.107 28.8156 34.3676 28.3888 34.5458C27.9621 34.724 27.5045 34.8162 27.042 34.8172V34.8182ZM37.6326 30.1234C37.5136 30.1296 37.3895 30.1411 37.2653 30.1411C35.8997 30.1411 34.5329 30.1411 33.1662 30.1411C32.9012 30.1411 32.775 30.0858 32.6769 29.7968C32.4495 29.1281 32.1438 28.4875 31.8652 27.824H37.6326V30.1234ZM37.6326 25.4285H2.35762V19.6351H37.6326V25.4285Z" fill="#22A33F"/>
<path d="M39.9916 17.2248C39.9916 14.9038 39.9916 12.5818 39.9916 10.2587H37.6275V12.5394H30.5999V10.2587L28.2003 10.2483V12.5435H21.1883V10.2598H18.8044V12.5477H11.783V10.2598H9.38341V12.5415H2.36097V10.2598H0V17.2342H2.36199V14.939H9.37398V17.2342H11.7736V14.9494H18.7992V17.2321H21.1841V14.9306H28.2024V17.2259H30.6176V14.9483H37.6307V17.2238L39.9916 17.2248Z" fill="#FFAA46"/>
</svg>
