<svg width="50" height="50" viewBox="0 0 50 50" fill="none" xmlns="http://www.w3.org/2000/svg">
<path d="M49.9935 18.197V39.3906H46.4458C47.5718 44.5692 43.7579 49.2625 38.7332 49.4374C36.3703 49.5183 34.3152 48.7132 32.6542 47.0287C30.5574 44.9033 29.8881 42.3315 30.4361 39.401H19.5464C20.632 44.6553 16.8664 49.1373 12.0452 49.4282C9.68616 49.5705 7.60894 48.8163 5.91273 47.1736C3.70373 45.0403 2.99654 42.4098 3.56412 39.3566H0.0412096V27.9502H7.80466L7.8699 27.8354C7.74836 27.7559 7.632 27.6687 7.52152 27.5745C5.11289 25.2424 2.70862 22.906 0.308696 20.5652C0.129018 20.3732 0.0239554 20.1233 0.0125082 19.8606C-0.00445395 16.0193 0.000753704 12.178 0.000753704 8.33807V7.81616C1.13852 7.81616 2.22541 7.80311 3.31098 7.82529C3.46092 7.83551 3.61094 7.8066 3.74635 7.74142C3.88175 7.67623 3.9979 7.577 4.08342 7.45343C5.08941 6.21911 6.0406 4.92476 7.16793 3.80787C10.5904 0.41544 15.1375 0.0905487 19.0636 2.86843C19.1524 2.93106 19.2437 2.98977 19.3246 3.04849C19.5529 2.8893 19.7499 2.74578 19.9522 2.61008C23.3081 0.361944 27.3268 0.488507 30.4961 2.95715C32.0619 4.17843 33.3066 5.70894 34.4574 7.31121C34.7393 7.70264 35.0328 7.83312 35.5013 7.83312C40.1398 7.81485 44.777 7.82138 49.4155 7.82268C49.6099 7.82268 49.8069 7.83834 50 7.84617V13.8038L40.723 16.1067C39.3373 16.4512 37.953 16.7983 36.5816 17.1414V18.1996L49.9935 18.197ZM47.0173 10.7884H2.93782C2.92869 10.8889 2.91826 10.9529 2.91826 11.0155C2.91826 13.5872 2.91825 16.1589 2.92869 18.7307C2.94753 18.9477 3.04331 19.1508 3.19878 19.3035C6.07538 22.1096 8.96287 24.9066 11.8612 27.6945C12.0635 27.8657 12.3191 27.9612 12.5841 27.9646C19.4037 27.9794 26.2238 27.9829 33.0444 27.975H33.6041V27.3383C33.6041 23.337 33.6041 19.3326 33.6041 15.3252C33.6041 14.9742 33.6915 14.8307 34.0582 14.7406C38.2087 13.7216 42.3501 12.6699 46.5006 11.6535C47.0055 11.5283 47.1817 11.3143 47.0173 10.7884ZM2.94174 36.4365C3.48322 36.4365 3.98556 36.4183 4.48659 36.4431C4.62149 36.454 4.75689 36.4293 4.87919 36.3713C5.00149 36.3134 5.1064 36.2243 5.18336 36.1129C8.56405 32.0238 14.5778 32.0459 17.9415 36.1403C18.0824 36.3033 18.2814 36.4049 18.496 36.4235C22.8236 36.4391 27.1524 36.4391 31.4825 36.4235C31.6814 36.4046 31.8681 36.3191 32.0123 36.1808C32.4755 35.7502 32.9152 35.2935 33.3575 34.8408C33.4528 34.7429 33.5898 34.6177 33.5911 34.5028C33.608 33.3207 33.6015 32.1373 33.6015 30.9304H2.93912L2.94174 36.4365ZM47.0434 27.564H46.4732C44.777 27.564 43.0899 27.5536 41.3989 27.5732C41.044 27.5732 40.8548 27.4753 40.6891 27.1517C39.7757 25.3589 38.8271 23.5805 37.8916 21.8021C37.4911 21.0375 37.4767 21.0297 36.5555 21.2006V33.2398C36.6424 33.247 36.7296 33.247 36.8165 33.2398C40.0863 32.6762 42.7676 33.6965 44.8892 36.233C44.9628 36.3348 45.0708 36.4066 45.1932 36.4352C45.8038 36.4535 46.4158 36.4444 47.0394 36.4444L47.0434 27.564ZM6.28589 41.1377C6.16977 43.9273 8.47793 46.392 11.3145 46.5094C14.1511 46.6269 16.6641 44.3735 16.7842 41.5891C16.9146 38.5503 14.6965 36.109 11.6955 35.9929C8.8263 35.8768 6.40854 38.1758 6.28589 41.1377ZM43.6979 41.3099C43.7605 38.4576 41.408 36.0451 38.5075 35.9903C35.6826 35.9368 33.2531 38.2606 33.1918 41.0789C33.1279 44.0291 35.3904 46.4377 38.2974 46.516C38.9948 46.5326 39.6887 46.4107 40.3387 46.1574C40.9887 45.904 41.582 45.5243 42.0843 45.0401C42.5865 44.5559 42.9878 43.9769 43.2647 43.3366C43.5417 42.6963 43.6889 42.0075 43.6979 41.3099ZM19.669 7.80441C18.6904 5.68936 15.5773 3.81309 13.3239 3.94879C11.2663 4.07274 8.12824 6.1891 7.62329 7.80441H19.669ZM21.4109 5.16354C22.0307 5.96206 22.6387 6.72145 23.218 7.50171C23.2952 7.61273 23.4006 7.70121 23.5232 7.75807C23.6459 7.81494 23.7815 7.83814 23.9161 7.82529C26.1434 7.81485 28.3706 7.82529 30.5966 7.81877C30.7349 7.81877 30.8732 7.8005 31.1185 7.78484C29.8228 6.06514 28.4111 4.64163 26.3352 4.10928C24.5476 3.6526 22.9388 4.11058 21.4109 5.16354ZM47.0473 21.1628H40.8796C41.4693 22.2901 42.0252 23.3705 42.6084 24.4365C42.6697 24.5474 42.8955 24.6178 43.0468 24.6217C43.7958 24.64 44.5447 24.6309 45.2936 24.6309H47.0473V21.1628Z" fill="#22A33F"/>
<path d="M13.4673 14.875H16.3378V24.4625H13.4673V14.875Z" fill="#FFAA46"/>
<path d="M23.0692 24.4651H20.1987V14.8789H23.0692V24.4651Z" fill="#FFAA46"/>
<path d="M26.9106 14.8711H29.7681V24.4547H26.9106V14.8711Z" fill="#FFAA46"/>
<path d="M6.74121 14.5615H9.62959V17.4316H6.74774L6.74121 14.5615Z" fill="#FFAA46"/>
<path d="M10.1025 39.812H12.9609V42.6821H10.1025V39.812Z" fill="#22A33F"/>
<path d="M37.0095 42.6782V39.8198H39.8862V42.6782H37.0095Z" fill="#22A33F"/>
</svg>
