<svg width="195" height="195" viewBox="0 0 195 195" fill="none" xmlns="http://www.w3.org/2000/svg">
<path d="M128.998 0.00106049C129.093 17.8375 136.408 33.9489 148.158 45.5756L129.24 45.6756L129.34 64.5979L148.262 64.4978L148.162 45.5787C159.914 57.2054 176.101 64.3506 193.939 64.2563C193.845 46.4152 186.528 30.3085 174.774 18.6818C174.742 18.6504 174.711 18.6191 174.679 18.5878C162.936 7.01497 146.787 -0.0929981 128.998 0.00106049Z" fill="#00CE62"/>
<path d="M0 0.683121C0.0943081 18.5196 7.40963 34.6309 19.1593 46.2577L0.241499 46.3577L0.341548 65.2799L19.264 65.1799L19.164 46.2607C30.916 57.8875 47.1033 65.0327 64.9406 64.9384C64.8463 47.0973 57.5295 30.9906 45.7759 19.3639C45.7426 19.3309 45.7092 19.298 45.6759 19.2651C33.9329 7.69506 17.7868 0.589075 0 0.683121Z" fill="#00CE62"/>
<path d="M110.617 64.6969L129.54 64.5968L129.44 45.6746L110.521 45.7746C122.148 34.0243 129.292 17.8365 129.198 0C111.358 0.0943256 95.2508 7.40879 83.6224 19.1637C71.9948 30.9141 64.8463 47.1004 64.9406 64.9384C82.778 64.844 98.8888 57.5281 110.517 45.7777L110.617 64.6969Z" fill="#00CE62"/>
<path d="M193.938 64.0563C193.788 64.0571 193.639 64.0599 193.489 64.0607C175.83 64.274 159.892 71.5654 148.361 83.2165L148.261 64.2998L129.339 64.3999L129.439 83.3236L148.357 83.2236C136.73 94.975 129.586 111.161 129.68 128.999C147.518 128.905 163.628 121.583 175.256 109.832C175.29 109.798 175.324 109.764 175.357 109.73C186.927 97.9867 194.032 81.8453 193.938 64.0563Z" fill="#00CE62"/>
<path d="M129.68 128.999C129.775 146.836 137.09 162.947 148.84 174.574L129.922 174.674L130.022 193.596L148.944 193.496L148.844 174.577C160.596 186.204 176.784 193.349 194.621 193.254C194.527 175.413 187.21 159.307 175.456 147.68C163.705 136.052 147.518 128.905 129.68 128.999Z" fill="#00CE62"/>
<path d="M64.9396 64.7384C64.7897 64.7392 64.6406 64.742 64.4907 64.7427C46.8322 64.9561 30.894 72.2475 19.363 83.8986L19.2629 64.9819L0.340501 65.0819L0.440558 84.0057L19.3584 83.9056C7.7323 95.6571 0.587747 111.843 0.682063 129.681C18.5194 129.587 34.6302 122.265 46.2579 110.514C57.8878 98.7626 65.0339 82.5791 64.9396 64.7384Z" fill="#00CE62"/>
<path d="M0.682063 129.681C0.776371 147.518 8.09169 163.629 19.8414 175.256L0.923562 175.356L1.02361 194.278L19.946 194.178L19.846 175.259C31.5981 186.886 47.7854 194.031 65.6227 193.937C65.5284 176.096 58.2115 159.989 46.458 148.362C34.7067 136.734 18.5194 129.587 0.682063 129.681Z" fill="#00CE62"/>
<path d="M111.299 193.695L130.222 193.595L130.122 174.673L111.203 174.773C122.83 163.022 129.975 146.835 129.88 128.998C112.04 129.093 95.9329 136.407 84.3044 148.162C72.6768 159.912 65.5284 176.099 65.6227 193.937C83.4601 193.842 99.5709 186.526 111.199 174.776L111.299 193.695Z" fill="#00CE62"/>
<path d="M129.88 128.998C129.692 93.4704 100.86 64.7915 65.3885 64.738C65.3135 64.7384 65.2388 64.7383 65.164 64.7382C65.0893 64.7381 65.0145 64.738 64.9396 64.7384C65.0339 82.5791 72.3508 98.6861 84.1043 110.314C95.8556 121.941 112.042 129.093 129.88 128.998Z" fill="#00CE62"/>
<path d="M110.746 64.4982L110.845 83.2899L129.638 83.1905L129.539 64.3988L110.746 64.4982Z" fill="#00CE62"/>
<path d="M46.458 148.362L84.3044 148.162L84.1043 110.314L46.2579 110.514L46.458 148.362Z" fill="#00CE62"/>
<path d="M45.6771 0.683121L45.7759 19.3639L83.5223 19.1643V0.683121H45.6771Z" fill="#00CE62"/>
<path d="M194.621 0.683121H174.679L174.774 18.6818L194.621 18.5769V0.683121Z" fill="#00CE62"/>
<path d="M194.621 109.73L175.256 109.832L175.456 147.58H194.379H194.621V109.73Z" fill="#00CE62"/>
</svg>
