<svg width="230" height="230" viewBox="0 0 230 230" fill="none" xmlns="http://www.w3.org/2000/svg">
<path d="M115 197.8C86.25 197.8 60.835 183.08 46 161C46.345 138 92 125.35 115 125.35C138 125.35 183.655 138 184 161C169.165 183.08 143.75 197.8 115 197.8ZM115 34.5C124.15 34.5 132.925 38.1348 139.395 44.6048C145.865 51.0748 149.5 59.85 149.5 69C149.5 78.15 145.865 86.9252 139.395 93.3952C132.925 99.8652 124.15 103.5 115 103.5C105.85 103.5 97.0748 99.8652 90.6048 93.3952C84.1348 86.9252 80.5 78.15 80.5 69C80.5 59.85 84.1348 51.0748 90.6048 44.6048C97.0748 38.1348 105.85 34.5 115 34.5ZM115 0C99.898 0 84.9438 2.97456 70.9914 8.75385C57.039 14.5331 44.3615 23.004 33.6827 33.6827C12.116 55.2494 0 84.5001 0 115C0 145.5 12.116 174.751 33.6827 196.317C44.3615 206.996 57.039 215.467 70.9914 221.246C84.9438 227.025 99.898 230 115 230C145.5 230 174.751 217.884 196.317 196.317C217.884 174.751 230 145.5 230 115C230 51.405 178.25 0 115 0Z" fill="#F5F5F5"/>
</svg>
