<svg width="26" height="26" viewBox="0 0 26 26" fill="none" xmlns="http://www.w3.org/2000/svg">
<path fill-rule="evenodd" clip-rule="evenodd" d="M1 13.1799C1 6.55251 6.37258 1.17993 13 1.17993C19.6274 1.17993 25 6.55251 25 13.1799C25 19.8073 19.6274 25.1799 13 25.1799C6.37258 25.1799 1 19.8073 1 13.1799Z" stroke="#FDFCFC"/>
<path d="M13.4807 19.5801V13.6734H15.5584L15.8567 11.4201H13.4807V9.98009C13.4807 9.32676 13.6658 8.88342 14.6292 8.88342H15.8567V6.87009C15.6441 6.84342 14.9172 6.78009 14.0669 6.78009C12.2978 6.78009 11.0841 7.83009 11.0841 9.76009V11.4234H8.99951V13.6768H11.0875V19.5801H13.4807Z" fill="#FDFCFC"/>
</svg>
