<svg width="431" height="431" viewBox="0 0 431 431" fill="none" xmlns="http://www.w3.org/2000/svg">
<path d="M322.117 107.858C312.451 117.78 307.731 130.732 307.912 143.69L297.189 133.1L286.869 143.549L297.522 154.07L297.412 154.181L297.486 154.255L307.914 143.696C308.085 155.873 312.585 168.056 321.38 177.741C321.948 178.245 322.508 178.762 323.06 179.295L322.612 107.654L322.314 107.656C322.265 107.705 322.216 107.756 322.167 107.806L322.117 107.858Z" fill="#66BC59"/>
<path d="M251.262 179.602C261.375 189.59 274.514 194.592 287.586 194.612C300.467 194.631 313.286 189.812 323.066 180.139L323.061 179.509C322.484 178.93 321.924 178.34 321.38 177.741C301.162 159.839 270.524 160.364 251.511 179.353C251.469 179.395 251.428 179.435 251.386 179.477L251.378 179.486L251.306 179.557L251.262 179.602Z" fill="#66BC59"/>
<path d="M286.555 143.459L275.828 132.866L265.51 143.313C265.34 131.137 260.839 118.953 252.045 109.268C251.617 108.888 251.191 108.499 250.772 108.103L249.151 108.113C239.922 117.945 235.417 130.601 235.598 143.27C235.78 156.337 240.947 169.415 251.059 179.401C260.891 169.446 265.693 156.385 265.51 143.317L276.235 153.909L286.555 143.459Z" fill="#66BC59"/>
<path d="M178.834 179.291C188.945 189.277 202.085 194.283 215.153 194.304L204.726 204.862L215.453 215.455L225.883 204.894L215.158 194.303C228.227 194.322 241.227 189.357 251.059 179.402C240.946 169.414 227.807 164.41 214.737 164.392C201.667 164.372 188.666 169.336 178.834 179.291Z" fill="#66BC59"/>
<path d="M152.755 132.675L142.325 143.236L152.941 153.72L163.368 143.162C163.553 156.229 168.722 169.305 178.834 179.291C188.666 169.335 193.464 156.272 193.282 143.203C193.107 130.77 188.423 118.331 179.259 108.55L176.51 108.567C176.301 108.763 176.091 108.956 175.879 109.147C167.356 118.805 163.197 130.977 163.367 143.155L152.755 132.675Z" fill="#66BC59"/>
<path d="M142.6 194.522C155.669 194.542 168.672 189.58 178.504 179.625C158.968 160.331 128.13 159.626 108.33 177.547C108.249 177.638 108.168 177.73 108.086 177.821L108.108 181.236C117.948 190.076 130.305 194.504 142.6 194.522Z" fill="#66BC59"/>
<path d="M142.178 164.468L152.537 153.98L141.996 143.57L131.638 154.058L142.178 164.468Z" fill="#66BC59"/>
<path d="M143.196 236.834L164.056 215.711L142.601 194.522L121.74 215.645L143.196 236.834Z" fill="#66BC59"/>
<path d="M204.694 226.35L215.124 215.789L204.397 205.196L193.969 215.754C193.786 202.687 188.616 189.61 178.504 179.625C168.672 189.581 163.871 202.64 164.056 215.711C164.239 228.778 169.406 241.857 179.518 251.843C189.35 241.887 194.152 228.826 193.969 215.759L204.694 226.35Z" fill="#66BC59"/>
<path d="M143.613 266.745L133.296 277.191L144.023 287.785L154.342 277.336L143.617 266.744C156.686 266.763 169.687 261.798 179.518 251.843C169.404 241.855 156.266 236.852 143.196 236.834C130.671 236.814 118.21 241.372 108.54 250.512L108.555 252.794C108.842 253.095 109.125 253.399 109.403 253.706C119.196 262.378 131.436 266.726 143.613 266.745Z" fill="#66BC59"/>
<path d="M133.869 298.475L144.521 308.996L154.769 298.619L144.117 288.098L133.869 298.475Z" fill="#66BC59"/>
<path d="M179.721 252.043C179.638 252.126 179.558 252.211 179.475 252.295C169.809 262.217 165.089 275.169 165.269 288.127L154.546 277.537L144.227 287.987L154.879 298.507L154.769 298.619L154.844 298.692L165.271 288.134C165.443 300.31 169.943 312.494 178.738 322.179C179.226 322.611 179.708 323.055 180.184 323.509L181.475 323.5C190.809 313.646 195.363 300.913 195.184 288.176C195.001 275.106 189.834 262.031 179.721 252.043Z" fill="#66BC59"/>
<path d="M288.568 288.32L277.841 277.727L267.413 288.286C267.23 275.218 262.06 262.142 251.949 252.157C242.116 262.113 237.315 275.171 237.5 288.242C237.675 300.745 242.413 313.256 251.679 323.062L254.091 323.047C254.36 322.793 254.629 322.544 254.902 322.297C263.425 312.639 267.583 300.468 267.413 288.29L278.138 298.881L278.209 298.809L278.098 298.698L288.456 288.21L288.568 288.32Z" fill="#66BC59"/>
<path d="M251.949 252.156C231.808 232.266 199.657 232.132 179.97 251.793C179.93 251.834 179.889 251.874 179.85 251.914L179.845 251.919C179.804 251.959 179.762 252.001 179.721 252.043C189.834 262.031 202.973 267.034 216.045 267.053C229.114 267.073 242.117 262.112 251.949 252.156Z" fill="#66BC59"/>
<path d="M251.262 179.602C251.179 179.686 251.099 179.77 251.016 179.854C241.35 189.776 236.63 202.728 236.81 215.686L226.087 205.096L215.657 215.657L226.385 226.251L236.812 215.693C236.997 228.761 242.166 241.836 252.278 251.823C262.11 241.867 266.908 228.803 266.725 215.734C266.543 202.664 261.375 189.59 251.262 179.602Z" fill="#66BC59"/>
<path d="M204.97 226.479L215.623 237L225.981 226.511L215.328 215.991L204.97 226.479Z" fill="#66BC59"/>
<path d="M252.278 251.823C262.39 261.808 275.53 266.815 288.597 266.835L278.17 277.393L288.785 287.876L299.215 277.315L288.602 266.834C300.781 266.852 312.9 262.541 322.451 253.898C322.799 253.502 323.155 253.112 323.519 252.725L323.508 250.975C313.536 241.625 300.827 236.941 288.181 236.923C275.111 236.903 262.11 241.867 252.278 251.823Z" fill="#66BC59"/>
<path d="M288.181 236.923L309.041 215.801L287.586 194.612L266.725 215.734L288.181 236.923Z" fill="#66BC59"/>
<path d="M214.737 164.392L235.598 143.27L214.142 122.08L193.281 143.203L214.737 164.392Z" fill="#66BC59"/>
<path d="M216.64 309.365C224.786 301.116 229.353 296.491 237.5 288.242C229.121 279.967 224.423 275.328 216.044 267.053L195.184 288.176C203.563 296.451 208.26 301.09 216.64 309.365Z" fill="#66BC59"/>
<path fill-rule="evenodd" clip-rule="evenodd" d="M323.06 179.295C322.508 178.762 321.948 178.245 321.38 177.741C321.924 178.34 322.485 178.93 323.061 179.509L323.066 180.139C323.139 180.066 323.213 179.993 323.288 179.919C323.355 179.85 323.423 179.783 323.49 179.715L323.415 179.641L323.301 179.53C323.221 179.451 323.141 179.373 323.06 179.295ZM323.066 180.149C313.518 190.05 308.858 202.919 309.041 215.801C309.218 228.433 314.052 241.074 323.508 250.924L323.066 180.149ZM323.519 252.725L323.508 250.975C323.843 251.289 324.175 251.609 324.503 251.933C324.179 252.261 323.852 252.584 323.521 252.902L323.956 322.552C314.799 312.774 310.115 300.34 309.94 287.912L299.513 298.47L288.897 287.987L288.785 287.876L299.215 277.315L299.327 277.426L309.938 287.905C309.768 275.728 313.928 263.556 322.451 253.898C322.799 253.503 323.156 253.112 323.519 252.725ZM286.759 143.661L297.412 154.181L297.522 154.07L286.869 143.549L286.759 143.661ZM321.909 107.658L250.953 108.101C250.655 107.793 250.353 107.487 250.045 107.183C249.743 107.49 249.445 107.8 249.151 108.113L250.772 108.103C251.191 108.499 251.617 108.888 252.045 109.268C261.839 117.94 274.079 122.288 286.255 122.307L275.938 132.754L275.828 132.866L286.555 143.459L286.665 143.348L296.984 132.898L286.26 122.307C299.218 122.326 312.108 117.444 321.909 107.658ZM249.104 108.113C239.391 117.448 226.797 122.1 214.142 122.08C201.732 122.062 189.262 117.553 179.377 108.549L249.104 108.113ZM175.879 109.147C176.091 108.956 176.301 108.763 176.51 108.567L179.259 108.55C178.791 108.049 178.31 107.556 177.818 107.071C177.776 107.113 177.736 107.154 177.695 107.196C177.654 107.239 177.613 107.28 177.572 107.322C177.172 107.733 176.781 108.148 176.398 108.568L107.761 108.997C117.563 117.701 129.826 122.066 142.026 122.085L131.599 132.643L142.213 143.126L142.326 143.236L152.755 132.675L152.643 132.565L142.03 122.084C154.209 122.102 166.329 117.791 175.879 109.147ZM181.507 323.5L251.585 323.063C241.672 313.948 229.125 309.382 216.64 309.365C203.908 309.345 191.242 314.054 181.507 323.5ZM254.091 323.047C254.36 322.793 254.629 322.544 254.902 322.297C274.082 304.938 303.617 305.056 323.205 322.615L254.228 323.045C253.815 323.494 253.393 323.937 252.962 324.374C252.525 323.943 252.097 323.505 251.679 323.062L254.091 323.047ZM288.456 288.21L288.568 288.32L278.21 298.809L278.098 298.698L288.456 288.21ZM180.737 324.264C180.987 324.012 181.232 323.757 181.475 323.5L180.185 323.509C179.708 323.055 179.226 322.611 178.738 322.179C158.566 304.317 128.021 304.799 108.998 323.66L109 323.954L179.989 323.51C180.235 323.763 180.485 324.015 180.737 324.264ZM144.117 288.098L154.769 298.619L154.88 298.507L144.227 287.987L144.117 288.098ZM108.996 323.244C118.437 313.366 123.047 300.564 122.868 287.755L133.593 298.346L143.912 287.897L144.023 287.785L133.296 277.191L133.186 277.303L122.868 287.75C122.698 275.574 118.197 263.39 109.403 253.706C109.125 253.399 108.842 253.095 108.555 252.794L108.54 250.512C108.119 250.91 107.703 251.317 107.293 251.732C107.709 252.143 108.13 252.545 108.556 252.939L108.996 323.244ZM121.74 215.645C121.569 203.388 117.015 191.128 108.109 181.412L108.54 250.424C117.53 240.647 121.916 228.148 121.74 215.645ZM108.086 177.821L108.108 181.236C107.487 180.679 106.876 180.104 106.277 179.512C106.318 179.47 106.36 179.428 106.401 179.387L106.474 179.314L106.525 179.263C107.038 178.751 107.557 178.254 108.086 177.769L107.661 109.806C116.267 119.439 120.672 131.491 120.841 143.535L131.269 132.976L141.996 143.57L131.638 154.058L131.566 154.131L120.841 143.539C121.012 155.717 116.853 167.889 108.33 177.547C108.249 177.638 108.168 177.73 108.086 177.821Z" fill="#66BC59"/>
<path d="M276.511 154.038L287.164 164.558L297.411 154.181L286.759 143.661L276.511 154.038Z" fill="#66BC59"/>
<path d="M215.542 236.627C223.689 228.377 228.257 223.753 236.403 215.504C228.024 207.229 223.326 202.59 214.947 194.315L194.087 215.438C202.466 223.712 207.164 228.352 215.542 236.627Z" fill="#66BC59"/>
<path d="M286.732 164.541C294.878 156.292 299.446 151.668 307.593 143.418C299.214 135.144 294.516 130.504 286.137 122.229L265.277 143.352C273.655 151.627 278.354 156.266 286.732 164.541Z" fill="#66BC59"/>
<path d="M142.502 164.494C150.649 156.245 155.216 151.62 163.362 143.371C154.983 135.097 150.286 130.457 141.907 122.182L121.047 143.305C129.425 151.58 134.123 156.219 142.502 164.494Z" fill="#66BC59"/>
<path d="M144.09 308.978C152.237 300.729 156.804 296.104 164.951 287.855C156.572 279.58 151.874 274.941 143.495 266.666L122.635 287.789C131.014 296.063 135.712 300.703 144.09 308.978Z" fill="#66BC59"/>
<path d="M289.184 309.353C297.331 301.104 301.898 296.479 310.044 288.231C301.666 279.956 296.968 275.316 288.589 267.041L267.729 288.164C276.107 296.439 280.805 301.079 289.184 309.353Z" fill="#66BC59"/>
</svg>
