<svg width="511" height="511" viewBox="0 0 511 511" fill="none" xmlns="http://www.w3.org/2000/svg">
<path fill-rule="evenodd" clip-rule="evenodd" d="M85.7878 473.99L61.3926 449.594L85.7878 425.199L110.183 449.594L85.7878 473.99Z" fill="#00CE62"/>
<path fill-rule="evenodd" clip-rule="evenodd" d="M36.9971 425.199L61.3923 400.804L85.7875 425.199L61.3923 449.594L36.9971 425.199Z" fill="#00CE62"/>
<path fill-rule="evenodd" clip-rule="evenodd" d="M36.9971 85.7879L61.3923 61.3927L85.7875 85.7879L61.3923 110.183L36.9971 85.7879Z" fill="#00CE62"/>
<path d="M206.343 425.546L255.133 376.756L303.924 425.546L255.133 474.337L206.343 425.546Z" fill="#FAFFC4"/>
<path d="M36.6372 255.841L85.4276 207.05L134.218 255.841L85.4276 304.631L36.6372 255.841Z" fill="#FAFFC4"/>
<path d="M85.7878 425.199L110.183 400.804L85.7878 376.409L61.3926 400.804L85.7878 425.199Z" fill="#00CE62"/>
<path fill-rule="evenodd" clip-rule="evenodd" d="M425.199 473.99L400.804 449.594L425.199 425.199L449.594 449.594L425.199 473.99Z" fill="#00CE62"/>
<path d="M85.7878 85.7879L110.183 61.3927L85.7878 36.9975L61.3926 61.3927L85.7878 85.7879Z" fill="#00CE62"/>
<path d="M376.049 255.841L424.839 207.05L473.629 255.841L424.839 304.631L376.049 255.841Z" fill="#FAFFC4"/>
<path d="M425.199 425.199L449.594 400.804L425.199 376.409L400.804 400.804L425.199 425.199Z" fill="#00CE62"/>
<path d="M206.343 86.1351L255.133 37.3447L303.924 86.1351L255.133 134.925L206.343 86.1351Z" fill="#FAFFC4"/>
<path d="M400.804 61.3927L425.199 85.7879L449.594 61.3927L425.199 36.9975L400.804 61.3927Z" fill="#00CE62"/>
<path d="M400.804 110.183L425.199 85.7879L400.804 61.3927L376.409 85.7879L400.804 110.183Z" fill="#00CE62"/>
<path d="M255.493 255.494L279.889 279.889L304.284 255.494L279.889 231.098L255.493 255.494Z" fill="#00CE62"/>
<path d="M231.098 231.098L255.493 255.494L279.889 231.098L255.493 206.703L231.098 231.098Z" fill="#00CE62"/>
<path d="M231.098 279.889L255.493 255.494L231.098 231.098L206.703 255.494L231.098 279.889Z" fill="#00CE62"/>
<path d="M231.098 279.889L255.493 304.284L279.889 279.889L255.493 255.494L231.098 279.889Z" fill="#00CE62"/>
<path d="M425.199 425.199L449.594 449.594L473.989 425.199L449.594 400.804L425.199 425.199Z" fill="#00CE62"/>
<path fill-rule="evenodd" clip-rule="evenodd" d="M340.346 510.052H510.052C463.189 463.189 387.209 463.189 340.346 510.052ZM510.052 510.052C463.189 463.189 463.189 387.209 510.052 340.346V510.052ZM340.346 340.346C387.209 387.209 387.209 463.189 340.346 510.052C293.483 463.189 293.483 387.209 340.346 340.346ZM340.346 170.641C293.483 217.504 293.483 293.483 340.346 340.346C293.483 293.483 217.503 293.483 170.641 340.346C217.503 293.483 217.503 217.504 170.641 170.641C217.503 217.504 293.483 217.504 340.346 170.641ZM340.346 0.93512C387.209 47.798 387.209 123.778 340.346 170.641C293.483 123.778 293.483 47.798 340.346 0.93512ZM170.641 0.93512C217.503 47.798 217.503 123.778 170.641 170.641C123.778 123.778 123.778 47.798 170.641 0.93512ZM0.935059 0.93512C47.798 47.798 47.798 123.778 0.935059 170.641V0.93512ZM0.935059 340.346C47.798 293.483 47.798 217.504 0.935059 170.641C47.798 217.504 123.778 217.504 170.641 170.641C123.778 217.504 123.778 293.483 170.641 340.346C123.778 293.483 47.798 293.483 0.935059 340.346ZM0.935059 510.052C47.798 463.189 47.798 387.209 0.935059 340.346C47.798 387.209 123.778 387.209 170.641 340.346C123.778 387.209 123.778 463.189 170.641 510.052C123.778 463.189 47.798 463.189 0.935059 510.052ZM0.935059 510.052H170.641H340.346C293.483 463.189 217.503 463.189 170.641 510.052C217.503 463.189 217.503 387.209 170.641 340.346C217.503 387.209 293.483 387.209 340.346 340.346C387.209 387.209 463.189 387.209 510.052 340.346V170.641V0.93512H340.346H170.641H0.935059C47.798 47.798 123.778 47.798 170.641 0.93512C217.503 47.798 293.483 47.798 340.346 0.93512C387.209 47.798 463.189 47.798 510.052 0.93512C463.189 47.798 463.189 123.778 510.052 170.641C463.189 123.778 387.209 123.778 340.346 170.641C293.483 123.778 217.503 123.778 170.641 170.641C123.778 123.778 47.798 123.778 0.935059 170.641V340.346V510.052ZM510.052 170.641C463.189 217.504 387.209 217.504 340.346 170.641C387.209 217.504 387.209 293.483 340.346 340.346C387.209 293.483 463.189 293.483 510.052 340.346C463.189 293.483 463.189 217.504 510.052 170.641ZM85.7879 473.99L110.183 449.594L134.578 425.199L110.183 400.804L85.7879 376.409L61.3927 400.804L36.9975 425.199L61.3927 449.594L85.7879 473.99ZM425.199 376.409L400.804 400.804L376.409 425.199L400.804 449.594L425.199 473.99L449.594 449.594L425.199 425.199L449.594 400.804L425.199 376.409ZM473.989 85.7879L449.594 110.183L425.199 134.578L400.804 110.183L425.199 85.7879L449.594 61.3927L473.989 85.7879ZM85.7879 36.9975L110.183 61.3927L134.578 85.7879L110.183 110.183L85.7879 134.578L61.3927 110.183L36.9975 85.7879L61.3927 61.3927L85.7879 36.9975ZM85.428 207.05L36.6376 255.841L85.428 304.631L134.218 255.841L85.428 207.05ZM376.049 255.841L424.839 207.05L473.629 255.841L424.839 304.631L376.049 255.841ZM255.133 376.756L206.343 425.546L255.133 474.337L303.924 425.546L255.133 376.756ZM206.343 86.1351L255.133 37.3447L303.924 86.1351L255.133 134.925L206.343 86.1351Z" fill="#00CE62"/>
</svg>
