<svg width="366" height="366" viewBox="0 0 366 366" fill="none" xmlns="http://www.w3.org/2000/svg">
<path d="M319.017 134.587C318.909 134.483 318.8 134.381 318.692 134.277C305.865 122.139 289.347 116.28 272.958 116.619L286.053 102.967L272.398 89.868L259.297 103.524L272.95 116.621C256.422 116.965 240.026 123.614 227.677 136.486C240.55 148.835 257.214 154.792 273.741 154.449C290.271 154.107 306.667 147.462 319.017 134.587Z" fill="#00CE62"/>
<path d="M227.677 136.486C215.33 149.358 209.367 166.018 209.71 182.544L196.058 169.448L182.959 183.103L196.614 196.202L209.711 182.549C210.056 199.077 216.704 215.475 229.577 227.823C241.928 214.948 247.886 198.291 247.54 181.762C247.197 165.233 240.55 148.835 227.677 136.486Z" fill="#00CE62"/>
<path d="M262.539 259.444L276.195 272.543L289.294 258.888L275.642 245.791C292.169 245.448 308.566 238.799 320.914 225.927C308.04 213.577 291.383 207.616 274.852 207.962C258.325 208.305 241.926 214.95 229.577 227.823C242.449 240.172 259.109 246.133 275.637 245.791L262.539 259.444Z" fill="#00CE62"/>
<path d="M320.914 225.927C345.509 200.288 344.771 159.628 319.34 134.899C319.286 134.847 319.232 134.795 319.179 134.743C319.125 134.691 319.071 134.639 319.017 134.587C306.667 147.462 300.708 164.119 301.053 180.649C301.397 197.177 308.041 213.578 320.914 225.927Z" fill="#00CE62"/>
<path d="M352.072 166.299L339.063 179.86L352.625 192.87L365.634 179.309L352.072 166.299Z" fill="#00CE62"/>
<path d="M247.54 181.762L274.852 207.962L301.053 180.649L273.741 154.449L247.54 181.762Z" fill="#00CE62"/>
<path d="M225.925 45.2847C225.817 45.1809 225.708 45.0792 225.6 44.9754C212.773 32.837 196.255 26.978 179.866 27.3167L192.961 13.6654L179.306 0.565884L166.205 14.2223L179.857 27.3186C163.33 27.6632 146.934 34.3115 134.585 47.1843C147.458 59.5326 164.121 65.4898 180.649 65.147C197.179 64.8047 213.575 58.1596 225.925 45.2847Z" fill="#00CE62"/>
<path d="M134.585 47.1843C122.237 60.056 116.275 76.7155 116.618 93.2419L102.966 80.1455L89.8665 93.8008L103.522 106.9L116.619 93.2473C116.964 109.775 123.612 126.173 136.485 138.521C148.836 125.646 154.794 108.989 154.448 92.4598C154.105 75.9313 147.458 59.5326 134.585 47.1843Z" fill="#00CE62"/>
<path d="M169.447 170.142L183.103 183.241L196.202 169.586L182.55 156.489C199.076 156.146 215.474 149.497 227.822 136.625C214.947 124.275 198.291 118.314 181.76 118.66C165.233 119.003 148.833 125.648 136.485 138.521C149.357 150.869 166.017 156.831 182.544 156.489L169.447 170.142Z" fill="#00CE62"/>
<path d="M227.822 136.625C252.417 110.986 251.679 70.3262 226.248 45.5969C226.194 45.545 226.14 45.4929 226.087 45.4408C226.033 45.3887 225.979 45.3366 225.925 45.2847C213.575 58.1596 207.616 74.817 207.961 91.3471C208.305 107.875 214.949 124.276 227.822 136.625Z" fill="#00CE62"/>
<path d="M258.98 76.9967L245.971 90.5578L259.533 103.568L272.542 90.0064L258.98 76.9967Z" fill="#00CE62"/>
<path d="M154.448 92.4598L181.76 118.66L207.961 91.3471L180.649 65.147L154.448 92.4598Z" fill="#00CE62"/>
<path d="M229.715 227.679C229.607 227.575 229.498 227.473 229.39 227.37C216.563 215.231 200.045 209.372 183.656 209.711L196.751 196.06L183.096 182.96L169.995 196.616L183.647 209.713C167.12 210.057 150.724 216.706 138.375 229.578C151.248 241.927 167.911 247.884 184.439 247.541C200.969 247.199 217.365 240.554 229.715 227.679Z" fill="#00CE62"/>
<path d="M138.375 229.578C126.027 242.45 120.065 259.11 120.408 275.636L106.756 262.54L93.6565 276.195L107.312 289.295L120.409 275.641C120.754 292.169 127.402 308.567 140.275 320.915C152.626 308.04 158.584 291.383 158.238 274.854C157.895 258.325 151.248 241.927 138.375 229.578Z" fill="#00CE62"/>
<path d="M173.237 352.536L186.893 365.636L199.992 351.98L186.339 338.883C202.866 338.54 219.264 331.891 231.612 319.019C218.737 306.669 202.081 300.709 185.55 301.054C169.023 301.397 152.623 308.042 140.275 320.915C153.147 333.264 169.807 339.225 186.334 338.883L173.237 352.536Z" fill="#00CE62"/>
<path d="M231.612 319.019C256.207 293.38 255.468 252.72 230.038 227.991C229.984 227.939 229.93 227.887 229.877 227.835C229.823 227.783 229.769 227.731 229.715 227.679C217.365 240.554 211.406 257.211 211.751 273.741C212.095 290.269 218.739 306.67 231.612 319.019Z" fill="#00CE62"/>
<path d="M262.77 259.391L249.761 272.952L263.323 285.962L276.332 272.401L262.77 259.391Z" fill="#00CE62"/>
<path d="M158.238 274.854L185.55 301.054L211.751 273.741L184.439 247.541L158.238 274.854Z" fill="#00CE62"/>
<path d="M136.623 138.377C136.515 138.273 136.406 138.171 136.298 138.067C123.471 125.929 106.952 120.07 90.5635 120.409L103.659 106.757L90.0036 93.658L76.9032 107.314L90.5553 120.411C74.0283 120.755 57.6319 127.404 45.2831 140.276C58.1555 152.625 74.8193 158.582 91.3468 158.239C107.877 157.897 124.272 151.252 136.623 138.377Z" fill="#00CE62"/>
<path d="M45.2831 140.276C32.9354 153.148 26.973 169.808 27.3159 186.334L13.6638 173.238L0.564423 186.893L14.2199 199.992L27.3171 186.339C27.6617 202.867 34.3102 219.265 47.1826 231.613C59.5335 218.738 65.4916 202.081 65.1459 185.552C64.803 169.023 58.1555 152.625 45.2831 140.276Z" fill="#00CE62"/>
<path d="M80.1452 263.234L93.8008 276.333L106.9 262.678L93.2474 249.581C109.774 249.238 126.172 242.589 138.52 229.717C125.645 217.367 108.989 211.406 92.458 211.752C75.9306 212.095 59.5314 218.74 47.1826 231.613C60.055 243.962 76.7146 249.923 93.2424 249.581L80.1452 263.234Z" fill="#00CE62"/>
<path d="M138.52 229.717C163.114 204.078 162.376 163.418 136.946 138.689C136.892 138.637 136.838 138.585 136.784 138.533C136.731 138.481 136.677 138.429 136.623 138.377C124.272 151.252 118.314 167.909 118.659 184.439C119.003 200.967 125.647 217.368 138.52 229.717Z" fill="#00CE62"/>
<path d="M169.678 170.089L156.669 183.65L170.231 196.66L183.24 183.099L169.678 170.089Z" fill="#00CE62"/>
<path d="M65.1459 185.552L92.458 211.752L118.659 184.439L91.3468 158.239L65.1459 185.552Z" fill="#00CE62"/>
</svg>
