<svg width="259" height="259" viewBox="0 0 259 259" fill="none" xmlns="http://www.w3.org/2000/svg">
<path d="M258.2 193.6C258.2 193.45 258.198 193.301 258.198 193.151C258.078 175.492 250.871 159.515 239.281 147.923H258.198V129H239.274V147.918C227.584 136.23 211.436 129 193.598 129C193.598 146.838 200.835 162.987 212.523 174.676C224.214 186.368 240.359 193.6 258.2 193.6Z" fill="#00CE62"/>
<path d="M193.598 129C175.761 129 159.611 136.23 147.923 147.918V129H129V147.923H147.919C136.231 159.613 129 175.762 129 193.6C146.841 193.6 162.987 186.368 174.675 174.676C186.366 162.987 193.598 146.838 193.598 129Z" fill="#00CE62"/>
<path d="M129 239.277V258.2H147.923V239.281C159.611 250.97 175.761 258.2 193.598 258.2C193.598 240.36 186.369 224.214 174.675 212.523C162.987 200.834 146.838 193.6 129 193.6C129 211.438 136.231 227.587 147.919 239.277H129Z" fill="#00CE62"/>
<path d="M193.598 258.2C229.126 258.2 257.957 229.52 258.198 194.049C258.198 193.974 258.199 193.899 258.199 193.824C258.199 193.75 258.2 193.675 258.2 193.6C240.359 193.6 224.214 200.832 212.523 212.523C200.835 224.213 193.598 240.362 193.598 258.2Z" fill="#00CE62"/>
<path d="M258.198 239.407H239.406V258.2H258.198V239.407Z" fill="#00CE62"/>
<path d="M174.675 174.676V212.523H212.523V174.676H174.675Z" fill="#00CE62"/>
<path d="M258.2 64.6C258.2 64.4501 258.198 64.301 258.198 64.1511C258.078 46.4917 250.871 30.5152 239.281 18.9227H258.198V0H239.274V18.9181C227.584 7.23003 211.436 0 193.598 0C193.598 17.8376 200.835 33.9869 212.523 45.6765C224.214 57.3684 240.359 64.6 258.2 64.6Z" fill="#00CE62"/>
<path d="M193.598 0C175.761 0 159.611 7.23003 147.923 18.9181V0H129V18.9227H147.919C136.231 30.6131 129 46.7624 129 64.6C146.841 64.6 162.987 57.3684 174.675 45.6765C186.366 33.9869 193.598 17.8376 193.598 0Z" fill="#00CE62"/>
<path d="M129 110.277V129.2H147.923V110.281C159.611 121.97 175.761 129.2 193.598 129.2C193.598 111.36 186.369 95.2139 174.675 83.5235C162.987 71.8339 146.838 64.6 129 64.6C129 82.4376 136.231 98.5869 147.919 110.277H129Z" fill="#00CE62"/>
<path d="M193.598 129.2C229.126 129.2 257.957 100.52 258.198 65.0489C258.198 64.9739 258.199 64.8992 258.199 64.8244C258.199 64.7497 258.2 64.6749 258.2 64.6C240.359 64.6 224.214 71.8316 212.523 83.5235C200.835 95.2131 193.598 111.362 193.598 129.2Z" fill="#00CE62"/>
<path d="M258.198 110.407H239.406V129.2H258.198V110.407Z" fill="#00CE62"/>
<path d="M174.675 45.6765V83.5235H212.523V45.6765H174.675Z" fill="#00CE62"/>
<path d="M129.2 193.6C129.2 193.45 129.198 193.301 129.198 193.151C129.078 175.492 121.871 159.515 110.281 147.923H129.198V129H110.274V147.918C98.5842 136.23 82.4359 129 64.5977 129C64.5977 146.838 71.8345 162.987 83.5233 174.676C95.2135 186.368 111.359 193.6 129.2 193.6Z" fill="#00CE62"/>
<path d="M64.5977 129C46.761 129 30.6112 136.23 18.9225 147.918V129H0V147.923H18.9194C7.23071 159.613 0 175.762 0 193.6C17.8413 193.6 33.9865 186.368 45.6752 174.676C57.3655 162.987 64.5977 146.838 64.5977 129Z" fill="#00CE62"/>
<path d="M0 239.277V258.2H18.9225V239.281C30.6112 250.97 46.761 258.2 64.5977 258.2C64.5977 240.36 57.3685 224.214 45.6752 212.523C33.9865 200.834 17.8382 193.6 0 193.6C0 211.438 7.23071 227.587 18.9194 239.277H0Z" fill="#00CE62"/>
<path d="M64.5977 258.2C100.126 258.2 128.957 229.52 129.198 194.049C129.198 193.974 129.199 193.899 129.199 193.824C129.199 193.75 129.2 193.675 129.2 193.6C111.359 193.6 95.2135 200.832 83.5233 212.523C71.8345 224.213 64.5977 240.362 64.5977 258.2Z" fill="#00CE62"/>
<path d="M129.198 239.407H110.406V258.2H129.198V239.407Z" fill="#00CE62"/>
<path d="M45.6752 174.676V212.523H83.5233V174.676H45.6752Z" fill="#00CE62"/>
<path d="M129.2 64.6C129.2 64.4501 129.198 64.301 129.198 64.1511C129.078 46.4917 121.871 30.5152 110.281 18.9227H129.198V0H110.274V18.9181C98.5842 7.23003 82.4359 0 64.5977 0C64.5977 17.8376 71.8345 33.9869 83.5233 45.6765C95.2135 57.3684 111.359 64.6 129.2 64.6Z" fill="#00CE62"/>
<path d="M64.5977 0C46.761 0 30.6112 7.23003 18.9225 18.9181V0H0V18.9227H18.9194C7.23071 30.6131 0 46.7624 0 64.6C17.8413 64.6 33.9865 57.3684 45.6752 45.6765C57.3655 33.9869 64.5977 17.8376 64.5977 0Z" fill="#00CE62"/>
<path d="M0 110.277V129.2H18.9225V110.281C30.6112 121.97 46.761 129.2 64.5977 129.2C64.5977 111.36 57.3685 95.2139 45.6752 83.5235C33.9865 71.8339 17.8382 64.6 0 64.6C0 82.4376 7.23071 98.5869 18.9194 110.277H0Z" fill="#00CE62"/>
<path d="M64.5977 129.2C100.126 129.2 128.957 100.52 129.198 65.0489C129.198 64.9739 129.199 64.8992 129.199 64.8244C129.199 64.7497 129.2 64.6749 129.2 64.6C111.359 64.6 95.2135 71.8316 83.5233 83.5235C71.8345 95.2131 64.5977 111.362 64.5977 129.2Z" fill="#00CE62"/>
<path d="M129.198 110.407H110.406V129.2H129.198V110.407Z" fill="#00CE62"/>
<path d="M45.6752 45.6765V83.5235H83.5233V45.6765H45.6752Z" fill="#00CE62"/>
</svg>
