<svg width="26" height="26" viewBox="0 0 26 26" fill="none" xmlns="http://www.w3.org/2000/svg">
<path fill-rule="evenodd" clip-rule="evenodd" d="M0.776367 13.1799C0.776367 6.55251 6.14895 1.17993 12.7764 1.17993C19.4038 1.17993 24.7764 6.55251 24.7764 13.1799C24.7764 19.8073 19.4038 25.1799 12.7764 25.1799C6.14895 25.1799 0.776367 19.8073 0.776367 13.1799Z" stroke="#FDFCFC"/>
<path d="M5.18475 12.8036C6.59653 12.0687 8.17245 11.4554 9.64492 10.839C12.1781 9.8293 14.7214 8.83712 17.2904 7.9134C17.7902 7.75602 18.6883 7.60213 18.7763 8.30204C18.7281 9.2928 18.5297 10.2778 18.3937 11.2627C18.0483 13.4287 17.6492 15.5873 17.26 17.7462C17.1258 18.4653 16.1725 18.8376 15.5626 18.3774C14.0966 17.4417 12.6194 16.5151 11.1722 15.5577C10.6982 15.1025 11.1378 14.4489 11.5612 14.1238C12.7685 12.9994 14.049 12.0441 15.1933 10.8617C15.5019 10.1573 14.5899 10.7509 14.2891 10.9328C12.6362 12.0092 11.0237 13.1512 9.28103 14.0972C8.39086 14.5602 7.35336 14.1645 6.4636 13.9062C5.66584 13.594 4.49679 13.2796 5.18467 12.8037L5.18475 12.8036Z" fill="#FDFCFC"/>
</svg>
