<svg width="130" height="130" viewBox="0 0 130 130" fill="none" xmlns="http://www.w3.org/2000/svg">
<path d="M129.2 64.6C129.2 64.4501 129.198 64.301 129.198 64.1511C129.078 46.4917 121.871 30.5152 110.281 18.9227H129.198V0H110.274V18.9181C98.5842 7.23003 82.4359 0 64.5977 0C64.5977 17.8376 71.8345 33.9869 83.5233 45.6765C95.2135 57.3684 111.359 64.6 129.2 64.6Z" fill="#00CE62"/>
<path d="M64.5977 0C46.761 0 30.6112 7.23003 18.9225 18.9181V0H0V18.9227H18.9194C7.23071 30.6131 0 46.7624 0 64.6C17.8413 64.6 33.9865 57.3684 45.6752 45.6765C57.3655 33.9869 64.5977 17.8376 64.5977 0Z" fill="#00CE62"/>
<path d="M0 110.277V129.2H18.9225V110.281C30.6112 121.97 46.761 129.2 64.5977 129.2C64.5977 111.36 57.3685 95.2139 45.6752 83.5235C33.9865 71.8339 17.8382 64.6 0 64.6C0 82.4376 7.23071 98.5869 18.9194 110.277H0Z" fill="#00CE62"/>
<path d="M64.5977 129.2C100.126 129.2 128.957 100.52 129.198 65.0489C129.198 64.9739 129.199 64.8992 129.199 64.8244C129.199 64.7497 129.2 64.6749 129.2 64.6C111.359 64.6 95.2135 71.8316 83.5233 83.5235C71.8345 95.2131 64.5977 111.362 64.5977 129.2Z" fill="#00CE62"/>
<path d="M129.198 110.407H110.406V129.2H129.198V110.407Z" fill="#00CE62"/>
<path d="M45.6752 45.6765V83.5235H83.5233V45.6765H45.6752Z" fill="#00CE62"/>
</svg>
