<svg width="18" height="19" viewBox="0 0 18 19" fill="none" xmlns="http://www.w3.org/2000/svg">
<path fill-rule="evenodd" clip-rule="evenodd" d="M2.68159 5.63659C3.03814 2.42767 5.75049 0 8.97916 0C12.2078 0 14.9202 2.42767 15.2767 5.63659L15.5347 7.95775C15.6515 8.9761 15.983 9.95809 16.5072 10.8389L17.1331 11.8822C17.3788 12.2916 17.5918 12.6466 17.7321 12.9445C17.8742 13.2462 18.0058 13.6155 17.9416 14.0227C17.8757 14.4406 17.6606 14.8204 17.3362 15.0919C17.0201 15.3566 16.6357 15.4337 16.3038 15.4671C15.9762 15.5 15.5621 15.5 15.0847 15.5L12.5638 15.5C12.3441 16.3115 11.9115 17.0432 11.3057 17.5855C10.6539 18.169 9.8368 18.5 8.97916 18.5C8.12152 18.5 7.30438 18.169 6.65263 17.5855C6.04681 17.0432 5.61421 16.3115 5.39449 15.5L2.87365 15.5C2.39618 15.5 1.98208 15.5 1.6545 15.4671C1.32266 15.4337 0.938231 15.3566 0.622108 15.0919C0.297723 14.8204 0.0826682 14.4406 0.0167376 14.0227C-0.0475139 13.6155 0.0841179 13.2462 0.226222 12.9445C0.366499 12.6466 0.579562 12.2915 0.825235 11.8821L1.4511 10.8389C1.97531 9.95809 2.30678 8.9761 2.42364 7.95775L2.68159 5.63659ZM6.9768 15.5C7.1389 15.8858 7.37228 16.2165 7.65312 16.4679C8.04924 16.8225 8.516 17 8.97916 17C9.44233 17 9.90908 16.8225 10.3052 16.4679C10.586 16.2165 10.8194 15.8858 10.9815 15.5H6.9768ZM8.97916 1.5C6.51482 1.5 4.44456 3.35297 4.17242 5.80224L3.91386 8.12876C3.77282 9.3578 3.37277 10.543 2.74011 11.6061L2.1309 12.6215C1.86021 13.0727 1.68741 13.3624 1.58325 13.5836C1.51927 13.7194 1.50439 13.7837 1.50098 13.8027C1.5117 13.8524 1.53732 13.8977 1.57441 13.9324C1.59246 13.9393 1.65525 13.9596 1.80466 13.9746C2.04789 13.9991 2.38525 14 2.91139 14H15.0469C15.5731 14 15.9104 13.9991 16.1537 13.9746C16.3031 13.9596 16.3659 13.9393 16.3839 13.9324C16.421 13.8977 16.4466 13.8524 16.4573 13.8027C16.4539 13.7837 16.4391 13.7194 16.3751 13.5836C16.2709 13.3624 16.0981 13.0727 15.8274 12.6215L15.2182 11.6061C14.5855 10.543 14.1855 9.3578 14.0445 8.12876L13.7859 5.80224C13.5138 3.35297 11.4435 1.5 8.97916 1.5Z" fill="#377BE1"/>
</svg>
