<svg width="20" height="20" viewBox="0 0 20 20" fill="none" xmlns="http://www.w3.org/2000/svg">
<path fill-rule="evenodd" clip-rule="evenodd" d="M10.0001 3.72358C6.53375 3.72358 3.72371 6.53363 3.72371 10C3.72371 13.4664 6.53375 16.2764 10.0001 16.2764C13.4665 16.2764 16.2765 13.4664 16.2765 10C16.2765 6.53363 13.4665 3.72358 10.0001 3.72358ZM2.58254 10C2.58254 5.90338 5.9035 2.58242 10.0001 2.58242C14.0967 2.58242 17.4177 5.90338 17.4177 10C17.4177 14.0966 14.0967 17.4176 10.0001 17.4176C5.9035 17.4176 2.58254 14.0966 2.58254 10Z" fill="#F91155"/>
<path fill-rule="evenodd" clip-rule="evenodd" d="M5.83892 5.03187L14.9682 14.1612L14.1613 14.9681L5.03199 5.8388L5.83892 5.03187Z" fill="#F91155"/>
<path fill-rule="evenodd" clip-rule="evenodd" d="M2.50012 10C2.50012 5.85786 5.85799 2.5 10.0001 2.5C14.1423 2.5 17.5001 5.85786 17.5001 10C17.5001 14.1421 14.1423 17.5 10.0001 17.5C5.85799 17.5 2.50012 14.1421 2.50012 10ZM10.0001 2.66484C5.94902 2.66484 2.66496 5.9489 2.66496 10C2.66496 14.0511 5.94902 17.3352 10.0001 17.3352C14.0512 17.3352 17.3353 14.0511 17.3353 10C17.3353 5.9489 14.0512 2.66484 10.0001 2.66484ZM5.18282 6.10618C4.32184 7.17003 3.80612 8.52479 3.80612 10C3.80612 13.4208 6.57927 16.194 10.0001 16.194C11.4753 16.194 12.8301 15.6783 13.8939 14.8173L5.18282 6.10618ZM5.06563 5.98899C4.17513 7.08319 3.64129 8.47925 3.64129 10C3.64129 13.5119 6.48823 16.3588 10.0001 16.3588C11.5209 16.3588 12.9169 15.825 14.0111 14.9345L14.1613 15.0847L15.0848 14.1612L14.9346 14.011C15.8251 12.9168 16.359 11.5207 16.359 10C16.359 6.48811 13.512 3.64117 10.0001 3.64117C8.47938 3.64117 7.08332 4.17501 5.98912 5.06551L5.83892 4.91531L4.91544 5.8388L5.06563 5.98899ZM5.28866 5.97891L14.0212 14.7115C14.269 14.4998 14.4999 14.2689 14.7116 14.0211L5.97903 5.28854C5.73124 5.50022 5.50034 5.73111 5.28866 5.97891ZM5.86212 5.17163C5.61478 5.3838 5.38392 5.61466 5.17175 5.862L5.14855 5.8388L5.83892 5.14843L5.86212 5.17163ZM6.1063 5.1827L14.8174 13.8938C15.6784 12.83 16.1941 11.4752 16.1941 10C16.1941 6.57915 13.421 3.806 10.0001 3.806C8.52491 3.806 7.17015 4.32172 6.1063 5.1827ZM14.8285 14.138C14.6163 14.3853 14.3855 14.6162 14.1381 14.8284L14.1613 14.8516L14.8517 14.1612L14.8285 14.138Z" fill="#F91155"/>
</svg>
