<svg width="24" height="24" viewBox="0 0 24 24" fill="none" xmlns="http://www.w3.org/2000/svg">
<path fill-rule="evenodd" clip-rule="evenodd" d="M7.60781 5.80177L3.75 7.73067V17.387L7.04136 15.7413C7.3099 15.607 7.619 15.5783 7.90768 15.6608L15.3922 17.7992L19.25 15.8703V6.214L15.9586 7.85968C15.6901 7.99395 15.381 8.02268 15.0923 7.9402L7.60781 5.80177ZM7.04136 4.40794C7.30989 4.27367 7.619 4.24494 7.90768 4.32742L15.3922 6.46585L19.0133 4.65528C19.8112 4.25634 20.75 4.83653 20.75 5.72859V16.0557C20.75 16.5102 20.4932 16.9257 20.0867 17.129L15.9586 19.193C15.6901 19.3273 15.381 19.356 15.0923 19.2735L7.60781 17.1351L3.98666 18.9457C3.18877 19.3446 2.25 18.7644 2.25 17.8724V7.54526C2.25 7.09073 2.5068 6.67522 2.91334 6.47195L7.04136 4.40794Z" fill="#86898C"/>
<path fill-rule="evenodd" clip-rule="evenodd" d="M16.2168 7.26758V18.6009H14.7168V7.26758H16.2168Z" fill="#86898C"/>
<path fill-rule="evenodd" clip-rule="evenodd" d="M8.2832 5V16.3333H6.7832V5H8.2832Z" fill="#86898C"/>
</svg>
