<svg width="40" height="40" viewBox="0 0 40 40" fill="none" xmlns="http://www.w3.org/2000/svg">
<path fill-rule="evenodd" clip-rule="evenodd" d="M15.6078 13.8018L11.75 15.7307V25.387L15.0414 23.7413C15.3099 23.607 15.619 23.5783 15.9077 23.6608L23.3922 25.7992L27.25 23.8703V14.214L23.9586 15.8597C23.6901 15.994 23.381 16.0227 23.0923 15.9402L15.6078 13.8018ZM15.0414 12.4079C15.3099 12.2737 15.619 12.2449 15.9077 12.3274L23.3922 14.4659L27.0133 12.6553C27.8112 12.2563 28.75 12.8365 28.75 13.7286V24.0557C28.75 24.5102 28.4932 24.9257 28.0867 25.129L23.9586 27.193C23.6901 27.3273 23.381 27.356 23.0923 27.2735L15.6078 25.1351L11.9867 26.9457C11.1888 27.3446 10.25 26.7644 10.25 25.8724V15.5453C10.25 15.0907 10.5068 14.6752 10.9133 14.4719L15.0414 12.4079Z" fill="#86898C"/>
<path fill-rule="evenodd" clip-rule="evenodd" d="M24.2168 15.2676V26.6009H22.7168V15.2676H24.2168Z" fill="#86898C"/>
<path fill-rule="evenodd" clip-rule="evenodd" d="M16.2832 13V24.3333H14.7832V13H16.2832Z" fill="#86898C"/>
<rect x="0.5" y="0.5" width="39" height="39" rx="7.5" stroke="#CFD3D8"/>
</svg>
