<svg width="24" height="24" viewBox="0 0 24 24" fill="none" xmlns="http://www.w3.org/2000/svg">
<path d="M9 10L11.7473 12.7473C12.1552 13.1552 12.8226 13.1344 13.2043 12.7018L20 5" stroke="#377BE1" stroke-width="1.5" stroke-linecap="round"/>
<path d="M21 12C21 13.8805 20.411 15.7137 19.3156 17.2423C18.2203 18.7709 16.6736 19.9179 14.893 20.5224C13.1123 21.1268 11.187 21.1583 9.38744 20.6125C7.58792 20.0666 6.00459 18.9707 4.85982 17.4789C3.71505 15.987 3.06635 14.174 3.00482 12.2945C2.94329 10.415 3.47203 8.56344 4.51677 6.99987C5.56152 5.4363 7.06979 4.23925 8.82975 3.57685C10.5897 2.91444 12.513 2.81996 14.3294 3.30667" stroke="#377BE1" stroke-width="1.5" stroke-linecap="round"/>
</svg>
