<svg width="17" height="19" viewBox="0 0 17 19" fill="none" xmlns="http://www.w3.org/2000/svg">
<path fill-rule="evenodd" clip-rule="evenodd" d="M8.5 1.75C6.42893 1.75 4.75 3.42893 4.75 5.5C4.75 7.57107 6.42893 9.25 8.5 9.25C10.5711 9.25 12.25 7.57107 12.25 5.5C12.25 3.42893 10.5711 1.75 8.5 1.75ZM3.25 5.5C3.25 2.6005 5.6005 0.25 8.5 0.25C11.3995 0.25 13.75 2.6005 13.75 5.5C13.75 8.3995 11.3995 10.75 8.5 10.75C5.6005 10.75 3.25 8.3995 3.25 5.5ZM0.25 18C0.25 14.1207 4.11263 11.25 8.5 11.25C12.8874 11.25 16.75 14.1207 16.75 18C16.75 18.4142 16.4142 18.75 16 18.75C15.5858 18.75 15.25 18.4142 15.25 18C15.25 15.245 12.3897 12.75 8.5 12.75C4.6103 12.75 1.75 15.245 1.75 18C1.75 18.4142 1.41421 18.75 1 18.75C0.585786 18.75 0.25 18.4142 0.25 18Z" fill="#86898C"/>
</svg>
