<svg width="19" height="18" viewBox="0 0 19 18" fill="none" xmlns="http://www.w3.org/2000/svg">
<path d="M17.5011 0.74652C17.5023 0.811996 17.4778 0.875276 17.4329 0.922885L17.4182 0.937633C17.1936 1.16219 16.2817 2.07892 15.3837 2.98165C14.5295 3.84038 13.6879 4.68644 13.4625 4.91198L12.6097 5.7654H13.8162H15.7391V5.76551L15.7499 5.76528C15.7833 5.76455 15.8166 5.77051 15.8476 5.7828L16.0315 5.31782L15.8476 5.78281C15.8787 5.7951 15.9071 5.81348 15.931 5.83686C15.9549 5.86025 15.9739 5.88817 15.9868 5.91899C15.9998 5.94981 16.0065 5.98291 16.0065 6.01635C16.0065 6.04979 15.9998 6.08289 15.9868 6.1137C15.9739 6.14453 15.9549 6.17245 15.931 6.19583C15.9071 6.21922 15.8787 6.2376 15.8476 6.24989L16.0134 6.66922L15.8476 6.24989C15.8166 6.26218 15.7833 6.26814 15.7499 6.26742L15.7499 6.2673H15.7391H12.7356C12.4699 6.2673 12.2151 6.16174 12.0272 5.97385C11.8393 5.78596 11.7337 5.53112 11.7337 5.2654V2.2688C11.7361 2.2046 11.763 2.14371 11.809 2.09871C11.856 2.05279 11.919 2.02707 11.9847 2.02707C12.0503 2.02707 12.1134 2.05279 12.1603 2.09871C12.2063 2.14371 12.2332 2.2046 12.2356 2.2688V4.22248V5.43467L13.0902 4.57498C13.5635 4.09885 16.6198 1.0267 17.0637 0.582802L17.0638 0.582856L17.0698 0.576598C17.1161 0.528734 17.1794 0.501196 17.2459 0.500038C17.3125 0.49888 17.3767 0.524198 17.4246 0.570423C17.4724 0.616647 17.5 0.67999 17.5011 0.74652ZM6.83572 2.52029L6.43941 2.82516L6.45505 2.84549L6.47269 2.86412C6.79602 3.20549 6.97594 3.65797 6.97532 4.12815C6.9747 4.59834 6.79359 5.05034 6.46938 5.39087L6.45405 5.40696L6.44021 5.42436L5.57047 6.51761L5.38755 6.74754L5.49939 7.01923C6.00576 8.24929 6.75015 9.3672 7.68979 10.3088C8.62944 11.2503 9.74583 11.997 10.9749 12.5058L11.2468 12.6184L11.4773 12.4352L12.5776 11.5606L12.5955 11.5463L12.6121 11.5304C12.9516 11.2055 13.4031 11.0239 13.873 11.0232C14.3429 11.0225 14.7949 11.2029 15.1353 11.5268L15.1544 11.5449L15.1752 11.5609L15.48 11.1646L15.1752 11.561L15.1753 11.561L15.1755 11.5612L15.1765 11.5619L15.1804 11.5649L15.1955 11.5766L15.2529 11.6207L15.4581 11.7786L16.0824 12.2592C16.3099 12.4345 16.538 12.6103 16.7106 12.7437C16.7969 12.8104 16.869 12.8663 16.9201 12.906L16.9767 12.9502C17.3069 13.2909 17.4919 13.7471 17.4919 14.2223C17.4919 14.7062 17.3 15.1703 16.9584 15.513L16.9462 15.5251L16.935 15.5381L16.2655 16.3087C14.9062 17.5967 13.0378 17.7824 10.9715 17.1454C8.89267 16.5045 6.69424 15.0472 4.84149 13.1993C2.98883 11.3515 1.52294 9.15409 0.869642 7.07344C0.220171 5.00499 0.390985 3.1337 1.65685 1.77156L2.50067 1.03816L2.5109 1.02927L2.52062 1.01985C2.86294 0.68814 3.3221 0.504565 3.79874 0.50885C4.26748 0.513065 4.71605 0.698628 5.05063 1.02606L5.09502 1.08268C5.13467 1.13349 5.19043 1.20534 5.25715 1.29154C5.39048 1.46378 5.56624 1.69154 5.74148 1.91886C5.91667 2.14612 6.09116 2.3727 6.22186 2.54248L6.37966 2.7475L6.42381 2.80488L6.43543 2.81999L6.43841 2.82386L6.43916 2.82483L6.43935 2.82508L6.4394 2.82514L6.83572 2.52029ZM5.0397 1.01233L5.04031 1.0131C5.03446 1.00623 5.03322 1.00435 5.0397 1.01233ZM16.9922 12.9625C16.9991 12.968 16.9977 12.9671 16.9922 12.9624L16.9922 12.9625ZM16.7797 13.5074V13.4236L16.5847 13.2735L16.2797 13.6696L16.5847 13.2734L16.5846 13.2734L16.5844 13.2732L16.5834 13.2725L16.5796 13.2695L16.5646 13.2579L16.5075 13.214L16.3037 13.057L15.6837 12.5792C15.4577 12.405 15.2312 12.2301 15.0598 12.0975C14.974 12.0312 14.9024 11.9757 14.8516 11.9362L14.7932 11.8905L14.7909 11.8887C14.5449 11.6555 14.2186 11.5251 13.8788 11.5251C13.5379 11.5251 13.2103 11.6565 12.964 11.8914C12.9634 11.8918 12.9628 11.8923 12.9622 11.8928L12.9128 11.9327L12.7372 12.0735C12.5926 12.1893 12.4016 12.3419 12.211 12.494L11.6883 12.911L11.5165 13.048L11.4684 13.0863L11.4558 13.0964L11.4525 13.099L11.4517 13.0996L11.4516 13.0998C11.4515 13.0998 11.4515 13.0998 11.4515 13.0998C11.4175 13.1269 11.377 13.1446 11.3341 13.1513C11.2911 13.1579 11.2472 13.1533 11.2065 13.1378L11.2065 13.1378L11.2025 13.1363C9.75529 12.5978 8.44079 11.7545 7.34815 10.6634C6.25551 9.57235 5.41028 8.25906 4.86979 6.81262L4.86997 6.81256L4.86471 6.7996C4.84793 6.75824 4.84245 6.71316 4.84885 6.66899L4.35401 6.59734L4.84885 6.66899C4.85524 6.62481 4.87328 6.58314 4.90111 6.54824L4.90123 6.54809L4.90188 6.54727L4.90447 6.54403L4.91456 6.53139L4.95289 6.48335L5.08991 6.31173L5.507 5.78974C5.65916 5.59947 5.81172 5.40891 5.92742 5.26487C5.98533 5.19277 6.03363 5.1328 6.0679 5.09048L6.10691 5.04257L6.1079 5.04138C6.34434 4.79476 6.47664 4.46611 6.47664 4.12392C6.47664 3.78399 6.34608 3.45742 6.11257 3.21135L6.11098 3.20935L6.06555 3.15126C6.02612 3.10061 5.97066 3.02905 5.90434 2.94327C5.77181 2.77184 5.59705 2.54518 5.42281 2.319L4.94515 1.6985L4.78824 1.49451L4.74433 1.43741L4.73277 1.42238L4.72981 1.41853L4.72906 1.41756L4.72887 1.41731L4.72882 1.41725L4.33243 1.722L4.72881 1.41723L4.70075 1.38074L4.6665 1.34998C4.41416 1.12338 4.08459 1.00208 3.74556 1.01101C3.4129 1.01978 3.09595 1.15327 2.85738 1.3846L2.00536 2.12582L1.97495 2.15227L1.94917 2.18325C0.724289 3.65543 0.792989 5.59502 1.5137 7.47418C2.23693 9.35993 3.65062 11.2958 5.32104 12.916C6.99149 14.5363 8.95772 15.8789 10.8205 16.5449C12.6681 17.2054 14.5534 17.2402 15.8723 15.9944L15.8903 15.9773L15.9065 15.9586L16.5751 15.1884C16.8187 14.954 16.965 14.6358 16.9841 14.2975C16.9998 14.0176 16.9274 13.7417 16.7797 13.5074ZM14.7754 11.8763C14.7757 11.8765 14.7774 11.8778 14.7801 11.8801L14.78 11.88C14.7765 11.8772 14.7751 11.8761 14.7754 11.8763ZM6.11451 5.0334C6.12127 5.02541 6.1198 5.02753 6.11337 5.03479L6.11451 5.0334ZM6.12073 3.22163C6.12603 3.22792 6.12713 3.22957 6.12108 3.22207L6.12073 3.22163Z" fill="white" stroke="#86898C"/>
</svg>
