<svg width="30" height="30" viewBox="0 0 30 30" fill="none" xmlns="http://www.w3.org/2000/svg">
<path d="M10.3321 14.4051C10.1011 14.4078 9.87457 14.3421 9.68093 14.2162C9.4873 14.0903 9.33524 13.9099 9.24401 13.6977C9.15277 13.4855 9.12644 13.2511 9.16828 13.0239C9.21012 12.7968 9.31826 12.5871 9.47911 12.4214C9.63996 12.2556 9.84629 12.1412 10.0721 12.0926C10.2979 12.0439 10.533 12.0632 10.7478 12.1481C10.9627 12.2329 11.1475 12.3794 11.2792 12.5692C11.4108 12.759 11.4833 12.9835 11.4876 13.2144C11.4921 13.5255 11.3729 13.8256 11.1562 14.0489C10.9396 14.2722 10.6432 14.4003 10.3321 14.4051Z" fill="#377BE1"/>
<path d="M20.8598 13.2238C20.8621 13.4548 20.7959 13.6813 20.6696 13.8747C20.5434 14.0681 20.3626 14.2198 20.1502 14.3107C19.9378 14.4015 19.7033 14.4274 19.4762 14.385C19.2491 14.3427 19.0396 14.2341 18.8742 14.0728C18.7088 13.9116 18.5948 13.705 18.5467 13.4791C18.4985 13.2531 18.5184 13.018 18.6037 12.8034C18.6891 12.5887 18.8361 12.4041 19.0262 12.2729C19.2163 12.1417 19.4411 12.0698 19.672 12.0661C19.983 12.0624 20.2827 12.1822 20.5054 12.3993C20.7281 12.6163 20.8555 12.9129 20.8598 13.2238Z" fill="#377BE1"/>
<path d="M13.2444 25.3026C13.2444 25.5337 13.1759 25.7596 13.0476 25.9518C12.9193 26.1441 12.7369 26.294 12.5235 26.3826C12.3101 26.4712 12.0751 26.4946 11.8484 26.4499C11.6217 26.4051 11.4133 26.2942 11.2496 26.1311C11.0859 25.968 10.9741 25.76 10.9285 25.5334C10.8829 25.3069 10.9055 25.0719 10.9933 24.8581C11.0811 24.6444 11.2303 24.4614 11.422 24.3324C11.6138 24.2034 11.8394 24.134 12.0705 24.1332C12.3811 24.1332 12.679 24.2562 12.899 24.4754C13.119 24.6946 13.2432 24.9921 13.2444 25.3026Z" fill="#00CD69"/>
<path d="M19.1024 25.2886C19.1059 25.5197 19.0407 25.7466 18.9153 25.9407C18.7898 26.1349 18.6097 26.2874 18.3976 26.3792C18.1855 26.471 17.9509 26.4979 17.7235 26.4565C17.4962 26.4151 17.2862 26.3072 17.12 26.1465C16.9539 25.9858 16.8391 25.7795 16.7902 25.5536C16.7412 25.3278 16.7604 25.0925 16.8451 24.8774C16.9298 24.6624 17.0763 24.4773 17.2661 24.3454C17.456 24.2136 17.6806 24.141 17.9117 24.1368C18.2222 24.1323 18.5217 24.2509 18.7449 24.4668C18.9681 24.6827 19.0966 24.9782 19.1024 25.2886Z" fill="#00CD69"/>
<path d="M29.9552 1.62942C29.9662 1.57244 29.9812 1.5163 30 1.46142V0H28.2393V0.889175C28.2393 1.83337 27.9949 2.70861 27.4359 3.47086C26.568 4.65496 25.4309 5.33652 23.9144 5.33432C17.8721 5.32502 11.8294 5.32233 5.7861 5.32625C5.53348 5.32469 5.28227 5.2889 5.03927 5.21987C3.08191 4.66964 1.78702 2.97199 1.76281 0.941264C1.75914 0.6324 1.76281 0.324271 1.76281 0.0234771H0.0255309C-0.147609 2.35206 0.551575 4.31089 2.37688 5.81926C2.29324 5.87355 2.24481 5.90656 2.19565 5.93664C1.07685 6.61379 0.340279 7.57853 0.115051 8.87121C0.00867287 9.48013 0.026266 10.1133 0.00865854 10.7361C-0.0074816 11.2886 0.00500466 11.8425 0.00500466 12.4184C0.952138 12.4184 1.86771 12.4286 2.78257 12.4184C3.71727 12.4067 4.62277 12.091 5.36207 11.5189C5.42589 11.4712 5.49486 11.4294 5.58216 11.3722C5.59536 11.4778 5.60783 11.5439 5.6115 11.6106C5.69415 13.2383 5.77658 14.8661 5.85874 16.4938C5.94531 18.1635 6.01208 19.834 6.10158 21.5031L7.81024 20.2471C7.58428 15.8371 7.36124 11.4874 7.13674 7.11487H22.8594C22.6357 11.4808 22.4127 15.8261 22.1867 20.2412L23.8975 21.5317C23.9885 19.8502 24.0553 18.1665 24.1426 16.485C24.2262 14.8577 24.3089 13.2303 24.3906 11.6026C24.3996 11.5173 24.413 11.4326 24.4309 11.3487C25.0325 11.8344 25.6722 12.1807 26.4066 12.3127C26.7324 12.3719 27.0623 12.4048 27.3933 12.411C28.2612 12.4242 29.1306 12.4154 29.9992 12.4154V9.31066C29.8364 8.78391 29.7249 8.23441 29.5004 7.73627C29.1526 6.96374 28.5672 6.37756 27.8328 5.94691C27.7741 5.91243 27.7191 5.87355 27.5716 5.77597C27.6529 5.74322 27.7306 5.70216 27.8035 5.65345C29.0389 4.58967 29.7562 3.24833 29.9552 1.62942ZM1.80243 10.6378C1.4943 8.48898 2.66299 6.80747 5.32392 7.10753C5.58436 9.60339 4.15449 10.9027 1.80243 10.6378ZM28.226 10.6173C26.196 10.9232 24.3935 9.8763 24.6877 7.1068C27.0669 6.84049 28.4879 8.14857 28.226 10.6173Z" fill="#377BE1"/>
<path d="M19.6035 29.6391C22.0979 28.6986 23.5212 26.8887 23.7244 24.2307C23.7934 23.332 23.8484 22.4326 23.8968 21.5331L22.1882 20.2302L22.1838 20.225C20.0562 18.5589 17.6682 17.6925 15.0028 17.694C12.3375 17.6954 9.95463 18.5531 7.81313 20.2346L6.10669 21.4884C6.15584 22.4025 6.21161 23.3166 6.28204 24.2293C6.48673 26.9012 7.91953 28.7133 10.4301 29.6494C10.8629 29.8108 11.331 29.8776 11.7821 29.9876H18.2257C18.6887 29.8746 19.1626 29.8057 19.6035 29.6391ZM14.9816 28.2254V28.2305C14.1416 28.2305 13.3023 28.2342 12.463 28.2305C10.2122 28.2173 8.43528 26.7317 8.06112 24.5102C7.95841 23.8977 7.96649 23.2631 7.93567 22.6424C7.94274 22.559 7.97941 22.4809 8.03909 22.4223C9.0581 21.357 10.3084 20.5403 11.6933 20.0351C13.0782 19.53 14.5607 19.35 16.0263 19.509C18.1245 19.7445 19.9535 20.5838 21.5323 21.9924C21.9284 22.3453 22.1074 22.6937 22.0458 23.2396C21.96 24.0136 21.9857 24.8037 21.6533 25.5315C20.8918 27.199 19.5918 28.119 17.7599 28.2173C16.8391 28.268 15.9096 28.2261 14.9831 28.2261L14.9816 28.2254Z" fill="#00CD69"/>
</svg>
