<svg width="30" height="30" viewBox="0 0 30 30" fill="none" xmlns="http://www.w3.org/2000/svg">
<path d="M26.4355 30H3.44297V28.2368H5.16076C2.27975 19.3963 2.27975 10.5616 5.16076 1.73268H3.4688V0H26.401V1.73817H24.6926C27.6002 10.5896 27.5979 19.3995 24.6926 28.2423H26.4355V30ZM14.9373 6.15212C12.0061 6.15212 9.07418 6.15682 6.14225 6.14429C5.83989 6.14429 5.73101 6.22262 5.67227 6.52263C4.47847 12.1399 4.48807 17.9463 5.70045 23.5596C5.74275 23.7531 5.80856 23.8283 6.0224 23.8283C11.9635 23.822 17.9052 23.822 23.8474 23.8283C24.0511 23.8283 24.1294 23.7727 24.1748 23.5659C24.5846 21.6866 24.8569 19.7799 24.9895 17.861C25.2621 14.0568 24.9963 10.233 24.1999 6.50304C24.1435 6.23828 24.0534 6.14507 23.7659 6.14585C20.8207 6.15682 17.8786 6.15212 14.9373 6.15212ZM6.22137 4.36696H23.6281C23.6085 4.28314 23.5999 4.21578 23.5787 4.15311C23.3382 3.44187 23.0884 2.73375 22.8597 2.01859C22.7868 1.79221 22.6717 1.73268 22.4382 1.73268C17.4345 1.74052 12.4307 1.74234 7.42687 1.73817C7.39768 1.74051 7.36835 1.74051 7.33915 1.73817C7.17152 1.70762 7.09476 1.79065 7.04306 1.94183C6.87856 2.42121 6.69997 2.8959 6.53547 3.37607C6.42581 3.69644 6.33025 4.02152 6.22137 4.36696ZM23.6633 25.6072H6.23781C6.26366 25.709 6.2801 25.7936 6.30752 25.8743C6.54251 26.5574 6.78378 27.2365 6.99997 27.925C7.0783 28.1741 7.19972 28.243 7.45743 28.243C12.3531 28.2347 17.2493 28.2326 22.146 28.2368C22.75 28.2368 22.7594 28.2368 22.9583 27.6806C23.1996 27.0031 23.4221 26.3192 23.6633 25.6072Z" fill="#377BE1"/>
<path d="M16.1208 19.0543V21.691H14.3576V19.059H13.5116C11.0638 19.0504 9.15015 17.2167 9.06556 14.7712C9.03422 13.8641 9.06007 12.9555 9.06007 12.0163H11.7844C11.9184 11.468 11.9983 10.9455 12.1761 10.4575C12.6915 9.05539 13.6941 8.11933 15.079 7.58668C15.1967 7.55024 15.3233 7.55521 15.4378 7.60078C17.2981 8.36451 18.3705 9.7353 18.6024 11.7453C18.6078 11.7938 18.6118 11.8424 18.6204 11.8902C18.631 11.9289 18.6435 11.9671 18.658 12.0046H21.4191C21.4191 12.8732 21.4324 13.7106 21.4136 14.548C21.4114 14.9378 21.3684 15.3264 21.2852 15.7073C21.0574 16.65 20.523 17.4905 19.766 18.0969C19.009 18.7032 18.0721 19.0411 17.1023 19.0575C16.7866 19.059 16.4757 19.0543 16.1208 19.0543ZM19.6332 13.7921C17.1266 13.4709 15.8302 15.119 16.1576 17.27C18.3642 17.548 19.9081 16.2979 19.6332 13.7921ZM10.8531 13.7842C10.5304 16.2689 12.1455 17.5825 14.3286 17.2582C14.6161 15.1354 13.4043 13.4921 10.8531 13.7842ZM15.1699 13.6746C15.7104 13.2665 16.2156 12.8913 16.7114 12.4996C16.7896 12.4364 16.8398 12.3449 16.8509 12.245C16.8548 11.0834 16.3738 10.1732 15.3955 9.53947C15.3478 9.51574 15.2952 9.50339 15.2419 9.50339C15.1887 9.50339 15.1361 9.51574 15.0884 9.53947C14.1046 10.1661 13.6275 11.0779 13.6181 12.2372C13.6178 12.2828 13.6274 12.328 13.6464 12.3696C13.6653 12.4111 13.6931 12.448 13.7278 12.4777C14.283 12.7772 14.7732 13.184 15.1699 13.6746Z" fill="#00CD69"/>
</svg>
