<svg width="30" height="30" viewBox="0 0 30 30" fill="none" xmlns="http://www.w3.org/2000/svg">
<g clip-path="url(#clip0_1575_43956)">
<path d="M29.9992 29.8754C29.8927 29.8707 29.7862 29.8613 29.6789 29.8613H0V28.0921H6.13471V25.4558C6.04151 25.4496 5.94909 25.4386 5.85668 25.4378C5.35857 25.4378 4.86046 25.4378 4.36157 25.4378C2.35896 25.4229 0.866988 23.9255 0.860722 21.926C0.860722 21.3418 0.860722 20.7583 0.860722 20.1435H1.5836C2.41378 20.1435 3.24553 20.1646 4.07493 20.1388C5.21681 20.102 6.21537 20.409 7.02127 21.2689C7.05586 21.2504 7.08864 21.2286 7.11916 21.2039C7.85379 20.4615 8.74742 20.1286 9.78671 20.1411C10.826 20.1537 11.8582 20.1411 12.8944 20.1411H13.2155C13.1857 21.5148 13.4505 22.9089 12.4973 24.0939C11.8441 24.9068 11.0093 25.3799 9.96135 25.4253C9.29878 25.4527 8.63463 25.43 7.94465 25.43V28.067H22.0162V25.437C21.4076 25.437 20.814 25.437 20.2203 25.437C19.0346 25.4284 18.0877 24.9421 17.3875 23.9889C16.9723 23.4264 16.7479 22.7458 16.7469 22.0466C16.7399 21.4201 16.7469 20.7998 16.7469 20.1427H17.2599C18.2271 20.1427 19.1943 20.1529 20.1616 20.1427C21.2001 20.1286 22.0968 20.4521 22.8338 21.1953C22.8662 21.2237 22.9005 21.2498 22.9364 21.2736C23.5481 20.6298 24.2882 20.2367 25.1708 20.167C25.676 20.127 26.189 20.1482 26.6942 20.1466C27.4844 20.1466 28.2746 20.1466 29.0797 20.1466C29.094 20.2168 29.1029 20.2881 29.1064 20.3596C29.0735 21.1773 29.1354 22.0145 28.9811 22.8087C28.6858 24.3249 27.3364 25.3807 25.7935 25.4339C25.1505 25.4558 24.5059 25.4339 23.8355 25.4339V28.0897H24.17C25.9869 28.0897 27.8042 28.0897 29.6217 28.0897C29.7478 28.0897 29.8739 28.1061 30 28.1148L29.9992 29.8754ZM7.94778 23.6741C8.51246 23.6741 9.05834 23.6741 9.60422 23.6741C9.74123 23.6762 9.87825 23.6705 10.0146 23.6569C10.8518 23.5582 11.5317 22.7272 11.4189 21.908C10.8307 21.908 10.237 21.908 9.64338 21.908C9.50667 21.9104 9.37054 21.9261 9.23691 21.955C8.85072 22.0374 8.5074 22.2568 8.27043 22.5726C8.03345 22.8885 7.91885 23.2795 7.94778 23.6733V23.6741ZM23.8371 23.6741C24.372 23.6741 24.8889 23.6741 25.4035 23.6741C25.5601 23.6741 25.7167 23.6741 25.8734 23.6592C26.7247 23.5754 27.4272 22.728 27.3066 21.9511C26.5853 21.9511 25.8593 21.8884 25.1489 21.9675C24.3368 22.0568 23.7705 22.8455 23.8371 23.6733V23.6741ZM2.64247 21.9268C2.60801 22.7523 3.14449 23.5175 3.94726 23.6177C4.66466 23.707 5.40243 23.6365 6.13001 23.6365C6.16455 23.2226 6.03385 22.8118 5.76647 22.4939C5.49908 22.1761 5.11677 21.977 4.70304 21.9401C4.02637 21.8728 3.33951 21.9268 2.64247 21.9268ZM18.5302 21.9213C18.4911 22.7476 19.0283 23.5159 19.8319 23.6169C20.5493 23.707 21.287 23.6357 22.0154 23.6357C22.0322 23.4286 22.0079 23.2201 21.944 23.0223C21.88 22.8246 21.7777 22.6414 21.6428 22.4833C21.5079 22.3251 21.3431 22.1952 21.1579 22.1009C20.9726 22.0067 20.7706 21.9499 20.5634 21.9339C19.8945 21.8728 19.2179 21.9213 18.5279 21.9213H18.5302Z" fill="#377BE1"/>
<path d="M29.9992 8.76387C29.9208 8.83201 29.8339 8.89545 29.7595 8.96985C27.4235 11.3038 25.0888 13.639 22.7555 15.9755C22.6733 16.0704 22.5967 16.1701 22.526 16.2739C22.2393 15.97 21.9903 15.7217 21.7616 15.457C21.623 15.2964 21.4757 15.2706 21.2721 15.2941C19.5851 15.4907 17.8958 15.6708 16.2088 15.8643C16.1239 15.8782 16.0368 15.8703 15.9558 15.8413C15.8749 15.8122 15.8026 15.763 15.7459 15.6982C14.7975 14.7412 13.8404 13.7927 12.8481 12.8004L17.2567 10.9059C16.9787 10.6451 16.732 10.425 16.4978 10.1924C15.6734 9.37267 14.851 8.55085 14.0307 7.72693C12.6539 6.35009 12.4816 4.14228 13.7002 2.62446C14.2775 1.9055 14.9761 1.28286 15.6457 0.588174L16.8988 1.85694L18.1166 3.09046L21.1993 0L23.0969 1.90941C23.9263 0.963321 24.8983 0.514554 26.102 0.684506C26.8363 0.788611 27.506 1.16111 27.9817 1.73006C28.8792 2.75995 29.1917 4.7281 27.5634 6.19423L30.0007 8.7067L29.9992 8.76387ZM27.4405 8.73568L21.2729 2.55867L16.3599 7.46848C18.4111 9.51886 20.4803 11.5888 22.5346 13.6431L27.4405 8.73568ZM26.2806 4.938C27.0716 4.23705 27.175 3.37162 26.5398 2.77014C26.0746 2.32763 25.123 2.14358 24.4252 3.08341L26.2806 4.938ZM19.9822 13.6635C19.5037 13.1936 19.0917 12.7769 18.6649 12.3767C18.6238 12.3523 18.5778 12.3373 18.5303 12.333C18.4827 12.3286 18.4348 12.335 18.39 12.3517C18.0266 12.4918 17.671 12.6524 17.3123 12.8067L15.9754 13.3839C16.3043 13.8201 16.6215 14.1076 17.2285 13.994C18.1018 13.828 19.0001 13.7755 19.9822 13.6635ZM15.0168 6.14881L16.8095 4.35452L15.6167 3.16095C14.5907 3.98564 14.3487 5.17296 15.0168 6.14881Z" fill="#00CD69"/>
<path d="M5.28809 14.8688H7.0111V16.5981H5.28809V14.8688Z" fill="#377BE1"/>
<path d="M1.76538 16.6239H3.48056V18.3626H1.76538V16.6239Z" fill="#377BE1"/>
<path d="M13.2045 18.3626H11.4814V16.6396H13.2045V18.3626Z" fill="#377BE1"/>
<path d="M8.82983 14.8288V13.1152H10.5529V14.8319L8.82983 14.8288Z" fill="#377BE1"/>
</g>
<defs>
<clipPath id="clip0_1575_43956">
<rect width="30" height="30" fill="white"/>
</clipPath>
</defs>
</svg>
