<svg width="21" height="20" viewBox="0 0 21 20" fill="none" xmlns="http://www.w3.org/2000/svg">
<path d="M7.5 8L10.2473 10.7473C10.6552 11.1552 11.3226 11.1344 11.7043 10.7018L18.5 3" stroke="white" stroke-width="1.5" stroke-linecap="round"/>
<path d="M19.5 10C19.5 11.8805 18.911 13.7137 17.8156 15.2423C16.7203 16.7709 15.1736 17.9179 13.393 18.5224C11.6123 19.1268 9.68696 19.1583 7.88744 18.6125C6.08792 18.0666 4.50459 16.9707 3.35982 15.4789C2.21505 13.987 1.56635 12.174 1.50482 10.2945C1.44329 8.41499 1.97203 6.56344 3.01677 4.99987C4.06152 3.4363 5.56979 2.23925 7.32975 1.57685C9.08971 0.914444 11.013 0.819961 12.8294 1.30667" stroke="white" stroke-width="1.5" stroke-linecap="round"/>
</svg>
