<svg width="220" height="40" viewBox="0 0 220 40" fill="none" xmlns="http://www.w3.org/2000/svg">
<g clip-path="url(#clip0_996_44346)">
<path d="M66.8631 0.731384H69.3035L73.2316 11.4741H70.7752L70.0045 9.26129H66.1086L65.3379 11.4741H62.9297L66.8631 0.731384ZM69.3891 7.32438L68.0512 3.40234L66.7267 7.32438H69.3891Z" fill="black"/>
<path d="M74.5771 13.8852V11.9483C75.3704 12.5459 76.3378 12.866 77.3305 12.8592C78.4009 12.8592 79.4712 12.3609 79.4712 10.9115V10.1936C79.2276 10.5552 78.897 10.8497 78.5097 11.0496C78.1225 11.2495 77.6912 11.3485 77.2556 11.3375C75.3825 11.3375 73.8975 9.87208 73.8975 7.38598C73.8975 4.89988 75.3772 3.40232 77.2583 3.40232C77.7243 3.38964 78.185 3.50349 78.5915 3.73177C78.9981 3.96006 79.3353 4.29427 79.5675 4.69895V3.58717H81.7242V10.9571C81.7242 13.4137 79.9689 14.6809 77.6891 14.6809C76.3325 14.6809 75.3317 14.3755 74.5771 13.8852ZM77.8657 9.49167C78.167 9.4904 78.4648 9.42748 78.7409 9.30678C79.017 9.18607 79.2655 9.01014 79.4712 8.78977V5.96612C79.2646 5.74803 79.0155 5.57466 78.7394 5.45671C78.4633 5.33875 78.1659 5.27871 77.8657 5.28029C76.8328 5.28029 76.1719 6.08399 76.1719 7.38598C76.1719 8.68797 76.8248 9.49167 77.8657 9.49167Z" fill="black"/>
<path d="M83.6162 3.58717H85.7729V4.94542C85.9517 4.49887 86.2663 4.11992 86.672 3.86222C87.0778 3.60452 87.5543 3.48112 88.034 3.50948C88.2502 3.50542 88.4652 3.54176 88.6681 3.61664V5.72233C88.3742 5.64189 88.0711 5.60046 87.7664 5.59909C86.8272 5.59909 86.2251 5.89111 85.8719 6.30099V11.4741H83.6216L83.6162 3.58717Z" fill="black"/>
<path d="M97.5387 7.53864C97.5387 10.0247 95.7834 11.6589 93.4742 11.6589C91.1649 11.6589 89.3936 10.0247 89.3936 7.53864C89.3936 5.05254 91.1328 3.40228 93.4742 3.40228C95.8155 3.40228 97.5387 5.04986 97.5387 7.53864ZM93.4742 9.73542C94.5445 9.73542 95.291 8.8192 95.291 7.53864C95.291 6.25809 94.5525 5.3258 93.4742 5.3258C92.3958 5.3258 91.6573 6.24201 91.6573 7.53864C91.6573 8.83528 92.3958 9.73542 93.4742 9.73542Z" fill="black"/>
<path d="M104.129 2.8076H98.834V0.731384H107.033V2.56381L101.759 9.4006H107.033V11.4741H98.834V9.62831L104.129 2.8076Z" fill="black"/>
<path d="M115.127 11.6589C114.31 11.6589 113.601 11.308 113.355 10.6195C112.954 11.2008 112.285 11.6589 111.059 11.6589C109.505 11.6589 108.319 10.6355 108.319 9.20228C108.319 7.44755 109.925 6.68403 111.691 6.68403C112.227 6.68174 112.761 6.75386 113.278 6.89835V6.51526C113.278 5.63119 112.539 5.21863 111.49 5.21863C110.563 5.21551 109.662 5.52716 108.935 6.10269V4.18186C109.834 3.64902 110.863 3.37895 111.908 3.40227C114.155 3.40227 115.464 4.57835 115.464 6.48579V9.43268C115.461 9.50243 115.473 9.57203 115.499 9.63672C115.525 9.7014 115.565 9.75965 115.616 9.80747C115.667 9.85529 115.727 9.89156 115.793 9.9138C115.859 9.93604 115.93 9.94373 115.999 9.93633C116.123 9.93809 116.245 9.90663 116.352 9.84524V11.3401C115.981 11.5573 115.557 11.6676 115.127 11.6589ZM111.752 9.99527C112.047 10.0035 112.339 9.94119 112.604 9.8135C112.869 9.68581 113.1 9.49645 113.278 9.26122V8.30482C112.864 8.17179 112.433 8.10488 111.999 8.10658C111.322 8.10658 110.567 8.35037 110.567 9.06833C110.567 9.62824 111.03 9.99527 111.752 9.99527Z" fill="black"/>
<path d="M117.589 11.474V3.58703H119.746V4.63987C120.008 4.26059 120.358 3.95012 120.765 3.73469C121.173 3.51927 121.626 3.40522 122.087 3.40218C122.536 3.38791 122.98 3.49697 123.371 3.71754C123.762 3.9381 124.085 4.26173 124.305 4.65327C124.579 4.25528 124.948 3.93227 125.378 3.71373C125.809 3.49519 126.287 3.38808 126.77 3.40218C128.34 3.40218 129.48 4.38001 129.48 6.18029V11.474H127.246V6.77503C127.246 5.89096 126.77 5.40071 125.967 5.40071C125.724 5.39625 125.482 5.44147 125.257 5.53359C125.032 5.62572 124.829 5.76282 124.658 5.93651V11.474H122.411V6.75896C122.411 5.89096 121.918 5.40071 121.132 5.40071C120.888 5.39314 120.645 5.43993 120.422 5.5377C120.198 5.63546 119.999 5.78175 119.839 5.96597V11.474H117.589Z" fill="black"/>
<path d="M132.434 -1.19928e-05C132.682 0.00369497 132.923 0.0808829 133.128 0.221826C133.332 0.362769 133.491 0.56116 133.583 0.792001C133.675 1.02284 133.697 1.27581 133.645 1.51901C133.594 1.76222 133.472 1.9848 133.295 2.15869C133.117 2.33258 132.892 2.45001 132.648 2.49619C132.405 2.54236 132.152 2.5152 131.924 2.41815C131.695 2.32109 131.5 2.15848 131.364 1.95079C131.228 1.7431 131.156 1.49964 131.157 1.25108C131.156 1.08429 131.189 0.919054 131.253 0.765156C131.318 0.611258 131.412 0.471836 131.531 0.355157C131.65 0.238479 131.791 0.14692 131.946 0.0859102C132.101 0.0249004 132.267 -0.0043179 132.434 -1.19928e-05ZM133.574 11.4741H131.326V3.58716H133.574V11.4741Z" fill="black"/>
<path d="M135.484 11.4741V3.58713H137.641V4.65873C137.915 4.26872 138.28 3.95113 138.703 3.73322C139.127 3.51531 139.597 3.40358 140.073 3.40764C141.644 3.40764 142.813 4.38547 142.813 6.23129V11.4741H140.566V6.91979C140.566 5.88302 140.031 5.39277 139.134 5.39277C138.872 5.38292 138.612 5.42977 138.37 5.5301C138.128 5.63043 137.91 5.78188 137.732 5.97411V11.466L135.484 11.4741Z" fill="black"/>
<path d="M73.1241 20.3416C67.3443 20.3416 62.9346 24.2448 62.9346 30.1601C62.9346 36.0753 67.3309 39.9786 73.1241 39.9786C78.9172 39.9786 83.335 36.0753 83.335 30.1601C83.335 24.2448 78.9038 20.3416 73.1241 20.3416ZM73.1241 36.0003C70.0201 36.0003 67.8554 33.5222 67.8554 30.1601C67.8554 26.7979 70.0335 24.3225 73.1241 24.3225C76.2146 24.3225 78.4008 26.7899 78.4008 30.1601C78.4008 33.5302 76.2601 36.0003 73.1241 36.0003Z" fill="black"/>
<path d="M88.6793 20.4085H91.9171C90.9913 21.3488 89.929 22.9428 89.5838 24.2904C90.4775 24.5341 91.5157 25.2093 91.5157 26.5246C91.5157 27.8963 90.3437 28.9357 88.8238 28.9357C88.4532 28.9488 88.0839 28.8854 87.7388 28.7496C87.3936 28.6137 87.0801 28.4082 86.8176 28.1459C86.5551 27.8837 86.3493 27.5701 86.213 27.2249C86.0766 26.8796 86.0126 26.5099 86.0249 26.1389C86.0249 23.6608 87.5983 21.4319 88.6793 20.4085Z" fill="black"/>
<path d="M94.9619 36.595L101.78 29.2411H94.9619V25.67H107.538V28.7107L100.776 36.0324H107.538V39.649H94.9619V36.595Z" fill="black"/>
<path d="M112.75 19.203C114.211 19.203 115.362 20.2317 115.362 21.5471C115.362 22.8625 114.222 23.8912 112.75 23.8912C111.279 23.8912 110.171 22.8947 110.171 21.5471C110.171 20.1996 111.313 19.203 112.75 19.203Z" fill="black"/>
<path d="M115.095 25.67H110.474V39.649H115.095V25.67Z" fill="black"/>
<path d="M119.893 39.649V28.6223H116.992V25.6593H124.3V27.5346C124.823 26.839 125.501 26.275 126.28 25.8872C127.059 25.4994 127.917 25.2985 128.787 25.3004C130.85 25.3004 132.266 26.2407 132.994 27.5132C133.536 26.8011 134.24 26.2288 135.047 25.8439C135.855 25.4591 136.742 25.2727 137.636 25.3004C140.681 25.3004 142.846 27.0471 142.846 30.1761V39.6195H138.227V31.3656C138.227 29.9377 137.358 29.1099 135.95 29.1099C135.112 29.0776 134.295 29.3747 133.673 29.9377V39.6249H129.055V31.3656C129.055 29.9377 128.185 29.1099 126.799 29.1099C125.966 29.0762 125.152 29.3638 124.525 29.9136V39.649H119.893Z" fill="black"/>
<path d="M151.874 39.649H147.253V28.6223H144.342V25.6754H151.874V39.649Z" fill="black"/>
<path d="M149.42 19.203C150.881 19.203 152.032 20.2317 152.032 21.5471C152.032 22.8625 150.892 23.8912 149.42 23.8912C147.949 23.8912 146.841 22.8947 146.841 21.5471C146.841 20.1996 147.973 19.203 149.42 19.203Z" fill="black"/>
<path d="M154.799 36.595L161.619 29.2411H154.799V25.67H167.375V28.7107L160.613 36.0324H167.375V39.649H154.799V36.595Z" fill="black"/>
<path d="M170.308 39.649V25.67H174.704V27.5453C175.256 26.8424 175.962 26.2755 176.767 25.8881C177.573 25.5008 178.456 25.3034 179.349 25.3111C182.394 25.3111 184.538 27.0578 184.538 30.2324V39.649H179.916V31.6415C179.916 29.9484 178.991 29.1099 177.305 29.1099C176.87 29.0891 176.435 29.1546 176.025 29.3027C175.616 29.4507 175.24 29.6784 174.918 29.9725V39.649H170.308Z" fill="black"/>
<path d="M193.566 39.649H188.945V28.6223H186.044V25.6754H193.566V39.649Z" fill="black"/>
<path d="M191.12 19.203C192.581 19.203 193.731 20.2317 193.731 21.5471C193.731 22.8625 192.594 23.8912 191.12 23.8912C189.645 23.8912 188.543 22.8947 188.543 21.5471C188.543 20.1996 189.68 19.203 191.12 19.203Z" fill="black"/>
<path d="M197.09 20.0657H201.711V30.5915H203.63L206.867 25.6702H211.721L207.44 32.2069L212.088 39.6491H206.956L203.587 34.109H201.714V39.6491H197.09V20.0657Z" fill="black"/>
<path d="M219.832 39.649H215.213V28.6223H212.312V25.6754H219.832V39.649Z" fill="black"/>
<path d="M217.388 19.203C218.852 19.203 220 20.2317 220 21.5471C220 22.8625 218.863 23.8912 217.388 23.8912C215.914 23.8912 214.812 22.8947 214.812 21.5471C214.812 20.1996 215.938 19.203 217.388 19.203Z" fill="black"/>
<path d="M24.3499 39.1454C24.3499 39.4321 24.3499 39.7133 24.3338 39.9973C10.8879 39.9893 0 29.201 0 15.8837C0 15.5998 0 15.3158 0.0160549 15.0345C13.4486 15.0398 24.3499 25.8335 24.3499 39.1454Z" fill="#377BE1"/>
<path d="M48.6727 15.8838C48.6727 29.1957 37.7849 39.9947 24.3496 39.9947C24.3496 39.7107 24.3496 39.4267 24.3496 39.1428C24.3496 25.8309 35.2348 15.0319 48.6701 15.0319C48.6674 15.3158 48.6727 15.5998 48.6727 15.8838Z" fill="#377BE1"/>
<path d="M24.3496 18.6271C26.1009 18.6059 27.8068 18.0667 29.2527 17.0772C30.6986 16.0877 31.8199 14.6922 32.4755 13.0662C33.1311 11.4402 33.2917 9.65643 32.9371 7.93927C32.5825 6.22211 31.7286 4.6483 30.4828 3.41587C29.237 2.18343 27.6549 1.34743 25.9357 1.01304C24.2165 0.678658 22.4368 0.860835 20.8207 1.53665C19.2047 2.21246 17.8243 3.35172 16.8534 4.81108C15.8825 6.27044 15.3644 7.9847 15.3643 9.73816C15.3706 10.9127 15.6081 12.0745 16.0632 13.1571C16.5183 14.2397 17.1821 15.2218 18.0166 16.0474C18.8511 16.8729 19.84 17.5257 20.9266 17.9683C22.0133 18.411 23.1765 18.6348 24.3496 18.6271Z" fill="#00CD69"/>
</g>
<defs>
<clipPath id="clip0_996_44346">
<rect width="220" height="40" fill="white"/>
</clipPath>
</defs>
</svg>
