<svg width="19" height="16" viewBox="0 0 19 16" fill="none" xmlns="http://www.w3.org/2000/svg">
<path fill-rule="evenodd" clip-rule="evenodd" d="M5.60781 1.80128L1.75 3.73018V13.3865L5.04136 11.7408C5.3099 11.6065 5.619 11.5778 5.90768 11.6603L13.3922 13.7987L17.25 11.8698V2.21351L13.9586 3.85919C13.6901 3.99346 13.381 4.02219 13.0923 3.93971L5.60781 1.80128ZM5.04136 0.40745C5.30989 0.273184 5.619 0.244455 5.90768 0.326934L13.3922 2.46537L17.0133 0.654792C17.8112 0.255851 18.75 0.836046 18.75 1.7281V12.0552C18.75 12.5097 18.4932 12.9253 18.0867 13.1285L13.9586 15.1925C13.6901 15.3268 13.381 15.3555 13.0923 15.273L5.60781 13.1346L1.98666 14.9452C1.18877 15.3441 0.25 14.7639 0.25 13.8719V3.54477C0.25 3.09025 0.506803 2.67473 0.913344 2.47146L5.04136 0.40745Z" fill="#86898C"/>
<path fill-rule="evenodd" clip-rule="evenodd" d="M14.2168 3.2666V14.5999H12.7168V3.2666H14.2168Z" fill="#86898C"/>
<path fill-rule="evenodd" clip-rule="evenodd" d="M6.2832 1V12.3333H4.7832V1H6.2832Z" fill="#86898C"/>
</svg>
