<svg width="34" height="40" viewBox="0 0 34 40" fill="none" xmlns="http://www.w3.org/2000/svg">
<path fill-rule="evenodd" clip-rule="evenodd" d="M16.9176 39.9356C16.9463 39.9754 16.992 40 17.0412 40C17.0915 40 17.1381 39.9742 17.1668 39.9328C17.2158 39.862 17.2687 39.7938 17.3252 39.7286C18.5778 38.5213 19.8317 37.3154 21.0855 36.1095C23.659 33.6345 26.2324 31.1597 28.7944 28.673C32.76 24.8273 34.4718 20.1491 33.8888 14.71C33.1079 7.4088 27.1622 1.3225 19.8113 0.210683C11.7008 -1.01597 4.05642 3.19381 1.20904 10.7521C-1.18812 17.1124 -0.0154354 23.0173 4.68062 28.0075C6.91566 30.3826 9.2953 32.6262 11.6748 34.8698C12.7311 35.8657 13.7874 36.8616 14.831 37.869C15.0423 38.0731 15.2538 38.2768 15.4653 38.4806C15.8881 38.888 16.311 39.2954 16.7315 39.7051C16.7978 39.7785 16.8599 39.8555 16.9176 39.9356Z" fill="#B7BBBF"/>
<path d="M17.0061 26.6083C17.0061 26.8281 16.826 27.0007 16.6064 26.9928C10.7108 26.7813 6 21.9035 6 15.9126C6 15.6934 6.17947 15.5213 6.39849 15.5291C12.289 15.7392 17.0061 20.6195 17.0061 26.6083Z" fill="white"/>
<path d="M28 15.9126C28 21.901 23.2893 26.7835 17.3983 26.9918C17.1821 26.9995 17.006 26.8234 17.006 26.6071C17.006 20.6186 21.7156 15.7362 27.6064 15.5278C27.8221 15.5202 28 15.6968 28 15.9126Z" fill="white"/>
<path d="M17.006 17.1739C17.7976 17.1642 18.5686 16.9163 19.2222 16.4613C19.8757 16.0063 20.3825 15.3647 20.6788 14.6171C20.9752 13.8694 21.0478 13.0492 20.8875 12.2597C20.7272 11.4701 20.3413 10.7465 19.7782 10.1798C19.2151 9.61315 18.5 9.22876 17.7229 9.07501C16.9458 8.92126 16.1414 9.00502 15.4109 9.31576C14.6805 9.6265 14.0566 10.1503 13.6177 10.8213C13.1789 11.4924 12.9447 12.2806 12.9446 13.0868C12.9475 13.6269 13.0548 14.1611 13.2605 14.6588C13.4662 15.1566 13.7663 15.6082 14.1435 15.9878C14.5207 16.3674 14.9676 16.6675 15.4588 16.8711C15.95 17.0746 16.4757 17.1775 17.006 17.1739Z" fill="white"/>
</svg>
