<svg width="22" height="21" viewBox="0 0 22 21" fill="none" xmlns="http://www.w3.org/2000/svg">
<path d="M20.2826 3.00469L19.6174 3.44915V3.44915L20.2826 3.00469ZM20.2826 14.7828L19.6174 14.3383L20.2826 14.7828ZM19.0381 16.0273L18.5937 15.3621V15.3621L19.0381 16.0273ZM13.2768 16.7861L13.2738 15.9861C12.8332 15.9877 12.4768 16.3454 12.4768 16.7861H13.2768ZM13.2768 16.7876L13.9924 17.1453C14.0479 17.0343 14.0768 16.9118 14.0768 16.7876H13.2768ZM11.9159 19.5094L11.2003 19.1517L11.9159 19.5094ZM10.127 19.5094L9.4115 19.8672L10.127 19.5094ZM8.76611 16.7876H7.96611C7.96611 16.9118 7.99503 17.0343 8.05057 17.1453L8.76611 16.7876ZM8.76611 16.7861H9.56611C9.56611 16.3454 9.20976 15.9877 8.7691 15.9861L8.76611 16.7861ZM3.00469 16.0273L3.44915 15.3621H3.44915L3.00469 16.0273ZM1.76019 14.7828L1.09501 15.2272H1.09502L1.76019 14.7828ZM1.76019 3.00469L2.42537 3.44915V3.44915L1.76019 3.00469ZM3.00469 1.76019L3.44915 2.42537L3.00469 1.76019ZM19.0381 1.76019L18.5937 2.42537V2.42537L19.0381 1.76019ZM21.8428 8.89373C21.8428 7.3266 21.8438 6.09104 21.7437 5.10705C21.6422 4.1097 21.4304 3.28244 20.9478 2.56023L19.6174 3.44915C19.8951 3.86464 20.0633 4.39813 20.1519 5.26898C20.2418 6.1532 20.2428 7.2933 20.2428 8.89373H21.8428ZM20.9478 15.2272C21.4304 14.505 21.6422 13.6778 21.7437 12.6804C21.8438 11.6964 21.8428 10.4609 21.8428 8.89373H20.2428C20.2428 10.4942 20.2418 11.6343 20.1519 12.5185C20.0633 13.3893 19.8951 13.9228 19.6174 14.3383L20.9478 15.2272ZM19.4826 16.6924C20.0625 16.305 20.5603 15.8071 20.9478 15.2272L19.6174 14.3383C19.3467 14.7435 18.9988 15.0914 18.5937 15.3621L19.4826 16.6924ZM13.2798 17.5861C14.6022 17.5812 15.83 17.5587 16.86 17.4489C17.8625 17.342 18.8104 17.1416 19.4826 16.6924L18.5937 15.3621C18.2665 15.5807 17.657 15.7548 16.6903 15.8579C15.7512 15.9581 14.5981 15.9812 13.2738 15.9861L13.2798 17.5861ZM14.0768 16.7876V16.7861H12.4768V16.7876H14.0768ZM12.6314 19.8672L13.9924 17.1453L12.5613 16.4298L11.2003 19.1517L12.6314 19.8672ZM9.4115 19.8672C10.0748 21.1939 11.9681 21.1939 12.6314 19.8672L11.2003 19.1517C11.1266 19.2991 10.9163 19.2991 10.8426 19.1517L9.4115 19.8672ZM8.05057 17.1453L9.4115 19.8672L10.8426 19.1517L9.48166 16.4298L8.05057 17.1453ZM7.96611 16.7861V16.7876H9.56611V16.7861H7.96611ZM2.56023 16.6924C3.23247 17.1416 4.18034 17.342 5.18284 17.4489C6.21288 17.5587 7.44074 17.5812 8.76313 17.5861L8.7691 15.9861C7.4448 15.9812 6.29166 15.9581 5.35251 15.8579C4.38583 15.7548 3.77633 15.5807 3.44915 15.3621L2.56023 16.6924ZM1.09502 15.2272C1.48248 15.8071 1.98036 16.305 2.56024 16.6924L3.44915 15.3621C3.04398 15.0914 2.69609 14.7435 2.42537 14.3383L1.09502 15.2272ZM0.2 8.89373C0.2 10.4609 0.199033 11.6964 0.299131 12.6804C0.40059 13.6778 0.612449 14.505 1.09501 15.2272L2.42537 14.3383C2.14774 13.9228 1.97951 13.3893 1.89092 12.5185C1.80097 11.6343 1.8 10.4942 1.8 8.89373H0.2ZM1.09501 2.56023C0.612449 3.28244 0.40059 4.1097 0.299131 5.10705C0.199033 6.09104 0.2 7.3266 0.2 8.89373H1.8C1.8 7.2933 1.80097 6.1532 1.89092 5.26898C1.97951 4.39813 2.14774 3.86464 2.42537 3.44915L1.09501 2.56023ZM2.56023 1.09501C1.98036 1.48248 1.48248 1.98036 1.09501 2.56023L2.42537 3.44915C2.69609 3.04397 3.04397 2.69609 3.44915 2.42537L2.56023 1.09501ZM9.89373 0.2C8.32054 0.2 6.84695 0.199448 5.62402 0.297587C4.43799 0.392766 3.31765 0.588924 2.56023 1.09501L3.44915 2.42537C3.82943 2.17127 4.56984 1.98733 5.75201 1.89246C6.89729 1.80055 8.29937 1.8 9.89373 1.8V0.2ZM12.1491 0.2H9.89373V1.8H12.1491V0.2ZM19.4826 1.09501C18.7252 0.588924 17.6048 0.392766 16.4188 0.297587C15.1959 0.199448 13.7223 0.2 12.1491 0.2V1.8C13.7434 1.8 15.1455 1.80055 16.2908 1.89246C17.473 1.98733 18.2134 2.17127 18.5937 2.42537L19.4826 1.09501ZM20.9478 2.56023C20.5603 1.98036 20.0625 1.48248 19.4826 1.09501L18.5937 2.42537C18.9988 2.69609 19.3467 3.04397 19.6174 3.44915L20.9478 2.56023Z" fill="#fff"/>
<circle cx="15.1281" cy="8.87663" r="1.57536" fill="#fff"/>
<circle cx="10.9269" cy="8.87663" r="1.57536" fill="#fff"/>
<circle cx="6.95817" cy="8.87663" r="1.57536" fill="#fff"/>
</svg>
