<svg width="24" height="24" viewBox="0 0 24 24" fill="none" xmlns="http://www.w3.org/2000/svg">
<path fill-rule="evenodd" clip-rule="evenodd" d="M17.0204 5.70696C17.3719 5.35549 17.9418 5.35549 18.2932 5.70696C19.5379 6.95165 20.3856 8.53748 20.729 10.2639C21.0724 11.9903 20.8961 13.7798 20.2225 15.4061C19.5489 17.0324 18.4082 18.4223 16.9446 19.4003C15.481 20.3782 13.7602 20.9002 12 20.9002C10.2397 20.9002 8.519 20.3782 7.0554 19.4003C5.59181 18.4223 4.45107 17.0324 3.77745 15.4061C3.10383 13.7798 2.92758 11.9903 3.27099 10.2639C3.6144 8.53748 4.46204 6.95165 5.70673 5.70696C6.0582 5.35549 6.62805 5.35549 6.97952 5.70696C7.33099 6.05844 7.33099 6.62828 6.97952 6.97976C5.98657 7.97271 5.31036 9.23781 5.0364 10.6151C4.76245 11.9923 4.90305 13.4199 5.44043 14.7173C5.97782 16.0146 6.88784 17.1235 8.05543 17.9036C9.22302 18.6838 10.5957 19.1002 12 19.1002C13.4042 19.1002 14.7769 18.6838 15.9445 17.9036C17.1121 17.1235 18.0221 16.0146 18.5595 14.7173C19.0969 13.4199 19.2375 11.9923 18.9636 10.6151C18.6896 9.23781 18.0134 7.97271 17.0204 6.97976C16.669 6.62828 16.669 6.05844 17.0204 5.70696Z" fill="#86898C"/>
<path fill-rule="evenodd" clip-rule="evenodd" d="M12 3.09961C12.497 3.09961 12.9 3.50255 12.9 3.99961L12.9 11.9996C12.9 12.4967 12.497 12.8996 12 12.8996C11.5029 12.8996 11.1 12.4967 11.1 11.9996L11.1 3.99961C11.1 3.50255 11.5029 3.09961 12 3.09961Z" fill="#86898C"/>
</svg>
