<svg width="20" height="20" viewBox="0 0 20 20" fill="none" xmlns="http://www.w3.org/2000/svg">
<path fill-rule="evenodd" clip-rule="evenodd" d="M15.5833 4.5L17.05 3.4L17.95 4.6L16.4833 5.7C16.0073 6.05701 15.4284 6.25 14.8333 6.25H11.475C11.1615 6.25 10.875 6.4271 10.7348 6.70747C10.5618 7.05346 10.6516 7.47314 10.9509 7.71809L12.9509 9.35443C14.7216 10.8032 15.6379 13.0502 15.3853 15.3241L15.3653 15.5035C15.2783 16.2869 15.0858 17.055 14.793 17.7869L14.1964 19.2785L12.8036 18.7215L13.4003 17.2298C13.6429 16.6234 13.8024 15.987 13.8745 15.3378L13.8945 15.1584C14.091 13.3899 13.3783 11.6422 12.0011 10.5154L10.0011 8.87903C9.15905 8.19009 8.9066 7.00975 9.39315 6.03665C9.78742 5.24811 10.5934 4.75 11.475 4.75H14.8333C15.1038 4.75 15.367 4.66228 15.5833 4.5Z" fill="#377BE1"/>
<path fill-rule="evenodd" clip-rule="evenodd" d="M5.29989 10.1386C5.44089 9.29258 4.70742 8.55911 3.8614 8.70011L0.623299 9.2398L0.376701 7.7602L3.6148 7.22052C5.47606 6.91031 7.08969 8.52394 6.77948 10.3852L6.64497 11.1923C6.45826 12.3125 7.02401 13.4235 8.03978 13.9314C9.40335 14.6132 10.1104 16.1505 9.7407 17.6295L9.22761 19.6819L7.77239 19.3181L8.28548 17.2657C8.48472 16.4688 8.10371 15.6404 7.36896 15.273C5.7642 14.4706 4.87041 12.7154 5.16538 10.9457L5.29989 10.1386Z" fill="#377BE1"/>
<path fill-rule="evenodd" clip-rule="evenodd" d="M10 18.5C14.6944 18.5 18.5 14.6944 18.5 10C18.5 5.30558 14.6944 1.5 10 1.5C5.30558 1.5 1.5 5.30558 1.5 10C1.5 14.6944 5.30558 18.5 10 18.5ZM10 20C15.5228 20 20 15.5228 20 10C20 4.47715 15.5228 0 10 0C4.47715 0 0 4.47715 0 10C0 15.5228 4.47715 20 10 20Z" fill="#377BE1"/>
</svg>
