<svg width="40" height="40" viewBox="0 0 40 40" fill="none" xmlns="http://www.w3.org/2000/svg">
<path d="M28.5645 15.4946C28.2852 14.8107 27.8825 14.191 27.379 13.6702C26.875 13.1478 26.2808 12.7326 25.6288 12.4473C24.9526 12.1503 24.2274 11.9982 23.4952 12C22.468 12 21.4658 12.2975 20.5948 12.8593C20.3865 12.9937 20.1886 13.1414 20.001 13.3022C19.8135 13.1414 19.6156 12.9937 19.4072 12.8593C18.5363 12.2975 17.5341 12 16.5069 12C15.7672 12 15.0505 12.1498 14.3733 12.4473C13.7191 12.7337 13.1294 13.1458 12.6231 13.6702C12.1189 14.1905 11.7161 14.8103 11.4376 15.4946C11.1479 16.2063 11 16.9621 11 17.7399C11 18.4736 11.1417 19.2382 11.423 20.016C11.6584 20.666 11.9959 21.3402 12.4272 22.021C13.1107 23.0985 14.0503 24.2222 15.2171 25.3614C17.1507 27.2497 19.0655 28.5541 19.1468 28.607L19.6406 28.9419C19.8593 29.0895 20.1406 29.0895 20.3594 28.9419L20.8532 28.607C20.9345 28.5519 22.8472 27.2497 24.7828 25.3614C25.9496 24.2222 26.8893 23.0985 27.5727 22.021C28.004 21.3402 28.3437 20.666 28.577 20.016C28.8583 19.2382 29 18.4736 29 17.7399C29.0021 16.9621 28.8541 16.2063 28.5645 15.4946ZM20.001 27.199C20.001 27.199 12.5835 22.1731 12.5835 17.7399C12.5835 15.4946 14.34 13.6746 16.5069 13.6746C18.03 13.6746 19.351 14.5736 20.001 15.8868C20.6511 14.5736 21.9721 13.6746 23.4952 13.6746C25.6621 13.6746 27.4185 15.4946 27.4185 17.7399C27.4185 22.1731 20.001 27.199 20.001 27.199Z" fill="#86898C"/>
<path d="M8 1H32V-1H8V1ZM39 8V32H41V8H39ZM32 39H8V41H32V39ZM1 32V8H-1V32H1ZM8 39C4.13401 39 1 35.866 1 32H-1C-1 36.9706 3.02944 41 8 41V39ZM39 32C39 35.866 35.866 39 32 39V41C36.9706 41 41 36.9706 41 32H39ZM32 1C35.866 1 39 4.13401 39 8H41C41 3.02944 36.9706 -1 32 -1V1ZM8 -1C3.02944 -1 -1 3.02944 -1 8H1C1 4.13401 4.13401 1 8 1V-1Z" fill="#CFD3D8"/>
</svg>
