<svg width="18" height="18" viewBox="0 0 18 18" fill="none" xmlns="http://www.w3.org/2000/svg">
<path fill-rule="evenodd" clip-rule="evenodd" d="M8 2C4.68629 2 2 4.68629 2 8C2 11.3137 4.68629 14 8 14C11.3137 14 14 11.3137 14 8C14 4.68629 11.3137 2 8 2ZM0 8C0 3.58172 3.58172 0 8 0C12.4183 0 16 3.58172 16 8C16 9.90364 15.3351 11.652 14.2249 13.0255C14.4016 13.0661 14.5694 13.1552 14.7071 13.2929L17.7071 16.2929C18.0976 16.6834 18.0976 17.3166 17.7071 17.7071C17.3166 18.0976 16.6834 18.0976 16.2929 17.7071L13.2929 14.7071C13.1552 14.5694 13.0661 14.4016 13.0255 14.2249C11.652 15.3351 9.90364 16 8 16C3.58172 16 0 12.4183 0 8Z" fill="#377BE1"/>
</svg>
