<svg width="30" height="30" viewBox="0 0 30 30" fill="none" xmlns="http://www.w3.org/2000/svg">
<path d="M23.8057 0C23.7523 1.02719 23.7922 2.03557 24.3836 2.93483C25.1189 4.05534 26.1438 4.6852 27.49 4.76045C27.8385 4.78077 28.1891 4.76045 28.5496 4.76045C28.5579 4.8816 28.5676 4.95761 28.5676 5.03361C28.5676 6.99017 28.5872 8.94672 28.5601 10.9033C28.4962 15.5441 27.0227 19.7002 24.1692 23.3575C21.7769 26.4225 18.7307 28.6063 15.0908 29.9631C14.957 30.0098 14.8114 30.0098 14.6776 29.9631C7.84172 27.2686 3.5215 22.3587 1.71695 15.2333C1.34069 13.7403 1.19846 12.2112 1.19996 10.6707C1.19996 8.80299 1.19996 6.93523 1.19996 5.06748C1.19996 4.98169 1.20824 4.8959 1.21501 4.76647C1.59804 4.76647 1.96754 4.78001 2.33703 4.76647C4.26424 4.68219 5.90473 3.01761 5.96267 1.09116C5.97396 0.729945 5.96267 0.367983 5.96267 0.00602031L23.8057 0ZM2.97517 6.48071C2.97065 6.55596 2.96387 6.61541 2.96387 6.67336C2.96387 8.02263 2.94055 9.37265 2.97366 10.7212C2.9859 11.63 3.05375 12.5372 3.17684 13.4378C3.56187 16.0858 4.52004 18.618 5.9845 20.8576C8.14574 24.1757 11.058 26.5851 14.7213 28.0856C14.8171 28.1248 14.9239 28.1286 15.0223 28.0961C16.7391 27.4081 18.344 26.4685 19.7842 25.308C21.8536 23.6397 23.5463 21.5521 24.7509 19.1825C25.9143 16.9129 26.6179 14.4981 26.7398 11.9463C26.8271 10.1801 26.7879 8.40942 26.803 6.63874C26.8002 6.58798 26.7926 6.53758 26.7804 6.48824C24.203 5.90879 22.6498 4.33828 22.0756 1.77219H7.68594C7.25023 4.25776 5.34486 6.0608 2.97517 6.48071Z" fill="#377BE1"/>
<path d="M14.8883 5.00269C17.1059 6.92839 18.9985 9.05426 20.1469 11.7513C20.9837 13.7154 21.1154 15.7148 20.2056 17.6909C19.3552 19.5384 17.9578 20.759 15.9283 21.1834C15.8724 21.1989 15.8174 21.2173 15.7635 21.2383V23.4959H14.0184V21.2383C13.7866 21.1804 13.5766 21.1405 13.3742 21.075C10.9661 20.3007 9.60709 18.5917 9.08484 16.1776C8.76728 14.7079 8.99754 13.2759 9.56494 11.9025C10.7073 9.13101 12.63 6.95924 14.8883 5.00269ZM15.768 19.4082C16.6416 19.2019 17.4173 18.7003 17.9638 17.9882C19.1521 16.4658 19.3312 14.7719 18.7329 12.9764C18.1821 11.3254 17.191 9.93621 16.0652 8.63586C15.6972 8.20993 15.3014 7.80808 14.8808 7.35657C14.354 7.94354 13.8408 8.47858 13.3697 9.04824C12.35 10.2824 11.4613 11.6015 10.991 13.1532C10.4605 14.9006 10.6742 16.5396 11.8188 17.9965C12.3648 18.7043 13.1373 19.2032 14.0071 19.4097C14.0071 18.7573 13.9732 18.1304 14.0176 17.5081C14.0515 17.0362 13.9032 16.7375 13.5044 16.4809C12.9588 16.1287 12.4509 15.7126 11.9136 15.3107L12.9618 13.9027L14.0154 14.6741V12.5347H15.7657V14.6658L16.8125 13.9027L17.854 15.3032C17.7674 15.3739 17.7035 15.4304 17.6335 15.4815C17.0698 15.9022 16.5047 16.3198 15.9441 16.7458C15.8688 16.8037 15.7762 16.9053 15.7755 16.9881C15.7627 17.785 15.768 18.5842 15.768 19.4082Z" fill="#00CD69"/>
</svg>
