<svg width="17" height="14" viewBox="0 0 17 14" fill="none" xmlns="http://www.w3.org/2000/svg">
<path fill-rule="evenodd" clip-rule="evenodd" d="M0 1C0 0.447715 0.380558 0 0.85 0H16.15C16.6194 0 17 0.447715 17 1C17 1.55228 16.6194 2 16.15 2H0.85C0.380558 2 0 1.55228 0 1ZM0 7C0 6.44772 0.380558 6 0.85 6H11.9C12.3694 6 12.75 6.44772 12.75 7C12.75 7.55228 12.3694 8 11.9 8H0.85C0.380558 8 0 7.55228 0 7ZM0 13C0 12.4477 0.380558 12 0.85 12H16.15C16.6194 12 17 12.4477 17 13C17 13.5523 16.6194 14 16.15 14H0.85C0.380558 14 0 13.5523 0 13Z" fill="#377BE1"/>
</svg>
