<svg width="21" height="18" viewBox="0 0 21 18" fill="none" xmlns="http://www.w3.org/2000/svg">
<path d="M2.28651 10.4336L2.28901 10.436L9.2866 16.9637C9.40016 17.0725 9.51083 17.1781 9.61582 17.2581C9.7306 17.3455 9.86744 17.4257 10.042 17.4606L10.0906 17.4703H10.1401H10.3301C10.5793 17.4703 10.7589 17.3411 10.8602 17.2577C10.933 17.1979 11.0185 17.1145 11.0986 17.0365C11.1246 17.0111 11.15 16.9863 11.1743 16.963C11.1749 16.9625 11.1754 16.9619 11.176 16.9613L18.1213 10.4358C18.1214 10.4357 18.1216 10.4356 18.1217 10.4355C19.1626 9.46319 19.8018 8.13639 19.9134 6.71634C20.025 5.29638 19.6009 3.88612 18.7247 2.76322C18.7245 2.76304 18.7244 2.76287 18.7242 2.76269L18.4153 2.36412C17.9121 1.71455 17.2508 1.20475 16.4946 0.883313C15.7384 0.56188 14.9124 0.439512 14.0955 0.52792C13.2785 0.616328 12.4979 0.912551 11.8279 1.38832C11.158 1.8641 10.6211 2.50359 10.2685 3.24577L10.2624 3.25848L10.2571 3.2715C10.2541 3.2788 10.249 3.2851 10.2424 3.28957C10.2357 3.29402 10.228 3.29638 10.2201 3.29638C10.2122 3.29638 10.2044 3.29402 10.1978 3.28957C10.1911 3.2851 10.186 3.2788 10.183 3.2715L10.1777 3.25848L10.1717 3.24577C9.81905 2.5036 9.28216 1.8641 8.61221 1.38832C7.94227 0.912551 7.1616 0.616328 6.34467 0.52792C5.52773 0.439512 4.70178 0.56188 3.94556 0.883313C3.18936 1.20474 2.52812 1.71453 2.02488 2.36406C2.02486 2.36408 2.02485 2.3641 2.02483 2.36412L1.71572 2.76296C0.83828 3.8826 0.410314 5.28945 0.515698 6.70809C0.621118 8.1272 1.25264 9.45581 2.28651 10.4336Z" fill="white" fill-opacity="0.75" stroke="#B7BBBF"/>
</svg>
