<svg width="30" height="30" viewBox="0 0 30 30" fill="none" xmlns="http://www.w3.org/2000/svg">
<path d="M29.9961 10.9182V23.6343H27.8675C28.5431 26.7415 26.2548 29.5575 23.2399 29.6624C21.8222 29.7109 20.5891 29.2279 19.5925 28.2172C18.3345 26.9419 17.9329 25.3989 18.2617 23.6406H11.7278C12.3792 26.7932 10.1198 29.4823 7.22712 29.6569C5.81169 29.7423 4.56537 29.2898 3.54764 28.3041C2.22224 27.0241 1.79792 25.4459 2.13847 23.614H0.0247258V16.7701H4.6828L4.72194 16.7012C4.64902 16.6535 4.5792 16.6012 4.51291 16.5447C3.06773 15.1454 1.62517 13.7435 0.185218 12.3391C0.0774111 12.2239 0.0143732 12.0739 0.00750492 11.9163C-0.00267237 9.61157 0.000452222 7.3068 0.000452222 5.00282V4.68967C0.683114 4.68967 1.33524 4.68184 1.98659 4.69515C2.07655 4.70128 2.16657 4.68394 2.24781 4.64483C2.32905 4.60571 2.39874 4.54617 2.45005 4.47203C3.05364 3.73144 3.62436 2.95483 4.30076 2.2847C6.35422 0.24924 9.08252 0.0543048 11.4382 1.72103C11.4914 1.75861 11.5462 1.79384 11.5948 1.82907C11.7318 1.73356 11.85 1.64744 11.9713 1.56602C13.9848 0.217142 16.3961 0.29308 18.2977 1.77427C19.2371 2.50703 19.984 3.42534 20.6745 4.3867C20.8436 4.62156 21.0197 4.69985 21.3008 4.69985C24.0839 4.68889 26.8662 4.6928 29.6493 4.69358C29.7659 4.69358 29.8841 4.70298 30 4.70768V8.28225L24.4338 9.66402C23.6024 9.8707 22.7718 10.0789 21.949 10.2848V10.9197L29.9961 10.9182ZM28.2104 6.47304H1.76269C1.75721 6.53333 1.75096 6.57169 1.75096 6.60926C1.75096 8.1523 1.75095 9.69533 1.75722 11.2384C1.76852 11.3686 1.82599 11.4905 1.91927 11.582C3.64523 13.2657 5.37772 14.9439 7.11673 16.6167C7.23811 16.7194 7.39145 16.7767 7.55045 16.7787C11.6422 16.7876 15.7343 16.7897 19.8266 16.785H20.1625V16.403C20.1625 14.0022 20.1625 11.5995 20.1625 9.19508C20.1625 8.98449 20.2149 8.89837 20.4349 8.84435C22.9252 8.23293 25.41 7.60194 27.9003 6.99209C28.2033 6.91693 28.309 6.78854 28.2104 6.47304ZM1.76504 21.8619C2.08993 21.8619 2.39133 21.8509 2.69196 21.8658C2.77289 21.8724 2.85413 21.8575 2.92751 21.8228C3.0009 21.788 3.06384 21.7345 3.11002 21.6677C5.13843 19.2142 8.74667 19.2275 10.7649 21.6842C10.8495 21.782 10.9688 21.8429 11.0976 21.8541C13.6941 21.8635 16.2914 21.8635 18.8895 21.8541C19.0089 21.8428 19.1209 21.7914 19.2074 21.7085C19.4853 21.4501 19.7491 21.1761 20.0145 20.9044C20.0717 20.8457 20.1539 20.7706 20.1546 20.7017C20.1648 19.9924 20.1609 19.2823 20.1609 18.5582H1.76348L1.76504 21.8619ZM28.226 16.5384H27.8839C26.8662 16.5384 25.8539 16.5321 24.8393 16.5439C24.6264 16.5439 24.5129 16.4852 24.4134 16.291C23.8654 15.2153 23.2963 14.1483 22.735 13.0812C22.4946 12.6225 22.486 12.6178 21.9333 12.7203V19.9439C21.9854 19.9482 22.0378 19.9482 22.0899 19.9439C24.0518 19.6057 25.6606 20.2179 26.9335 21.7398C26.9777 21.8009 27.0425 21.8439 27.1159 21.8611C27.4823 21.8721 27.8495 21.8666 28.2237 21.8666L28.226 16.5384ZM3.77154 24.6826C3.70186 26.3563 5.08676 27.8352 6.78872 27.9056C8.49067 27.9761 9.99847 26.6241 10.0705 24.9534C10.1488 23.1301 8.81791 21.6654 7.01731 21.5957C5.29578 21.526 3.84513 22.9055 3.77154 24.6826ZM26.2187 24.7859C26.2563 23.0746 24.8448 21.627 23.1045 21.5942C21.4096 21.5621 19.9519 22.9563 19.9151 24.6473C19.8767 26.4174 21.2342 27.8626 22.9784 27.9096C23.3969 27.9195 23.8132 27.8464 24.2032 27.6944C24.5932 27.5424 24.9492 27.3146 25.2506 27.024C25.5519 26.7335 25.7927 26.3861 25.9589 26.002C26.125 25.6178 26.2134 25.2045 26.2187 24.7859ZM11.8014 4.68262C11.2143 3.41359 9.34635 2.28783 7.99434 2.36925C6.75975 2.44362 4.87695 3.71343 4.57398 4.68262H11.8014ZM12.8466 3.0981C13.2184 3.57721 13.5832 4.03284 13.9308 4.501C13.9771 4.56761 14.0403 4.6207 14.1139 4.65482C14.1875 4.68894 14.2689 4.70286 14.3497 4.69515C15.686 4.68889 17.0224 4.69515 18.3579 4.69124C18.4409 4.69124 18.5239 4.68028 18.6711 4.67088C17.8937 3.63906 17.0466 2.78495 15.8011 2.46554C14.7286 2.19154 13.7633 2.46632 12.8466 3.0981ZM28.2284 12.6976H24.5277C24.8816 13.374 25.2151 14.0223 25.565 14.6619C25.6018 14.7284 25.7373 14.7707 25.8281 14.773C26.2775 14.784 26.7268 14.7785 27.1762 14.7785H28.2284V12.6976Z" fill="#377BE1"/>
<path d="M8.08032 8.92493H9.80263V14.6774H8.08032V8.92493Z" fill="#00CD69"/>
<path d="M13.8415 14.6791H12.1191V8.92737H13.8415V14.6791Z" fill="#00CD69"/>
<path d="M16.1465 8.92261H17.861V14.6728H16.1465V8.92261Z" fill="#00CD69"/>
<path d="M4.04468 8.73706H5.7777V10.4591H4.0486L4.04468 8.73706Z" fill="#00CD69"/>
<path d="M6.06152 23.8871H7.77655V25.6092H6.06152V23.8871Z" fill="#377BE1"/>
<path d="M22.2058 25.6069V23.8918H23.9318V25.6069H22.2058Z" fill="#377BE1"/>
</svg>
