<svg width="17" height="19" viewBox="0 0 17 19" fill="none" xmlns="http://www.w3.org/2000/svg">
<path fill-rule="evenodd" clip-rule="evenodd" d="M8.25 12.5C10.5972 12.5 12.5 10.5972 12.5 8.25C12.5 5.90279 10.5972 4 8.25 4C5.90279 4 4 5.90279 4 8.25C4 10.5972 5.90279 12.5 8.25 12.5ZM11 8.25C11 9.76878 9.76878 11 8.25 11C6.73122 11 5.5 9.76878 5.5 8.25C5.5 6.73122 6.73122 5.5 8.25 5.5C9.76878 5.5 11 6.73122 11 8.25Z" fill="#377BE1"/>
<path fill-rule="evenodd" clip-rule="evenodd" d="M8.25 0C4.0121 0 0 3.29471 0 8.25C0 11.0427 1.52534 13.3231 3.16012 14.9706C4.80208 16.6253 6.64037 17.7302 7.46335 18.1834C7.95664 18.455 8.54336 18.455 9.03664 18.1834C9.85963 17.7302 11.6979 16.6253 13.3399 14.9706C14.9747 13.3231 16.5 11.0427 16.5 8.25C16.5 3.30308 12.6307 0 8.25 0ZM1.5 8.25C1.5 4.20474 4.75649 1.5 8.25 1.5C11.8688 1.5 15 4.19648 15 8.25C15 10.4754 13.7811 12.3963 12.2751 13.914C10.7762 15.4246 9.07697 16.4488 8.31314 16.8694C8.27031 16.893 8.22969 16.893 8.18686 16.8694C7.42303 16.4488 5.72378 15.4246 4.22488 13.914C2.71891 12.3963 1.5 10.4754 1.5 8.25Z" fill="#377BE1"/>
</svg>
