<svg width="20" height="20" viewBox="0 0 20 20" fill="none" xmlns="http://www.w3.org/2000/svg">
<path fill-rule="evenodd" clip-rule="evenodd" d="M10.2083 11.457C10.8986 11.457 11.4583 10.8974 11.4583 10.207C11.4583 9.51668 10.8986 8.95703 10.2083 8.95703C9.5179 8.95703 8.95825 9.51668 8.95825 10.207C8.95825 10.8974 9.5179 11.457 10.2083 11.457ZM10.2083 12.707C11.589 12.707 12.7083 11.5877 12.7083 10.207C12.7083 8.82632 11.589 7.70703 10.2083 7.70703C8.82754 7.70703 7.70825 8.82632 7.70825 10.207C7.70825 11.5877 8.82754 12.707 10.2083 12.707Z" fill="#00CD69"/>
<path fill-rule="evenodd" clip-rule="evenodd" d="M10.2082 7.08203C7.38249 7.08203 6.05731 9.0273 5.57676 9.97377C5.54882 10.0288 5.52994 10.0661 5.5146 10.0987C5.49995 10.1298 5.49319 10.147 5.4897 10.1571C5.48681 10.1655 5.48607 10.1693 5.4856 10.1722C5.48504 10.1756 5.48364 10.1857 5.48364 10.207C5.48364 10.2284 5.48504 10.2384 5.4856 10.2419C5.48607 10.2447 5.48681 10.2486 5.4897 10.257C5.49319 10.2671 5.49995 10.2842 5.5146 10.3154C5.52994 10.348 5.54882 10.3853 5.57676 10.4403C6.05731 11.3868 7.3825 13.332 10.2082 13.332C13.034 13.332 14.3592 11.3868 14.8397 10.4403C14.8677 10.3853 14.8866 10.348 14.9019 10.3154C14.9165 10.2842 14.9233 10.2671 14.9268 10.257C14.9297 10.2486 14.9304 10.2447 14.9309 10.2419C14.9315 10.2384 14.9329 10.2284 14.9329 10.207C14.9329 10.1857 14.9315 10.1756 14.9309 10.1722C14.9304 10.1693 14.9297 10.1655 14.9268 10.1571C14.9233 10.147 14.9165 10.1298 14.9019 10.0987C14.8866 10.0661 14.8677 10.0288 14.8397 9.97377C14.3592 9.0273 13.034 7.08203 10.2082 7.08203ZM4.46219 9.40787C5.02571 8.29798 6.68065 5.83203 10.2082 5.83203C13.7358 5.83203 15.3908 8.29798 15.9543 9.40787C15.9583 9.41583 15.9624 9.4238 15.9665 9.43181C16.0698 9.63483 16.1829 9.85682 16.1829 10.207C16.1829 10.5572 16.0698 10.7792 15.9665 10.9822C15.9624 10.9903 15.9583 10.9982 15.9543 11.0062C15.3908 12.1161 13.7358 14.582 10.2082 14.582C6.68065 14.582 5.02571 12.1161 4.46219 11.0062C4.45816 10.9982 4.45409 10.9903 4.45002 10.9822C4.34666 10.7792 4.23364 10.5572 4.23364 10.207C4.23364 9.85682 4.34666 9.63483 4.45002 9.43181C4.45409 9.42381 4.45815 9.41583 4.46219 9.40787Z" fill="#00CD69"/>
<path fill-rule="evenodd" clip-rule="evenodd" d="M16.6124 2.96841C16.2325 2.91735 15.7224 2.91602 14.9583 2.91602H14.7916C14.4464 2.91602 14.1666 2.6362 14.1666 2.29102C14.1666 1.94584 14.4464 1.66602 14.7916 1.66602H14.9583C14.9727 1.66602 14.987 1.66602 15.0013 1.66602C15.711 1.66599 16.3059 1.66597 16.7789 1.72956C17.2794 1.79685 17.7358 1.94547 18.1032 2.31282C18.4705 2.68018 18.6191 3.13659 18.6864 3.63706C18.75 4.11003 18.75 4.70498 18.75 5.41471L18.75 5.62435C18.75 5.96953 18.4701 6.24935 18.125 6.24935C17.7798 6.24935 17.5 5.96953 17.5 5.62435V5.45768C17.5 4.69363 17.4986 4.18345 17.4476 3.80362C17.3989 3.44176 17.3157 3.2931 17.2193 3.19671C17.1229 3.10031 16.9742 3.01706 16.6124 2.96841Z" fill="#00CD69"/>
<path fill-rule="evenodd" clip-rule="evenodd" d="M16.6124 17.4476C16.2325 17.4987 15.7224 17.5 14.9583 17.5H14.7916C14.4464 17.5 14.1666 17.7798 14.1666 18.125C14.1666 18.4702 14.4464 18.75 14.7916 18.75H14.9583C14.9727 18.75 14.987 18.75 15.0013 18.75C15.711 18.75 16.3059 18.75 16.7789 18.6865C17.2794 18.6192 17.7358 18.4705 18.1032 18.1032C18.4705 17.7358 18.6191 17.2794 18.6864 16.779C18.75 16.306 18.75 15.711 18.75 15.0013L18.75 14.7917C18.75 14.4465 18.4701 14.1667 18.125 14.1667C17.7798 14.1667 17.5 14.4465 17.5 14.7917V14.9583C17.5 15.7224 17.4986 16.2326 17.4476 16.6124C17.3989 16.9743 17.3157 17.1229 17.2193 17.2193C17.1229 17.3157 16.9742 17.399 16.6124 17.4476Z" fill="#00CD69"/>
<path fill-rule="evenodd" clip-rule="evenodd" d="M3.80427 2.96841C4.1841 2.91735 4.69427 2.91602 5.45833 2.91602H5.625C5.97018 2.91602 6.25 2.6362 6.25 2.29102C6.25 1.94584 5.97018 1.66602 5.625 1.66602H5.45833C5.44396 1.66602 5.42964 1.66602 5.41536 1.66602C4.70562 1.66599 4.11068 1.66597 3.63771 1.72956C3.13724 1.79685 2.68083 1.94547 2.31347 2.31282C1.94612 2.68018 1.79749 3.13659 1.73021 3.63706C1.66662 4.11003 1.66664 4.70498 1.66667 5.41471L1.66667 5.62435C1.66667 5.96953 1.94649 6.24935 2.29167 6.24935C2.63685 6.24935 2.91667 5.96953 2.91667 5.62435V5.45768C2.91667 4.69363 2.91799 4.18345 2.96906 3.80362C3.01771 3.44176 3.10096 3.2931 3.19736 3.19671C3.29375 3.10031 3.44241 3.01706 3.80427 2.96841Z" fill="#00CD69"/>
<path fill-rule="evenodd" clip-rule="evenodd" d="M3.80427 17.4476C4.1841 17.4987 4.69427 17.5 5.45833 17.5H5.625C5.97018 17.5 6.25 17.7798 6.25 18.125C6.25 18.4702 5.97018 18.75 5.625 18.75H5.45833C5.44396 18.75 5.42964 18.75 5.41536 18.75C4.70562 18.75 4.11068 18.75 3.63771 18.6865C3.13724 18.6192 2.68083 18.4705 2.31347 18.1032C1.94612 17.7358 1.79749 17.2794 1.73021 16.779C1.66662 16.306 1.66664 15.711 1.66667 15.0013L1.66667 14.7917C1.66667 14.4465 1.94649 14.1667 2.29167 14.1667C2.63685 14.1667 2.91667 14.4465 2.91667 14.7917V14.9583C2.91667 15.7224 2.91799 16.2326 2.96906 16.6124C3.01771 16.9743 3.10096 17.1229 3.19736 17.2193C3.29375 17.3157 3.44241 17.399 3.80427 17.4476Z" fill="#00CD69"/>
</svg>
