<svg width="19" height="19" viewBox="0 0 19 19" fill="none" xmlns="http://www.w3.org/2000/svg">
<path d="M8.14095 9.10526C8.14095 9.36101 8.24255 9.60627 8.42338 9.78711C8.60422 9.96795 8.84948 10.0695 9.10523 10.0695C9.36097 10.0695 9.60623 9.96795 9.78707 9.78711C9.96791 9.60627 10.0695 9.36101 10.0695 9.10526C10.0695 8.84952 9.96791 8.60426 9.78707 8.42342C9.60623 8.24258 9.36097 8.14099 9.10523 8.14099C8.84948 8.14099 8.60422 8.24258 8.42338 8.42342C8.24255 8.60426 8.14095 8.84952 8.14095 9.10526ZM12.1588 9.10526C12.1588 9.36101 12.2604 9.60627 12.4412 9.78711C12.622 9.96795 12.8673 10.0695 13.123 10.0695C13.3788 10.0695 13.624 9.96795 13.8049 9.78711C13.9857 9.60627 14.0873 9.36101 14.0873 9.10526C14.0873 8.84952 13.9857 8.60426 13.8049 8.42342C13.624 8.24258 13.3788 8.14099 13.123 8.14099C12.8673 8.14099 12.622 8.24258 12.4412 8.42342C12.2604 8.60426 12.1588 8.84952 12.1588 9.10526ZM4.12315 9.10526C4.12315 9.36101 4.22474 9.60627 4.40557 9.78711C4.58641 9.96795 4.83168 10.0695 5.08742 10.0695C5.34316 10.0695 5.58843 9.96795 5.76926 9.78711C5.9501 9.60627 6.05169 9.36101 6.05169 9.10526C6.05169 8.84952 5.9501 8.60426 5.76926 8.42342C5.58843 8.24258 5.34316 8.14099 5.08742 8.14099C4.83168 8.14099 4.58641 8.24258 4.40557 8.42342C4.22474 8.60426 4.12315 8.84952 4.12315 9.10526ZM17.406 5.61781C16.952 4.53903 16.3011 3.57074 15.4714 2.73905C14.6476 1.91218 13.6695 1.25492 12.5927 0.804476C11.4878 0.340419 10.3146 0.105377 9.10523 0.105377H9.06505C7.84765 0.111404 6.66843 0.352472 5.55951 0.826574C4.49189 1.28163 3.52301 1.94006 2.70687 2.76517C1.88523 3.59484 1.24037 4.55912 0.794392 5.63388C0.332345 6.74681 0.0993119 7.93006 0.105339 9.14745C0.112155 10.5426 0.442215 11.9171 1.06961 13.1632V16.2168C1.06961 16.4619 1.16697 16.6969 1.34027 16.8702C1.51358 17.0435 1.74862 17.1409 1.99371 17.1409H5.04925C6.29536 17.7683 7.66992 18.0983 9.06505 18.1052H9.10723C10.3106 18.1052 11.4777 17.8721 12.5766 17.4161C13.648 16.971 14.6224 16.3214 15.4453 15.5036C16.275 14.682 16.9279 13.7217 17.3839 12.651C17.858 11.5421 18.0991 10.3628 18.1051 9.14544C18.1111 7.92202 17.8741 6.73476 17.406 5.61781ZM14.3706 14.4168C12.9623 15.811 11.094 16.5784 9.10523 16.5784H9.07107C7.85971 16.5724 6.65637 16.271 5.59366 15.7045L5.42491 15.6141H2.59638V12.7856L2.50598 12.6168C1.93947 11.5541 1.63813 10.3508 1.63211 9.13942C1.62407 7.13654 2.38946 5.25621 3.79369 3.83993C5.1959 2.42365 7.07021 1.64018 9.07308 1.63214H9.10723C10.1117 1.63214 11.086 1.82701 12.0041 2.21272C12.9 2.58838 13.7036 3.12878 14.3947 3.81984C15.0837 4.50889 15.6261 5.31446 16.0018 6.21043C16.3915 7.13855 16.5864 8.12291 16.5824 9.13942C16.5703 11.1403 15.7848 13.0146 14.3706 14.4168Z" fill="#22A33F"/>
</svg>
