<svg width="50" height="50" viewBox="0 0 50 50" fill="none" xmlns="http://www.w3.org/2000/svg">
<path d="M9.18822 9.25488C8.06025 9.83192 7.36047 10.7719 6.95054 11.9429C6.83696 11.9168 6.77301 11.9064 6.71035 11.8881C3.78077 11.0356 1.02742 13.0252 1.01828 16.0658C0.993908 23.6056 0.993908 31.1458 1.01828 38.6865C1.01828 40.7244 1.94258 42.3106 3.62931 43.4438C3.73911 43.5074 3.82796 43.6017 3.885 43.7151C3.94204 43.8285 3.96479 43.9561 3.95046 44.0822C3.94002 45.4986 3.95046 46.9151 3.95046 48.3329V50.0001H25.7278V44.1657L22.7408 44.1527V47.0731H6.88138V41.6565C6.53541 41.5377 6.21164 41.432 5.89178 41.3184C4.68157 40.8902 3.94916 39.9045 3.94785 38.6173C3.94176 31.128 3.94176 23.6373 3.94785 16.1454C3.94785 15.242 4.5406 14.6114 5.36308 14.6023C6.18555 14.5931 6.80562 15.2433 6.80692 16.1689C6.80692 19.4266 6.80692 22.6834 6.80692 25.9394V26.5647H9.73917V25.9968C9.73917 21.7635 9.73917 17.5297 9.73917 13.2955C9.73917 12.3333 10.3449 11.691 11.2105 11.7093C11.5394 11.71 11.8574 11.8273 12.1081 12.0402C12.3588 12.2532 12.526 12.548 12.5799 12.8725L12.7445 9.03947C11.499 8.64781 10.3279 8.67262 9.18822 9.25488Z" fill="#FFAA46"/>
<path d="M47.8382 18.7042C46.0536 16.93 43.4178 16.9783 41.56 18.8216C40.7624 19.6141 39.9699 20.4118 39.1736 21.2042C39.077 21.2995 38.9686 21.3844 38.7819 21.5437V20.9222C38.7819 16.4278 38.7819 11.9329 38.7819 7.43753C38.7819 5.1359 37.372 3.35257 35.1891 2.99877C34.428 2.86822 33.6225 3.01966 32.7869 3.04185C32.6074 2.47491 32.3124 1.95129 31.9206 1.50394C31.5287 1.0566 31.0485 0.695225 30.5101 0.442572C30.109 0.27375 29.6994 0.126023 29.2829 0H28.0127C27.972 0.0267665 27.9282 0.0482608 27.8821 0.0639691C26.1719 0.408626 25.0335 1.40996 24.4473 3.04838C24.4316 3.09016 24.3872 3.12149 24.3598 3.15413C22.1209 2.43218 19.6013 3.26902 18.549 6.07849C17.344 5.68683 16.1507 5.7038 15.0045 6.2939C13.8582 6.88399 13.1494 7.83702 12.7538 9.04332L12.5828 12.875C12.617 13.1 12.6309 13.3277 12.6245 13.5552C12.6245 19.7916 12.648 26.0294 12.6154 32.2659C12.6037 34.5597 13.3987 36.3809 15.3387 37.6655C15.4692 37.753 15.5476 38.018 15.5489 38.2007C15.5646 39.9749 15.5593 41.7504 15.5593 43.526V44.1565H22.7397L25.7267 44.1696H37.3184C37.3184 42.1604 37.3276 40.223 37.3106 38.2856C37.2976 38.1365 37.3276 37.9869 37.397 37.8543C37.4664 37.7217 37.5723 37.6118 37.7022 37.5375C39.2937 36.4435 40.1592 34.9265 40.2297 32.9852C40.2304 32.8186 40.2656 32.654 40.333 32.5017C40.4004 32.3494 40.4986 32.2126 40.6214 32.1001C43.0009 29.7353 45.3743 27.3641 47.7417 24.9863C49.5772 23.1481 49.6111 20.4679 47.8382 18.7042ZM45.8539 22.7238C45.6215 22.9954 45.3552 23.2382 45.1019 23.4915C42.6501 25.9446 40.2036 28.4041 37.7375 30.8429C37.4203 31.1575 37.2596 31.4682 37.3119 31.9095C37.3275 32.1533 37.3275 32.398 37.3119 32.6418C37.2975 34.0609 36.6265 35.0022 35.2883 35.4814C34.381 35.8064 34.381 35.8064 34.381 36.7725C34.381 38.206 34.3788 39.639 34.3745 41.0716C34.3695 41.1158 34.3608 41.1594 34.3484 41.2021H18.519C18.5111 41.0285 18.4954 40.8562 18.4941 40.6799C18.4941 39.1982 18.4811 37.7151 18.5033 36.2412C18.5033 35.8808 18.3949 35.7072 18.0516 35.6315C17.7981 35.5711 17.5511 35.4863 17.314 35.3782C16.2696 34.9187 15.6782 34.1275 15.5763 32.9839C15.5594 32.7894 15.5619 32.5922 15.5619 32.3977C15.5619 25.1347 15.5619 17.8721 15.5619 10.6099C15.5619 10.4481 15.5619 10.2836 15.5698 10.1217C15.583 9.75042 15.7404 9.39893 16.0085 9.14179C16.2766 8.88464 16.6344 8.74208 17.0058 8.74435C17.3841 8.75078 17.745 8.90434 18.0119 9.17246C18.2788 9.44057 18.4307 9.80214 18.4354 10.1804C18.4354 10.311 18.4354 10.4415 18.4354 10.5721V20.7133H21.3676V20.1285C21.3676 15.8951 21.3676 11.6617 21.3676 7.42839C21.3676 6.48972 21.9499 5.85394 22.7919 5.84741C23.1456 5.84102 23.4887 5.96782 23.7533 6.20263C24.0178 6.43745 24.1845 6.76313 24.2202 7.11507C24.2367 7.30956 24.2428 7.5048 24.2384 7.69994V20.7277H27.1706V20.0932C27.1706 15.0121 27.1706 9.9315 27.1706 4.8513C27.1645 4.63958 27.1715 4.42768 27.1915 4.21682C27.2291 3.86525 27.3951 3.53991 27.6577 3.30311C27.9202 3.06631 28.2609 2.9347 28.6145 2.93349C28.9769 2.9377 29.3247 3.07667 29.5902 3.32333C29.8557 3.56999 30.0198 3.90666 30.0506 4.26774C30.0617 4.43024 30.0643 4.59322 30.0584 4.756C30.0584 9.87015 30.0584 14.9834 30.0584 20.0958V20.712H32.9893V20.1232C32.9893 15.8899 32.9893 11.6561 32.9893 7.42186C32.9893 6.46231 33.5951 5.82652 34.4659 5.84872C34.8108 5.85632 35.141 5.99003 35.3941 6.22456C35.6471 6.4591 35.8055 6.77822 35.8393 7.1216C35.8575 7.31481 35.8523 7.51325 35.8523 7.70647C35.8523 12.6091 35.8523 17.5109 35.8523 22.4118C35.8523 23.78 36.5729 24.7618 37.7936 25.0503C38.7075 25.2657 39.5025 25.0137 40.1631 24.3557C41.3381 23.1808 42.513 22.0058 43.688 20.8308C44.3408 20.1781 45.1659 20.1781 45.7677 20.7799C46.035 21.0274 46.194 21.3703 46.2102 21.7342C46.2263 22.0981 46.0983 22.4537 45.8539 22.7238Z" fill="#22A33F"/>
</svg>
