<svg width="40" height="40" viewBox="0 0 40 40" fill="none" xmlns="http://www.w3.org/2000/svg">
<path d="M39.9948 7.14318V4.80005H33.028C33.005 5.04428 32.9821 5.23528 32.9685 5.42628C32.9059 6.38754 32.8485 7.34879 32.7838 8.31005C32.5312 12.1154 32.2724 15.9198 32.0292 19.7251C32.0083 20.0456 31.9363 20.1739 31.5866 20.1865C29.9167 20.2428 28.2572 20.3326 26.5925 20.4067C26.3639 20.4161 26.1343 20.4067 25.8619 20.4067L23.4979 20.5173V20.5392L11.7832 21.0726V21.0642L9.40254 21.1749C9.2345 21.1853 9.10821 21.1947 8.98505 21.1999C8.21792 21.2323 7.45079 21.275 6.68366 21.2907C6.41438 21.2959 6.27243 21.3951 6.15136 21.6362C5.07981 23.8036 3.9968 25.9655 2.90229 28.1218C2.80769 28.2947 2.65499 28.4285 2.47123 28.4996C0.893133 29.0403 -0.100465 30.49 0.00808063 32.1286C0.0685238 32.8935 0.374187 33.6185 0.879642 34.1958C1.3851 34.7731 2.06334 35.1718 2.81357 35.3328C3.59161 35.4956 4.40189 35.3888 5.11126 35.0302C5.82063 34.6715 6.38691 34.0822 6.71707 33.3592C6.83188 33.117 6.96545 33.0544 7.21803 33.0544C11.5787 33.062 15.94 33.062 20.302 33.0544C20.4027 33.0458 20.5037 33.0658 20.5935 33.1121C20.6832 33.1585 20.758 33.2293 20.8093 33.3164C22.7349 36.1041 26.6801 36.1031 28.6037 33.3164C28.6549 33.2293 28.7297 33.1586 28.8195 33.1124C28.9093 33.0662 29.0104 33.0464 29.1109 33.0554C30.4521 33.0659 31.7943 33.0867 33.1345 33.0554C34.0043 33.0404 34.8722 32.9672 35.7323 32.8362C37.8604 32.4918 39.2423 31.2936 39.7078 29.1457C39.834 28.5643 39.905 27.9694 40 27.3808V24.8028H34.0853C34.3796 18.9257 34.8587 13.0736 35.2135 7.14632L39.9948 7.14318ZM3.54312 33.0617C3.22748 33.0606 2.92491 32.9355 2.70074 32.7132C2.47657 32.491 2.34878 32.1896 2.34494 31.8739C2.34986 31.5639 2.47613 31.2682 2.69663 31.0502C2.91714 30.8323 3.21429 30.7094 3.52434 30.7081C3.67733 30.707 3.82902 30.7362 3.97072 30.7938C4.11242 30.8515 4.24132 30.9366 4.35004 31.0443C4.45875 31.1519 4.54515 31.28 4.60424 31.4211C4.66332 31.5622 4.69393 31.7137 4.69434 31.8666C4.6972 32.1769 4.5782 32.4759 4.36293 32.6994C4.14766 32.9229 3.85329 33.053 3.54312 33.0617V33.0617ZM24.7117 33.0617C24.0869 33.0584 23.4886 32.8091 23.0463 32.3678C22.604 31.9265 22.3534 31.3287 22.3487 30.7039C22.352 30.0787 22.6022 29.4802 23.0448 29.0386C23.4874 28.597 24.0865 28.3481 24.7117 28.3462C25.3299 28.35 25.9216 28.5976 26.3584 29.0351C26.7952 29.4727 27.0417 30.0649 27.0444 30.6831C27.0484 30.9927 26.9911 31.3 26.8759 31.5874C26.7606 31.8748 26.5897 32.1366 26.3729 32.3577C26.1561 32.5787 25.8977 32.7547 25.6126 32.8756C25.3275 32.9964 25.0213 33.0597 24.7117 33.0617V33.0617ZM31.7453 30.706C31.0147 30.706 30.3018 30.7154 29.5911 30.6904C29.5201 30.6904 29.4074 30.4816 29.3959 30.3553C29.2727 28.9536 28.6653 27.8066 27.5443 26.9695C26.0831 25.8768 24.4633 25.6753 22.7944 26.4226C21.1255 27.1699 20.2102 28.5362 20.0066 30.3627C19.9972 30.4524 19.991 30.5432 19.9805 30.633C19.9711 30.6591 19.9593 30.6843 19.9451 30.7081H19.5432C15.4575 30.7081 11.371 30.7102 7.2838 30.7144C6.99051 30.7144 6.8235 30.6549 6.69513 30.3585C6.39871 29.6728 5.88 29.1624 5.21724 28.7814C6.05221 27.1031 6.87674 25.452 7.71693 23.8123C7.77329 23.7027 7.97995 23.6192 8.12085 23.6119C10.201 23.5075 12.2801 23.4157 14.3602 23.3197L25.5915 22.8051L31.4363 22.5411C31.5261 22.5411 31.6169 22.5411 31.7411 22.5411L31.7453 30.706ZM34.1375 27.2012H37.5494C37.8625 29.3304 36.4848 30.7311 34.1364 30.6455L34.1375 27.2012Z" fill="#22A33F"/>
<path d="M9.40137 15.4166V21.1737L11.78 21.063V17.7879H23.4946V20.5161L25.8607 20.4055V15.3957H18.8407V13.0567H23.5165C23.5165 12.2061 23.5259 11.4014 23.5165 10.5967C23.4748 7.59184 21.2444 5.2007 18.155 4.84166C15.3735 4.51811 12.6306 6.4709 11.9417 9.27431C11.6422 10.4923 11.7852 11.7333 11.7883 12.9659C11.7883 12.9857 11.8165 13.0066 11.8687 13.0776H16.4443V15.4145L9.40137 15.4166ZM14.1575 10.676C13.9916 8.9017 15.672 7.20567 17.6018 7.16914C19.5316 7.13261 21.2694 8.84952 21.1369 10.676H14.1575Z" fill="#FFAA46"/>
</svg>
