<svg width="60" height="60" viewBox="0 0 60 60" fill="none" xmlns="http://www.w3.org/2000/svg">
<g clip-path="url(#clip0_1450_43261)">
<path d="M52.9234 42.3228V31.7647H59.9872V28.241H52.9152V17.7017H59.9943V14.178H52.9093V7.13417H45.862V0.0151634H42.3383V7.08953H31.799V0.00341797H28.2753V7.07426H17.7148V0.00341797H14.2088V7.11772H7.1614V14.158H-0.00341797V17.6817H7.10972V28.2316H-0.00341797V31.74H7.10972V42.2875H-0.00341797V45.8112H7.14141V52.8316H14.1888V59.9964H17.7066V52.8809H28.26V59.9928H31.7766V52.8809H42.3301V59.9928H45.8537V52.848H52.8752V45.8277H60.0072V42.3228H52.9234ZM49.3351 38.7639H49.321V42.3357H49.3351V49.2762H31.7449H10.7086V28.2516V10.6743H28.2964H49.321V35.2402H49.3398L49.3351 38.7639Z" fill="#22A33F"/>
<path d="M31.7705 31.6965V24.7208H10.7212V21.1971H21.1994V14.1968H17.7251V17.6406H10.7235V28.2539H28.2374V35.2402H49.3207V31.6965H31.7705Z" fill="#FFAA46"/>
<path d="M38.8603 45.7728H42.324V42.3313H49.3209V38.7642H38.8579L38.8603 45.7728Z" fill="#FFAA46"/>
<path d="M24.7314 10.6733V17.6608H38.7874L38.8673 17.8569C38.6805 17.9744 38.502 18.0919 38.3082 18.1905C37.2241 18.7101 36.3495 19.5836 35.8287 20.6671C35.3079 21.7505 35.172 22.9791 35.4434 24.1502C35.9896 26.5322 38.1896 28.2494 40.6573 28.2213C43.0675 28.1931 45.2134 26.4594 45.7267 24.1185C46.2576 21.7013 45.1018 19.2699 42.8714 18.2187C42.445 18.0179 42.3158 17.8006 42.3299 17.3519C42.3639 16.3183 42.3405 15.2835 42.3405 14.1806H28.3056V10.6733H24.7314ZM40.568 21.1903C40.9176 21.1876 41.2601 21.2888 41.5519 21.4812C41.8437 21.6736 42.0717 21.9485 42.2069 22.2709C42.342 22.5932 42.3783 22.9485 42.3109 23.2915C42.2436 23.6345 42.0757 23.9498 41.8287 24.1971C41.5817 24.4444 41.2667 24.6127 40.9238 24.6805C40.5809 24.7483 40.2256 24.7126 39.903 24.5778C39.5805 24.4431 39.3053 24.2155 39.1125 23.9239C38.9197 23.6323 38.818 23.29 38.8203 22.9404C38.8276 22.4789 39.0139 22.0384 39.3401 21.7118C39.6662 21.3852 40.1066 21.1982 40.568 21.1903Z" fill="#FFAA46"/>
<path d="M35.3204 49.2761V42.3075H21.275L21.1904 42.1348C21.34 42.018 21.497 41.9109 21.6602 41.8142C23.6734 40.7876 24.747 39.155 24.7329 36.8892C24.7176 34.2993 22.7808 32.191 20.1298 31.7799C17.7102 31.4087 15.2025 33.012 14.4414 35.421C14.067 36.6051 14.1221 37.8833 14.5971 39.0308C15.0721 40.1782 15.9365 41.1214 17.0383 41.6944C17.2462 41.8012 17.4612 41.8952 17.709 42.0115V45.7994H31.7497V49.282L35.3204 49.2761ZM19.4685 38.7756C19.1217 38.7755 18.7827 38.6731 18.4938 38.4811C18.205 38.2892 17.9792 38.0163 17.8448 37.6966C17.7104 37.3769 17.6733 37.0247 17.7382 36.684C17.8031 36.3434 17.9671 36.0294 18.2097 35.7816C18.4522 35.5337 18.7625 35.3629 19.1017 35.2906C19.4408 35.2183 19.7938 35.2477 20.1163 35.3751C20.4388 35.5026 20.7166 35.7223 20.9148 36.0069C21.113 36.2915 21.2227 36.6283 21.2304 36.975C21.2344 37.4462 21.0515 37.8999 20.7217 38.2365C20.3919 38.5731 19.9421 38.7653 19.4709 38.7709L19.4685 38.7756Z" fill="#FFAA46"/>
</g>
<defs>
<clipPath id="clip0_1450_43261">
<rect width="60" height="60" fill="white"/>
</clipPath>
</defs>
</svg>
