<svg width="60" height="60" viewBox="0 0 60 60" fill="none" xmlns="http://www.w3.org/2000/svg">
<g clip-path="url(#clip0_1450_48907)">
<path d="M60 2V47.5289H35.2587C35.2587 48.1356 35.2587 48.6596 35.2587 49.1821C35.2822 52.242 37.5661 54.5128 40.649 54.5315C42.1732 54.5408 43.6974 54.5315 45.2216 54.5315C45.408 54.5315 45.596 54.5471 45.7824 54.5564V57.9969H14.1909V54.5299C15.8733 54.5299 17.515 54.4987 19.1536 54.5299C22.4777 54.6063 25.3694 51.9613 24.6096 47.5118H0V2H60ZM3.52462 5.52466V43.9778H56.4518V5.52466H3.52462ZM28.1938 47.5555C28.3802 50.0508 28.0591 52.4104 26.4707 54.4925H33.4854C31.8735 52.387 31.5978 50.0102 31.7497 47.5555H28.1938Z" fill="#22A33F"/>
<path d="M9.52296 17.4085L12.056 14.8913C12.869 15.7241 13.7086 16.5866 14.4872 17.3866L17.6577 16.0641V12.541H21.1855V16.0641L24.3326 17.3664L26.7216 14.871L29.2546 17.3976L26.8077 19.779L28.1549 22.9856H31.6952V26.4853H28.1706C27.7194 27.577 27.2964 28.5845 26.828 29.7105L29.3344 32.106L26.8045 34.6247L24.3545 32.1419L21.2027 33.4519V36.9781H17.675V33.4878C16.6646 33.0355 15.7513 32.6113 14.8224 32.2261C14.7318 32.2068 14.6379 32.2088 14.5482 32.2318C14.4585 32.2548 14.3754 32.2982 14.3054 32.3587C13.5316 33.0979 12.7813 33.8637 12.0685 34.5779L9.60282 32.1232L12.0528 29.7432L10.7041 26.5398H7.04785V23.0261H10.6884C11.1411 21.9344 11.5625 20.9253 12.0246 19.818L9.52296 17.4085ZM14.1551 24.7385C14.1521 26.125 14.6982 27.4569 15.675 28.4451C16.6518 29.4334 17.9806 29.9984 19.3731 30.0177C20.7749 30.0277 22.1233 29.4831 23.122 28.5038C24.1207 27.5244 24.688 26.1903 24.6992 24.7947C24.703 23.4079 24.1572 22.0756 23.1802 21.0872C22.2032 20.0987 20.874 19.534 19.4812 19.5155C18.0802 19.5055 16.7325 20.0494 15.7339 21.0278C14.7353 22.0062 14.1675 23.3391 14.1551 24.7338V24.7385Z" fill="#FFAA46"/>
<path d="M38.7959 16.011H35.2964V12.5206H38.7536V9.03809H42.2782V12.4801H52.8098V15.9876H42.3143V19.467H38.7896L38.7959 16.011Z" fill="#FFAA46"/>
<path d="M49.3225 22.9969H52.8049V26.5075H49.3429V29.9745H45.8183V26.5262H35.3008V23.0187H45.7963V19.5518H49.3225V22.9969Z" fill="#FFAA46"/>
<path d="M52.8177 37.0173H42.3049V40.4921H38.8007V37.0298H35.2886V33.541H38.7678V30.0444H42.2736V33.5036H52.8177V37.0173Z" fill="#FFAA46"/>
<path d="M17.7095 23.0234H21.1401V26.4701H17.7095V23.0234Z" fill="#FFAA46"/>
</g>
<defs>
<clipPath id="clip0_1450_48907">
<rect width="60" height="60" fill="white"/>
</clipPath>
</defs>
</svg>
