<svg width="60" height="60" viewBox="0 0 60 60" fill="none" xmlns="http://www.w3.org/2000/svg">
<path d="M8.8501 38.7028V35.1538H12.4038V38.7028H8.8501Z" fill="#FFAA46"/>
<path d="M12.4336 45.1164H8.86572V41.5142C9.97617 41.5142 11.0803 41.5142 12.1861 41.5251C12.2436 41.5433 12.2955 41.5758 12.3369 41.6197C12.3783 41.6636 12.4078 41.7173 12.4226 41.7757C12.443 42.8783 12.4336 43.9825 12.4336 45.1164Z" fill="#FFAA46"/>
<path d="M15.9697 45.0958V41.5483H19.5172V45.0958H15.9697Z" fill="#FFAA46"/>
<path d="M19.6379 38.7464C18.5243 38.7464 17.453 38.7573 16.3833 38.7291C16.2752 38.7291 16.0841 38.4958 16.081 38.3673C16.0575 37.3149 16.0685 36.2608 16.0685 35.166H19.6379V38.7464Z" fill="#FFAA46"/>
<path d="M27.563 24.2342V20.6852H27.5113V16.0586H1V53.0556H27.563V24.2342ZM23.862 49.4502H4.62263V30.9157H23.8667L23.862 49.4502ZM23.8855 27.2257H4.6289V19.7079H23.8855V27.2257Z" fill="#FFAA46"/>
<path d="M58.9372 21.8721C58.9479 19.9549 58.2257 18.106 56.9183 16.7036C56.7875 16.5646 56.6865 16.4005 56.621 16.2211C56.5556 16.0418 56.5273 15.8511 56.5378 15.6605C56.5487 12.7302 56.5378 9.79822 56.5378 6.86784V6.11762H52.8916V0H49.2784V6.13485H45.6589V6.85374C45.6589 9.82954 45.6589 12.7944 45.6495 15.7655C45.6599 16.0284 45.5816 16.2871 45.4271 16.5C43.8796 18.1602 43.2156 20.1274 43.2218 22.378C43.2406 28.4863 43.2218 34.6101 43.2296 40.7262C43.2296 44.6417 45.2156 47.4155 48.9087 48.6998C49.0006 48.7436 49.0811 48.8082 49.1438 48.8883C49.2066 48.9685 49.25 49.0621 49.2706 49.1618C49.3089 49.8055 49.3089 50.4508 49.2706 51.0945C49.2298 51.8972 49.0154 52.6815 48.6422 53.3932C48.2689 54.105 47.7456 54.7273 47.1084 55.2172C46.4713 55.707 45.7355 56.0529 44.9517 56.2307C44.1679 56.4086 43.3549 56.4142 42.5687 56.2474C39.9563 55.6992 38.166 53.4376 38.1629 50.6466C38.1551 43.6895 38.1786 36.7324 38.152 29.7768C38.1332 25.2082 34.5967 21.3193 30.0735 20.8212C29.2622 20.7335 28.4414 20.7288 27.5581 20.685V24.234C28.667 24.3765 29.7226 24.3812 30.6905 24.6663C33.0586 25.3601 34.5215 27.5027 34.5231 30.0963C34.5231 36.9751 34.5231 43.8539 34.5231 50.7312C34.5231 54.7281 36.9648 58.1832 40.6877 59.4784C41.3455 59.7071 42.0409 59.8293 42.7237 60H44.7175C44.8234 59.9561 44.933 59.9215 45.0449 59.8966C47.0667 59.6109 48.934 58.6548 50.3477 57.1815C51.7614 55.7082 52.6395 53.803 52.8415 51.7711C52.9339 50.7875 52.854 49.7883 52.854 48.836C57.2206 47.5925 58.9622 44.0199 58.9622 41.1005C58.92 34.6916 58.9497 28.2826 58.9372 21.8721ZM49.3253 9.78726H52.8932V14.182H49.3253V9.78726ZM55.3083 41.1115C55.2848 43.713 53.2722 45.5313 50.6864 45.3481C48.5094 45.1915 46.8632 43.312 46.8617 40.9361C46.8544 34.7057 46.8544 28.4758 46.8617 22.2465C46.8669 21.9343 46.8942 21.6229 46.9431 21.3146C47.2767 19.0796 49.0512 17.6528 51.3582 17.7593C53.5118 17.8579 55.2284 19.4821 55.2738 21.6623C55.3458 24.9607 55.2926 28.2607 55.2926 31.5607H55.3114C55.3145 34.748 55.3365 37.9305 55.3083 41.1146V41.1115Z" fill="#22A33F"/>
</svg>
