<svg width="212" height="41" viewBox="0 0 212 41" fill="none" xmlns="http://www.w3.org/2000/svg">
<path d="M19.9161 9.9585H20.0838C20.0838 15.4355 24.5651 19.9165 30.0419 19.9165V20.0842C24.5649 20.0842 20.0838 24.5653 20.0838 30.0424H19.9161C19.9161 24.5653 15.4348 20.0842 9.95776 20.0842V19.9165C15.4348 19.9165 19.9161 15.4355 19.9161 9.9585Z" fill="#22A33F"/>
<path d="M30.0421 0C35.5417 0 40 4.45849 40 9.95802C40 15.4578 35.5417 19.916 30.0421 19.916V9.95825H20.084C20.084 4.45849 24.5423 0 30.0421 0Z" fill="#22A33F"/>
<path d="M9.95811 0C15.4577 0 19.916 4.45849 19.916 9.95802H9.95788V19.916C4.45807 19.916 0 15.4578 0 9.95802C0 4.45849 4.4583 0 9.95811 0Z" fill="#22A33F"/>
<path d="M30.0421 20.084C35.5417 20.084 40 24.5425 40 30.0418C40 35.5415 35.5417 39.9998 30.0421 39.9998C24.5425 39.9998 20.0842 35.5418 20.084 30.0422H30.0419L30.0421 20.084Z" fill="#22A33F"/>
<path d="M19.9162 30.0422C19.916 35.5418 15.4577 39.9998 9.95834 39.9998C4.4583 39.9998 0 35.5415 0 30.0418C0 24.5425 4.45807 20.0842 9.95788 20.084V30.0422H19.9162Z" fill="#22A33F"/>
<path d="M114.927 29.2664V37.7144H113.859V30.2504H109.443V37.7144H108.375V29.2664H114.927ZM116.856 31.6664H117.852V32.5064C118.028 32.2264 118.272 31.9944 118.584 31.8104C118.896 31.6264 119.28 31.5344 119.736 31.5344C120.208 31.5344 120.644 31.6624 121.044 31.9184C121.444 32.1664 121.76 32.5304 121.992 33.0104C122.232 33.4824 122.352 34.0424 122.352 34.6904C122.352 35.3384 122.232 35.9024 121.992 36.3824C121.76 36.8544 121.444 37.2184 121.044 37.4744C120.644 37.7224 120.208 37.8464 119.736 37.8464C119.296 37.8464 118.924 37.7624 118.62 37.5944C118.316 37.4264 118.072 37.2104 117.888 36.9464V40.0064H116.856V31.6664ZM117.888 36.1064C118.088 36.3544 118.332 36.5504 118.62 36.6944C118.916 36.8384 119.232 36.9104 119.568 36.9104C120.096 36.9104 120.516 36.7104 120.828 36.3104C121.148 35.9024 121.308 35.3624 121.308 34.6904C121.308 34.0264 121.148 33.4904 120.828 33.0824C120.516 32.6744 120.096 32.4704 119.568 32.4704C119.232 32.4704 118.916 32.5424 118.62 32.6864C118.332 32.8304 118.088 33.0264 117.888 33.2744V36.1064ZM126.42 31.5344C126.988 31.5344 127.496 31.6704 127.944 31.9424C128.392 32.2144 128.74 32.5904 128.988 33.0704C129.244 33.5424 129.372 34.0824 129.372 34.6904C129.372 35.2984 129.244 35.8424 128.988 36.3224C128.74 36.7944 128.392 37.1664 127.944 37.4384C127.496 37.7104 126.988 37.8464 126.42 37.8464C125.852 37.8464 125.344 37.7104 124.896 37.4384C124.448 37.1664 124.1 36.7944 123.852 36.3224C123.604 35.8424 123.48 35.2984 123.48 34.6904C123.48 34.0824 123.604 33.5424 123.852 33.0704C124.1 32.5904 124.448 32.2144 124.896 31.9424C125.344 31.6704 125.852 31.5344 126.42 31.5344ZM124.524 34.6904C124.524 35.1224 124.604 35.5064 124.764 35.8424C124.924 36.1784 125.148 36.4424 125.436 36.6344C125.724 36.8184 126.052 36.9104 126.42 36.9104C126.98 36.9104 127.436 36.7064 127.788 36.2984C128.14 35.8904 128.316 35.3544 128.316 34.6904C128.316 34.0264 128.14 33.4904 127.788 33.0824C127.436 32.6744 126.98 32.4704 126.42 32.4704C126.052 32.4704 125.724 32.5664 125.436 32.7584C125.148 32.9424 124.924 33.2024 124.764 33.5384C124.604 33.8744 124.524 34.2584 124.524 34.6904ZM130.453 34.6544C130.453 34.0464 130.569 33.5064 130.801 33.0344C131.041 32.5544 131.373 32.1864 131.797 31.9304C132.221 31.6664 132.701 31.5344 133.237 31.5344C133.757 31.5344 134.213 31.6544 134.605 31.8944C134.997 32.1344 135.301 32.4664 135.517 32.8904C135.733 33.3144 135.841 33.7944 135.841 34.3304V34.9904H131.533C131.533 35.3184 131.621 35.6304 131.797 35.9264C131.981 36.2144 132.237 36.4504 132.565 36.6344C132.901 36.8104 133.289 36.8984 133.729 36.8984C134.153 36.8984 134.537 36.8304 134.881 36.6944C135.225 36.5584 135.521 36.3824 135.769 36.1664V37.2104C135.561 37.3864 135.273 37.5384 134.905 37.6664C134.537 37.7864 134.125 37.8464 133.669 37.8464C133.045 37.8464 132.489 37.7144 132.001 37.4504C131.513 37.1864 131.133 36.8144 130.861 36.3344C130.589 35.8464 130.453 35.2864 130.453 34.6544ZM134.821 34.1264C134.797 33.6544 134.641 33.2584 134.353 32.9384C134.065 32.6184 133.689 32.4584 133.225 32.4584C132.753 32.4584 132.365 32.6144 132.061 32.9264C131.757 33.2304 131.581 33.6304 131.533 34.1264H134.821ZM137.387 31.6664H138.419V34.0904H139.211L141.179 31.6664H142.391L140.087 34.4864L142.427 37.7144H141.191L139.187 34.9544H138.419V37.7144H137.387V31.6664ZM143.094 31.6664H148.314V32.5904H146.214V37.7144H145.182V32.5904H143.094V31.6664ZM154.72 29.2664H155.836L158.992 37.7144H157.852L157.036 35.4824H153.496L152.692 37.7144H151.564L154.72 29.2664ZM156.688 34.4984L155.272 30.5984L153.856 34.4984H156.688ZM160.145 31.6664H164.249V32.5904H161.177V37.7144H160.145V31.6664ZM165.524 31.6664H166.52V32.5064C166.696 32.2264 166.94 31.9944 167.252 31.8104C167.564 31.6264 167.948 31.5344 168.404 31.5344C168.876 31.5344 169.312 31.6624 169.712 31.9184C170.112 32.1664 170.428 32.5304 170.66 33.0104C170.9 33.4824 171.02 34.0424 171.02 34.6904C171.02 35.3384 170.9 35.9024 170.66 36.3824C170.428 36.8544 170.112 37.2184 169.712 37.4744C169.312 37.7224 168.876 37.8464 168.404 37.8464C167.964 37.8464 167.592 37.7624 167.288 37.5944C166.984 37.4264 166.74 37.2104 166.556 36.9464V40.0064H165.524V31.6664ZM166.556 36.1064C166.756 36.3544 167 36.5504 167.288 36.6944C167.584 36.8384 167.9 36.9104 168.236 36.9104C168.764 36.9104 169.184 36.7104 169.496 36.3104C169.816 35.9024 169.976 35.3624 169.976 34.6904C169.976 34.0264 169.816 33.4904 169.496 33.0824C169.184 32.6744 168.764 32.4704 168.236 32.4704C167.9 32.4704 167.584 32.5424 167.288 32.6864C167 32.8304 166.756 33.0264 166.556 33.2744V36.1064ZM175.088 31.5344C175.656 31.5344 176.164 31.6704 176.612 31.9424C177.06 32.2144 177.408 32.5904 177.656 33.0704C177.912 33.5424 178.04 34.0824 178.04 34.6904C178.04 35.2984 177.912 35.8424 177.656 36.3224C177.408 36.7944 177.06 37.1664 176.612 37.4384C176.164 37.7104 175.656 37.8464 175.088 37.8464C174.52 37.8464 174.012 37.7104 173.564 37.4384C173.116 37.1664 172.768 36.7944 172.52 36.3224C172.272 35.8424 172.148 35.2984 172.148 34.6904C172.148 34.0824 172.272 33.5424 172.52 33.0704C172.768 32.5904 173.116 32.2144 173.564 31.9424C174.012 31.6704 174.52 31.5344 175.088 31.5344ZM173.192 34.6904C173.192 35.1224 173.272 35.5064 173.432 35.8424C173.592 36.1784 173.816 36.4424 174.104 36.6344C174.392 36.8184 174.72 36.9104 175.088 36.9104C175.648 36.9104 176.104 36.7064 176.456 36.2984C176.808 35.8904 176.984 35.3544 176.984 34.6904C176.984 34.0264 176.808 33.4904 176.456 33.0824C176.104 32.6744 175.648 32.4704 175.088 32.4704C174.72 32.4704 174.392 32.5664 174.104 32.7584C173.816 32.9424 173.592 33.2024 173.432 33.5384C173.272 33.8744 173.192 34.2584 173.192 34.6904ZM180.225 34.0544C180.225 34.9664 180.401 35.6704 180.753 36.1664C181.113 36.6624 181.589 36.9104 182.181 36.9104C182.741 36.9104 183.185 36.7104 183.513 36.3104C183.849 35.9024 184.017 35.3784 184.017 34.7384C184.017 34.1064 183.849 33.5904 183.513 33.1904C183.177 32.7904 182.737 32.5904 182.193 32.5904C181.777 32.5904 181.397 32.6784 181.053 32.8544C180.717 33.0224 180.445 33.2224 180.237 33.4544C180.229 33.5824 180.225 33.7824 180.225 34.0544ZM179.181 34.0544C179.181 32.6064 179.461 31.4784 180.021 30.6704C180.581 29.8544 181.469 29.3704 182.685 29.2184C182.765 29.2104 183.009 29.1824 183.417 29.1344C183.825 29.0784 184.177 29.0104 184.473 28.9304V29.9264C184.153 30.0064 183.621 30.0784 182.877 30.1424C182.061 30.2144 181.457 30.4464 181.065 30.8384C180.673 31.2224 180.421 31.8024 180.309 32.5784C180.541 32.3064 180.833 32.0864 181.185 31.9184C181.537 31.7504 181.921 31.6664 182.337 31.6664C182.849 31.6664 183.313 31.7864 183.729 32.0264C184.145 32.2664 184.473 32.6184 184.713 33.0824C184.953 33.5464 185.073 34.0984 185.073 34.7384C185.073 35.3144 184.957 35.8384 184.725 36.3104C184.493 36.7824 184.161 37.1584 183.729 37.4384C183.297 37.7104 182.797 37.8464 182.229 37.8464C181.621 37.8464 181.085 37.6944 180.621 37.3904C180.165 37.0784 179.809 36.6384 179.553 36.0704C179.305 35.4944 179.181 34.8224 179.181 34.0544ZM191.804 37.6904C191.612 37.7944 191.404 37.8464 191.18 37.8464C190.9 37.8464 190.652 37.7744 190.436 37.6304C190.228 37.4864 190.096 37.2904 190.04 37.0424C189.64 37.5784 189.048 37.8464 188.264 37.8464C187.656 37.8464 187.148 37.6784 186.74 37.3424C186.332 37.0064 186.128 36.5544 186.128 35.9864C186.128 35.4024 186.36 34.9424 186.824 34.6064C187.288 34.2704 187.872 34.1024 188.576 34.1024C189.128 34.1024 189.608 34.1784 190.016 34.3304V33.7664C190.016 33.3504 189.884 33.0344 189.62 32.8184C189.356 32.5944 188.996 32.4824 188.54 32.4824C188.156 32.4824 187.776 32.5544 187.4 32.6984C187.032 32.8344 186.732 33.0104 186.5 33.2264V32.2064C186.708 32.0304 187 31.8744 187.376 31.7384C187.752 31.6024 188.168 31.5344 188.624 31.5344C189.368 31.5344 189.956 31.7304 190.388 32.1224C190.82 32.5144 191.036 33.0424 191.036 33.7064V36.5264C191.036 36.6704 191.076 36.7824 191.156 36.8624C191.236 36.9344 191.348 36.9704 191.492 36.9704C191.62 36.9704 191.724 36.9464 191.804 36.8984V37.6904ZM187.172 35.9864C187.172 36.2824 187.28 36.5184 187.496 36.6944C187.72 36.8624 188.028 36.9464 188.42 36.9464C189.108 36.9464 189.64 36.7104 190.016 36.2384V35.1584C189.584 35.0144 189.12 34.9424 188.624 34.9424C188.216 34.9424 187.872 35.0344 187.592 35.2184C187.312 35.4024 187.172 35.6584 187.172 35.9864ZM198.021 31.6664V37.7144H196.989V35.0264H194.013V37.7144H192.981V31.6664H194.013V34.1024H196.989V31.6664H198.021ZM199.801 31.6664H200.833V34.0904H201.625L203.593 31.6664H204.805L202.501 34.4864L204.841 37.7144H203.605L201.601 34.9544H200.833V37.7144H199.801V31.6664ZM211.14 37.6904C210.948 37.7944 210.74 37.8464 210.516 37.8464C210.236 37.8464 209.988 37.7744 209.772 37.6304C209.564 37.4864 209.432 37.2904 209.376 37.0424C208.976 37.5784 208.384 37.8464 207.6 37.8464C206.992 37.8464 206.484 37.6784 206.076 37.3424C205.668 37.0064 205.464 36.5544 205.464 35.9864C205.464 35.4024 205.696 34.9424 206.16 34.6064C206.624 34.2704 207.208 34.1024 207.912 34.1024C208.464 34.1024 208.944 34.1784 209.352 34.3304V33.7664C209.352 33.3504 209.22 33.0344 208.956 32.8184C208.692 32.5944 208.332 32.4824 207.876 32.4824C207.492 32.4824 207.112 32.5544 206.736 32.6984C206.368 32.8344 206.068 33.0104 205.836 33.2264V32.2064C206.044 32.0304 206.336 31.8744 206.712 31.7384C207.088 31.6024 207.504 31.5344 207.96 31.5344C208.704 31.5344 209.292 31.7304 209.724 32.1224C210.156 32.5144 210.372 33.0424 210.372 33.7064V36.5264C210.372 36.6704 210.412 36.7824 210.492 36.8624C210.572 36.9344 210.684 36.9704 210.828 36.9704C210.956 36.9704 211.06 36.9464 211.14 36.8984V37.6904ZM206.508 35.9864C206.508 36.2824 206.616 36.5184 206.832 36.6944C207.056 36.8624 207.364 36.9464 207.756 36.9464C208.444 36.9464 208.976 36.7104 209.352 36.2384V35.1584C208.92 35.0144 208.456 34.9424 207.96 34.9424C207.552 34.9424 207.208 35.0344 206.928 35.2184C206.648 35.4024 206.508 35.6584 206.508 35.9864Z" fill="#7C7C7C"/>
<path d="M61.4482 4.35604H58.1542V1.45201H67.5771L74.948 20.0378H69.9531L68.6031 16.421H61.4752L60.0982 20.0378H55.2383L61.4482 4.35604ZM67.3611 12.8305L65.0392 6.41526L62.6902 12.8305H67.3611Z" fill="#1A1A1A"/>
<path d="M83.4015 25.6083C81.0075 25.6083 79.0275 25.1594 77.4615 24.2618V20.6978C79.0095 21.7362 80.7195 22.2554 82.5915 22.2554C83.7075 22.2554 84.6525 22.0002 85.4265 21.4898C86.2004 20.997 86.5874 20.1874 86.5874 19.061V17.7938C86.1914 18.3394 85.6335 18.8058 84.9135 19.193C84.2115 19.5626 83.3925 19.7474 82.4565 19.7474C81.2685 19.7474 80.1885 19.4746 79.2165 18.929C78.2625 18.3834 77.5065 17.5914 76.9486 16.553C76.3906 15.5146 76.1116 14.2913 76.1116 12.8833C76.1116 11.4753 76.3906 10.2521 76.9486 9.21369C77.5065 8.17528 78.2625 7.38327 79.2165 6.83767C80.1885 6.27446 81.2685 5.99286 82.4565 5.99286C83.4825 5.99286 84.3645 6.22166 85.1025 6.67927C85.8584 7.11927 86.4164 7.63848 86.7764 8.23688V6.33606H91.1504V19.1402C91.1504 20.513 90.8084 21.6834 90.1244 22.6514C89.4404 23.637 88.5134 24.3762 87.3434 24.869C86.1734 25.3618 84.8595 25.6083 83.4015 25.6083ZM80.7285 12.8833C80.7285 13.9393 80.9985 14.7841 81.5385 15.4178C82.0785 16.0338 82.8075 16.3418 83.7255 16.3418C84.8235 16.3418 85.7774 15.981 86.5874 15.2594V10.5337C85.7774 9.8121 84.8235 9.45129 83.7255 9.45129C82.8075 9.45129 82.0785 9.7593 81.5385 10.3753C80.9985 10.9913 80.7285 11.8273 80.7285 12.8833Z" fill="#1A1A1A"/>
<path d="M95.872 9.24009H93.037V6.33606H100.246V8.73849C100.57 7.98168 101.092 7.37447 101.812 6.91687C102.532 6.44166 103.423 6.20406 104.485 6.20406C104.989 6.20406 105.385 6.26566 105.673 6.38886V10.2961C105.133 10.1553 104.548 10.0849 103.918 10.0849C102.406 10.0849 101.254 10.4545 100.462 11.1937V20.0378H95.872V9.24009Z" fill="#1A1A1A"/>
<path d="M114.894 5.99286C116.352 5.99286 117.675 6.29206 118.863 6.89047C120.051 7.48887 120.987 8.33368 121.671 9.42489C122.355 10.5161 122.697 11.7657 122.697 13.1737C122.697 14.5993 122.355 15.8578 121.671 16.949C120.987 18.0402 120.051 18.885 118.863 19.4834C117.675 20.0818 116.352 20.381 114.894 20.381C113.418 20.381 112.077 20.0818 110.871 19.4834C109.683 18.885 108.747 18.0402 108.063 16.949C107.379 15.8578 107.037 14.5993 107.037 13.1737C107.037 11.7657 107.379 10.5161 108.063 9.42489C108.747 8.33368 109.683 7.48887 110.871 6.89047C112.077 6.29206 113.418 5.99286 114.894 5.99286ZM111.654 13.1737C111.654 14.2297 111.951 15.1009 112.545 15.7874C113.157 16.4562 113.94 16.7906 114.894 16.7906C115.83 16.7906 116.595 16.4562 117.189 15.7874C117.801 15.1009 118.107 14.2297 118.107 13.1737C118.107 12.1353 117.801 11.2817 117.189 10.6129C116.595 9.9265 115.83 9.58329 114.894 9.58329C113.958 9.58329 113.184 9.9265 112.572 10.6129C111.96 11.2817 111.654 12.1353 111.654 13.1737Z" fill="#1A1A1A"/>
<path d="M134.775 5.30645H125.055V1.45201H140.742V4.83125L131.022 16.1834H140.742V20.0378H125.055V16.6322L134.775 5.30645Z" fill="#1A1A1A"/>
<path d="M158.525 19.8002C158.363 19.9234 158.048 20.0466 157.58 20.1698C157.13 20.3106 156.626 20.381 156.068 20.381C155.258 20.381 154.538 20.2226 153.908 19.9058C153.278 19.589 152.846 19.1402 152.612 18.5594C151.694 19.7738 150.245 20.381 148.265 20.381C147.293 20.381 146.411 20.1962 145.619 19.8266C144.827 19.457 144.197 18.9466 143.729 18.2954C143.279 17.6266 143.054 16.8874 143.054 16.0778C143.054 14.6169 143.675 13.5257 144.917 12.8041C146.159 12.0649 147.698 11.6953 149.534 11.6953C150.578 11.6953 151.541 11.8097 152.423 12.0385V11.4577C152.423 10.7537 152.117 10.2257 151.505 9.8737C150.911 9.50409 150.11 9.31929 149.102 9.31929C148.256 9.31929 147.41 9.45129 146.564 9.7153C145.718 9.9617 144.953 10.3401 144.269 10.8505V7.31287C144.935 6.92567 145.781 6.60887 146.807 6.36246C147.833 6.11606 148.895 5.99286 149.993 5.99286C152.171 5.99286 153.863 6.47686 155.069 7.44487C156.293 8.41288 156.905 9.7417 156.905 11.4313V16.3418C156.905 16.641 156.995 16.861 157.175 17.0018C157.373 17.125 157.616 17.1866 157.904 17.1866C158.174 17.1866 158.381 17.1426 158.525 17.0546V19.8002ZM147.644 15.8402C147.644 16.2802 147.833 16.6322 148.211 16.8962C148.607 17.1602 149.12 17.2922 149.75 17.2922C150.794 17.2922 151.685 16.905 152.423 16.1306V14.5993C151.739 14.4057 151.001 14.3089 150.209 14.3089C149.507 14.3089 148.904 14.4321 148.4 14.6785C147.896 14.9073 147.644 15.2946 147.644 15.8402Z" fill="#1A1A1A"/>
<path d="M161.685 20.0378V9.24009H158.796V6.33606H166.059V8.18408C166.545 7.55047 167.166 7.03127 167.922 6.62647C168.678 6.20406 169.542 5.99286 170.514 5.99286C171.504 5.99286 172.35 6.19526 173.052 6.60007C173.772 6.98727 174.321 7.50647 174.699 8.15768C175.149 7.55928 175.752 7.04887 176.508 6.62647C177.282 6.20406 178.218 5.99286 179.316 5.99286C180.864 5.99286 182.115 6.41526 183.069 7.26007C184.023 8.10488 184.5 9.27529 184.5 10.7713V20.0378H179.91V11.9329C179.91 11.2289 179.703 10.6833 179.289 10.2961C178.893 9.9089 178.344 9.7153 177.642 9.7153C176.688 9.7153 175.932 9.9881 175.374 10.5337V20.0378H170.784V11.9329C170.784 11.2289 170.586 10.6833 170.19 10.2961C169.794 9.9089 169.245 9.7153 168.543 9.7153C167.607 9.7153 166.851 9.9793 166.275 10.5073V20.0378H161.685Z" fill="#1A1A1A"/>
<path d="M193.459 20.0378H188.869V9.24009H185.98V6.33606H193.459V20.0378ZM191.029 0C191.767 0 192.379 0.220002 192.865 0.660007C193.369 1.10001 193.621 1.64562 193.621 2.29682C193.621 2.94803 193.369 3.49364 192.865 3.93364C192.379 4.37364 191.767 4.59365 191.029 4.59365C190.309 4.59365 189.697 4.37364 189.193 3.93364C188.707 3.49364 188.464 2.94803 188.464 2.29682C188.464 1.64562 188.707 1.10001 189.193 0.660007C189.697 0.220002 190.309 0 191.029 0Z" fill="#1A1A1A"/>
<path d="M196.967 20.0378V6.33606H201.341V8.18408C201.845 7.55047 202.484 7.03127 203.258 6.62647C204.05 6.20406 204.95 5.99286 205.958 5.99286C207.506 5.99286 208.748 6.41526 209.684 7.26007C210.638 8.10488 211.115 9.29289 211.115 10.8241V20.0378H206.525V12.1969C206.525 11.3697 206.3 10.7537 205.85 10.3489C205.418 9.9265 204.779 9.7153 203.933 9.7153C202.925 9.7153 202.133 9.9969 201.557 10.5601V20.0378H196.967Z" fill="#1A1A1A"/>
</svg>
