<svg width="236" height="44" viewBox="0 0 236 44" fill="none" xmlns="http://www.w3.org/2000/svg">
<g clip-path="url(#clip0_775_37306)">
<path d="M59.351 23H64.211L65.588 19.301H72.716L74.066 23H79.061L71.69 3.992H62.267V6.962H65.561L59.351 23ZM66.803 15.629L69.152 9.068L71.474 15.629H66.803ZM87.5145 28.697C91.8075 28.697 95.2635 26.429 95.2635 22.082V8.987H90.8895V10.931C90.2685 9.878 88.8105 8.636 86.5695 8.636C83.0055 8.636 80.2245 11.255 80.2245 15.683C80.2245 20.111 83.0055 22.703 86.5695 22.703C88.5945 22.703 89.9985 21.677 90.7005 20.705V22.001C90.7005 24.485 88.6485 25.268 86.7045 25.268C84.8145 25.268 83.1135 24.728 81.5745 23.675V27.32C83.0055 28.157 84.8955 28.697 87.5145 28.697ZM84.8415 15.683C84.8415 13.523 86.0025 12.173 87.8385 12.173C88.9185 12.173 89.8635 12.524 90.7005 13.28V18.113C89.8635 18.869 88.9185 19.22 87.8385 19.22C86.0025 19.22 84.8415 17.843 84.8415 15.683ZM99.9852 23H104.575V13.955C105.25 13.307 106.357 12.821 108.031 12.821C108.706 12.821 109.381 12.929 109.786 13.037V9.041C109.543 8.933 109.057 8.852 108.598 8.852C106.357 8.852 104.953 10.013 104.359 11.444V8.987H97.1502V11.957H99.9852V23ZM119.008 8.636C114.553 8.636 111.151 11.552 111.151 15.98C111.151 20.435 114.553 23.351 119.008 23.351C123.382 23.351 126.811 20.435 126.811 15.98C126.811 11.552 123.382 8.636 119.008 8.636ZM115.768 15.98C115.768 13.847 117.118 12.308 119.008 12.308C120.871 12.308 122.221 13.847 122.221 15.98C122.221 18.14 120.871 19.679 119.008 19.679C117.118 19.679 115.768 18.14 115.768 15.98ZM139.24 23.351C142.102 23.351 143.965 22.649 145.153 21.65V17.708C143.722 18.788 142.075 19.355 139.915 19.355C136.459 19.355 133.786 16.979 133.786 13.496C133.786 10.013 136.459 7.637 139.915 7.637C140.725 7.637 141.481 7.718 142.183 7.88V11.147H145.153V5.342C144.1 4.478 142.21 3.641 139.24 3.641C133.813 3.641 128.899 7.502 128.899 13.496C128.899 19.463 133.813 23.351 139.24 23.351ZM155.21 8.636C150.755 8.636 147.353 11.552 147.353 15.98C147.353 20.435 150.755 23.351 155.21 23.351C159.584 23.351 163.013 20.435 163.013 15.98C163.013 11.552 159.584 8.636 155.21 8.636ZM151.97 15.98C151.97 13.847 153.32 12.308 155.21 12.308C157.073 12.308 158.423 13.847 158.423 15.98C158.423 18.14 157.073 19.679 155.21 19.679C153.32 19.679 151.97 18.14 151.97 15.98ZM171.338 23V13.307C171.932 12.713 172.796 12.443 173.714 12.443C175.388 12.443 176.306 13.28 176.306 14.981V23H180.896V13.577C180.896 10.391 178.763 8.636 175.739 8.636C173.552 8.636 172.013 9.743 171.122 10.877V8.987H163.859V11.957H166.748V23H171.338ZM183.935 18.383V21.947C185.042 22.73 187.553 23.351 190.199 23.351C193.871 23.351 196.706 21.65 196.706 18.734C196.706 15.899 194.222 14.846 191.603 14.333L190.226 14.063C188.849 13.793 188.228 13.577 188.228 13.01C188.228 12.362 189.065 12.038 190.469 12.038C192.251 12.038 194.195 12.578 195.815 13.523V10.013C194.708 9.23 192.764 8.636 190.28 8.636C186.392 8.636 183.638 10.499 183.638 13.172C183.638 15.818 185.906 17.087 188.903 17.627L190.253 17.87C191.603 18.113 192.116 18.329 192.116 18.896C192.116 19.625 191.09 19.949 189.578 19.949C187.634 19.949 185.231 19.139 183.935 18.383ZM208.817 8.987V18.653C208.223 19.247 207.332 19.517 206.441 19.517C204.74 19.517 203.849 18.707 203.849 16.979V8.987H199.259V18.41C199.259 21.596 201.392 23.351 204.416 23.351C206.603 23.351 208.142 22.217 209.033 21.083V23H213.407V8.987H208.817ZM221.848 3.371H214.369V6.341H217.258V23H221.848V3.371ZM231.137 17.762V12.416H234.647V8.987H231.137V5.396H226.547V8.987H224.279V12.416H226.547V18.275C226.547 21.677 228.68 23.351 232.001 23.351C232.946 23.351 234.134 23.108 234.647 22.811V19.436C234.35 19.598 233.783 19.706 233.162 19.706C231.92 19.706 231.137 19.085 231.137 17.762Z" fill="black"/>
<path d="M67.4983 33.552V42H66.4303V34.536H62.0143V42H60.9463V33.552H67.4983ZM69.4271 35.952H70.4231V36.792C70.5991 36.512 70.8431 36.28 71.1551 36.096C71.4671 35.912 71.8511 35.82 72.3071 35.82C72.7791 35.82 73.2151 35.948 73.6151 36.204C74.0151 36.452 74.3311 36.816 74.5631 37.296C74.8031 37.768 74.9231 38.328 74.9231 38.976C74.9231 39.624 74.8031 40.188 74.5631 40.668C74.3311 41.14 74.0151 41.504 73.6151 41.76C73.2151 42.008 72.7791 42.132 72.3071 42.132C71.8671 42.132 71.4951 42.048 71.1911 41.88C70.8871 41.712 70.6431 41.496 70.4591 41.232V44.292H69.4271V35.952ZM70.4591 40.392C70.6591 40.64 70.9031 40.836 71.1911 40.98C71.4871 41.124 71.8031 41.196 72.1391 41.196C72.6671 41.196 73.0871 40.996 73.3991 40.596C73.7191 40.188 73.8791 39.648 73.8791 38.976C73.8791 38.312 73.7191 37.776 73.3991 37.368C73.0871 36.96 72.6671 36.756 72.1391 36.756C71.8031 36.756 71.4871 36.828 71.1911 36.972C70.9031 37.116 70.6591 37.312 70.4591 37.56V40.392ZM78.9917 35.82C79.5597 35.82 80.0677 35.956 80.5157 36.228C80.9637 36.5 81.3117 36.876 81.5597 37.356C81.8157 37.828 81.9437 38.368 81.9437 38.976C81.9437 39.584 81.8157 40.128 81.5597 40.608C81.3117 41.08 80.9637 41.452 80.5157 41.724C80.0677 41.996 79.5597 42.132 78.9917 42.132C78.4237 42.132 77.9157 41.996 77.4677 41.724C77.0197 41.452 76.6717 41.08 76.4237 40.608C76.1757 40.128 76.0517 39.584 76.0517 38.976C76.0517 38.368 76.1757 37.828 76.4237 37.356C76.6717 36.876 77.0197 36.5 77.4677 36.228C77.9157 35.956 78.4237 35.82 78.9917 35.82ZM77.0957 38.976C77.0957 39.408 77.1757 39.792 77.3357 40.128C77.4957 40.464 77.7197 40.728 78.0077 40.92C78.2957 41.104 78.6237 41.196 78.9917 41.196C79.5517 41.196 80.0077 40.992 80.3597 40.584C80.7117 40.176 80.8877 39.64 80.8877 38.976C80.8877 38.312 80.7117 37.776 80.3597 37.368C80.0077 36.96 79.5517 36.756 78.9917 36.756C78.6237 36.756 78.2957 36.852 78.0077 37.044C77.7197 37.228 77.4957 37.488 77.3357 37.824C77.1757 38.16 77.0957 38.544 77.0957 38.976ZM83.0244 38.94C83.0244 38.332 83.1404 37.792 83.3724 37.32C83.6124 36.84 83.9444 36.472 84.3684 36.216C84.7924 35.952 85.2724 35.82 85.8084 35.82C86.3284 35.82 86.7844 35.94 87.1764 36.18C87.5684 36.42 87.8724 36.752 88.0884 37.176C88.3044 37.6 88.4124 38.08 88.4124 38.616V39.276H84.1044C84.1044 39.604 84.1924 39.916 84.3684 40.212C84.5524 40.5 84.8084 40.736 85.1364 40.92C85.4724 41.096 85.8604 41.184 86.3004 41.184C86.7244 41.184 87.1084 41.116 87.4524 40.98C87.7964 40.844 88.0924 40.668 88.3404 40.452V41.496C88.1324 41.672 87.8444 41.824 87.4764 41.952C87.1084 42.072 86.6964 42.132 86.2404 42.132C85.6164 42.132 85.0604 42 84.5724 41.736C84.0844 41.472 83.7044 41.1 83.4324 40.62C83.1604 40.132 83.0244 39.572 83.0244 38.94ZM87.3924 38.412C87.3684 37.94 87.2124 37.544 86.9244 37.224C86.6364 36.904 86.2604 36.744 85.7964 36.744C85.3244 36.744 84.9364 36.9 84.6324 37.212C84.3284 37.516 84.1524 37.916 84.1044 38.412H87.3924ZM89.9583 35.952H90.9903V38.376H91.7823L93.7503 35.952H94.9623L92.6583 38.772L94.9983 42H93.7623L91.7583 39.24H90.9903V42H89.9583V35.952ZM95.6653 35.952H100.885V36.876H98.7853V42H97.7533V36.876H95.6653V35.952ZM107.291 33.552H108.407L111.563 42H110.423L109.607 39.768H106.067L105.263 42H104.135L107.291 33.552ZM109.259 38.784L107.843 34.884L106.427 38.784H109.259ZM112.716 35.952H116.82V36.876H113.748V42H112.716V35.952ZM118.095 35.952H119.091V36.792C119.267 36.512 119.511 36.28 119.823 36.096C120.135 35.912 120.519 35.82 120.975 35.82C121.447 35.82 121.883 35.948 122.283 36.204C122.683 36.452 122.999 36.816 123.231 37.296C123.471 37.768 123.591 38.328 123.591 38.976C123.591 39.624 123.471 40.188 123.231 40.668C122.999 41.14 122.683 41.504 122.283 41.76C121.883 42.008 121.447 42.132 120.975 42.132C120.535 42.132 120.163 42.048 119.859 41.88C119.555 41.712 119.311 41.496 119.127 41.232V44.292H118.095V35.952ZM119.127 40.392C119.327 40.64 119.571 40.836 119.859 40.98C120.155 41.124 120.471 41.196 120.807 41.196C121.335 41.196 121.755 40.996 122.067 40.596C122.387 40.188 122.547 39.648 122.547 38.976C122.547 38.312 122.387 37.776 122.067 37.368C121.755 36.96 121.335 36.756 120.807 36.756C120.471 36.756 120.155 36.828 119.859 36.972C119.571 37.116 119.327 37.312 119.127 37.56V40.392ZM127.66 35.82C128.228 35.82 128.736 35.956 129.184 36.228C129.632 36.5 129.98 36.876 130.228 37.356C130.484 37.828 130.612 38.368 130.612 38.976C130.612 39.584 130.484 40.128 130.228 40.608C129.98 41.08 129.632 41.452 129.184 41.724C128.736 41.996 128.228 42.132 127.66 42.132C127.092 42.132 126.584 41.996 126.136 41.724C125.688 41.452 125.34 41.08 125.092 40.608C124.844 40.128 124.72 39.584 124.72 38.976C124.72 38.368 124.844 37.828 125.092 37.356C125.34 36.876 125.688 36.5 126.136 36.228C126.584 35.956 127.092 35.82 127.66 35.82ZM125.764 38.976C125.764 39.408 125.844 39.792 126.004 40.128C126.164 40.464 126.388 40.728 126.676 40.92C126.964 41.104 127.292 41.196 127.66 41.196C128.22 41.196 128.676 40.992 129.028 40.584C129.38 40.176 129.556 39.64 129.556 38.976C129.556 38.312 129.38 37.776 129.028 37.368C128.676 36.96 128.22 36.756 127.66 36.756C127.292 36.756 126.964 36.852 126.676 37.044C126.388 37.228 126.164 37.488 126.004 37.824C125.844 38.16 125.764 38.544 125.764 38.976ZM132.796 38.34C132.796 39.252 132.972 39.956 133.324 40.452C133.684 40.948 134.16 41.196 134.752 41.196C135.312 41.196 135.756 40.996 136.084 40.596C136.42 40.188 136.588 39.664 136.588 39.024C136.588 38.392 136.42 37.876 136.084 37.476C135.748 37.076 135.308 36.876 134.764 36.876C134.348 36.876 133.968 36.964 133.624 37.14C133.288 37.308 133.016 37.508 132.808 37.74C132.8 37.868 132.796 38.068 132.796 38.34ZM131.752 38.34C131.752 36.892 132.032 35.764 132.592 34.956C133.152 34.14 134.04 33.656 135.256 33.504C135.336 33.496 135.58 33.468 135.988 33.42C136.396 33.364 136.748 33.296 137.044 33.216V34.212C136.724 34.292 136.192 34.364 135.448 34.428C134.632 34.5 134.028 34.732 133.636 35.124C133.244 35.508 132.992 36.088 132.88 36.864C133.112 36.592 133.404 36.372 133.756 36.204C134.108 36.036 134.492 35.952 134.908 35.952C135.42 35.952 135.884 36.072 136.3 36.312C136.716 36.552 137.044 36.904 137.284 37.368C137.524 37.832 137.644 38.384 137.644 39.024C137.644 39.6 137.528 40.124 137.296 40.596C137.064 41.068 136.732 41.444 136.3 41.724C135.868 41.996 135.368 42.132 134.8 42.132C134.192 42.132 133.656 41.98 133.192 41.676C132.736 41.364 132.38 40.924 132.124 40.356C131.876 39.78 131.752 39.108 131.752 38.34ZM144.376 41.976C144.184 42.08 143.976 42.132 143.752 42.132C143.472 42.132 143.224 42.06 143.008 41.916C142.8 41.772 142.668 41.576 142.612 41.328C142.212 41.864 141.62 42.132 140.836 42.132C140.228 42.132 139.72 41.964 139.312 41.628C138.904 41.292 138.7 40.84 138.7 40.272C138.7 39.688 138.932 39.228 139.396 38.892C139.86 38.556 140.444 38.388 141.148 38.388C141.7 38.388 142.18 38.464 142.588 38.616V38.052C142.588 37.636 142.456 37.32 142.192 37.104C141.928 36.88 141.568 36.768 141.112 36.768C140.728 36.768 140.348 36.84 139.972 36.984C139.604 37.12 139.304 37.296 139.072 37.512V36.492C139.28 36.316 139.572 36.16 139.948 36.024C140.324 35.888 140.74 35.82 141.196 35.82C141.94 35.82 142.528 36.016 142.96 36.408C143.392 36.8 143.608 37.328 143.608 37.992V40.812C143.608 40.956 143.648 41.068 143.728 41.148C143.808 41.22 143.92 41.256 144.064 41.256C144.192 41.256 144.296 41.232 144.376 41.184V41.976ZM139.744 40.272C139.744 40.568 139.852 40.804 140.068 40.98C140.292 41.148 140.6 41.232 140.992 41.232C141.68 41.232 142.212 40.996 142.588 40.524V39.444C142.156 39.3 141.692 39.228 141.196 39.228C140.788 39.228 140.444 39.32 140.164 39.504C139.884 39.688 139.744 39.944 139.744 40.272ZM150.592 35.952V42H149.56V39.312H146.584V42H145.552V35.952H146.584V38.388H149.56V35.952H150.592ZM152.372 35.952H153.404V38.376H154.196L156.164 35.952H157.376L155.072 38.772L157.412 42H156.176L154.172 39.24H153.404V42H152.372V35.952ZM163.712 41.976C163.52 42.08 163.312 42.132 163.088 42.132C162.808 42.132 162.56 42.06 162.344 41.916C162.136 41.772 162.004 41.576 161.948 41.328C161.548 41.864 160.956 42.132 160.172 42.132C159.564 42.132 159.056 41.964 158.648 41.628C158.24 41.292 158.036 40.84 158.036 40.272C158.036 39.688 158.268 39.228 158.732 38.892C159.196 38.556 159.78 38.388 160.484 38.388C161.036 38.388 161.516 38.464 161.924 38.616V38.052C161.924 37.636 161.792 37.32 161.528 37.104C161.264 36.88 160.904 36.768 160.448 36.768C160.064 36.768 159.684 36.84 159.308 36.984C158.94 37.12 158.64 37.296 158.408 37.512V36.492C158.616 36.316 158.908 36.16 159.284 36.024C159.66 35.888 160.076 35.82 160.532 35.82C161.276 35.82 161.864 36.016 162.296 36.408C162.728 36.8 162.944 37.328 162.944 37.992V40.812C162.944 40.956 162.984 41.068 163.064 41.148C163.144 41.22 163.256 41.256 163.4 41.256C163.528 41.256 163.632 41.232 163.712 41.184V41.976ZM159.08 40.272C159.08 40.568 159.188 40.804 159.404 40.98C159.628 41.148 159.936 41.232 160.328 41.232C161.016 41.232 161.548 40.996 161.924 40.524V39.444C161.492 39.3 161.028 39.228 160.532 39.228C160.124 39.228 159.78 39.32 159.5 39.504C159.22 39.688 159.08 39.944 159.08 40.272Z" fill="#7C7C7C"/>
<path d="M22 44C22 31.8497 12.1503 22 0 22V44H22Z" fill="#FF0000"/>
<path d="M22 44C22 31.8497 12.1503 22 0 22V44H22Z" fill="url(#paint0_linear_775_37306)"/>
<path d="M0 22C12.1503 22 22 12.1503 22 0H0V22Z" fill="#FF0000"/>
<path d="M0 22C12.1503 22 22 12.1503 22 0H0V22Z" fill="url(#paint1_linear_775_37306)"/>
<path d="M44 22C31.8497 22 22 31.8497 22 44H44V22Z" fill="#FF0000"/>
<path d="M44 22C31.8497 22 22 31.8497 22 44H44V22Z" fill="url(#paint2_linear_775_37306)"/>
<path d="M26.4 8.8C26.4 3.93989 30.3399 0 35.2 0C40.0601 0 44 3.93989 44 8.8C44 13.6601 40.0601 17.6 35.2 17.6H26.4V8.8Z" fill="url(#paint3_linear_775_37306)"/>
</g>
<defs>
<linearGradient id="paint0_linear_775_37306" x1="0" y1="44" x2="49.5639" y2="36.4302" gradientUnits="userSpaceOnUse">
<stop stop-color="#FF512F"/>
<stop offset="1" stop-color="#DD2476"/>
</linearGradient>
<linearGradient id="paint1_linear_775_37306" x1="0" y1="44" x2="49.5639" y2="36.4302" gradientUnits="userSpaceOnUse">
<stop stop-color="#FF512F"/>
<stop offset="1" stop-color="#DD2476"/>
</linearGradient>
<linearGradient id="paint2_linear_775_37306" x1="0" y1="44" x2="49.5639" y2="36.4302" gradientUnits="userSpaceOnUse">
<stop stop-color="#FF512F"/>
<stop offset="1" stop-color="#DD2476"/>
</linearGradient>
<linearGradient id="paint3_linear_775_37306" x1="26.4" y1="8.8" x2="44" y2="8.8" gradientUnits="userSpaceOnUse">
<stop stop-color="#396AFC"/>
<stop offset="1" stop-color="#2948FF"/>
</linearGradient>
<clipPath id="clip0_775_37306">
<rect width="236" height="44" fill="white"/>
</clipPath>
</defs>
</svg>
