<svg width="150" height="50" viewBox="0 0 150 50" fill="none" xmlns="http://www.w3.org/2000/svg">
<rect width="150" height="50" rx="8" fill="white"/>
<path d="M97.5757 23.1808V25.556H96.0869V27.1136H97.5757V32.4061C97.5757 34.2133 98.3932 34.9362 100.45 34.9362C100.811 34.9362 101.156 34.8932 101.457 34.8416V33.3011C101.199 33.327 101.035 33.3442 100.751 33.3442C99.8304 33.3442 99.4259 32.9139 99.4259 31.9328V27.1136H101.457V25.556H99.4259V23.1808H97.5757Z" fill="#9FA2A6"/>
<path d="M106.696 35.0653C109.433 35.0653 111.111 33.2323 111.111 30.1945C111.111 27.1738 109.424 25.3322 106.696 25.3322C103.96 25.3322 102.273 27.1738 102.273 30.1945C102.273 33.2323 103.951 35.0653 106.696 35.0653ZM106.696 33.4216C105.087 33.4216 104.183 32.2426 104.183 30.1945C104.183 28.1635 105.087 26.9759 106.696 26.9759C108.297 26.9759 109.209 28.1635 109.209 30.1945C109.209 32.234 108.297 33.4216 106.696 33.4216Z" fill="#9FA2A6"/>
<path d="M112.547 34.8846H114.397V29.3511C114.397 28.0344 115.387 27.148 116.79 27.148C117.117 27.148 117.667 27.2083 117.822 27.2599V25.4355C117.624 25.3838 117.271 25.358 116.996 25.358C115.774 25.358 114.733 26.0293 114.466 26.9501H114.328V25.5129H112.547V34.8846Z" fill="#9FA2A6"/>
<path d="M122.416 26.9071C123.785 26.9071 124.68 27.8623 124.723 29.3339H119.99C120.093 27.8709 121.048 26.9071 122.416 26.9071ZM124.714 32.3545C124.37 33.086 123.604 33.4905 122.485 33.4905C121.005 33.4905 120.05 32.4492 119.99 30.8055V30.7022H126.607V30.0568C126.607 27.1136 125.032 25.3322 122.425 25.3322C119.783 25.3322 118.105 27.2341 118.105 30.2289C118.105 33.2237 119.749 35.0653 122.434 35.0653C124.576 35.0653 126.074 34.0326 126.495 32.3545H124.714Z" fill="#9FA2A6"/>
<path d="M85.4421 31.4238C85.5848 33.725 87.5025 35.1968 90.3568 35.1968C93.4073 35.1968 95.3161 33.6537 95.3161 31.1919C95.3161 29.2563 94.2279 28.186 91.5877 27.5705L90.1695 27.2227C88.4926 26.8302 87.8147 26.3039 87.8147 25.3852C87.8147 24.2257 88.8672 23.4675 90.446 23.4675C91.9445 23.4675 92.9791 24.2078 93.1665 25.3941H95.1109C94.995 23.2267 93.0862 21.7014 90.4727 21.7014C87.6631 21.7014 85.7899 23.2267 85.7899 25.519C85.7899 27.41 86.8514 28.5338 89.1794 29.0779L90.8384 29.4793C92.5421 29.8807 93.2913 30.4694 93.2913 31.4505C93.2913 32.5923 92.1139 33.4218 90.5084 33.4218C88.7869 33.4218 87.5917 32.6458 87.4222 31.4238H85.4421Z" fill="#9FA2A6"/>
<path d="M66.2755 25.358C65.0019 25.358 63.9003 25.9949 63.3324 27.062H63.1947V25.5129H61.4133V37.9999H63.2635V33.4646H63.4098C63.9003 34.4543 64.9588 35.0395 66.2927 35.0395C68.6593 35.0395 70.1653 33.1721 70.1653 30.1945C70.1653 27.2169 68.6593 25.358 66.2755 25.358ZM65.7506 33.3786C64.2015 33.3786 63.2291 32.1566 63.2291 30.2031C63.2291 28.241 64.2015 27.0189 65.7592 27.0189C67.3254 27.0189 68.2635 28.2151 68.2635 30.1945C68.2635 32.1824 67.3254 33.3786 65.7506 33.3786Z" fill="#9FA2A6"/>
<path d="M76.6396 25.358C75.366 25.358 74.2644 25.9949 73.6964 27.062H73.5587V25.5129H71.7774V37.9999H73.6276V33.4646H73.7739C74.2644 34.4543 75.3229 35.0395 76.6568 35.0395C79.0234 35.0395 80.5294 33.1721 80.5294 30.1945C80.5294 27.2169 79.0234 25.358 76.6396 25.358ZM76.1147 33.3786C74.5656 33.3786 73.5932 32.1566 73.5932 30.2031C73.5932 28.241 74.5656 27.0189 76.1233 27.0189C77.6895 27.0189 78.6275 28.2151 78.6275 30.1945C78.6275 32.1824 77.6895 33.3786 76.1147 33.3786Z" fill="#9FA2A6"/>
<path d="M58.0936 34.8846H60.2165L55.5694 22.0136H53.4198L48.7726 34.8846H50.8242L52.0105 31.4684H56.9162L58.0936 34.8846ZM54.392 24.3505H54.5436L56.4078 29.7915H52.5189L54.392 24.3505Z" fill="#9FA2A6"/>
<path d="M50.0156 12.3055V18.5146H52.2574C54.1076 18.5146 55.179 17.3743 55.179 15.3907C55.179 13.4372 54.099 12.3055 52.2574 12.3055H50.0156ZM50.9794 13.1833H52.1498C53.4363 13.1833 54.198 14.0008 54.198 15.4036C54.198 16.8278 53.4493 17.6368 52.1498 17.6368H50.9794V13.1833Z" fill="#9FA2A6"/>
<path d="M58.4604 18.6049C59.8287 18.6049 60.6678 17.6884 60.6678 16.1695C60.6678 14.6592 59.8244 13.7384 58.4604 13.7384C57.0921 13.7384 56.2487 14.6592 56.2487 16.1695C56.2487 17.6884 57.0878 18.6049 58.4604 18.6049ZM58.4604 17.7831C57.6557 17.7831 57.2039 17.1936 57.2039 16.1695C57.2039 15.154 57.6557 14.5602 58.4604 14.5602C59.2607 14.5602 59.7168 15.154 59.7168 16.1695C59.7168 17.1893 59.2607 17.7831 58.4604 17.7831Z" fill="#9FA2A6"/>
<path d="M67.8131 13.8287H66.888L66.0532 17.4044H65.9801L65.0162 13.8287H64.1299L63.166 17.4044H63.0972L62.2581 13.8287H61.3201L62.6109 18.5146H63.5619L64.5257 15.0636H64.5989L65.567 18.5146H66.5266L67.8131 13.8287Z" fill="#9FA2A6"/>
<path d="M68.8785 18.5146H69.8036V15.7736C69.8036 15.0421 70.2382 14.586 70.9224 14.586C71.6065 14.586 71.9335 14.9604 71.9335 15.7134V18.5146H72.8587V15.481C72.8587 14.3666 72.2821 13.7384 71.2365 13.7384C70.5308 13.7384 70.0661 14.0525 69.838 14.5731H69.7692V13.8287H68.8785V18.5146Z" fill="#9FA2A6"/>
<path d="M74.3156 18.5146H75.2407V12H74.3156V18.5146Z" fill="#9FA2A6"/>
<path d="M78.72 18.6049C80.0884 18.6049 80.9274 17.6884 80.9274 16.1695C80.9274 14.6592 80.0841 13.7384 78.72 13.7384C77.3517 13.7384 76.5084 14.6592 76.5084 16.1695C76.5084 17.6884 77.3474 18.6049 78.72 18.6049ZM78.72 17.7831C77.9154 17.7831 77.4636 17.1936 77.4636 16.1695C77.4636 15.154 77.9154 14.5602 78.72 14.5602C79.5204 14.5602 79.9765 15.154 79.9765 16.1695C79.9765 17.1893 79.5204 17.7831 78.72 17.7831Z" fill="#9FA2A6"/>
<path d="M83.6838 17.8132C83.1804 17.8132 82.8147 17.5679 82.8147 17.1462C82.8147 16.7332 83.1073 16.5137 83.7527 16.4707L84.8973 16.3975V16.7891C84.8973 17.37 84.3809 17.8132 83.6838 17.8132ZM83.4472 18.592C84.0625 18.592 84.5745 18.3252 84.8542 17.8562H84.9274V18.5146H85.8181V15.3132C85.8181 14.3236 85.1554 13.7384 83.9807 13.7384C82.9179 13.7384 82.1606 14.2547 82.066 15.0593H82.961C83.0642 14.728 83.4214 14.5387 83.9377 14.5387C84.5702 14.5387 84.8973 14.8184 84.8973 15.3132V15.7177L83.6279 15.7908C82.5135 15.8597 81.8852 16.3459 81.8852 17.1893C81.8852 18.0455 82.5436 18.592 83.4472 18.592Z" fill="#9FA2A6"/>
<path d="M88.9574 18.592C89.6029 18.592 90.1493 18.2865 90.429 17.7745H90.5022V18.5146H91.3886V12H90.4635V14.5731H90.3946C90.1407 14.0568 89.5986 13.7513 88.9574 13.7513C87.7742 13.7513 87.0125 14.6893 87.0125 16.1695C87.0125 17.654 87.7655 18.592 88.9574 18.592ZM89.2199 14.5817C89.9944 14.5817 90.4807 15.197 90.4807 16.1738C90.4807 17.1548 89.9987 17.7615 89.2199 17.7615C88.4368 17.7615 87.9678 17.1635 87.9678 16.1695C87.9678 15.1841 88.4411 14.5817 89.2199 14.5817Z" fill="#9FA2A6"/>
<path d="M97.3876 18.6049C98.756 18.6049 99.595 17.6884 99.595 16.1695C99.595 14.6592 98.7516 13.7384 97.3876 13.7384C96.0193 13.7384 95.176 14.6592 95.176 16.1695C95.176 17.6884 96.015 18.6049 97.3876 18.6049ZM97.3876 17.7831C96.583 17.7831 96.1312 17.1936 96.1312 16.1695C96.1312 15.154 96.583 14.5602 97.3876 14.5602C98.188 14.5602 98.6441 15.154 98.6441 16.1695C98.6441 17.1893 98.188 17.7831 97.3876 17.7831Z" fill="#9FA2A6"/>
<path d="M100.82 18.5146H101.745V15.7736C101.745 15.0421 102.179 14.586 102.863 14.586C103.548 14.586 103.875 14.9604 103.875 15.7134V18.5146H104.8V15.481C104.8 14.3666 104.223 13.7384 103.178 13.7384C102.472 13.7384 102.007 14.0525 101.779 14.5731H101.71V13.8287H100.82V18.5146Z" fill="#9FA2A6"/>
<path d="M109.06 12.6626V13.8502H108.316V14.6291H109.06V17.2753C109.06 18.1789 109.469 18.5404 110.498 18.5404C110.678 18.5404 110.85 18.5189 111.001 18.493V17.7228C110.872 17.7357 110.79 17.7443 110.648 17.7443C110.188 17.7443 109.986 17.5292 109.986 17.0387V14.6291H111.001V13.8502H109.986V12.6626H109.06Z" fill="#9FA2A6"/>
<path d="M112.243 18.5146H113.168V15.7779C113.168 15.068 113.59 14.5903 114.347 14.5903C115.001 14.5903 115.35 14.969 115.35 15.7177V18.5146H116.275V15.4896C116.275 14.3752 115.659 13.7427 114.661 13.7427C113.955 13.7427 113.461 14.0568 113.233 14.5817H113.159V12H112.243V18.5146Z" fill="#9FA2A6"/>
<path d="M119.612 14.5258C120.296 14.5258 120.744 15.0034 120.765 15.7392H118.399C118.45 15.0077 118.928 14.5258 119.612 14.5258ZM120.761 17.2495C120.589 17.6153 120.206 17.8175 119.646 17.8175C118.906 17.8175 118.429 17.2968 118.399 16.475V16.4234H121.707V16.1006C121.707 14.6291 120.92 13.7384 119.616 13.7384C118.295 13.7384 117.456 14.6893 117.456 16.1867C117.456 17.6841 118.278 18.6049 119.621 18.6049C120.692 18.6049 121.441 18.0886 121.652 17.2495H120.761Z" fill="#9FA2A6"/>
<path d="M38.7336 24.3215C38.7561 22.5787 39.692 20.9297 41.1767 20.0169C40.2401 18.6792 38.6712 17.831 37.0389 17.7799C35.298 17.5972 33.6103 18.8217 32.7231 18.8217C31.8188 18.8217 30.4529 17.7981 28.982 17.8283C27.0648 17.8903 25.2775 18.9803 24.3448 20.6564C22.3397 24.1279 23.8353 29.2297 25.756 32.0358C26.7169 33.4098 27.84 34.9447 29.3095 34.8902C30.7476 34.8306 31.2846 33.9732 33.0204 33.9732C34.7402 33.9732 35.244 34.8902 36.7434 34.8556C38.2864 34.8306 39.2586 33.4755 40.1859 32.0884C40.8763 31.1094 41.4076 30.0273 41.7601 28.8823C39.9467 28.1153 38.7357 26.2904 38.7336 24.3215Z" fill="#9FA2A6"/>
<path d="M35.9016 15.9345C36.7429 14.9245 37.1574 13.6264 37.057 12.3157C35.7717 12.4507 34.5843 13.065 33.7316 14.0363C32.8978 14.9852 32.4639 16.2606 32.5459 17.5211C33.8317 17.5344 35.0958 16.9367 35.9016 15.9345Z" fill="#9FA2A6"/>
</svg>
