<svg width="50" height="50" viewBox="0 0 50 50" fill="none" xmlns="http://www.w3.org/2000/svg">
<path d="M44.0591 50H5.73828V47.0613H8.60127C3.79958 32.3272 3.79958 17.6027 8.60127 2.88781H5.78134V0H44.0017V2.89694H41.1543C46.0004 17.6493 45.9965 32.3324 41.1543 47.0704H44.0591V50ZM24.8954 10.2535C20.0102 10.2535 15.1236 10.2614 10.2371 10.2405C9.73316 10.2405 9.55169 10.371 9.45378 10.871C7.46412 20.2332 7.48012 29.9106 9.50076 39.266C9.57125 39.5885 9.68093 39.7138 10.0373 39.7138C19.9392 39.7034 29.842 39.7034 39.7457 39.7138C40.0851 39.7138 40.2157 39.6211 40.2914 39.2765C40.9744 36.1443 41.4282 32.9665 41.6491 29.7684C42.1034 23.4279 41.6604 17.055 40.3332 10.8384C40.2392 10.3971 40.089 10.2418 39.6099 10.2431C34.7012 10.2614 29.7977 10.2535 24.8954 10.2535ZM10.3689 7.27826H39.3801C39.3475 7.13857 39.3331 7.02629 39.2979 6.92185C38.8971 5.73644 38.4806 4.55626 38.0994 3.36432C37.978 2.98702 37.7861 2.88781 37.3971 2.88781C29.0574 2.90086 20.7178 2.90391 12.3781 2.89694C12.3295 2.90085 12.2806 2.90085 12.2319 2.89694C11.9525 2.84603 11.8246 2.98441 11.7384 3.23638C11.4643 4.03535 11.1666 4.8265 10.8925 5.62678C10.7097 6.16074 10.5504 6.70253 10.3689 7.27826ZM39.4389 42.6787H10.3964C10.4394 42.8484 10.4668 42.9894 10.5125 43.1238C10.9042 44.2623 11.3063 45.3941 11.6666 46.5417C11.7972 46.9568 11.9995 47.0717 12.4291 47.0717C20.5885 47.0578 28.7489 47.0543 36.9101 47.0613C37.9166 47.0613 37.9323 47.0613 38.2639 46.1344C38.666 45.0051 39.0368 43.8654 39.4389 42.6787Z" fill="#22A33F"/>
<path d="M26.8681 31.7575V36.1518H23.9294V31.7653H22.5195C18.4397 31.7509 15.2503 28.6947 15.1093 24.6189C15.0571 23.1071 15.1002 21.5927 15.1002 20.0274H19.6408C19.864 19.1135 19.9972 18.2427 20.2935 17.4294C21.1526 15.0925 22.8236 13.5324 25.1318 12.6447C25.3279 12.584 25.5389 12.5922 25.7297 12.6682C28.8303 13.9411 30.6176 16.2257 31.004 19.5757C31.0131 19.6566 31.0197 19.7376 31.034 19.8172C31.0517 19.8817 31.0726 19.9454 31.0967 20.0078H35.6986C35.6986 21.4556 35.7208 22.8512 35.6895 24.2468C35.6858 24.8966 35.6141 25.5442 35.4754 26.179C35.0957 27.7503 34.2052 29.1511 32.9434 30.1617C31.6817 31.1722 30.1202 31.7353 28.5039 31.7627C27.9778 31.7653 27.4595 31.7575 26.8681 31.7575ZM32.7221 22.987C28.5444 22.4517 26.3838 25.1985 26.9295 28.7835C30.6071 29.247 33.1803 27.1633 32.7221 22.987ZM18.0885 22.9739C17.5507 27.115 20.2426 29.3044 23.8811 28.7639C24.3602 25.226 22.3406 22.487 18.0885 22.9739ZM25.2832 22.7912C26.184 22.111 27.0261 21.4857 27.8525 20.8329C27.9828 20.7276 28.0663 20.5751 28.0849 20.4086C28.0914 18.4725 27.2898 16.9555 25.6592 15.8993C25.5797 15.8598 25.4921 15.8392 25.4033 15.8392C25.3145 15.8392 25.2269 15.8598 25.1474 15.8993C23.5077 16.9438 22.7127 18.4634 22.697 20.3955C22.6964 20.4716 22.7125 20.5469 22.7441 20.6162C22.7756 20.6854 22.822 20.7469 22.8798 20.7963C23.8051 21.2956 24.6221 21.9736 25.2832 22.7912Z" fill="#FFAA46"/>
</svg>
