<svg width="40" height="40" viewBox="0 0 40 40" fill="none" xmlns="http://www.w3.org/2000/svg">
<rect width="40" height="40" rx="20" fill="#EEF8F0"/>
<path d="M17 18L19.7473 20.7473C20.1552 21.1552 20.8226 21.1344 21.2043 20.7018L28 13" stroke="#22A33F" stroke-width="1.5" stroke-linecap="round"/>
<path d="M29 20C29 21.8805 28.411 23.7137 27.3156 25.2423C26.2203 26.7709 24.6736 27.9179 22.893 28.5224C21.1123 29.1268 19.187 29.1583 17.3874 28.6125C15.5879 28.0666 14.0046 26.9707 12.8598 25.4789C11.715 23.987 11.0663 22.174 11.0048 20.2945C10.9433 18.415 11.472 16.5634 12.5168 14.9999C13.5615 13.4363 15.0698 12.2392 16.8297 11.5768C18.5897 10.9144 20.513 10.82 22.3294 11.3067" stroke="#22A33F" stroke-width="1.5" stroke-linecap="round"/>
</svg>
