<svg width="243" height="44" viewBox="0 0 243 44" fill="none" xmlns="http://www.w3.org/2000/svg">
<g clip-path="url(#clip0_775_37349)">
<path d="M73.3342 0.804871H76.0232L80.3515 12.6281H77.6448L76.7957 10.1927H72.5027L71.6536 12.6281H69L73.3342 0.804871ZM76.1175 8.06098L74.6433 3.74446L73.1838 8.06098H76.1175Z" fill="black"/>
<path d="M81.8343 15.2817V13.15C82.7084 13.8077 83.7744 14.16 84.8683 14.1524C86.0477 14.1524 87.227 13.604 87.227 12.0089V11.2188C86.9587 11.6168 86.5943 11.9408 86.1676 12.1609C85.7409 12.3809 85.2657 12.4899 84.7857 12.4777C82.7218 12.4777 81.0854 10.8649 81.0854 8.12879C81.0854 5.39264 82.7159 3.74446 84.7887 3.74446C85.3021 3.7305 85.8098 3.8558 86.2578 4.10704C86.7057 4.35829 87.0774 4.72612 87.3332 5.1715V3.9479H89.7096V12.0591C89.7096 14.7628 87.7755 16.1574 85.2634 16.1574C83.7685 16.1574 82.6658 15.8213 81.8343 15.2817ZM85.458 10.4463C85.7899 10.4449 86.1181 10.3756 86.4223 10.2428C86.7265 10.1099 87.0004 9.9163 87.227 9.67377V6.56611C86.9994 6.3261 86.725 6.13529 86.4207 6.00547C86.1164 5.87565 85.7888 5.80957 85.458 5.81131C84.3199 5.81131 83.5916 6.69585 83.5916 8.12879C83.5916 9.56173 84.311 10.4463 85.458 10.4463Z" fill="black"/>
<path d="M91.7942 3.94793H94.1706V5.44279C94.3676 4.95132 94.7143 4.53426 95.1614 4.25064C95.6085 3.96702 96.1335 3.83121 96.6621 3.86242C96.9003 3.85795 97.1373 3.89795 97.3608 3.98036V6.29783C97.037 6.2093 96.7029 6.1637 96.3672 6.1622C95.3323 6.1622 94.6689 6.48358 94.2797 6.9347V12.6281H91.8001L91.7942 3.94793Z" fill="black"/>
<path d="M107.135 8.2969C107.135 11.033 105.201 12.8316 102.656 12.8316C100.112 12.8316 98.1599 11.033 98.1599 8.2969C98.1599 5.56075 100.076 3.74451 102.656 3.74451C105.236 3.74451 107.135 5.5578 107.135 8.2969ZM102.656 10.7146C103.836 10.7146 104.658 9.70625 104.658 8.2969C104.658 6.88754 103.844 5.86149 102.656 5.86149C101.468 5.86149 100.654 6.86985 100.654 8.2969C100.654 9.72394 101.468 10.7146 102.656 10.7146Z" fill="black"/>
<path d="M114.398 3.08991H108.563V0.804871H117.597V2.8216L111.785 10.346H117.597V12.6281H108.563V10.5966L114.398 3.08991Z" fill="black"/>
<path d="M126.515 12.8315C125.616 12.8315 124.835 12.4453 124.564 11.6875C124.121 12.3274 123.384 12.8315 122.034 12.8315C120.321 12.8315 119.015 11.7052 119.015 10.1278C119.015 8.19659 120.784 7.35629 122.73 7.35629C123.32 7.35376 123.909 7.43314 124.478 7.59216V7.17054C124.478 6.19755 123.664 5.74349 122.508 5.74349C121.487 5.74007 120.494 6.08306 119.693 6.71648V4.60245C120.683 4.01602 121.818 3.71879 122.968 3.74445C125.445 3.74445 126.887 5.03882 126.887 7.1381V10.3814C126.883 10.4582 126.897 10.5348 126.926 10.6059C126.955 10.6771 126.999 10.7412 127.054 10.7939C127.11 10.8465 127.177 10.8864 127.25 10.9109C127.323 10.9354 127.4 10.9438 127.477 10.9357C127.613 10.9376 127.747 10.903 127.866 10.8354V12.4807C127.457 12.7197 126.989 12.8411 126.515 12.8315ZM122.797 11.0006C123.122 11.0096 123.443 10.941 123.736 10.8005C124.028 10.66 124.283 10.4516 124.478 10.1927V9.14009C124.023 8.99368 123.547 8.92005 123.069 8.92191C122.323 8.92191 121.491 9.19022 121.491 9.9804C121.491 10.5966 122.001 11.0006 122.797 11.0006Z" fill="black"/>
<path d="M129.228 12.6281V3.94791H131.604V5.10665C131.894 4.68922 132.279 4.34752 132.728 4.11043C133.177 3.87333 133.676 3.74781 134.184 3.74447C134.679 3.72876 135.168 3.84879 135.599 4.09154C136.03 4.33429 136.386 4.69047 136.629 5.12139C136.93 4.68337 137.337 4.32787 137.811 4.08735C138.285 3.84683 138.812 3.72895 139.344 3.74447C141.075 3.74447 142.331 4.82065 142.331 6.802V12.6281H139.869V7.45655C139.869 6.48357 139.344 5.944 138.46 5.944C138.192 5.9391 137.926 5.98886 137.678 6.09025C137.43 6.19165 137.205 6.34253 137.018 6.53369V12.6281H134.541V7.43886C134.541 6.48357 133.999 5.944 133.132 5.944C132.863 5.93568 132.596 5.98718 132.35 6.09477C132.103 6.20237 131.884 6.36337 131.708 6.56612V12.6281H129.228Z" fill="black"/>
<path d="M145.586 -3.12624e-05C145.859 0.00404854 146.125 0.0889999 146.351 0.244119C146.576 0.399237 146.75 0.617582 146.852 0.871641C146.953 1.1257 146.977 1.40411 146.921 1.67178C146.864 1.93945 146.73 2.18441 146.534 2.37579C146.339 2.56717 146.091 2.69641 145.822 2.74723C145.554 2.79804 145.276 2.76816 145.024 2.66134C144.772 2.55453 144.557 2.37555 144.407 2.14698C144.257 1.9184 144.177 1.65045 144.179 1.37689C144.178 1.19333 144.214 1.01147 144.285 0.842096C144.356 0.672719 144.46 0.519274 144.591 0.390861C144.722 0.262447 144.878 0.161679 145.049 0.0945328C145.219 0.0273868 145.402 -0.00477025 145.586 -3.12624e-05ZM146.842 12.6281H144.365V3.94793H146.842V12.6281Z" fill="black"/>
<path d="M148.947 12.6281V3.94791H151.324V5.12728C151.626 4.69805 152.027 4.34852 152.494 4.10869C152.961 3.86886 153.479 3.7459 154.004 3.75036C155.735 3.75036 157.023 4.82654 157.023 6.85802V12.6281H154.546V7.61576C154.546 6.47472 153.957 5.93515 152.969 5.93515C152.681 5.92432 152.393 5.97588 152.127 6.0863C151.86 6.19672 151.62 6.36341 151.424 6.57497V12.6193L148.947 12.6281Z" fill="black"/>
<path d="M80.2335 22.3875C73.8649 22.3875 69.0059 26.6833 69.0059 33.1935C69.0059 39.7036 73.8501 43.9995 80.2335 43.9995C86.6169 43.9995 91.4848 39.7036 91.4848 33.1935C91.4848 26.6833 86.6021 22.3875 80.2335 22.3875ZM80.2335 39.6211C76.8133 39.6211 74.428 36.8938 74.428 33.1935C74.428 29.4932 76.8281 26.7688 80.2335 26.7688C83.639 26.7688 86.0478 29.4843 86.0478 33.1935C86.0478 36.9026 83.6891 39.6211 80.2335 39.6211Z" fill="black"/>
<path d="M97.3735 22.4611H100.941C99.9209 23.496 98.7504 25.2503 98.37 26.7334C99.3548 27.0017 100.499 27.7447 100.499 29.1924C100.499 30.702 99.2074 31.846 97.5327 31.846C97.1243 31.8604 96.7173 31.7906 96.337 31.6411C95.9568 31.4916 95.6113 31.2654 95.3221 30.9768C95.0328 30.6881 94.8061 30.3431 94.6558 29.9631C94.5055 29.5831 94.435 29.1762 94.4486 28.7678C94.4486 26.0405 96.1823 23.5874 97.3735 22.4611Z" fill="black"/>
<path d="M104.296 40.2756L111.809 32.1822H104.296V28.2519H118.154V31.5984L110.703 39.6565H118.154V43.6368H104.296V40.2756Z" fill="black"/>
<path d="M123.897 21.1344C125.507 21.1344 126.775 22.2666 126.775 23.7143C126.775 25.162 125.519 26.2942 123.897 26.2942C122.275 26.2942 121.055 25.1973 121.055 23.7143C121.055 22.2312 122.314 21.1344 123.897 21.1344Z" fill="black"/>
<path d="M126.48 28.2519H121.388V43.6368H126.48V28.2519Z" fill="black"/>
<path d="M131.766 43.6369V31.5011H128.57V28.2401H136.623V30.304C137.199 29.5385 137.946 28.9177 138.805 28.4909C139.663 28.0641 140.609 27.843 141.567 27.8451C143.84 27.8451 145.4 28.88 146.202 30.2805C146.799 29.4967 147.575 28.8669 148.465 28.4433C149.355 28.0197 150.333 27.8146 151.318 27.8451C154.673 27.8451 157.058 29.7674 157.058 33.2112V43.6045H151.969V34.5203C151.969 32.9488 151.011 32.0377 149.46 32.0377C148.537 32.0022 147.636 32.3291 146.951 32.9488V43.6104H141.862V34.5203C141.862 32.9488 140.904 32.0377 139.376 32.0377C138.459 32.0006 137.561 32.3172 136.87 32.9223V43.6369H131.766Z" fill="black"/>
<path d="M167.006 43.6368H161.914V31.501H158.706V28.2578H167.006V43.6368Z" fill="black"/>
<path d="M164.303 21.1344C165.913 21.1344 167.181 22.2666 167.181 23.7143C167.181 25.162 165.925 26.2942 164.303 26.2942C162.681 26.2942 161.461 25.1973 161.461 23.7143C161.461 22.2312 162.708 21.1344 164.303 21.1344Z" fill="black"/>
<path d="M170.229 40.2756L177.745 32.1822H170.229V28.2519H184.087V31.5984L176.636 39.6565H184.087V43.6368H170.229V40.2756Z" fill="black"/>
<path d="M187.318 43.6368V28.2519H192.162V30.3158C192.771 29.5421 193.549 28.9182 194.436 28.4919C195.323 28.0657 196.297 27.8484 197.281 27.8568C200.636 27.8568 202.998 29.7792 202.998 33.2731V43.6368H197.906V34.824C197.906 32.9605 196.886 32.0377 195.028 32.0377C194.549 32.0148 194.07 32.087 193.618 32.2499C193.167 32.4128 192.752 32.6633 192.398 32.9871V43.6368H187.318Z" fill="black"/>
<path d="M212.946 43.6368H207.854V31.501H204.658V28.2578H212.946V43.6368Z" fill="black"/>
<path d="M210.251 21.1344C211.861 21.1344 213.129 22.2666 213.129 23.7143C213.129 25.162 211.876 26.2942 210.251 26.2942C208.626 26.2942 207.412 25.1973 207.412 23.7143C207.412 22.2312 208.665 21.1344 210.251 21.1344Z" fill="black"/>
<path d="M216.829 22.0837H221.921V33.6682H224.035L227.602 28.2519H232.951L228.233 35.4461L233.355 43.6368H227.7L223.987 37.5395H221.924V43.6368H216.829V22.0837Z" fill="black"/>
<path d="M241.888 43.6368H236.799V31.501H233.603V28.2578H241.888V43.6368Z" fill="black"/>
<path d="M239.196 21.1344C240.809 21.1344 242.074 22.2666 242.074 23.7143C242.074 25.162 240.82 26.2942 239.196 26.2942C237.571 26.2942 236.357 25.1973 236.357 23.7143C236.357 22.2312 237.598 21.1344 239.196 21.1344Z" fill="black"/>
<path d="M26.8167 43.06C26.8167 43.3753 26.8167 43.6847 26.799 43.9971C11.9909 43.9882 0 32.1211 0 17.4721C0 17.1598 0 16.8474 0.0176813 16.538C14.8111 16.5439 26.8167 28.4169 26.8167 43.06Z" fill="#377BE1"/>
<path d="M53.6036 17.4721C53.6036 32.1152 41.6127 43.9941 26.8164 43.9941C26.8164 43.6817 26.8164 43.3693 26.8164 43.057C26.8164 28.4139 38.8044 16.535 53.6007 16.535C53.5977 16.8473 53.6036 17.1597 53.6036 17.4721Z" fill="#377BE1"/>
<path d="M26.8166 20.4897C28.7452 20.4665 30.6239 19.8733 32.2163 18.7849C33.8087 17.6964 35.0435 16.1614 35.7656 14.3728C36.4876 12.5842 36.6645 10.622 36.274 8.73317C35.8835 6.84429 34.9431 5.1131 33.5711 3.75742C32.199 2.40174 30.4567 1.48214 28.5633 1.11432C26.6699 0.746494 24.71 0.946887 22.9302 1.69028C21.1504 2.43368 19.6302 3.68686 18.5609 5.29216C17.4916 6.89745 16.921 8.78314 16.9209 10.7119C16.9278 12.004 17.1894 13.2819 17.6906 14.4728C18.1918 15.6636 18.9229 16.744 19.8419 17.6521C20.761 18.5602 21.85 19.2782 23.0468 19.7651C24.2435 20.252 25.5246 20.4983 26.8166 20.4897Z" fill="#00CD69"/>
</g>
<defs>
<clipPath id="clip0_775_37349">
<rect width="242.287" height="44" fill="white"/>
</clipPath>
</defs>
</svg>
