<svg width="18" height="18" viewBox="0 0 18 18" fill="none" xmlns="http://www.w3.org/2000/svg">
<path d="M0.785175 2.85036L3.18144 0.456662C3.47394 0.164199 3.86544 -3.05176e-05 4.27944 -3.05176e-05C4.69344 -3.05176e-05 5.08494 0.161949 5.37745 0.456662L7.95821 3.03259C8.25071 3.32505 8.41496 3.71876 8.41496 4.1327C8.41496 4.5489 8.25296 4.9381 7.95821 5.23282L5.9422 7.25081C6.40146 8.32075 7.06134 9.29288 7.88621 10.1147C8.71196 10.9449 9.67721 11.5995 10.7482 12.063L12.7642 10.045C13.0567 9.7525 13.4482 9.58827 13.8622 9.58827C14.0664 9.58752 14.2687 9.62752 14.4573 9.70594C14.6458 9.78436 14.8168 9.89962 14.9602 10.045L17.5432 12.6209C17.8357 12.9134 18 13.3071 18 13.721C18 14.1372 17.838 14.5264 17.5432 14.8211L15.1492 17.2148C14.6497 17.7143 13.9612 18 13.2547 18C13.1085 18 12.9667 17.9887 12.8227 17.964C9.84371 17.4735 6.8872 15.8875 4.49994 13.5028C2.11493 11.1136 0.530924 8.15745 0.0359211 5.17657C-0.105829 4.33068 0.177673 3.46004 0.785175 2.85036ZM1.63118 4.90886C2.06993 7.56128 3.49644 10.2069 5.6452 12.3554C7.79396 14.5039 10.4377 15.9302 13.0905 16.3689C13.4235 16.4252 13.7655 16.3127 14.0085 16.072L16.3597 13.721L13.8667 11.2261L11.1712 13.9257L11.151 13.946L10.665 13.766C9.19137 13.2243 7.85321 12.3687 6.74322 11.2584C5.63323 10.1482 4.77796 8.8099 4.23669 7.3363L4.05669 6.85036L6.7747 4.13495L4.28169 1.64001L1.93043 3.99097C1.68743 4.23394 1.57493 4.5759 1.63118 4.90886Z" fill="#22A33F"/>
</svg>
