<svg width="50" height="50" viewBox="0 0 50 50" fill="none" xmlns="http://www.w3.org/2000/svg">
<g clip-path="url(#clip0_179_8842)">
<path d="M25.491 0C26.3048 0.130208 27.1225 0.253907 27.9298 0.415365C28.0926 0.447917 28.3204 0.619791 28.353 0.764323C28.935 3.36849 29.0379 5.97266 28.2032 8.54558C27.284 11.3763 25.2189 12.8932 22.3751 13.4401C20.2304 13.842 18.0246 13.7816 15.905 13.263C15.7683 13.2305 15.5769 13.0925 15.5509 12.9727C14.9324 10.2018 14.823 7.4375 15.8451 4.73438C16.8868 1.97526 19.0717 0.669271 21.8608 0.192708C22.2579 0.123697 22.6564 0.0625 23.0548 0H25.491ZM18.116 10.6849C19.5092 10.8399 20.8504 10.8229 22.172 10.4987C23.2514 10.2383 24.2436 9.78126 24.8582 8.79688C25.9767 7.00521 25.965 5.02865 25.7892 3.00651C24.2644 2.85677 22.8178 2.88542 21.3881 3.29297C19.836 3.73568 18.8378 4.7257 18.3933 6.26303C17.978 7.70053 17.9285 9.16667 18.116 10.6849Z" fill="#FFAA46"/>
<path d="M30.7904 49.9998C29.0053 49.8696 27.4767 49.2094 26.0795 48.2016C24.4207 46.9939 23.0145 45.4731 21.9402 43.725C21.8634 43.6039 21.8217 43.3669 21.8881 43.2628C23.4168 40.8695 25.2957 38.8357 27.9298 37.6391C30.3608 36.5375 32.685 36.9294 34.8738 38.3305C36.8347 39.587 38.362 41.2771 39.6003 43.2354C39.6329 43.2931 39.652 43.3573 39.6563 43.4234C39.6606 43.4894 39.6499 43.5556 39.6251 43.6169C38.0118 46.1156 36.0574 48.255 33.2266 49.3878C32.4558 49.6951 31.6042 49.8018 30.7904 49.9998ZM36.1941 43.4646C35.1811 42.2341 34.1108 41.1846 32.7436 40.4698C31.9493 40.0557 31.1016 39.8057 30.2084 39.9815C28.0691 40.4034 26.6603 41.8669 25.3061 43.4386C26.3165 44.6599 27.3894 45.7172 28.7527 46.4203C29.5756 46.8435 30.4454 47.0948 31.3803 46.8943C33.461 46.4516 34.8308 45.0063 36.1954 43.4646H36.1941Z" fill="#22A33F"/>
<path d="M30.3542 12.2277C31.9376 9.77332 33.8217 7.65743 36.5248 6.43608C39.1941 5.23165 41.6603 5.81498 43.9545 7.43868C45.6487 8.65589 47.0833 10.1985 48.1746 11.9764C48.2147 12.0462 48.2384 12.1242 48.2441 12.2045C48.2497 12.2848 48.2371 12.3653 48.2071 12.44C46.7566 14.7225 44.9675 16.6705 42.5131 17.8957C39.6642 19.3163 37.0326 18.7134 34.5704 16.9074C32.8634 15.6509 31.4923 14.0806 30.3542 12.2277ZM33.9168 12.2408C34.9337 13.4725 36.03 14.5415 37.4324 15.2538C38.53 15.8111 39.6589 15.9296 40.8178 15.4543C42.4597 14.7811 43.6681 13.5754 44.7905 12.2408C43.879 11.1275 42.8842 10.1574 41.6655 9.43348C40.1863 8.55457 38.698 8.49728 37.1863 9.35275C35.9077 10.0754 34.8777 11.0728 33.9168 12.2408Z" fill="#22A33F"/>
<path d="M1 17.6054C1.13932 16.5312 1.29559 15.3762 1.43882 14.22C1.48699 13.8385 1.64715 13.6588 2.06122 13.5768C4.25262 13.1445 6.44142 13.0468 8.63413 13.5273C12.0078 14.2682 14.043 16.4778 14.5768 19.9075C14.8896 21.95 14.815 24.0332 14.3568 26.0481C14.3229 26.2031 14.1719 26.4244 14.0391 26.4531C11.4675 27.0208 8.89193 27.1353 6.34245 26.3424C3.45834 25.4465 1.89324 23.3853 1.33725 20.4999C1.16017 19.5846 1.11589 18.6379 1 17.6054ZM11.7617 23.9036C11.9193 22.3971 11.8919 20.9804 11.5013 19.5833C11.0495 17.914 9.9831 16.8853 8.31122 16.4478C7.00914 16.1054 5.68099 16.0872 4.35026 16.1952C4.27847 16.2187 4.21394 16.2603 4.16286 16.3159C4.11178 16.3716 4.07586 16.4394 4.05859 16.5129C4.07292 17.6132 4.02867 18.7265 4.17971 19.8085C4.38284 21.2512 4.987 22.5208 6.39325 23.2187C8.08596 24.0611 9.89325 24.0494 11.7617 23.9036Z" fill="#22A33F"/>
<path d="M43.3646 20.8311C44.4414 20.9834 45.6602 21.1475 46.8802 21.3376C46.9582 21.3552 47.031 21.3906 47.0931 21.441C47.1552 21.4913 47.2049 21.5553 47.2383 21.6279C47.8555 24.3623 47.9596 27.0967 46.9779 29.779C45.9649 32.5498 43.8138 33.9066 41.0182 34.3936C38.9622 34.7345 36.8589 34.6633 34.8307 34.1839C34.7451 34.1627 34.6654 34.1222 34.5977 34.0656C34.53 34.009 34.4761 33.9377 34.4401 33.8571C33.8398 31.2191 33.7422 28.5811 34.6094 25.9795C35.5469 23.1696 37.6276 21.6904 40.4492 21.1618C41.3555 20.9899 42.2839 20.9495 43.3646 20.8311ZM44.6667 23.9066C43.0456 23.7842 41.4687 23.7646 39.9323 24.3154C38.8203 24.7139 37.9922 25.4131 37.5312 26.512C36.8477 28.1449 36.8034 29.8454 37.0026 31.598C38.3659 31.7282 39.6862 31.7152 41 31.4209C42.9531 30.9847 44.1081 29.7933 44.5156 27.8428C44.7899 26.5489 44.8415 25.2178 44.668 23.9066H44.6667Z" fill="#FFAA46"/>
<path d="M24.0716 16.1641C26.0573 17.3932 27.7617 18.8984 29.0573 20.832C30.983 23.7057 30.9843 26.5977 29.0573 29.4727C27.8177 31.3203 26.2031 32.7865 24.3281 33.9687C24.2503 34.0089 24.1643 34.0307 24.0767 34.0325C23.9891 34.0343 23.9023 34.0161 23.8229 33.9792C21.9453 32.8008 20.3281 31.3372 19.0846 29.4922C17.1523 26.6276 17.1315 23.7318 19.0586 20.8542C20.3632 18.8984 22.0755 17.3828 24.0716 16.1641ZM24.0716 30.5911C25.3502 29.5182 26.4857 28.3776 27.181 26.8568C27.5807 25.9857 27.7122 25.0794 27.4323 24.1549C26.8619 22.2708 25.5338 20.9583 24.0729 19.7161C22.8463 20.7266 21.7864 21.8086 21.0781 23.1914C20.4882 24.3359 20.375 25.5052 20.8945 26.707C21.5755 28.2995 22.7526 29.4883 24.0703 30.5872L24.0716 30.5911Z" fill="#22A33F"/>
<path d="M8.8073 31.1084C9.94402 31.2738 11.1029 31.3519 12.2149 31.6214C15.4232 32.4027 17.194 34.5576 17.7787 37.7412C18.1693 39.8753 18.0625 42.0068 17.5821 44.1214C17.5591 44.1989 17.5189 44.2701 17.4646 44.3298C17.4103 44.3896 17.3431 44.4363 17.2682 44.4665C14.5443 45.0733 11.8243 45.1761 9.15889 44.2061C6.43233 43.2165 5.04298 41.1162 4.54298 38.3584C4.17293 36.2573 4.2412 34.1024 4.74351 32.029C4.77408 31.9395 4.8254 31.8585 4.8933 31.7926C4.9612 31.7267 5.04373 31.6779 5.13413 31.6501C6.34247 31.4495 7.56251 31.2868 8.8073 31.1084ZM7.30861 34.2334C7.19142 35.8272 7.1706 37.3766 7.68623 38.8818C8.01696 39.848 8.56381 40.6592 9.48959 41.1488C11.2292 42.068 13.0886 42.0902 15.0196 41.9014C15.112 40.5107 15.1302 39.1748 14.8177 37.8467C14.3659 35.9183 13.1745 34.7842 11.2461 34.3792C9.95121 34.1092 8.62005 34.0595 7.30861 34.2321V34.2334Z" fill="#FFAA46"/>
</g>
<defs>
<clipPath id="clip0_179_8842">
<rect width="50" height="50" fill="white"/>
</clipPath>
</defs>
</svg>
