<svg width="40" height="40" viewBox="0 0 40 40" fill="none" xmlns="http://www.w3.org/2000/svg">
<path d="M11.0184 0.00830078H28.9834V16.4219H23.5456V32.9419H31.7315V30.6163C31.3141 30.6163 30.9229 30.6236 30.5337 30.6163C28.3845 30.5725 26.4074 29.0878 26.0412 26.9772C25.7835 25.4946 25.8659 23.9515 25.7929 22.3792H26.3062C27.2181 22.3792 28.1289 22.3949 29.0397 22.3792C30.54 22.3479 31.8191 22.8373 32.8562 23.9317C32.8792 23.9557 32.9178 23.9641 32.8948 23.9526C33.3539 23.6145 33.7618 23.2671 34.2135 22.9927C34.9522 22.542 35.7785 22.3834 36.6414 22.3813C37.7598 22.3813 38.8772 22.3605 39.9946 22.349V26.4879C39.9748 26.5202 39.9414 26.5505 39.9362 26.5849C39.6545 28.6715 37.7588 30.7258 34.9282 30.6257C34.6611 30.6163 34.3941 30.6257 34.1301 30.6257V32.9711H39.9956V39.9999H0.0363358V32.9481H5.87895V30.6226C5.46892 30.6226 5.08186 30.6288 4.69375 30.6226C2.53928 30.5819 0.653984 29.0951 0.166751 27.0022C0.0384225 26.4524 0.030082 25.8692 0.0165188 25.3006C-0.00643436 24.3417 0.0102527 23.3829 0.0102527 22.4095C1.32693 22.4095 2.60291 22.3542 3.87055 22.4325C4.48716 22.4711 5.12258 22.6881 5.68598 22.9541C6.20242 23.1951 6.63849 23.6093 7.12676 23.9578C8.13044 22.878 9.40957 22.3553 10.9276 22.3845C11.8509 22.4022 12.7753 22.3845 13.6997 22.3845H14.1306C14.1306 23.7001 14.1953 24.9646 14.116 26.2208C14.0449 27.3031 13.6004 28.3273 12.8583 29.1184C12.1163 29.9096 11.1227 30.4187 10.047 30.5589C9.46174 30.6382 8.86495 30.6267 8.26296 30.6632V32.9481H16.4635V16.4073H11.0184V0.00830078ZM26.6234 2.37873H13.3909V14.0504H26.6234V2.37873ZM2.36924 37.6243H37.619V35.329H2.36924V37.6243ZM18.8538 16.425V32.9408H21.1376V16.425H18.8538ZM11.7685 24.7622C9.05589 24.395 7.93326 25.9307 8.28904 28.2448C10.6616 28.5411 12.0815 27.4456 11.7685 24.7622ZM28.2363 24.7685C27.8743 27.4029 29.3673 28.5829 31.7148 28.2292C32.0769 25.6438 30.659 24.4054 28.2395 24.7685H28.2363ZM5.85287 28.2333C6.26185 25.4571 4.54455 24.3845 2.36609 24.7904C2.04474 27.7065 3.78085 28.5317 5.85602 28.2333H5.85287ZM37.6117 24.7664C34.9063 24.3605 33.7514 25.9965 34.1687 28.2511C36.7948 28.5599 37.932 27.1483 37.6148 24.7664H37.6117Z" fill="#22A33F"/>
<path d="M3.28746 0.00830078L4.86916 1.6578C1.47314 5.11537 1.56076 10.5876 4.82219 13.9002L3.17269 15.5277C2.51947 14.8846 1.95777 14.1548 1.50337 13.3587C0.298744 11.2985 -0.202786 8.90224 0.0744553 6.53186C0.351696 4.16148 1.39265 1.94566 3.04018 0.219048C3.1007 0.154362 3.15081 0.0792425 3.20611 0.0103831L3.28746 0.00830078Z" fill="#FFAA46"/>
<path d="M39.9926 8.67732C39.8611 9.36383 39.7693 10.0597 39.5909 10.7337C39.1072 12.5485 38.154 14.2038 36.8272 15.533L35.1766 13.8846C36.7645 12.2288 37.6461 10.186 37.644 7.80197C37.642 5.41798 36.7697 3.39393 35.1182 1.66932L36.7124 0H36.7906C36.8376 0.0605128 36.8793 0.125197 36.9315 0.180493C38.2451 1.53905 39.1803 3.21773 39.6441 5.04969C39.7954 5.64856 39.8809 6.26516 39.9957 6.87237L39.9926 8.67732Z" fill="#FFAA46"/>
<path d="M6.53411 12.231C4.20958 10.0932 3.95395 5.88865 6.48923 3.41284L8.11371 5.04042C6.64471 6.8485 6.63426 8.74318 8.14499 10.618L6.53411 12.231Z" fill="#FFAA46"/>
<path d="M33.4937 3.39697C35.9445 5.75697 35.8934 9.93131 33.4781 12.2287L31.8599 10.6011C33.3581 8.37258 33.3591 6.93906 31.8599 5.02664L33.4937 3.39697Z" fill="#FFAA46"/>
<path d="M15.7334 4.7168H18.0287V7.01211H15.7334V4.7168Z" fill="#FFAA46"/>
</svg>
