<svg width="20" height="19" viewBox="0 0 20 19" fill="none" xmlns="http://www.w3.org/2000/svg">
<path d="M19.5161 3.88289C19.2058 3.12305 18.7584 2.4345 18.1988 1.85576C17.6389 1.27531 16.9787 0.814026 16.2542 0.497005C15.5029 0.166969 14.6971 -0.00196294 13.8835 1.72082e-05C12.7422 1.72082e-05 11.6286 0.330526 10.6609 0.954821C10.4294 1.10416 10.2095 1.26819 10.0011 1.44691C9.79279 1.26819 9.57285 1.10416 9.34135 0.954821C8.37364 0.330526 7.26009 1.72082e-05 6.11876 1.72082e-05C5.2969 1.72082e-05 4.50051 0.166496 3.74811 0.497005C3.02118 0.815273 2.36601 1.27309 1.80345 1.85576C1.24319 2.43384 0.795642 3.12256 0.486167 3.88289C0.164371 4.67366 0 5.5134 0 6.37762C0 7.19287 0.157426 8.0424 0.469961 8.90662C0.731565 9.62885 1.10661 10.378 1.58583 11.1345C2.34518 12.3317 3.38928 13.5803 4.68572 14.846C6.83412 16.9441 8.96167 18.3935 9.05196 18.4522L9.60064 18.8243C9.84372 18.9884 10.1563 18.9884 10.3993 18.8243L10.948 18.4522C11.0383 18.391 13.1635 16.9441 15.3143 14.846C16.6107 13.5803 17.6548 12.3317 18.4141 11.1345C18.8934 10.378 19.2707 9.62885 19.53 8.90662C19.8425 8.0424 20 7.19287 20 6.37762C20.0023 5.5134 19.8379 4.67366 19.5161 3.88289ZM10.0011 16.8878C10.0011 16.8878 1.75946 11.3034 1.75946 6.37762C1.75946 3.88289 3.71107 1.86066 6.11876 1.86066C7.81108 1.86066 9.27884 2.85953 10.0011 4.31867C10.7234 2.85953 12.1912 1.86066 13.8835 1.86066C16.2912 1.86066 18.2428 3.88289 18.2428 6.37762C18.2428 11.3034 10.0011 16.8878 10.0011 16.8878Z" fill="#22A33F"/>
</svg>
