<svg width="60" height="60" viewBox="0 0 60 60" fill="none" xmlns="http://www.w3.org/2000/svg">
<g clip-path="url(#clip0_1450_47530)">
<path d="M37.2817 47.5615H40.7268V53.0109H37.2817V47.5615Z" fill="#22A33F"/>
<path d="M51.5236 53.0141H48.0786V47.5615H51.5236V53.0141Z" fill="#22A33F"/>
<path d="M7.25334 14.5316H9.19041V56.4417L19.8168 56.3994V14.4956H21.7898V12.5679H40.5527V18.2053H44.0761V12.4959H52.8077C52.5744 12.25 52.4334 12.0966 52.2862 11.9478C49.1158 8.76272 45.9464 5.57868 42.778 2.39567C42.6441 2.24705 42.4791 2.12964 42.2948 2.05171C42.1106 1.97379 41.9115 1.93725 41.7116 1.94469C35.3017 1.9593 28.8929 1.96296 22.4851 1.95565H21.7429V-0.00488281H7.21733V1.96818H0V12.5397H7.25334V14.5316ZM40.999 5.70135L44.2875 8.95377H37.7451C38.7567 7.94531 39.8716 6.82255 40.999 5.70135ZM35.6373 5.50404L32.4695 8.67504L29.3031 5.50404H35.6373ZM21.7946 5.48055C22.5212 5.48055 23.2336 5.48055 23.9461 5.48055C24.0605 5.49642 24.1658 5.55182 24.2436 5.63714C25.3398 6.71606 26.4218 7.79968 27.5916 8.96473H21.7976L21.7946 5.48055ZM16.2371 18.8003H12.7638V14.5441H16.2371V18.8003ZM16.2371 33.8833V41.785H12.792V33.8833H16.2371ZM12.7732 22.3894H16.2277V30.3114H12.7732V22.3894ZM16.2386 56.3947H12.7826V45.3756H16.2371L16.2386 56.3947ZM10.7798 3.51375H18.2117V10.9472H10.7798V3.51375ZM7.20639 8.96004H3.52333V5.50404H7.20639V8.96004Z" fill="#FFAA46"/>
<path d="M60 24.5786H47.4632V39.2028C46.306 39.2028 45.2129 39.2247 44.1215 39.1871C43.8244 39.1703 43.5418 39.0533 43.3198 38.8552C41.6568 37.2282 40.0313 35.5667 38.3652 33.9444C38.1321 33.7303 37.831 33.605 37.5149 33.5905C34.8528 33.5623 32.2001 33.5733 29.5428 33.5733H28.9414V56.3998H20.5528L9.92642 56.4421H0V59.9607H60V24.5786ZM56.4688 56.4029H32.5008V37.0935C33.8083 37.0935 35.0924 37.081 36.3733 37.1091C36.5487 37.1091 36.7444 37.2955 36.8885 37.4364C38.5515 39.0885 40.202 40.7531 41.8713 42.3988C42.0408 42.5751 42.267 42.686 42.5101 42.712C45.263 42.7324 48.0175 42.7246 50.772 42.7214C50.8477 42.712 50.9226 42.6969 50.996 42.676V28.0957H56.4688V56.4029Z" fill="#22A33F"/>
</g>
<defs>
<clipPath id="clip0_1450_47530">
<rect width="60" height="60" fill="white"/>
</clipPath>
</defs>
</svg>
