<svg width="24" height="24" viewBox="0 0 24 24" fill="none" xmlns="http://www.w3.org/2000/svg">
<path fill-rule="evenodd" clip-rule="evenodd" d="M12 4.4683C7.84036 4.4683 4.4683 7.84036 4.4683 12C4.4683 16.1596 7.84036 19.5317 12 19.5317C16.1596 19.5317 19.5317 16.1596 19.5317 12C19.5317 7.84036 16.1596 4.4683 12 4.4683ZM3.0989 12C3.0989 7.08406 7.08406 3.0989 12 3.0989C16.9159 3.0989 20.9011 7.08406 20.9011 12C20.9011 16.9159 16.9159 20.9011 12 20.9011C7.08406 20.9011 3.0989 16.9159 3.0989 12Z" fill="white"/>
<path fill-rule="evenodd" clip-rule="evenodd" d="M7.00656 6.03824L17.9618 16.9934L16.9934 17.9618L6.03824 7.00656L7.00656 6.03824Z" fill="white"/>
<path fill-rule="evenodd" clip-rule="evenodd" d="M3 12C3 7.02944 7.02944 3 12 3C16.9706 3 21 7.02944 21 12C21 16.9706 16.9706 21 12 21C7.02944 21 3 16.9706 3 12ZM12 3.1978C7.13868 3.1978 3.1978 7.13868 3.1978 12C3.1978 16.8613 7.13868 20.8022 12 20.8022C16.8613 20.8022 20.8022 16.8613 20.8022 12C20.8022 7.13868 16.8613 3.1978 12 3.1978ZM6.21924 7.32742C5.18606 8.60404 4.5672 10.2297 4.5672 12C4.5672 16.105 7.89498 19.4328 12 19.4328C13.7703 19.4328 15.396 18.8139 16.6726 17.7808L6.21924 7.32742ZM6.07861 7.18679C5.01001 8.49983 4.3694 10.1751 4.3694 12C4.3694 16.2143 7.78574 19.6306 12 19.6306C13.8249 19.6306 15.5002 18.99 16.8132 17.9214L16.9934 18.1016L18.1016 16.9934L17.9214 16.8132C18.99 15.5002 19.6306 13.8249 19.6306 12C19.6306 7.78574 16.2143 4.3694 12 4.3694C10.1751 4.3694 8.49983 5.01001 7.18679 6.07861L7.00656 5.89838L5.89838 7.00656L6.07861 7.18679ZM6.34624 7.17469L16.8253 17.6538C17.1227 17.3997 17.3997 17.1227 17.6538 16.8253L7.17469 6.34624C6.87734 6.60027 6.60027 6.87734 6.34624 7.17469ZM7.0344 6.20595C6.73759 6.46056 6.46056 6.73759 6.20595 7.0344L6.17811 7.00656L7.00656 6.17811L7.0344 6.20595ZM7.32742 6.21924L17.7808 16.6726C18.8139 15.396 19.4328 13.7703 19.4328 12C19.4328 7.89498 16.105 4.5672 12 4.5672C10.2297 4.5672 8.60404 5.18606 7.32742 6.21924ZM17.794 16.9656C17.5394 17.2624 17.2624 17.5394 16.9656 17.794L16.9934 17.8219L17.8219 16.9934L17.794 16.9656Z" fill="white"/>
</svg>
