<svg width="24" height="24" viewBox="0 0 24 24" fill="none" xmlns="http://www.w3.org/2000/svg">
<path d="M4 9.21878C4 6.28722 4 4.82144 4.91072 3.91072C5.82144 3 7.28722 3 10.2188 3H14.3646C17.2962 3 18.762 3 19.6727 3.91072C20.5834 4.82144 20.5834 6.28722 20.5834 9.21878V16.2953C20.5834 19.0765 20.5834 20.467 19.7083 20.8924C18.8333 21.3177 17.7398 20.4586 15.553 18.7403L14.8531 18.1904C13.6235 17.2243 13.0087 16.7412 12.2917 16.7412C11.5748 16.7412 10.9599 17.2243 9.73031 18.1904L9.03044 18.7403C6.84358 20.4586 5.75016 21.3177 4.87508 20.8924C4 20.467 4 19.0765 4 16.2953V9.21878Z" stroke="white" stroke-width="1.5"/>
</svg>
