<svg width="20" height="20" viewBox="0 0 20 20" fill="none" xmlns="http://www.w3.org/2000/svg">
<path d="M16.8179 18.0003H4.16162C4.15912 17.9331 4.15369 17.8655 4.15369 17.7983C4.15369 15.0803 4.15453 12.3624 4.1562 9.64471C4.1562 9.51951 4.12406 9.4423 4.01388 9.36718C3.36367 8.92271 3.01769 8.3038 3.00517 7.51294C2.99599 6.92866 3.001 6.34647 3.00517 5.76345C3.00861 5.68708 3.03238 5.61303 3.07403 5.54893C3.80229 4.40292 4.53473 3.25982 5.2634 2.11339C5.28396 2.07577 5.31516 2.04505 5.35309 2.02508C5.39103 2.00511 5.43401 1.99678 5.47666 2.00112C8.78756 2.00363 12.0996 2.00363 15.4127 2.00112C15.4552 1.99819 15.4977 2.00781 15.5348 2.02881C15.5719 2.04981 15.602 2.08126 15.6214 2.11923C16.3523 3.26497 17.0832 4.40987 17.8141 5.55394C17.8547 5.61877 17.8775 5.69322 17.88 5.76971C17.885 6.34731 17.888 6.92532 17.88 7.50334C17.8708 8.26206 17.5516 8.86846 16.9435 9.31793C16.8967 9.34737 16.8587 9.38907 16.8339 9.4385C16.809 9.48793 16.7982 9.54322 16.8024 9.59839C16.8063 12.337 16.8075 15.0757 16.8058 17.8146C16.807 17.8763 16.8141 17.9406 16.8179 18.0003ZM7.81419 11.135H12.7062V16.9482H15.7491V9.74988C15.0066 9.76032 14.3915 9.49405 13.9023 8.93941C13.4349 9.46609 12.859 9.74738 12.1654 9.74529C11.4718 9.7432 10.9017 9.45607 10.4409 8.94149C9.96975 9.46818 9.39757 9.74654 8.70938 9.74529C8.38911 9.74835 8.07202 9.68157 7.78019 9.5496C7.48835 9.41763 7.22879 9.22364 7.01957 8.98114C6.72743 9.17729 6.47244 9.39848 6.17571 9.53453C5.87898 9.67059 5.533 9.71608 5.20539 9.80247V16.9473H7.81419V11.135ZM4.06062 6.34397C4.06062 6.79678 4.02807 7.23582 4.06897 7.66777C4.12406 8.25205 4.62028 8.67481 5.20164 8.69818C5.48508 8.71113 5.76399 8.62356 5.98916 8.45092C6.21433 8.27828 6.3713 8.03166 6.43237 7.75458C6.45032 7.67403 6.45741 7.5914 6.46951 7.5096H7.49909C7.56628 8.16649 7.9903 8.6335 8.55997 8.69151C8.84686 8.72886 9.13756 8.66111 9.37838 8.50078C9.7302 8.26373 9.90047 7.92193 9.92676 7.51252H10.9622C11.0039 8.27959 11.6153 8.69067 12.1345 8.70069C12.8022 8.71363 13.2613 8.28836 13.3944 7.5096H14.4186C14.4249 7.55551 14.4307 7.59307 14.4349 7.62687C14.5125 8.24537 15.0041 8.69109 15.6176 8.69944C16.2311 8.70778 16.7524 8.27417 16.8204 7.65609C16.8621 7.2955 16.8383 6.92866 16.8438 6.56432C16.8438 6.49337 16.8438 6.42201 16.8438 6.34313L4.06062 6.34397ZM4.48423 5.27891H16.3935C16.3567 5.21548 16.3309 5.16707 16.3012 5.12074C15.8926 4.48054 15.4799 3.84285 15.0767 3.20098C15.0066 3.08329 14.9303 3.04155 14.7925 3.04155C12.0172 3.04614 9.24191 3.05449 6.46701 3.03446C6.05718 3.03154 5.7663 3.10374 5.61689 3.50522C5.60528 3.52844 5.59129 3.5504 5.57515 3.57074L4.48423 5.27891ZM11.6541 12.1763H8.86546V16.9486H11.6541V12.1763Z" fill="#B7BBBF"/>
</svg>
