<svg width="24" height="24" viewBox="0 0 24 24" fill="none" xmlns="http://www.w3.org/2000/svg">
<path d="M3.00046 5C3.07654 5.00282 3.15215 5.00846 3.22822 5.00846H14.6346V8.1896H14.8553C16.0622 8.1896 17.2691 8.1896 18.476 8.18678C18.6066 8.18678 18.6831 8.21871 18.7517 8.33987C19.4721 9.61346 20.2009 10.8819 20.9241 12.1536C20.9677 12.2281 20.9925 12.312 20.9964 12.3983C21.0002 14.1202 21.001 15.8421 20.9988 17.564C20.9988 17.6109 20.9931 17.6546 20.9894 17.7128H19.419C19.3645 18.4238 19.1189 19.0278 18.5206 19.4448C18.1425 19.7084 17.6878 19.8395 17.2273 19.8176C16.6676 19.7984 16.1768 19.603 15.7776 19.201C15.4489 18.8723 15.355 18.6431 15.162 17.7302H8.82834C8.77574 18.4346 8.52403 19.0451 7.91354 19.457C7.52672 19.7182 7.06452 19.8445 6.59862 19.8162C5.70355 19.7782 4.68965 19.1823 4.57554 17.7232H3L3.00046 5ZM13.5714 16.6586V6.08621H4.06837V16.6586C4.28673 16.6586 4.49618 16.6529 4.70516 16.6586C4.75621 16.664 4.80773 16.6543 4.85327 16.6305C4.8988 16.6068 4.9363 16.5702 4.96108 16.5252C5.79042 15.2962 7.61533 15.2915 8.44889 16.5158C8.47553 16.5624 8.51494 16.6004 8.56244 16.6253C8.60994 16.6503 8.66358 16.6612 8.71706 16.6567C10.2749 16.6526 11.8327 16.6517 13.3906 16.6539L13.5714 16.6586ZM19.9356 12.9604H14.6534V16.6581C14.907 16.6581 15.1517 16.6628 15.3954 16.6534C15.4395 16.6534 15.4921 16.5966 15.5217 16.5534C16.4004 15.2793 18.1764 15.2826 19.0677 16.5604C19.095 16.5999 19.1415 16.652 19.1804 16.6543C19.4303 16.6628 19.6806 16.6586 19.9356 16.6586V12.9604ZM14.6525 9.25045V11.8775H19.5411C19.5101 11.8192 19.4899 11.7779 19.4669 11.7366C19.0198 10.9542 18.57 10.1732 18.1285 9.38851C18.067 9.27956 17.9994 9.24763 17.8806 9.24763C16.8672 9.25186 15.8537 9.24763 14.8398 9.24763L14.6525 9.25045ZM17.2912 16.6675C16.6896 16.6675 16.243 17.1146 16.2365 17.7232C16.2303 18.2905 16.7112 18.7732 17.286 18.7775C17.8608 18.7817 18.3474 18.3046 18.353 17.7373C18.3574 17.5962 18.3331 17.4556 18.2814 17.3243C18.2298 17.1929 18.1519 17.0734 18.0525 16.9731C17.9531 16.8729 17.8344 16.7939 17.7035 16.741C17.5726 16.6881 17.4323 16.6625 17.2912 16.6656V16.6675ZM6.70007 16.6675C6.10084 16.6675 5.65048 17.123 5.64578 17.7274C5.64202 18.2909 6.1309 18.776 6.70289 18.7775C6.98099 18.7765 7.24764 18.6666 7.44569 18.4714C7.64374 18.2762 7.75742 18.0111 7.76233 17.733C7.76421 17.1183 7.30868 16.6637 6.69819 16.6656L6.70007 16.6675Z" fill="#86898C"/>
</svg>
