<svg width="24" height="24" viewBox="0 0 24 24" fill="none" xmlns="http://www.w3.org/2000/svg">
<path d="M6 16.4286V5.5C6 5.2643 6 5.14645 6.07322 5.07322C6.14645 5 6.2643 5 6.5 5H18.5072C19.0209 5 19.2778 5 19.3417 5.15433C19.4056 5.30866 19.224 5.49029 18.8607 5.85355L14.2828 10.4314C14.1495 10.5648 14.0828 10.6314 14.0828 10.7143C14.0828 10.7971 14.1495 10.8638 14.2828 10.9971L18.8607 15.575C19.224 15.9383 19.4056 16.1199 19.3417 16.2742C19.2778 16.4286 19.0209 16.4286 18.5072 16.4286H6ZM6 16.4286V21" stroke="white" stroke-width="1.5" stroke-linecap="round"/>
</svg>
