<svg width="13" height="16" viewBox="0 0 13 16" fill="none" xmlns="http://www.w3.org/2000/svg">
<path d="M5.26296 15.9996C4.99363 15.9791 4.7243 15.9599 4.45539 15.9378C3.55136 15.8639 2.6511 15.7578 1.78925 15.4626C1.47811 15.3608 1.1829 15.2156 0.912362 15.0313C0.34364 14.627 0.354074 13.9953 0.907764 13.5673C1.27397 13.2842 1.70532 13.1401 2.14585 13.0353C2.58012 12.9317 3.02273 12.862 3.46159 12.7772C3.51087 12.7676 3.56013 12.7568 3.61942 12.7443C3.30124 12.3952 2.98599 12.0636 2.68701 11.7183C1.78048 10.6702 0.992528 9.54696 0.456793 8.25585C-1.00468 4.74163 1.20841 0.929687 4.71178 0.148007C5.4972 -0.0289558 6.31002 -0.0474321 7.10267 0.0936604C7.89532 0.234753 8.65185 0.532578 9.32796 0.969695C10.0041 1.40681 10.5862 1.97444 11.0402 2.63932C11.4942 3.30421 11.811 4.053 11.972 4.84185C12.2463 6.1672 12.0271 7.42699 11.4625 8.64168C10.9356 9.77495 10.2153 10.7784 9.40061 11.7179C9.10122 12.0632 8.78679 12.3952 8.46902 12.7447C8.7847 12.799 9.09536 12.8282 9.39392 12.9092C9.86995 13.0345 10.3439 13.176 10.8045 13.348C11.0015 13.4215 11.1844 13.5681 11.3369 13.7188C11.6868 14.0642 11.6884 14.5648 11.3256 14.8989C11.12 15.0813 10.8865 15.2296 10.6341 15.3382C9.97685 15.6305 9.272 15.7532 8.56381 15.8392C8.02724 15.9044 7.48566 15.9324 6.94617 15.9779C6.90441 15.9816 6.86515 15.9925 6.82507 16L5.26296 15.9996ZM6.02543 13.6884C6.10895 13.619 6.16407 13.579 6.21292 13.533C6.84261 12.9418 7.49276 12.3701 8.09614 11.7534C9.03524 10.793 9.85993 9.74196 10.4763 8.53813C11.0191 7.47459 11.2859 6.36679 11.0842 5.16128C10.6967 2.84213 8.60974 0.995245 6.25928 0.937621C4.50175 0.895865 3.05906 1.56397 1.98634 2.95571C1.10277 4.099 0.7683 5.40598 1.01466 6.83739C1.1558 7.6579 1.50697 8.40158 1.93121 9.11102C2.61686 10.2585 3.4762 11.2673 4.42658 12.201C4.94185 12.7071 5.4826 13.1869 6.02543 13.6884ZM10.5861 14.3406L10.5811 14.2884C10.5381 14.2601 10.4936 14.234 10.4479 14.2103C10.3347 14.1581 10.222 14.1026 10.1046 14.0621C9.32085 13.7936 8.50744 13.6817 7.68651 13.619C7.60731 13.6168 7.52979 13.6422 7.46729 13.6909C7.02717 14.0489 6.59095 14.4116 6.15864 14.779C6.07512 14.8509 6.01625 14.8492 5.93274 14.779C5.49986 14.413 5.06392 14.05 4.62492 13.69C4.57732 13.6512 4.50759 13.6107 4.45122 13.6149C3.74428 13.6646 3.04235 13.7573 2.3588 13.9489C2.06651 14.0324 1.78591 14.1535 1.49988 14.2579V14.3277C1.64853 14.3953 1.79217 14.4755 1.94625 14.5293C2.90915 14.8667 3.91298 14.9665 4.92182 15.0304C5.8321 15.0865 6.74527 15.0754 7.65394 14.9974C8.4377 14.9319 9.21729 14.8304 9.96975 14.5903C10.1785 14.5206 10.3794 14.4241 10.5844 14.3406H10.5861Z" fill="#B7BBBF"/>
<path d="M6.0459 2.09762C7.09195 2.10028 8.09422 2.51782 8.83275 3.25863C9.57129 3.99943 9.98576 5.00298 9.9852 6.04903C9.9827 8.22371 8.20178 10 6.03504 9.98917C4.98895 9.98442 3.98747 9.56487 3.25036 8.82259C2.51324 8.0803 2.1007 7.07592 2.10326 6.02982C2.10952 3.86099 3.87999 2.0947 6.0459 2.09762ZM3.03943 6.04444C3.04031 6.8398 3.35596 7.60248 3.91743 8.16583C4.4789 8.72917 5.24052 9.04737 6.03587 9.0509C7.69152 9.05758 9.0461 7.70342 9.0461 6.04152C9.04522 5.24608 8.72951 4.48334 8.16795 3.91998C7.60639 3.35663 6.84467 3.03847 6.04924 3.03505C5.25128 3.03527 4.48609 3.35245 3.92197 3.9168C3.35784 4.48116 3.04099 5.24648 3.04111 6.04444H3.03943Z" fill="#B7BBBF"/>
</svg>
