<svg width="24" height="24" viewBox="0 0 24 24" fill="none" xmlns="http://www.w3.org/2000/svg">
<path d="M20.9971 11.4779V12.5352C20.9702 12.766 20.9469 12.9977 20.9147 13.2277C20.6676 14.9898 19.9817 16.562 18.8002 17.8929C16.7495 20.1986 14.1645 21.2237 11.0954 20.9594C9.34254 20.8105 7.75401 20.1765 6.39896 19.0501C3.65316 16.7673 2.56637 13.8361 3.15535 10.3171C3.45535 8.51671 4.30688 6.9731 5.59013 5.67796C6.9355 4.31938 8.55223 3.46387 10.4412 3.13877C10.7804 3.08018 11.1236 3.04581 11.4654 3H12.5227C12.7544 3.02731 12.987 3.05066 13.2178 3.08326C15.0125 3.33392 16.5976 4.05242 17.9509 5.25549C19.5183 6.6502 20.4997 8.38323 20.861 10.4537C20.9178 10.7947 20.9517 11.1356 20.9971 11.4779ZM19.3147 9.25106C19.0245 8.47632 18.6116 7.75329 18.0918 7.10967C17.7566 7.41231 17.3544 7.53081 16.9464 7.37398C16.4773 7.19381 16.0786 7.26077 15.6443 7.47398C15.2293 7.67839 14.7852 7.64535 14.4262 7.32685C14.1956 7.12067 13.9947 6.88346 13.8293 6.62201C13.6275 6.30483 13.6465 5.94888 13.876 5.64844C14.0989 5.35637 14.3628 5.09559 14.609 4.82158C14.65 4.77753 14.6918 4.73347 14.739 4.68105C13.5412 4.21013 11.3324 4.01321 10.6729 4.32026C10.7646 4.56431 10.8646 4.80748 10.9478 5.05638C11.0963 5.4969 11.2892 5.93743 11.3654 6.39073C11.4998 7.19865 11.206 8.0709 10.1086 8.13609C9.82022 8.14628 9.54403 8.25513 9.32624 8.44446C9.2115 8.53522 9.08455 8.60936 8.94914 8.66472C8.69055 8.78234 8.41655 8.78323 8.13858 8.75283C7.93374 8.72992 7.72448 8.696 7.51655 8.81494C7.55224 8.84225 7.57428 8.85899 7.59762 8.87706C8.02053 9.17573 8.49894 9.32243 9.00731 9.36472C9.90818 9.43961 10.5386 9.85943 10.8271 10.7409C10.8606 10.8431 10.9152 10.9387 10.9641 11.0493C11.0624 10.9832 11.1337 10.9334 11.2068 10.8859C11.4661 10.7098 11.7784 10.6291 12.0905 10.6572C12.6804 10.7127 13.1416 11.0096 13.5126 11.4475C14.1372 12.1814 14.0355 13.1259 13.3557 13.6594C12.9645 13.9678 12.6029 14.3114 12.2218 14.6325C12.0381 14.7871 11.9535 14.9625 12.0306 15.2021C12.0545 15.2867 12.0708 15.3733 12.0795 15.4607C12.154 16.0413 11.8857 16.4691 11.343 16.6387C11.0346 16.7352 11.0505 16.7378 10.9963 17.0669C10.9421 17.3959 10.8989 17.747 10.7672 18.0514C10.4196 18.8541 9.48174 18.9766 8.90156 18.3241C8.66658 18.0575 8.52953 17.7188 8.51303 17.3638C8.49026 16.9527 8.3372 16.5596 8.07603 16.2413C7.90819 16.029 7.78219 15.7779 7.66985 15.5294C7.52492 15.2092 7.55929 14.8616 7.59541 14.5237C7.62889 14.2079 7.5421 13.951 7.30907 13.7339C7.18924 13.6224 7.08616 13.4924 6.97691 13.3704C6.67295 13.0312 6.49234 12.6391 6.48265 12.181C6.47825 12.0048 6.48793 11.8286 6.49939 11.6524C6.5082 11.5893 6.49859 11.525 6.4717 11.4672C6.44482 11.4094 6.40181 11.3607 6.34785 11.3268C5.77404 10.919 5.24744 10.4486 4.77781 9.92419C4.69895 9.83608 4.62495 9.74269 4.54169 9.64357C3.47033 12.8621 4.66768 16.9479 8.30642 18.9065C11.7553 20.7624 15.6632 19.6321 17.6641 17.3647L17.6227 17.3325C16.8619 16.7158 16.6808 16.0858 16.9879 15.1545C17.094 14.833 17.2081 14.5101 17.2729 14.1792C17.3566 13.7638 17.2698 13.6294 16.8733 13.4841C16.2909 13.2679 15.7378 12.9799 15.2266 12.6268C14.8068 12.3405 14.5597 11.9577 14.5954 11.4295C14.6473 10.659 14.9302 9.98102 15.4632 9.42551C15.8861 8.98499 16.4169 8.759 17.0354 8.85283C17.3412 8.9049 17.6404 8.99043 17.9275 9.10789C18.3742 9.28542 18.8249 9.32375 19.3147 9.25106ZM9.53019 4.59074C9.51746 4.58925 9.50462 4.58925 9.49188 4.59074C7.64461 5.23685 6.2217 6.40204 5.22317 8.08631C5.20379 8.11847 5.17912 8.16869 5.19013 8.19556C5.33066 8.50657 5.38705 8.85062 5.63419 9.12067C6.0714 9.60239 6.55873 10.0361 7.08792 10.4145C7.50202 10.7088 7.68924 11.1017 7.66809 11.6039C7.66148 11.7621 7.64476 11.9229 7.66547 12.0779C7.68529 12.2224 7.71701 12.3841 7.79762 12.4977C7.97383 12.7431 8.19672 12.9568 8.38747 13.1938C8.65328 13.5123 8.79072 13.9185 8.77293 14.333C8.73196 15.3206 8.67646 15.0612 9.21875 15.8277C9.45425 16.1508 9.59892 16.5311 9.6377 16.929C9.654 17.0977 9.68879 17.2642 9.71522 17.4321H9.76941C9.79408 17.2382 9.81742 17.044 9.84297 16.8501C9.89187 16.477 9.98835 16.1158 10.2835 15.8642C10.4571 15.7171 10.6756 15.6224 10.891 15.4938C10.891 15.5109 10.8949 15.4938 10.891 15.4766C10.687 14.7435 10.9474 14.1709 11.5024 13.6986C11.8817 13.3757 12.2566 13.048 12.6372 12.7264C12.7469 12.6339 12.78 12.5255 12.728 12.3986C12.6165 12.1259 12.3914 11.9762 12.1333 11.8594C11.9284 11.7665 11.8024 11.9088 11.6593 12.0008C11.4073 12.1634 11.1408 12.2744 10.8333 12.2308C10.3826 12.1665 10.0844 11.8947 9.88042 11.5066C9.78571 11.3255 9.71435 11.1325 9.63506 10.944C9.55576 10.7555 9.42757 10.6356 9.22492 10.5986C9.01171 10.5621 8.79805 10.5299 8.5844 10.496C7.77691 10.3665 7.05445 10.0555 6.47648 9.46516C6.02141 9.00128 6.0866 8.34181 6.61171 7.95636C7.09629 7.60129 7.64696 7.51055 8.22933 7.58455C8.31524 7.5995 8.40341 7.59491 8.4873 7.57112C8.57119 7.54732 8.64864 7.50494 8.71391 7.44711C9.02977 7.17398 9.39805 7.0339 9.81522 6.99337C10.2324 6.95284 10.2707 6.88764 10.1963 6.46474C10.1953 6.45301 10.1934 6.44137 10.1906 6.42994C9.97249 5.81276 9.75002 5.19779 9.53019 4.59074ZM19.6711 10.4431C19.6537 10.4359 19.6355 10.4305 19.6169 10.4273C19.5702 10.4273 19.5235 10.4343 19.4768 10.4365C18.9204 10.4678 18.3645 10.5 17.824 10.3123C17.5478 10.2167 17.2694 10.1268 16.9918 10.0352C16.7623 9.95943 16.5672 10.0299 16.3879 10.1753C16.1271 10.3867 15.9874 10.6748 15.8786 10.981C15.6844 11.5281 15.6901 11.5762 16.2015 11.8506C16.6421 12.0876 17.1086 12.2823 17.561 12.5008C17.983 12.7043 18.279 13.0189 18.398 13.4823C18.5231 13.9669 18.4663 14.4453 18.3152 14.9171C18.2222 15.2061 18.1169 15.4929 18.0469 15.788C17.9751 16.0915 18.1389 16.3308 18.4526 16.4277C19.6711 14.5955 20.0649 12.5977 19.6711 10.4431ZM14.9376 6.17003C15.1169 6.43919 15.1244 6.44139 15.3936 6.31584C15.457 6.28632 15.5235 6.26165 15.5857 6.22773C15.7801 6.12349 15.9944 6.06124 16.2144 6.045C16.4345 6.02877 16.6555 6.0589 16.8632 6.13346C16.9852 6.17399 17.1103 6.20615 17.2341 6.24227L17.2658 6.18148L15.9566 5.22422L14.9376 6.17003Z" fill="#86898C"/>
</svg>
