<svg width="15" height="16" viewBox="0 0 15 16" fill="none" xmlns="http://www.w3.org/2000/svg">
<path d="M13.8179 16.0003H1.16162C1.15912 15.9331 1.15369 15.8655 1.15369 15.7983C1.15369 13.0803 1.15453 10.3624 1.1562 7.64471C1.1562 7.51951 1.12406 7.4423 1.01388 7.36718C0.363666 6.92271 0.0176936 6.3038 0.0051734 5.51294C-0.00400809 4.92866 0.000999992 4.34647 0.0051734 3.76345C0.00860746 3.68708 0.0323768 3.61303 0.0740305 3.54893C0.802289 2.40292 1.53473 1.25982 2.2634 0.113388C2.28396 0.0757675 2.31516 0.0450489 2.35309 0.0250791C2.39103 0.00510934 2.43401 -0.00322397 2.47666 0.00112294C5.78756 0.00362698 9.09957 0.00362698 12.4127 0.00112294C12.4552 -0.00181496 12.4977 0.00781457 12.5348 0.0288137C12.5719 0.0498128 12.602 0.0812551 12.6214 0.11923C13.3523 1.26497 14.0832 2.40987 14.8141 3.55394C14.8547 3.61877 14.8775 3.69322 14.88 3.76971C14.885 4.34731 14.888 4.92532 14.88 5.50334C14.8708 6.26206 14.5516 6.86846 13.9435 7.31793C13.8967 7.34737 13.8587 7.38907 13.8339 7.4385C13.809 7.48793 13.7982 7.54322 13.8024 7.59839C13.8063 10.337 13.8075 13.0757 13.8058 15.8146C13.807 15.8763 13.8141 15.9406 13.8179 16.0003ZM4.81419 9.13503H9.70624V14.9482H12.7491V7.74988C12.0066 7.76032 11.3915 7.49405 10.9023 6.93941C10.4349 7.46609 9.85899 7.74738 9.16537 7.74529C8.47175 7.7432 7.90167 7.45607 7.44093 6.94149C6.96975 7.46818 6.39757 7.74654 5.70938 7.74529C5.38911 7.74835 5.07202 7.68157 4.78019 7.5496C4.48835 7.41763 4.22879 7.22364 4.01957 6.98114C3.72743 7.17729 3.47244 7.39848 3.17571 7.53453C2.87898 7.67059 2.533 7.71608 2.20539 7.80247V14.9473H4.81419V9.13503ZM1.06062 4.34397C1.06062 4.79678 1.02807 5.23582 1.06897 5.66777C1.12406 6.25205 1.62028 6.67481 2.20164 6.69818C2.48508 6.71113 2.76399 6.62356 2.98916 6.45092C3.21433 6.27828 3.3713 6.03166 3.43237 5.75458C3.45032 5.67403 3.45741 5.5914 3.46951 5.5096H4.49909C4.56628 6.16649 4.9903 6.6335 5.55997 6.69151C5.84686 6.72886 6.13756 6.66111 6.37838 6.50078C6.7302 6.26373 6.90047 5.92193 6.92676 5.51252H7.96219C8.00392 6.27959 8.61532 6.69067 9.13449 6.70069C9.80223 6.71363 10.2613 6.28836 10.3944 5.5096H11.4186C11.4249 5.55551 11.4307 5.59307 11.4349 5.62687C11.5125 6.24537 12.0041 6.69109 12.6176 6.69944C13.2311 6.70778 13.7524 6.27417 13.8204 5.65609C13.8621 5.2955 13.8383 4.92866 13.8438 4.56432C13.8438 4.49337 13.8438 4.42201 13.8438 4.34313L1.06062 4.34397ZM1.48423 3.27891H13.3935C13.3567 3.21548 13.3309 3.16707 13.3012 3.12074C12.8926 2.48054 12.4799 1.84285 12.0767 1.20098C12.0066 1.08329 11.9303 1.04155 11.7925 1.04155C9.01722 1.04614 6.24191 1.05449 3.46701 1.03446C3.05718 1.03154 2.7663 1.10374 2.61689 1.50522C2.60528 1.52844 2.59129 1.5504 2.57515 1.57074L1.48423 3.27891ZM8.65413 10.1763H5.86546V14.9486H8.65413V10.1763Z" fill="#B7BBBF"/>
</svg>
