<svg width="50" height="50" viewBox="0 0 50 50" fill="none" xmlns="http://www.w3.org/2000/svg">
<path d="M39.6762 0C39.5872 1.71199 39.6537 3.39262 40.6395 4.89139C41.8648 6.75889 43.5731 7.80866 45.8168 7.93408C46.3975 7.96794 46.982 7.93408 47.5827 7.93408C47.5965 8.13601 47.6128 8.26268 47.6128 8.38935C47.6128 11.6503 47.6455 14.9112 47.6003 18.1721C47.4937 25.9068 45.038 32.8337 40.282 38.9292C36.2949 44.0375 31.2179 47.6772 25.1513 49.9385C24.9284 50.0164 24.6857 50.0164 24.4628 49.9385C13.0696 45.4477 5.86925 37.2644 2.86167 25.3888C2.23457 22.9005 1.99751 20.3519 2.00002 17.7846C2.00002 14.6717 2.00002 11.5587 2.00002 8.44579C2.00002 8.30281 2.01381 8.15984 2.0251 7.94411C2.66349 7.94411 3.27932 7.96669 3.89513 7.94411C7.10714 7.80364 9.84129 5.02935 9.93787 1.81859C9.95668 1.21658 9.93787 0.613305 9.93787 0.0100338L39.6762 0ZM4.95869 10.8012C4.95117 10.9266 4.93986 11.0257 4.93986 11.1223C4.93986 13.371 4.901 15.6211 4.95618 17.8686C4.97658 19.3833 5.08966 20.8954 5.29481 22.3963C5.93652 26.8097 7.53348 31.03 9.97424 34.7627C13.5763 40.2929 18.4301 44.3084 24.5355 46.8093C24.6953 46.8747 24.8732 46.881 25.0372 46.8269C27.8986 45.6802 30.5734 44.1141 32.9738 42.1801C36.4228 39.3995 39.2439 35.9201 41.2515 31.9709C43.1905 28.1882 44.3632 24.1635 44.5664 19.9105C44.7119 16.9668 44.6466 14.0157 44.6717 11.0646C44.6671 10.98 44.6545 10.896 44.6341 10.8137C40.3385 9.84799 37.7498 7.23047 36.7928 2.95365H12.81C12.0838 7.09627 8.90817 10.1013 4.95869 10.8012Z" fill="#22A33F"/>
<path d="M24.8137 8.33789C28.5098 11.5474 31.6642 15.0905 33.5781 19.5856C34.9727 22.859 35.1922 26.1914 33.6759 29.485C32.2587 32.564 29.9296 34.5984 26.547 35.3057C26.454 35.3316 26.3623 35.3622 26.2723 35.3973V39.1599H23.3639V35.3973C22.9776 35.3007 22.6276 35.2342 22.2903 35.1251C18.2768 33.8345 16.0117 30.9863 15.1413 26.9628C14.612 24.5133 14.9958 22.1266 15.9415 19.8377C17.8454 15.2184 21.0498 11.5988 24.8137 8.33789ZM26.2799 32.3471C27.736 32.0033 29.0287 31.1673 29.9396 29.9804C31.92 27.4431 32.2185 24.6199 31.2214 21.6274C30.3033 18.8757 28.6516 16.5604 26.7753 14.3932C26.162 13.6833 25.5023 13.0136 24.8012 12.261C23.9232 13.2393 23.0679 14.131 22.2827 15.0805C20.5833 17.1374 19.1021 19.336 18.3182 21.9221C17.434 24.8344 17.7902 27.566 19.6978 29.9942C20.6079 31.1739 21.8954 32.0054 23.345 32.3496C23.345 31.2622 23.2886 30.2174 23.3626 29.1802C23.419 28.3938 23.172 27.8959 22.5072 27.4682C21.5979 26.8813 20.7514 26.1877 19.8559 25.5179L21.603 23.1713L23.3588 24.4569V20.8912H26.2761V24.4431L28.0207 23.1713L29.7565 25.5054C29.6123 25.6233 29.5057 25.7174 29.389 25.8026C28.4497 26.5037 27.5077 27.1998 26.5733 27.9097C26.4479 28.0063 26.2937 28.1756 26.2924 28.3136C26.2711 29.6418 26.2799 30.9737 26.2799 32.3471Z" fill="#FFAA46"/>
</svg>
