<svg width="40" height="40" viewBox="0 0 40 40" fill="none" xmlns="http://www.w3.org/2000/svg">
<path d="M39.7117 22.6185C38.7456 19.3842 36.6215 17.3748 33.3194 16.6289C33.2432 16.6111 33.1671 16.5955 33.0909 16.5767C33.0534 16.5684 33.0168 16.5558 32.9365 16.5318V16.1218C32.9365 14.2741 32.9449 12.4264 32.9271 10.5787C32.9203 10.3385 32.8422 10.1057 32.7028 9.90998C30.3018 6.68755 27.8946 3.46929 25.481 0.255213C25.4255 0.170611 25.3483 0.10246 25.2575 0.0578669C25.1667 0.0132736 25.0655 -0.00612707 24.9646 0.00168979C19.3057 0.0072541 13.6461 0.0072541 7.98583 0.00168979C7.87847 -0.00556133 7.77115 0.0159455 7.67487 0.0639928C7.5786 0.11204 7.49684 0.184889 7.43809 0.275036C5.02457 3.50511 2.60967 6.73415 0.193373 9.96214C0.0697556 10.1534 0.00581035 10.3771 0.00972396 10.6048C-1.35783e-05 20.4036 -0.00242962 30.202 0.00243914 40H39.9862V23.908C39.8964 23.4771 39.8369 23.039 39.7117 22.6185ZM23.9328 2.36269C23.9875 2.3675 24.0407 2.38305 24.0894 2.40848C24.1381 2.4339 24.1813 2.46869 24.2165 2.51085C25.913 4.763 27.6052 7.01897 29.2933 9.27878C29.3054 9.31243 29.3131 9.34749 29.3163 9.38311C29.2329 9.39894 29.1485 9.40939 29.0638 9.41441C27.2307 9.41441 25.3976 9.41441 23.5645 9.41441C23.3496 9.41441 23.2129 9.38624 23.142 9.13585C22.5264 6.96264 21.8963 4.79464 21.2724 2.62457C21.2542 2.53534 21.2413 2.44511 21.2337 2.35435C22.1665 2.35539 23.0491 2.35122 23.9328 2.36269ZM12.9728 6.55366C13.338 5.28187 13.7125 4.01112 14.0673 2.7362C14.1434 2.45972 14.2488 2.34078 14.5639 2.346C15.8503 2.36791 17.1377 2.346 18.4241 2.36478C18.5535 2.36478 18.7684 2.46911 18.7976 2.57344C19.4632 4.8249 20.1091 7.08261 20.7695 9.38102H12.1643C12.4386 8.42013 12.7047 7.48638 12.9728 6.55366ZM5.04368 7.40396C6.23653 5.81187 7.42764 4.21908 8.61701 2.62561C8.67455 2.53384 8.75614 2.45957 8.85287 2.41084C8.94961 2.3621 9.05782 2.34077 9.16581 2.34913C10.0078 2.36582 10.8507 2.35539 11.7396 2.35539C11.4402 3.39348 11.1523 4.3888 10.8654 5.38098C10.5096 6.61626 10.1507 7.85049 9.79908 9.08681C9.74587 9.27356 9.70312 9.41545 9.45272 9.41441C7.54138 9.40397 5.629 9.40606 3.71453 9.40293C3.66515 9.39343 3.61662 9.37982 3.5695 9.36224L5.04368 7.40396ZM23.5196 37.1549V37.6265H14.1445V37.6192H11.7449V37.6275H7.07711H4.67231H2.37703V11.8078H3.81051H11.7396H14.1393V11.7942H30.5515V16.4891C29.8421 16.7217 29.0961 16.8814 28.4263 17.2017C25.2692 18.7103 23.5885 21.2434 23.5363 24.7416C23.4695 28.8752 23.5165 33.0151 23.5165 37.1549H23.5196ZM37.6178 37.615H25.8869V27.0776H37.6147L37.6178 37.615ZM25.889 24.6686C26.0017 21.2612 28.516 18.8021 31.7962 18.8522C35.1035 18.9033 37.5844 21.3665 37.6209 24.6686H25.889Z" fill="#22A33F"/>
<path d="M6.02246 11.8079V37.637H8.42207V35.3251H13.0825V37.6287H15.4821V11.8173H13.0825V14.1188H8.43353V11.8162L6.02246 11.8079ZM8.41682 16.5111H13.0835V18.8126H8.41682V16.5111ZM13.0825 21.1966V23.5086H8.44606V21.1966H13.0825ZM8.421 28.2066V25.9061H13.0742V28.2066H8.421ZM13.0846 32.9359H8.43353V30.6291H13.0856L13.0846 32.9359Z" fill="#FFAA46"/>
</svg>
