<svg width="40" height="40" viewBox="0 0 40 40" fill="none" xmlns="http://www.w3.org/2000/svg">
<path d="M40 20C40 31.0457 31.0457 40 20 40C8.95431 40 0 31.0457 0 20C0 8.95431 8.95431 0 20 0C31.0457 0 40 8.95431 40 20Z" fill="#EDEFF5"/>
<path d="M20.0092 35.3319C20.0092 35.5259 20.0092 35.7162 19.9984 35.9084C10.8982 35.903 3.5293 28.6015 3.5293 19.5884C3.5293 19.3962 3.5293 19.2041 3.54016 19.0137C12.6313 19.0173 20.0092 26.3224 20.0092 35.3319Z" fill="#377BE1"/>
<path d="M36.4716 19.5863C36.4716 28.5958 29.1027 35.9045 20.0098 35.9045C20.0098 35.7123 20.0098 35.5201 20.0098 35.3279C20.0098 26.3185 27.3768 19.0098 36.4698 19.0098C36.468 19.202 36.4716 19.3941 36.4716 19.5863Z" fill="#377BE1"/>
<path d="M20.0051 21.4436C21.1903 21.4293 22.3449 21.0644 23.3235 20.3947C24.302 19.725 25.0609 18.7805 25.5046 17.68C25.9483 16.5796 26.057 15.3723 25.8171 14.2102C25.5771 13.048 24.9992 11.9828 24.156 11.1487C23.3129 10.3146 22.2421 9.74882 21.0785 9.52251C19.915 9.2962 18.7105 9.4195 17.6168 9.87689C16.523 10.3343 15.5888 11.1053 14.9317 12.093C14.2746 13.0807 13.9239 14.2409 13.9238 15.4276C13.9281 16.2226 14.0888 17.0089 14.3968 17.7416C14.7049 18.4743 15.1541 19.139 15.7189 19.6977C16.2837 20.2564 16.953 20.6982 17.6884 20.9978C18.4239 21.2974 19.2111 21.4489 20.0051 21.4436Z" fill="#00CD69"/>
</svg>
