<svg width="60" height="60" viewBox="0 0 60 60" fill="none" xmlns="http://www.w3.org/2000/svg">
<g clip-path="url(#clip0_1425_48677)">
<path d="M36.0895 0C36.3669 1.33539 36.6574 2.66784 36.9128 4.00616C36.9891 4.41118 37.1579 4.60782 37.5644 4.76631C39.2506 5.42079 40.9177 6.12664 42.5775 6.84716C42.8842 6.9807 43.0852 6.99391 43.3611 6.80461C44.5043 6.01952 45.6622 5.26084 46.7497 4.53591L55.4565 13.2409C54.7653 14.2798 54.0198 15.4201 53.2552 16.5412C53.0336 16.8626 53.0116 17.0988 53.1789 17.4774C53.897 19.0956 54.5765 20.7303 55.2173 22.3817C55.3787 22.7955 55.5637 23.0054 56.0025 23.0817C57.1941 23.29 58.374 23.5527 59.5627 23.7743C59.8562 23.8271 60.0029 23.899 60.0029 24.2424C59.9897 28.1473 59.9927 32.0522 59.9897 35.9586C59.9789 36.0172 59.9627 36.0747 59.9413 36.1303C58.6748 36.3857 57.3819 36.6645 56.0802 36.8963C55.6106 36.98 55.3787 37.1663 55.1997 37.6403C54.5687 39.2927 53.8789 40.923 53.1628 42.5446C53.016 42.8718 52.9984 43.0846 53.2039 43.381C53.989 44.5198 54.7462 45.6776 55.4771 46.7738L46.7849 55.47C45.7914 54.8096 44.6878 54.1184 43.637 53.3554C43.1557 53.0046 42.8093 53.0472 42.2884 53.2849C40.7856 53.9732 39.252 54.5983 37.7038 55.1779C37.2239 55.3584 36.9862 55.5639 36.9011 56.0746C36.7044 57.2676 36.4432 58.4489 36.204 59.6332C36.172 59.7543 36.1328 59.8733 36.0866 59.9897H33.1515C30.2429 59.9897 27.3328 59.9809 24.4226 60C23.9824 60 23.8268 59.8797 23.7535 59.438C23.5597 58.264 23.2897 57.1047 23.074 55.9352C23.0035 55.5477 22.8201 55.376 22.4415 55.2278C20.7744 54.5792 19.1219 53.888 17.4812 53.1734C17.1407 53.0266 16.9133 52.987 16.5919 53.2101C15.4722 53.9922 14.326 54.7362 13.2606 55.448C10.3622 52.5483 7.48293 49.6706 4.54933 46.7371C5.23907 45.7026 5.99339 44.5462 6.77852 43.4119C6.99718 43.0963 6.98103 42.8718 6.82841 42.5226C6.10785 40.8849 5.41664 39.2325 4.77386 37.564C4.61537 37.1561 4.41872 36.9888 4.01368 36.9125C2.67529 36.6557 1.34278 36.3666 0.00732422 36.0892V23.9093C1.34278 23.632 2.67383 23.3429 4.01368 23.0861C4.41725 23.0098 4.61537 22.8439 4.77239 22.436C5.41811 20.7675 6.11078 19.1166 6.82694 17.4774C6.97369 17.1311 7.00011 16.9051 6.77998 16.5896C5.99486 15.4553 5.24054 14.2975 4.54346 13.2526L13.2503 4.54472C14.3378 5.26965 15.4956 6.02832 16.6374 6.81341C16.9162 7.00418 17.1173 6.9851 17.4225 6.85303C19.0823 6.13398 20.7479 5.42813 22.4341 4.77218C22.8406 4.61516 23.0079 4.41705 23.0843 4.0135C23.3411 2.67371 23.6302 1.34272 23.9075 0.00733551L36.0895 0ZM33.2396 56.4561C33.4788 55.2821 33.7371 54.1625 33.9205 53.0281C33.9924 52.5879 34.214 52.4602 34.5868 52.381C37.4171 51.7898 40.1113 50.6723 42.529 49.0865C42.9488 48.8121 43.2261 48.8547 43.6047 49.1217C44.5234 49.7718 45.4714 50.3808 46.3035 50.9355L50.9336 46.3101C50.3363 45.4135 49.7126 44.4464 49.0522 43.5058C48.8306 43.1903 48.8071 42.9687 49.0273 42.6253C50.6511 40.1597 51.7911 37.4077 52.3865 34.5161C52.4657 34.1302 52.6462 33.9834 53.0292 33.9159C54.1739 33.7149 55.3098 33.4625 56.4383 33.2321V26.743C55.2804 26.5067 54.1592 26.2484 53.0248 26.065C52.5846 25.9931 52.4569 25.7715 52.3776 25.3988C51.7871 22.5665 50.6695 19.8705 49.083 17.451C48.8086 17.0313 48.8512 16.754 49.1183 16.3754C49.7684 15.4568 50.3774 14.5088 50.9321 13.6782L46.3094 9.04542C45.4098 9.64414 44.4427 10.2678 43.502 10.9282C43.1865 11.1498 42.9649 11.1732 42.6215 10.9531C40.1585 9.33387 37.4106 8.19654 34.5237 7.60144C34.1377 7.5222 33.9909 7.3417 33.9234 6.95869C33.7224 5.81407 33.47 4.67826 33.2396 3.54978H26.7501C26.5139 4.70761 26.2556 5.83021 26.0721 6.96309C26.0002 7.40333 25.7786 7.531 25.4059 7.61171C22.5734 8.20103 19.8771 9.31813 17.4577 10.9047C17.038 11.1791 16.7607 11.1365 16.382 10.8695C15.4634 10.2194 14.5153 9.61039 13.6832 9.05569C12.1086 10.6288 10.6014 12.1374 9.05319 13.6811C9.65047 14.5777 10.2742 15.5448 10.9346 16.4854C11.1562 16.8009 11.1796 17.0225 10.9595 17.3659C9.33761 19.8297 8.1982 22.579 7.6018 25.4678C7.52255 25.8552 7.34204 26.0004 6.95902 26.0679C5.81434 26.2705 4.67848 26.5214 3.54995 26.7518V33.2424C4.70783 33.4772 5.83049 33.7354 6.96343 33.9189C7.40368 33.9908 7.53136 34.2123 7.61207 34.5851C8.20167 37.4153 9.3183 40.1094 10.9037 42.527C11.1782 42.9467 11.1356 43.224 10.8685 43.6026C10.2184 44.5213 9.60938 45.4692 9.05466 46.3013L13.6803 50.9311C14.577 50.3339 15.5441 49.7102 16.4848 49.0498C16.8003 48.8282 17.0219 48.8048 17.3653 49.0249C19.831 50.6487 22.5831 51.7886 25.4749 52.3839C25.8623 52.4631 26.0076 52.6436 26.0751 53.0266C26.2776 54.1713 26.5286 55.3071 26.7619 56.4502L33.2396 56.4561Z" fill="#FFAA46"/>
<path d="M49.3283 29.992C49.3283 40.6164 40.6023 49.3419 29.9848 49.3258C19.3672 49.3096 10.6295 40.5753 10.6647 29.9685C10.6999 19.3617 19.3554 10.6832 29.9789 10.6641C40.6023 10.645 49.3239 19.3617 49.3283 29.992ZM31.7795 45.663C39.104 44.9983 46.0366 38.4607 45.7886 29.6119C45.5376 20.6986 38.065 13.7634 29.3346 14.2036C20.4267 14.6556 13.6321 22.1969 14.2191 30.9972C14.8149 39.8842 22.1863 45.2741 28.2384 45.6322V42.2115C20.641 40.9921 16.959 34.0202 17.7793 28.2707C22.9391 27.9478 27.079 29.7601 29.9965 34.1948C32.9521 29.7279 37.1008 27.9376 42.265 28.278C42.4778 31.3597 41.9715 34.2124 40.2516 36.7687C38.2132 39.7961 35.3574 41.5644 31.7795 42.1866V45.663ZM27.964 38.4871C27.2053 35.0269 24.0823 32.4471 21.5068 32.0773C22.0894 35.0944 24.9365 37.9383 27.9654 38.4871H27.964ZM31.9879 38.4959C35.3897 37.8664 38.178 34.5602 38.4451 32.0039C35.1079 32.9724 32.9741 35.1046 31.9894 38.4959H31.9879Z" fill="#22A33F"/>
<path d="M22.4798 24.878L20.1641 22.5462L22.5473 20.1748L24.8602 22.4816L22.4798 24.878Z" fill="#FFAA46"/>
<path d="M37.4646 20.1934L39.8009 22.5266L37.4646 24.8746L35.1165 22.5354L37.4646 20.1934Z" fill="#FFAA46"/>
<path d="M31.7119 21.1809H28.2705V17.7383H31.7119V21.1809Z" fill="#FFAA46"/>
</g>
<defs>
<clipPath id="clip0_1425_48677">
<rect width="60" height="60" fill="white"/>
</clipPath>
</defs>
</svg>
