<svg width="24" height="24" viewBox="0 0 24 24" fill="none" xmlns="http://www.w3.org/2000/svg">
<path d="M0 12C0 5.37258 5.37258 0 12 0C18.6274 0 24 5.37258 24 12C24 18.6274 18.6274 24 12 24C5.37258 24 0 18.6274 0 12Z" fill="#B7BBBF"/>
<path fill-rule="evenodd" clip-rule="evenodd" d="M5.43208 11.8734C8.93032 10.3493 11.263 9.34452 12.4302 8.85905C15.7627 7.47294 16.4552 7.23216 16.9066 7.22421C17.0058 7.22246 17.2278 7.24706 17.3716 7.36372C17.493 7.46223 17.5264 7.5953 17.5423 7.6887C17.5583 7.78209 17.5782 7.99485 17.5624 8.1611C17.3818 10.0586 16.6004 14.6633 16.2029 16.7885C16.0346 17.6877 15.7034 17.9892 15.3828 18.0188C14.6859 18.0829 14.1567 17.5582 13.4818 17.1158C12.4256 16.4235 11.829 15.9925 10.8038 15.3169C9.61902 14.5362 10.3871 14.107 11.0623 13.4058C11.239 13.2222 14.3094 10.4295 14.3688 10.1761C14.3762 10.1444 14.3831 10.0263 14.313 9.96397C14.2428 9.9016 14.1392 9.92293 14.0645 9.93989C13.9586 9.96393 12.2713 11.0791 9.00283 13.2855C8.52391 13.6143 8.09013 13.7746 7.70147 13.7662C7.27301 13.7569 6.44882 13.5239 5.83612 13.3247C5.08462 13.0804 4.48734 12.9513 4.53935 12.5364C4.56644 12.3203 4.86402 12.0993 5.43208 11.8734Z" fill="#F8F9FC"/>
</svg>
