<svg width="92" height="30" viewBox="0 0 92 30" fill="none" xmlns="http://www.w3.org/2000/svg">
<rect width="92" height="30" rx="2.6455" fill="black"/>
<path d="M46.5401 16.4318C44.8739 16.4318 43.555 17.6716 43.555 19.3935C43.555 21.0466 44.8739 22.3552 46.5401 22.3552C48.2062 22.3552 49.5252 21.1154 49.5252 19.3935C49.5252 17.6027 48.2062 16.4318 46.5401 16.4318ZM46.5401 21.1154C45.6376 21.1154 44.8739 20.3578 44.8739 19.3246C44.8739 18.2915 45.6376 17.5338 46.5401 17.5338C47.4425 17.5338 48.2062 18.2226 48.2062 19.3246C48.2062 20.3578 47.4425 21.1154 46.5401 21.1154ZM40.0839 16.4318C38.4178 16.4318 37.0988 17.6716 37.0988 19.3935C37.0988 21.0466 38.4178 22.3552 40.0839 22.3552C41.75 22.3552 43.069 21.1154 43.069 19.3935C43.069 17.6027 41.75 16.4318 40.0839 16.4318ZM40.0839 21.1154C39.1814 21.1154 38.4178 20.3578 38.4178 19.3246C38.4178 18.2915 39.1814 17.5338 40.0839 17.5338C40.9864 17.5338 41.75 18.2226 41.75 19.3246C41.75 20.3578 40.9864 21.1154 40.0839 21.1154ZM32.3782 17.3272V18.567H35.3633C35.2939 19.2558 35.0162 19.8068 34.6691 20.1512C34.2525 20.5644 33.5583 21.0466 32.3782 21.0466C30.5038 21.0466 29.1154 19.6001 29.1154 17.7405C29.1154 15.8808 30.5732 14.4344 32.3782 14.4344C33.3501 14.4344 34.1137 14.8476 34.6691 15.3298L35.5715 14.4344C34.8079 13.7456 33.836 13.1946 32.4476 13.1946C29.9484 13.1946 27.7964 15.2609 27.7964 17.7405C27.7964 20.22 29.9484 22.2863 32.4476 22.2863C33.836 22.2863 34.8079 21.8731 35.641 20.9777C36.474 20.1512 36.7517 18.9802 36.7517 18.0848C36.7517 17.8093 36.7517 17.5338 36.6823 17.3272H32.3782ZM63.8953 18.2915C63.6176 17.6027 62.9234 16.4318 61.3961 16.4318C59.8689 16.4318 58.6193 17.6027 58.6193 19.3935C58.6193 21.0466 59.8689 22.3552 61.535 22.3552C62.854 22.3552 63.687 21.5287 63.9647 21.0466L62.9928 20.3578C62.6457 20.8399 62.2292 21.1843 61.535 21.1843C60.8408 21.1843 60.4243 20.9088 60.0771 20.2889L64.0341 18.6359L63.8953 18.2915ZM59.8689 19.2558C59.8689 18.1537 60.7714 17.5338 61.3961 17.5338C61.8821 17.5338 62.368 17.8093 62.5069 18.1537L59.8689 19.2558ZM56.6061 22.0797H57.9251V13.4701H56.6061V22.0797ZM54.5235 17.0517C54.1764 16.7073 53.621 16.3629 52.9268 16.3629C51.4689 16.3629 50.0805 17.6716 50.0805 19.3246C50.0805 20.9777 51.3995 22.2175 52.9268 22.2175C53.621 22.2175 54.1764 21.8731 54.454 21.5287H54.5235V21.942C54.5235 23.044 53.8987 23.6639 52.9268 23.6639C52.1632 23.6639 51.6078 23.1129 51.4689 22.6307L50.3582 23.1129C50.7053 23.8705 51.5384 24.8348 52.9962 24.8348C54.5235 24.8348 55.773 23.9394 55.773 21.8042V16.5696H54.5235V17.0517ZM52.9962 21.1154C52.0937 21.1154 51.3301 20.3578 51.3301 19.3246C51.3301 18.2915 52.0937 17.5338 52.9962 17.5338C53.8987 17.5338 54.5929 18.2915 54.5929 19.3246C54.5929 20.3578 53.8987 21.1154 52.9962 21.1154ZM69.9349 13.4701H66.811V22.0797H68.13V18.8425H69.9349C71.3928 18.8425 72.7812 17.8093 72.7812 16.1563C72.7812 14.5032 71.3928 13.4701 69.9349 13.4701ZM70.0043 17.6027H68.13V14.641H70.0043C70.9762 14.641 71.5316 15.4675 71.5316 16.0874C71.4622 16.8451 70.9068 17.6027 70.0043 17.6027ZM77.9878 16.3629C77.0159 16.3629 76.044 16.7762 75.6969 17.6716L76.877 18.1537C77.1547 17.6716 77.5712 17.5338 78.0572 17.5338C78.7514 17.5338 79.3762 17.9471 79.4456 18.6359V18.7047C79.2373 18.567 78.682 18.3604 78.1266 18.3604C76.877 18.3604 75.6274 19.0491 75.6274 20.2889C75.6274 21.4598 76.6688 22.2175 77.7795 22.2175C78.682 22.2175 79.0985 21.8042 79.4456 21.3909H79.515V22.0797H80.7646V18.7736C80.6258 17.2583 79.4456 16.3629 77.9878 16.3629ZM77.8489 21.1154C77.4324 21.1154 76.8076 20.9088 76.8076 20.3578C76.8076 19.669 77.5712 19.4624 78.196 19.4624C78.7514 19.4624 79.0291 19.6001 79.3762 19.7379C79.2373 20.5644 78.5431 21.1154 77.8489 21.1154ZM85.1381 16.5696L83.6803 20.2889H83.6109L82.0836 16.5696H80.6952L82.9861 21.8042L81.6671 24.697H82.9861L86.5265 16.5696H85.1381ZM73.4754 22.0797H74.7944V13.4701H73.4754V22.0797Z" fill="white"/>
<path d="M6.34769 6.59674C6.13908 6.80536 6 7.15305 6 7.57028V22.9382C6 23.3555 6.13908 23.7031 6.34769 23.9118L6.41723 23.9813L15.04 15.3586V15.289V15.2195L6.34769 6.59674Z" fill="url(#paint0_linear_684_13711)"/>
<path d="M17.8911 18.2797L15.04 15.4286V15.2896V15.22L17.8911 12.369L17.9606 12.4385L21.368 14.3856C22.3416 14.9419 22.3416 15.8459 21.368 16.4022L17.8911 18.2797Z" fill="url(#paint1_linear_684_13711)"/>
<path d="M17.9605 18.2097L15.0399 15.2891L6.34766 23.9813C6.69535 24.329 7.18212 24.329 7.80796 24.0509L17.9605 18.2097Z" fill="url(#paint2_linear_684_13711)"/>
<path d="M17.9605 12.3689L7.80796 6.59718C7.18212 6.24949 6.69535 6.31903 6.34766 6.66672L15.0399 15.2895L17.9605 12.3689Z" fill="url(#paint3_linear_684_13711)"/>
<path opacity="0.2" d="M17.891 18.1405L7.80796 23.8426C7.25165 24.1903 6.76489 24.1208 6.41719 23.8426L6.34766 23.9122L6.41719 23.9817C6.76489 24.2599 7.25165 24.3294 7.80796 23.9817L17.891 18.1405Z" fill="black"/>
<path opacity="0.12" d="M6.34871 23.8425C6.14009 23.6339 6.07056 23.2862 6.07056 22.869V22.9385C6.07056 23.3557 6.20963 23.7034 6.41825 23.912V23.8425H6.34871Z" fill="black"/>
<path opacity="0.12" d="M21.369 16.1931L17.8921 18.1401L17.9616 18.2097L21.369 16.2626C21.8558 15.9844 22.0644 15.6368 22.0644 15.2891C22.0644 15.6368 21.7862 15.9149 21.369 16.1931Z" fill="black"/>
<path opacity="0.25" d="M7.80901 6.66653L21.369 14.3853C21.7862 14.6634 22.0644 14.9416 22.0644 15.2893C22.0644 14.9416 21.8557 14.5939 21.369 14.3157L7.80901 6.59699C6.83548 6.04068 6.07056 6.52745 6.07056 7.64006V7.7096C6.07056 6.59699 6.83548 6.11022 7.80901 6.66653Z" fill="white"/>
<path d="M28.3906 11.3255H27.9038V9.93473H28.321C28.6687 9.65658 28.8773 9.10027 28.8773 8.33535V6.24921H31.6589V9.93473H32.1456V11.3255H31.6589V10.4215H28.4601V11.3255H28.3906ZM29.3641 8.33535C29.3641 8.9612 29.225 9.5175 28.9469 9.93473H31.033V6.80551H29.2946V8.33535H29.3641Z" fill="white" stroke="white" stroke-width="0.10582" stroke-miterlimit="10"/>
<path d="M36.2478 9.86546C35.8306 10.2827 35.3438 10.4913 34.7179 10.4913C34.0921 10.4913 33.6053 10.2827 33.1881 9.86546C32.7709 9.44823 32.5623 8.96146 32.5623 8.33562C32.5623 7.70977 32.7709 7.223 33.1881 6.80578C33.6053 6.38855 34.0921 6.17993 34.7179 6.17993C35.3438 6.17993 35.8306 6.38855 36.2478 6.80578C36.665 7.223 36.8736 7.70977 36.8736 8.33562C36.8736 8.96146 36.665 9.44823 36.2478 9.86546ZM33.6053 9.51777C33.8835 9.79592 34.3007 10.0045 34.7179 10.0045C35.1352 10.0045 35.5524 9.86546 35.8306 9.51777C36.1087 9.23961 36.3173 8.82238 36.3173 8.33562C36.3173 7.84885 36.1782 7.43162 35.8306 7.15347C35.5524 6.87531 35.1352 6.6667 34.7179 6.6667C34.3007 6.6667 33.8835 6.80578 33.6053 7.15347C33.3272 7.43162 33.1186 7.84885 33.1186 8.33562C33.1186 8.82238 33.2576 9.23961 33.6053 9.51777Z" fill="white" stroke="white" stroke-width="0.10582" stroke-miterlimit="10"/>
<path d="M39.5856 10.4913C38.9598 10.4913 38.473 10.2827 38.0558 9.86546C37.6385 9.44823 37.4299 8.96146 37.4299 8.33562C37.4299 7.70977 37.6385 7.223 38.0558 6.80578C38.473 6.38855 38.9598 6.17993 39.5856 6.17993C40.2115 6.17993 40.6982 6.38855 41.1155 6.87531L40.7678 7.22301C40.4896 6.87531 40.0724 6.6667 39.5856 6.6667C39.0988 6.6667 38.7512 6.80578 38.4035 7.15347C38.0558 7.43162 37.9167 7.84885 37.9167 8.33562C37.9167 8.82238 38.0558 9.23961 38.4035 9.51777C38.6816 9.79592 39.0988 10.0045 39.5856 10.0045C40.0724 10.0045 40.4896 9.79592 40.8373 9.37869L41.185 9.72638C40.9764 9.935 40.7678 10.1436 40.4896 10.2827C40.2115 10.4218 39.9333 10.4913 39.5856 10.4913Z" fill="white" stroke="white" stroke-width="0.10582" stroke-miterlimit="10"/>
<path d="M43.4113 10.4215H42.855V6.73597H41.6729V6.24921H44.5239V6.73597H43.3418V10.4215H43.4113Z" fill="white" stroke="white" stroke-width="0.10582" stroke-miterlimit="10"/>
<path d="M46.6083 9.79564C46.3997 10.2824 46.052 10.5606 45.6348 10.5606C45.4957 10.5606 45.3566 10.5606 45.2176 10.491L45.3566 10.0043C45.4262 10.0738 45.5653 10.0738 45.6348 10.0738C45.7739 10.0738 45.8434 10.0738 45.9129 10.0043C45.9825 9.93471 46.052 9.86518 46.1216 9.7261L46.2606 9.37841L44.8699 6.31873H45.4957L46.5388 8.68303L47.5123 6.31873H48.2077L46.6083 9.79564Z" fill="white" stroke="white" stroke-width="0.10582" stroke-miterlimit="10"/>
<path d="M48.8359 10.4215V6.24921H51.8261V10.4215H51.2698V6.73597H49.3227V10.4215H48.8359Z" fill="white" stroke="white" stroke-width="0.10582" stroke-miterlimit="10"/>
<path d="M52.7988 10.4214V6.24915H53.3551V8.05714H55.4413V6.24915H55.9976V10.4214H55.4413V8.54391H53.3551V10.4214H52.7988Z" fill="white" stroke="white" stroke-width="0.10582" stroke-miterlimit="10"/>
<path d="M60.3772 9.86546C59.9599 10.2827 59.4732 10.4913 58.8473 10.4913C58.2215 10.4913 57.7347 10.2827 57.3175 9.86546C56.9003 9.44823 56.6917 8.96146 56.6917 8.33562C56.6917 7.70977 56.9003 7.223 57.3175 6.80578C57.7347 6.38855 58.2215 6.17993 58.8473 6.17993C59.4732 6.17993 59.9599 6.38855 60.3772 6.80578C60.7944 7.223 61.003 7.70977 61.003 8.33562C60.9335 8.96146 60.7249 9.44823 60.3772 9.86546ZM57.6652 9.51777C57.9433 9.79592 58.3606 10.0045 58.7778 10.0045C59.195 10.0045 59.6123 9.86546 59.8904 9.51777C60.1686 9.23961 60.3772 8.82238 60.3772 8.33562C60.3772 7.84885 60.2381 7.43162 59.8904 7.15347C59.6123 6.87531 59.195 6.6667 58.7778 6.6667C58.3606 6.6667 57.9433 6.80578 57.6652 7.15347C57.387 7.43162 57.1784 7.84885 57.1784 8.33562C57.1784 8.82238 57.387 9.23961 57.6652 9.51777Z" fill="white" stroke="white" stroke-width="0.10582" stroke-miterlimit="10"/>
<path d="M63.1592 10.4215V6.24921H64.689C65.0367 6.24921 65.3149 6.38828 65.5235 6.5969C65.7321 6.80551 65.8712 7.08367 65.8712 7.43136C65.8712 7.63997 65.8016 7.77905 65.7321 7.98766C65.6626 8.12674 65.5235 8.26582 65.3149 8.33535C65.5235 8.40489 65.6626 8.54397 65.8016 8.68304C65.9407 8.82212 66.0102 9.03074 66.0102 9.30889C66.0102 9.65658 65.8712 9.93473 65.6626 10.1433C65.3844 10.352 65.1063 10.491 64.7586 10.491H63.1592V10.4215ZM63.7155 8.0572H64.689C64.8976 8.0572 65.0367 7.98766 65.1758 7.84859C65.3149 7.70951 65.3844 7.57043 65.3844 7.43136C65.3844 7.29228 65.3149 7.1532 65.1758 7.01413C65.0367 6.87505 64.8976 6.80551 64.689 6.80551H63.7155V8.0572ZM63.7155 9.93473H64.8281C65.0367 9.93473 65.1758 9.86519 65.3149 9.72612C65.4539 9.58704 65.5235 9.44796 65.5235 9.23935C65.5235 9.10027 65.4539 8.89166 65.3149 8.75258C65.1758 8.61351 65.0367 8.54397 64.8281 8.54397H63.785V9.93473H63.7155Z" fill="white" stroke="white" stroke-width="0.10582" stroke-miterlimit="10"/>
<defs>
<linearGradient id="paint0_linear_684_13711" x1="14.2748" y1="7.43794" x2="2.60466" y2="19.1081" gradientUnits="userSpaceOnUse">
<stop stop-color="#00A0FF"/>
<stop offset="0.00657445" stop-color="#00A1FF"/>
<stop offset="0.2601" stop-color="#00BEFF"/>
<stop offset="0.5122" stop-color="#00D2FF"/>
<stop offset="0.7604" stop-color="#00DFFF"/>
<stop offset="1" stop-color="#00E3FF"/>
</linearGradient>
<linearGradient id="paint1_linear_684_13711" x1="22.6436" y1="15.2905" x2="5.81753" y2="15.2905" gradientUnits="userSpaceOnUse">
<stop stop-color="#FFE000"/>
<stop offset="0.4087" stop-color="#FFBD00"/>
<stop offset="0.7754" stop-color="#FFA500"/>
<stop offset="1" stop-color="#FF9C00"/>
</linearGradient>
<linearGradient id="paint2_linear_684_13711" x1="16.3799" y1="16.8857" x2="0.554216" y2="32.7114" gradientUnits="userSpaceOnUse">
<stop stop-color="#FF3A44"/>
<stop offset="1" stop-color="#C31162"/>
</linearGradient>
<linearGradient id="paint3_linear_684_13711" x1="4.19009" y1="1.50434" x2="11.257" y2="8.57116" gradientUnits="userSpaceOnUse">
<stop stop-color="#32A071"/>
<stop offset="0.0685" stop-color="#2DA771"/>
<stop offset="0.4762" stop-color="#15CF74"/>
<stop offset="0.8009" stop-color="#06E775"/>
<stop offset="1" stop-color="#00F076"/>
</linearGradient>
</defs>
</svg>
