<svg width="26" height="26" viewBox="0 0 26 26" fill="none" xmlns="http://www.w3.org/2000/svg">
<path fill-rule="evenodd" clip-rule="evenodd" d="M0.888184 13.1799C0.888184 6.55251 6.26077 1.17993 12.8882 1.17993C19.5156 1.17993 24.8882 6.55251 24.8882 13.1799C24.8882 19.8073 19.5156 25.1799 12.8882 25.1799C6.26077 25.1799 0.888184 19.8073 0.888184 13.1799Z" stroke="#FDFCFC"/>
<path fill-rule="evenodd" clip-rule="evenodd" d="M11.3016 6.77991H14.4822C17.9731 6.77991 19.2935 8.09866 19.2976 11.5896L19.3013 14.7702C19.3054 18.2611 17.9882 19.5799 14.4973 19.5799H11.3167C7.82575 19.5799 6.50541 18.2611 6.50131 14.7702L6.49757 11.5896C6.49346 8.09866 7.8107 6.77991 11.3016 6.77991ZM17.0459 9.80536C17.0464 10.2338 16.6995 10.5811 16.2711 10.5811C15.8426 10.5811 15.4949 10.2338 15.4944 9.80536C15.4939 9.37695 15.8408 9.0296 16.2693 9.0296C16.6977 9.0296 17.0454 9.37695 17.0459 9.80536ZM12.9345 9.88292C11.0727 9.88292 9.60048 11.3569 9.60267 13.2187C9.60477 15.0029 11.0804 16.4769 12.8647 16.4769C14.6489 16.4769 16.1211 15.0029 16.119 13.2187C16.1944 11.3569 14.7187 9.88292 12.9345 9.88292ZM12.9408 15.2357C11.7772 15.2357 10.9227 14.3047 10.9215 13.2187C10.9201 12.0551 11.85 11.2017 12.9361 11.2017C14.0997 11.2017 14.9541 12.1326 14.9554 13.2187C14.9567 14.3047 14.0269 15.2357 12.9408 15.2357Z" fill="#FDFCFC"/>
</svg>
