<svg width="20" height="20" viewBox="0 0 20 20" fill="none" xmlns="http://www.w3.org/2000/svg">
<path d="M18.4561 13.866C17.1512 13.866 15.8986 13.6572 14.7295 13.271C14.3641 13.1562 13.957 13.2397 13.6647 13.5215L11.3683 15.818C8.41413 14.3149 5.99238 11.9035 4.48922 8.94942L6.78571 6.64249C7.07799 6.36064 7.1615 5.95354 7.04668 5.58819C6.66045 4.41907 6.45168 3.16643 6.45168 1.86161C6.45168 1.28749 5.98194 0.817749 5.40782 0.817749H1.75431C1.18019 0.817749 0.710449 1.28749 0.710449 1.86161C0.710449 11.6635 8.65422 19.6072 18.4561 19.6072C19.0302 19.6072 19.4999 19.1375 19.4999 18.5634V14.9099C19.4999 14.3357 19.0302 13.866 18.4561 13.866ZM10.1052 0.817749V11.2563L13.2368 8.12477H19.4999V0.817749H10.1052Z" fill="#22A33F"/>
</svg>
