<svg width="20" height="22" viewBox="0 0 20 22" fill="none" xmlns="http://www.w3.org/2000/svg">
<path d="M5.23636 4.15867L3.6 2.42347L2.31818 3.79031L3.94545 5.52551L5.23636 4.15867ZM2.72727 9.64541H0V11.5842H2.72727V9.64541ZM10.9091 0H9.09091V2.85969H10.9091V0ZM17.6818 3.79031L16.4 2.42347L14.7727 4.15867L16.0545 5.52551L17.6818 3.79031ZM14.7636 17.0709L16.3909 18.8158L17.6727 17.449L16.0364 15.7138L14.7636 17.0709ZM17.2727 9.64541V11.5842H20V9.64541H17.2727ZM10 4.79847C6.99091 4.79847 4.54545 7.40612 4.54545 10.6148C4.54545 13.8235 6.99091 16.4311 10 16.4311C13.0091 16.4311 15.4545 13.8235 15.4545 10.6148C15.4545 7.40612 13.0091 4.79847 10 4.79847ZM9.09091 21.2296H10.9091V18.3699H9.09091V21.2296ZM2.31818 17.4393L3.6 18.8061L5.22727 17.0612L3.94545 15.6944L2.31818 17.4393Z" fill="#E7D217"/>
</svg>
