<svg width="60" height="60" viewBox="0 0 60 60" fill="none" xmlns="http://www.w3.org/2000/svg">
<rect x="0.5" y="0.5" width="59" height="59" rx="11.2188" fill="white" stroke="#EBEBEB"/>
<g filter="url(#filter0_d_716_13496)">
<mask id="mask0_716_13496" style="mask-type:alpha" maskUnits="userSpaceOnUse" x="9" y="9" width="42" height="42">
<path fill-rule="evenodd" clip-rule="evenodd" d="M19.6951 47.8556C25.8583 44.2903 30.0049 37.6266 30.0049 29.9944C30.0049 18.6065 20.7732 9.37476 9.38525 9.37476V29.9944C9.38525 37.6266 13.5319 44.2903 19.6951 47.8556Z" fill="#C4C4C4"/>
<path fill-rule="evenodd" clip-rule="evenodd" d="M50.6246 9.37476C39.2367 9.37476 30.0049 18.6065 30.0049 29.9944C30.0049 37.6266 34.1515 44.2903 40.3148 47.8556C46.478 44.2903 50.6246 37.6266 50.6246 29.9944V9.37476Z" fill="#C4C4C4"/>
<path fill-rule="evenodd" clip-rule="evenodd" d="M50.6246 29.9944V9.37476C39.2367 9.37476 30.0049 18.6065 30.0049 29.9944C30.0049 18.6065 20.7732 9.37476 9.38525 9.37476V29.9944C9.38525 37.6266 13.5319 44.2903 19.6951 47.8556C22.728 49.61 26.2492 50.6141 30.0049 50.6141C33.7607 50.6141 37.2819 49.61 40.3148 47.8556C46.478 44.2903 50.6246 37.6266 50.6246 29.9944Z" fill="#C4C4C4"/>
</mask>
<g mask="url(#mask0_716_13496)">
<circle cx="9.38481" cy="29.9944" r="20.6197" fill="url(#paint0_linear_716_13496)"/>
<circle cx="30.0049" cy="29.9944" r="20.6197" fill="url(#paint1_linear_716_13496)"/>
<g filter="url(#filter1_d_716_13496)">
<circle cx="50.625" cy="29.9944" r="20.6197" fill="url(#paint2_linear_716_13496)"/>
</g>
</g>
</g>
<defs>
<filter id="filter0_d_716_13496" x="7.62744" y="7.6167" width="44.7556" height="44.7552" filterUnits="userSpaceOnUse" color-interpolation-filters="sRGB">
<feFlood flood-opacity="0" result="BackgroundImageFix"/>
<feColorMatrix in="SourceAlpha" type="matrix" values="0 0 0 0 0 0 0 0 0 0 0 0 0 0 0 0 0 0 127 0" result="hardAlpha"/>
<feOffset/>
<feGaussianBlur stdDeviation="0.878906"/>
<feComposite in2="hardAlpha" operator="out"/>
<feColorMatrix type="matrix" values="0 0 0 0 0 0 0 0 0 0 0 0 0 0 0 0 0 0 0.15 0"/>
<feBlend mode="normal" in2="BackgroundImageFix" result="effect1_dropShadow_716_13496"/>
<feBlend mode="normal" in="SourceGraphic" in2="effect1_dropShadow_716_13496" result="shape"/>
</filter>
<filter id="filter1_d_716_13496" x="28.2476" y="7.61694" width="44.7549" height="44.755" filterUnits="userSpaceOnUse" color-interpolation-filters="sRGB">
<feFlood flood-opacity="0" result="BackgroundImageFix"/>
<feColorMatrix in="SourceAlpha" type="matrix" values="0 0 0 0 0 0 0 0 0 0 0 0 0 0 0 0 0 0 127 0" result="hardAlpha"/>
<feOffset/>
<feGaussianBlur stdDeviation="0.878906"/>
<feComposite in2="hardAlpha" operator="out"/>
<feColorMatrix type="matrix" values="0 0 0 0 0 0 0 0 0 0 0 0 0 0 0 0 0 0 0.15 0"/>
<feBlend mode="normal" in2="BackgroundImageFix" result="effect1_dropShadow_716_13496"/>
<feBlend mode="normal" in="SourceGraphic" in2="effect1_dropShadow_716_13496" result="shape"/>
</filter>
<linearGradient id="paint0_linear_716_13496" x1="9.37405" y1="10.4774" x2="38.1436" y2="48.2704" gradientUnits="userSpaceOnUse">
<stop stop-color="#05AFF8"/>
<stop offset="1" stop-color="#0592F8"/>
</linearGradient>
<linearGradient id="paint1_linear_716_13496" x1="9.37454" y1="9.36411" x2="35.1558" y2="49.7352" gradientUnits="userSpaceOnUse">
<stop stop-color="#05AFF8"/>
<stop offset="1" stop-color="#0592F8"/>
</linearGradient>
<linearGradient id="paint2_linear_716_13496" x1="50.625" y1="9.37476" x2="40.4296" y2="47.6258" gradientUnits="userSpaceOnUse">
<stop stop-color="#17FF4A"/>
<stop offset="1" stop-color="#17FFC7"/>
</linearGradient>
</defs>
</svg>
